<?xml version="1.0" encoding="UTF-8" standalone="no"?>
<!-- Created with Inkscape (http://www.inkscape.org/) -->

<svg
   xmlns:dc="http://purl.org/dc/elements/1.1/"
   xmlns:cc="http://creativecommons.org/ns#"
   xmlns:rdf="http://www.w3.org/1999/02/22-rdf-syntax-ns#"
   xmlns:svg="http://www.w3.org/2000/svg"
   xmlns="http://www.w3.org/2000/svg"
   xmlns:sodipodi="http://sodipodi.sourceforge.net/DTD/sodipodi-0.dtd"
   xmlns:inkscape="http://www.inkscape.org/namespaces/inkscape"
   width="159.98735mm"
   height="157.88153mm"
   viewBox="0 0 159.98735 157.88152"
   version="1.1"
   id="svg8"
   inkscape:version="0.92.3 (2405546, 2018-03-11)"
   sodipodi:docname="almost_linearly_separable_example.svg">
  <sodipodi:namedview
     id="base"
     pagecolor="#ffffff"
     bordercolor="#666666"
     borderopacity="1.0"
     inkscape:pageopacity="0.0"
     inkscape:pageshadow="2"
     inkscape:zoom="1.979899"
     inkscape:cx="-46.642756"
     inkscape:cy="269.56114"
     inkscape:document-units="mm"
     inkscape:current-layer="svg8"
     showgrid="false"
     showguides="false"
     inkscape:window-width="3773"
     inkscape:window-height="2098"
     inkscape:window-x="67"
     inkscape:window-y="98"
     inkscape:window-maximized="1"
     fit-margin-top="0"
     fit-margin-left="0"
     fit-margin-right="0"
     fit-margin-bottom="0" />
  <defs
     id="defs2" />
  <metadata
     id="metadata5">
    <rdf:RDF>
      <cc:Work
         rdf:about="">
        <dc:format>image/svg+xml</dc:format>
        <dc:type
           rdf:resource="http://purl.org/dc/dcmitype/StillImage" />
        <dc:title />
      </cc:Work>
    </rdf:RDF>
  </metadata>
  <g
     id="layer1"
     inkscape:groupmode="layer"
     inkscape:label="Layer 1"
     transform="translate(2.0039461,-65.040255)">
    <ellipse
       ry="2.1381562"
       rx="2.271791"
       cy="139.84552"
       cx="39.288624"
       id="path10"
       style="fill:#ff0000;stroke-width:0.26458332" />
    <ellipse
       ry="2.1381562"
       rx="2.271791"
       cy="136.23738"
       cx="57.462948"
       id="path10-3"
       style="fill:#ff0000;stroke-width:0.26458332" />
    <ellipse
       ry="2.1381562"
       rx="2.271791"
       cy="134.50012"
       cx="68.688271"
       id="path10-6"
       style="fill:#ff0000;stroke-width:0.26458332" />
    <ellipse
       ry="2.1381562"
       rx="2.271791"
       cy="134.7674"
       cx="68.821907"
       id="path10-7"
       style="fill:#ff0000;stroke-width:0.26458332" />
    <ellipse
       ry="2.1381562"
       rx="2.271791"
       cy="145.05728"
       cx="53.72118"
       id="path10-5"
       style="fill:#ff0000;stroke-width:0.26458332" />
    <ellipse
       ry="2.1381562"
       rx="2.271791"
       cy="152.27356"
       cx="62.941971"
       id="path10-35"
       style="fill:#ff0000;stroke-width:0.26458332" />
    <ellipse
       ry="2.1381562"
       rx="2.271791"
       cy="124.21025"
       cx="65.347397"
       id="path10-62"
       style="fill:#ff0000;stroke-width:0.26458332" />
    <ellipse
       ry="2.1381562"
       rx="2.271791"
       cy="145.99271"
       cx="72.563683"
       id="path10-9"
       style="fill:#ff0000;stroke-width:0.26458332" />
    <ellipse
       ry="2.1381562"
       rx="2.271791"
       cy="129.28838"
       cx="46.103992"
       id="path10-1"
       style="fill:#ff0000;stroke-width:0.26458332" />
    <ellipse
       ry="2.1381562"
       rx="2.271791"
       cy="159.22255"
       cx="49.578495"
       id="path10-2"
       style="fill:#ff0000;stroke-width:0.26458332" />
    <ellipse
       ry="2.1381562"
       rx="2.271791"
       cy="156.54987"
       cx="37.150467"
       id="path10-70"
       style="fill:#ff0000;stroke-width:0.26458332" />
    <ellipse
       ry="2.1381562"
       rx="2.271791"
       cy="168.04245"
       cx="83.051651"
       id="path10-93"
       style="fill:#0000ff;stroke-width:0.26458332" />
    <ellipse
       ry="2.1381562"
       rx="2.271791"
       cy="178.59959"
       cx="78.042702"
       id="path10-93-6"
       style="fill:#0000ff;stroke-width:0.26458332" />
    <ellipse
       ry="2.1381562"
       rx="2.271791"
       cy="177.12962"
       cx="94.747047"
       id="path10-93-0"
       style="fill:#0000ff;stroke-width:0.26458332" />
    <ellipse
       ry="2.1381562"
       rx="2.271791"
       cy="167.64156"
       cx="104.76965"
       id="path10-93-62"
       style="fill:#0000ff;stroke-width:0.26458332" />
    <ellipse
       ry="2.1381562"
       rx="2.271791"
       cy="158.95529"
       cx="107.04145"
       id="path10-93-61"
       style="fill:#0000ff;stroke-width:0.26458332" />
    <ellipse
       ry="2.1381562"
       rx="2.271791"
       cy="166.70612"
       cx="97.553375"
       id="path10-93-8"
       style="fill:#0000ff;stroke-width:0.26458332" />
    <ellipse
       ry="2.1381562"
       rx="2.271791"
       cy="155.21352"
       cx="99.290634"
       id="path10-93-7"
       style="fill:#0000ff;stroke-width:0.26458332" />
    <ellipse
       ry="2.1381562"
       rx="2.271791"
       cy="146.39362"
       cx="120.53856"
       id="path10-93-9"
       style="fill:#0000ff;stroke-width:0.26458332" />
    <ellipse
       ry="2.1381562"
       rx="2.271791"
       cy="142.51822"
       cx="115.19317"
       id="path10-93-2"
       style="fill:#0000ff;stroke-width:0.26458332" />
    <ellipse
       ry="2.1381562"
       rx="2.271791"
       cy="145.99272"
       cx="106.90781"
       id="path10-93-02"
       style="fill:#0000ff;stroke-width:0.26458332" />
    <ellipse
       ry="2.1381562"
       rx="2.271791"
       cy="154.81261"
       cx="116.12861"
       id="path10-93-3"
       style="fill:#0000ff;stroke-width:0.26458332" />
    <path
       inkscape:connector-curvature="0"
       id="path156"
       d="M 24.093166,209.83131 123.05532,110.04496"
       style="fill:none;stroke:#000000;stroke-width:0.41728395px;stroke-linecap:butt;stroke-linejoin:miter;stroke-opacity:1" />
    <path
       inkscape:connector-curvature="0"
       id="path339"
       d="M 5.6127638,91.700886 5.7461908,219.89306"
       style="fill:none;stroke:#000000;stroke-width:0.30993277px;stroke-linecap:butt;stroke-linejoin:miter;stroke-opacity:1" />
    <path
       inkscape:connector-curvature="0"
       id="path341"
       d="M 0.66732907,215.08147 157.0217,214.81502"
       style="fill:none;stroke:#000000;stroke-width:0.29872999px;stroke-linecap:butt;stroke-linejoin:miter;stroke-opacity:1" />
    <g
       transform="matrix(0.5,0,0,0.5,109.1659,171.36078)"
       id="g654">
      <g
         style="font-style:normal;font-variant:normal;font-weight:normal;font-stretch:normal;letter-spacing:normal;word-spacing:normal;text-anchor:start;fill:none;fill-opacity:1;fill-rule:evenodd;stroke:#000000;stroke-linecap:butt;stroke-linejoin:miter;stroke-miterlimit:10.43299961;stroke-dasharray:none;stroke-dashoffset:0;stroke-opacity:1"
         word-spacing="normal"
         letter-spacing="normal"
         font-size-adjust="none"
         font-stretch="normal"
         font-weight="normal"
         font-variant="normal"
         font-style="normal"
         stroke-miterlimit="10.433"
         xml:space="preserve"
         transform="matrix(0.3,0,0,-0.3,-52.5,222.75)"
         id="content"><path
           style="fill:#000000;stroke-width:0"
           inkscape:connector-curvature="0"
           id="path649"
           d="m 472.16,421.25 0.03,0.13 0.04,0.15 0.04,0.16 0.04,0.18 0.06,0.19 0.06,0.21 0.06,0.22 0.07,0.22 0.08,0.23 0.09,0.24 0.1,0.25 0.1,0.24 0.11,0.25 0.12,0.25 0.13,0.25 0.14,0.25 0.15,0.24 0.15,0.24 0.17,0.23 0.18,0.22 0.18,0.22 0.2,0.2 0.21,0.19 0.22,0.18 0.23,0.16 0.25,0.14 0.12,0.07 0.13,0.06 0.14,0.05 0.13,0.05 0.14,0.05 0.14,0.04 0.15,0.03 0.15,0.03 0.15,0.02 0.16,0.02 0.16,0.01 h 0.16 c 0.25,0 1.44,0 2.48,-0.64 -1.39,-0.25 -2.39,-1.5 -2.39,-2.69 0,-0.79 0.55,-1.75 1.89,-1.75 1.1,0 2.69,0.89 2.69,2.89 0,2.6 -2.94,3.28 -4.63,3.28 -2.89,0 -4.64,-2.64 -5.23,-3.78 -1.25,3.28 -3.94,3.78 -5.37,3.78 -5.19,0 -8.04,-6.42 -8.04,-7.67 0,-0.5 0.5,-0.5 0.61,-0.5 0.39,0 0.55,0.11 0.64,0.55 1.69,5.28 4.99,6.53 6.68,6.53 0.95,0 2.68,-0.44 2.68,-3.33 0,-1.54 -0.84,-4.89 -2.68,-11.86 -0.8,-3.09 -2.54,-5.18 -4.74,-5.18 -0.3,0 -1.44,0 -2.48,0.65 1.25,0.24 2.34,1.28 2.34,2.69 0,1.34 -1.09,1.73 -1.84,1.73 -1.5,0 -2.75,-1.29 -2.75,-2.89 0,-2.28 2.5,-3.28 4.68,-3.28 3.3,0 5.08,3.49 5.24,3.78 0.59,-1.84 2.39,-3.78 5.37,-3.78 5.14,0 7.99,6.42 7.99,7.67 0,0.5 -0.45,0.5 -0.61,0.5 -0.44,0 -0.55,-0.2 -0.64,-0.54 -1.64,-5.33 -5.03,-6.53 -6.63,-6.53 -1.95,0 -2.75,1.59 -2.75,3.29 0,1.1 0.3,2.19 0.86,4.38 z" /><path
           style="fill:#000000;stroke-width:0"
           inkscape:connector-curvature="0"
           id="path651"
           d="m 495.63,420.92 v 0.04 0.04 0.05 0.04 0.03 0.04 0.04 0.03 0.04 0.03 l -0.01,0.03 v 0.03 0.03 l -0.01,0.03 v 0.03 0.02 l -0.01,0.03 v 0.02 l -0.01,0.03 v 0.02 l -0.01,0.04 -0.02,0.04 -0.02,0.03 -0.02,0.03 -0.02,0.03 -0.02,0.03 -0.03,0.02 -0.03,0.02 -0.03,0.02 -0.04,0.01 -0.04,0.01 -0.05,0.02 h -0.02 -0.02 l -0.03,0.01 h -0.03 l -0.02,0.01 h -0.03 -0.03 -0.03 -0.03 l -0.04,0.01 h -0.03 -0.04 -0.03 -0.04 -0.04 -0.04 -0.04 -0.04 -0.05 -0.04 c -2.24,-2.2 -5.39,-2.23 -6.83,-2.23 v -1.25 c 0.84,0 3.14,0 5.04,0.97 v -17.77 c 0,-1.16 0,-1.61 -3.48,-1.61 h -1.31 v -1.25 c 0.62,0.03 4.9,0.14 6.2,0.14 1.08,0 5.47,-0.11 6.24,-0.14 v 1.25 h -1.33 c -3.49,0 -3.49,0.45 -3.49,1.61 z" /></g>    </g>
    <g
       transform="matrix(0.5,0,0,0.5,-44.297946,45.075933)"
       id="g764">
      <g
         style="font-style:normal;font-variant:normal;font-weight:normal;font-stretch:normal;letter-spacing:normal;word-spacing:normal;text-anchor:start;fill:none;fill-opacity:1;fill-rule:evenodd;stroke:#000000;stroke-linecap:butt;stroke-linejoin:miter;stroke-miterlimit:10.43299961;stroke-dasharray:none;stroke-dashoffset:0;stroke-opacity:1"
         id="g762"
         transform="matrix(0.3,0,0,-0.3,-52.5,222.75)"
         xml:space="preserve"
         stroke-miterlimit="10.433"
         font-style="normal"
         font-variant="normal"
         font-weight="normal"
         font-stretch="normal"
         font-size-adjust="none"
         letter-spacing="normal"
         word-spacing="normal"><path
           style="fill:#000000;stroke-width:0"
           inkscape:connector-curvature="0"
           d="m 472.16,421.25 0.03,0.13 0.04,0.15 0.04,0.16 0.04,0.18 0.06,0.19 0.06,0.21 0.06,0.22 0.07,0.22 0.08,0.23 0.09,0.24 0.1,0.25 0.1,0.24 0.11,0.25 0.12,0.25 0.13,0.25 0.14,0.25 0.15,0.24 0.15,0.24 0.17,0.23 0.18,0.22 0.18,0.22 0.2,0.2 0.21,0.19 0.22,0.18 0.23,0.16 0.25,0.14 0.12,0.07 0.13,0.06 0.14,0.05 0.13,0.05 0.14,0.05 0.14,0.04 0.15,0.03 0.15,0.03 0.15,0.02 0.16,0.02 0.16,0.01 h 0.16 c 0.25,0 1.44,0 2.48,-0.64 -1.39,-0.25 -2.39,-1.5 -2.39,-2.69 0,-0.79 0.55,-1.75 1.89,-1.75 1.1,0 2.69,0.89 2.69,2.89 0,2.6 -2.94,3.28 -4.63,3.28 -2.89,0 -4.64,-2.64 -5.23,-3.78 -1.25,3.28 -3.94,3.78 -5.37,3.78 -5.19,0 -8.04,-6.42 -8.04,-7.67 0,-0.5 0.5,-0.5 0.61,-0.5 0.39,0 0.55,0.11 0.64,0.55 1.69,5.28 4.99,6.53 6.68,6.53 0.95,0 2.68,-0.44 2.68,-3.33 0,-1.54 -0.84,-4.89 -2.68,-11.86 -0.8,-3.09 -2.54,-5.18 -4.74,-5.18 -0.3,0 -1.44,0 -2.48,0.65 1.25,0.24 2.34,1.28 2.34,2.69 0,1.34 -1.09,1.73 -1.84,1.73 -1.5,0 -2.75,-1.29 -2.75,-2.89 0,-2.28 2.5,-3.28 4.68,-3.28 3.3,0 5.08,3.49 5.24,3.78 0.59,-1.84 2.39,-3.78 5.37,-3.78 5.14,0 7.99,6.42 7.99,7.67 0,0.5 -0.45,0.5 -0.61,0.5 -0.44,0 -0.55,-0.2 -0.64,-0.54 -1.64,-5.33 -5.03,-6.53 -6.63,-6.53 -1.95,0 -2.75,1.59 -2.75,3.29 0,1.1 0.3,2.19 0.86,4.38 z"
           id="path758" /><path
           style="fill:#000000;stroke-width:0"
           inkscape:connector-curvature="0"
           d="m 501.55,405.11 h -1.18 c -0.1,-0.77 -0.46,-2.83 -0.91,-3.18 -0.26,-0.2 -2.95,-0.2 -3.44,-0.2 h -6.42 c 3.66,3.23 4.88,4.2 6.97,5.84 2.58,2.07 4.98,4.22 4.98,7.54 0,4.21 -3.68,6.79 -8.15,6.79 -4.31,0 -7.25,-3.03 -7.25,-6.23 0,-1.78 1.5,-1.96 1.86,-1.96 0.83,0 1.84,0.6 1.84,1.85 0,0.62 -0.25,1.84 -2.06,1.84 1.08,2.47 3.45,3.24 5.09,3.24 3.49,0 5.3,-2.71 5.3,-5.53 0,-3.04 -2.16,-5.44 -3.28,-6.69 l -8.39,-8.3 c -0.36,-0.31 -0.36,-0.39 -0.36,-1.36 h 14.36 z"
           id="path760" /></g>    </g>
    <g
       transform="translate(76.773152,76.53743)"
       id="g1135">
      <g
         id="g2114"
         transform="translate(-11.49259,-0.80180858)">
        <g
           word-spacing="normal"
           letter-spacing="normal"
           font-size-adjust="none"
           font-stretch="normal"
           font-weight="normal"
           font-variant="normal"
           font-style="normal"
           stroke-miterlimit="10.433"
           xml:space="preserve"
           transform="matrix(0.15886084,0,0,-0.15886084,-27.800647,95.631382)"
           id="g2112"
           style="font-style:normal;font-variant:normal;font-weight:normal;font-stretch:normal;letter-spacing:normal;word-spacing:normal;text-anchor:start;fill:none;fill-opacity:1;fill-rule:evenodd;stroke:#000000;stroke-linecap:butt;stroke-linejoin:miter;stroke-miterlimit:10.43299961;stroke-dasharray:none;stroke-dashoffset:0;stroke-opacity:1"><path
             id="path2096"
             d="m 492.24,424.93 0.05,0.12 0.04,0.11 0.03,0.06 0.03,0.05 0.03,0.05 0.04,0.05 0.04,0.04 0.04,0.05 0.05,0.04 0.06,0.05 0.06,0.04 0.06,0.04 0.08,0.03 0.08,0.04 0.08,0.03 0.1,0.03 0.11,0.03 0.11,0.03 0.13,0.02 0.06,0.01 0.07,0.02 0.07,0.01 0.08,0.01 0.07,0.01 0.08,0.01 0.09,0.01 h 0.08 l 0.09,0.01 0.1,0.01 h 0.09 l 0.1,0.01 0.1,0.01 h 0.11 l 0.11,0.01 h 0.11 0.12 l 0.12,0.01 h 0.12 0.13 0.13 0.14 v 2.34 c -1.16,-0.11 -2.64,-0.15 -3.84,-0.15 -1.35,0 -3.69,0.11 -4.79,0.15 v -2.34 c 0.46,0 2.89,-0.05 2.89,-0.59 0,-0.16 -0.14,-0.46 -0.2,-0.61 l -5.22,-12.75 -5.68,13.95 h 2.79 v 2.34 c -1.59,-0.04 -4.19,-0.15 -5.69,-0.15 -2.09,0 -4.18,0.11 -4.98,0.15 v -2.34 h 2.94 c 1.04,-2.5 1.04,-2.59 1.04,-2.64 0,-0.2 -0.14,-0.5 -0.18,-0.66 l -3.94,-9.56 -5.23,12.86 h 2.78 v 2.34 c -2.03,-0.11 -4.08,-0.15 -6.13,-0.15 -1.55,0 -3.73,0.11 -5.42,0.15 v -2.34 h 2.94 l 7.62,-18.64 c 0.35,-0.84 0.55,-1.34 1.78,-1.34 1.25,0 1.46,0.5 1.8,1.34 l 5.28,12.91 5.28,-12.91 c 0.36,-0.84 0.55,-1.34 1.8,-1.34 1.25,0 1.45,0.5 1.8,1.34 z"
             inkscape:connector-curvature="0"
             style="fill:#000000;stroke-width:0" /><path
             id="path2098"
             d="m 518.36,418.65 v 0.14 l -0.01,0.13 -0.02,0.13 -0.02,0.13 -0.03,0.13 -0.04,0.13 -0.04,0.12 -0.05,0.12 -0.05,0.11 -0.06,0.12 -0.06,0.11 -0.07,0.11 -0.08,0.1 -0.08,0.1 -0.08,0.1 -0.09,0.09 -0.09,0.08 -0.09,0.09 -0.1,0.08 -0.11,0.07 -0.1,0.07 -0.11,0.06 -0.12,0.06 -0.12,0.05 -0.12,0.05 -0.12,0.04 -0.12,0.04 -0.13,0.03 -0.13,0.02 -0.13,0.02 -0.14,0.01 h -0.13 c -1.44,0 -2.64,-1.18 -2.64,-2.64 0,-1.44 1.2,-2.64 2.64,-2.64 1.45,0 2.64,1.2 2.64,2.64 z"
             inkscape:connector-curvature="0"
             style="fill:#000000;stroke-width:0" /><path
             id="path2100"
             d="m 550.99,418.45 5.83,6.48 c 0.65,0.71 0.95,1.05 5.09,1.05 v 2.34 c -1.75,-0.11 -4.34,-0.15 -4.59,-0.15 -1.25,0 -3.74,0.11 -5.13,0.15 v -2.34 c 0.69,0 1.3,-0.11 1.89,-0.45 -0.2,-0.3 -0.2,-0.39 -0.4,-0.6 l -4.18,-4.68 -4.89,5.73 h 2 v 2.34 c -1.29,-0.04 -4.43,-0.15 -6.03,-0.15 -1.59,0 -3.84,0.11 -5.48,0.15 v -2.34 h 3.53 l 7.78,-9.17 -6.53,-7.33 c -0.85,-0.94 -2.64,-0.94 -5.03,-0.94 v -2.34 c 1.75,0.09 4.34,0.16 4.58,0.16 1.25,0 4.14,-0.11 5.14,-0.16 v 2.34 c -0.89,0 -1.85,0.25 -1.85,0.55 0,0.05 0,0.09 0.35,0.5 l 4.84,5.42 5.47,-6.47 h -1.94 v -2.34 c 1.3,0.05 4.33,0.16 5.99,0.16 1.59,0 3.82,-0.11 5.47,-0.16 v 2.34 h -3.54 z"
             inkscape:connector-curvature="0"
             style="fill:#000000;stroke-width:0" /><path
             id="path2102"
             d="m 595.41,417.65 h 13.91 c 0.68,0 1.64,0 1.64,1 0,1 -0.96,1 -1.64,1 h -13.91 v 13.96 c 0,0.68 0,1.64 -1,1.64 -0.98,0 -0.98,-0.96 -0.98,-1.64 v -13.96 h -13.96 c -0.7,0 -1.64,0 -1.64,-1 0,-1 0.94,-1 1.64,-1 h 13.96 v -13.94 c 0,-0.7 0,-1.65 0.98,-1.65 1,0 1,0.95 1,1.65 z"
             inkscape:connector-curvature="0"
             style="fill:#000000;stroke-width:0" /><path
             id="path2104"
             d="m 636.74,440.23 v 0 0.01 0 0.01 0.02 0.01 l -0.01,0.02 v 0.02 0.02 l -0.01,0.02 v 0.02 l -0.01,0.02 -0.01,0.02 v 0.03 l -0.02,0.02 -0.01,0.03 -0.01,0.02 -0.02,0.03 -0.02,0.02 -0.02,0.02 -0.02,0.03 -0.01,0.01 -0.01,0.01 -0.02,0.01 -0.01,0.01 -0.01,0.01 -0.02,0.01 -0.02,0.01 -0.01,0.01 -0.02,0.01 -0.02,0.01 h -0.02 l -0.02,0.01 -0.02,0.01 h -0.02 l -0.02,0.01 -0.02,0.01 h -0.02 -0.03 l -0.02,0.01 h -0.03 -0.03 l -0.02,0.01 h -0.03 -0.03 c -1.16,0 -4.78,-0.41 -6.08,-0.5 -0.41,-0.05 -0.95,-0.1 -0.95,-1 0,-0.6 0.45,-0.6 1.2,-0.6 2.39,0 2.48,-0.34 2.48,-0.84 0,-0.36 -0.45,-2.05 -0.7,-3.09 l -4.08,-16.24 c -0.59,-2.5 -0.79,-3.3 -0.79,-5.03 0,-4.73 2.64,-7.83 6.32,-7.83 v 1.1 c -1.7,0 -3.34,1.34 -3.34,5.03 0,0.95 0,1.89 0.8,5.03 l 1.09,4.59 c 0.3,1.1 0.3,1.19 0.75,1.74 2.44,3.23 4.69,3.98 5.98,3.98 1.8,0 3.15,-1.48 3.15,-4.69 0,-2.93 -1.66,-8.65 -2.55,-10.56 -1.64,-3.33 -3.94,-5.12 -5.88,-5.12 v -1.1 c 5.88,0 12,7.42 12,14.6 0,4.53 -2.64,7.96 -6.62,7.96 -2.28,0 -4.33,-1.43 -5.83,-2.98 z"
             inkscape:connector-curvature="0"
             style="fill:#000000;stroke-width:0" /><path
             id="path2106"
             d="m 694.23,422.5 h 0.14 0.14 0.15 l 0.07,0.01 h 0.07 l 0.07,0.01 0.07,0.01 0.07,0.01 0.07,0.01 0.07,0.01 0.07,0.02 0.06,0.02 0.07,0.02 0.06,0.02 0.05,0.03 0.06,0.03 0.05,0.04 0.05,0.03 0.05,0.05 0.04,0.04 0.04,0.05 0.02,0.03 0.02,0.03 0.02,0.02 0.01,0.03 0.02,0.03 0.01,0.04 0.01,0.03 0.01,0.04 0.01,0.03 0.01,0.04 0.01,0.04 v 0.04 l 0.01,0.04 v 0.04 0.04 0.05 c 0,1 -0.95,1 -1.64,1 h -29.84 c -0.7,0 -1.64,0 -1.64,-1 0,-0.98 0.94,-0.98 1.69,-0.98 z"
             inkscape:connector-curvature="0"
             style="fill:#000000;stroke-width:0" /><path
             id="path2108"
             d="m 694.27,412.82 h 0.07 0.06 l 0.14,0.01 h 0.14 0.07 l 0.07,0.01 0.07,0.01 h 0.07 l 0.07,0.01 0.06,0.02 0.07,0.01 0.07,0.02 0.06,0.02 0.06,0.02 0.06,0.02 0.06,0.03 0.05,0.03 0.06,0.04 0.05,0.04 0.04,0.04 0.04,0.05 0.03,0.02 0.01,0.03 0.02,0.02 0.02,0.03 0.02,0.03 0.01,0.03 0.02,0.03 0.01,0.03 0.01,0.04 0.01,0.03 0.01,0.04 0.01,0.04 0.01,0.04 v 0.04 l 0.01,0.04 v 0.04 0.05 0.04 c 0,1 -0.95,1 -1.68,1 h -29.75 c -0.75,0 -1.69,0 -1.69,-1 0,-1 0.94,-1 1.64,-1 z"
             inkscape:connector-curvature="0"
             style="fill:#000000;stroke-width:0" /><path
             id="path2110"
             d="m 735.47,422.14 v 0.74 l -0.02,0.75 -0.02,0.75 -0.03,0.74 -0.04,0.75 -0.06,0.74 -0.08,0.74 -0.09,0.73 -0.12,0.73 -0.14,0.73 -0.16,0.72 -0.19,0.72 -0.22,0.72 -0.24,0.7 -0.28,0.7 -0.15,0.35 -0.16,0.34 c -2.28,4.8 -6.38,5.6 -8.47,5.6 -2.98,0 -6.62,-1.3 -8.67,-5.94 -1.6,-3.44 -1.85,-7.33 -1.85,-11.31 0,-3.74 0.21,-8.22 2.25,-12 2.15,-4.03 5.79,-5.03 8.22,-5.03 v 1.09 c -1.93,0 -4.89,1.25 -5.78,6.03 -0.55,2.98 -0.55,7.56 -0.55,10.52 0,3.18 0,6.46 0.41,9.15 0.94,5.94 4.67,6.38 5.92,6.38 1.64,0 4.94,-0.89 5.88,-5.83 0.5,-2.78 0.5,-6.58 0.5,-9.7 0,-3.75 0,-7.13 -0.55,-10.32 -0.75,-4.73 -3.59,-6.23 -5.83,-6.23 v 0 -1.09 c 2.69,0 6.47,1.04 8.67,5.78 1.6,3.43 1.85,7.31 1.85,11.25 z"
             inkscape:connector-curvature="0"
             style="fill:#000000;stroke-width:0" /></g>      </g>
    </g>
    <ellipse
       ry="2.1381562"
       rx="2.271791"
       cy="161.18251"
       cx="89.402229"
       id="path10-93-76"
       style="fill:#0000ff;stroke-width:0.26458332" />
    <ellipse
       ry="2.1381562"
       rx="2.271791"
       cy="149.82356"
       cx="92.743103"
       id="path10-93-5"
       style="fill:#0000ff;stroke-width:0.26458332" />
    <ellipse
       ry="2.1381562"
       rx="2.271791"
       cy="144.61182"
       cx="66.951591"
       id="path10-93-69"
       style="fill:#0000ff;stroke-width:0.26458332" />
    <ellipse
       ry="2.1381562"
       rx="2.271791"
       cy="141.53821"
       cx="86.195"
       id="path10-93-37"
       style="fill:#0000ff;stroke-width:0.26458332" />
    <ellipse
       ry="2.1381562"
       rx="2.271791"
       cy="153.56534"
       cx="83.522301"
       id="path10-93-4"
       style="fill:#0000ff;stroke-width:0.26458332" />
    <ellipse
       ry="2.1381562"
       rx="2.271791"
       cy="166.52792"
       cx="74.702408"
       id="path10-93-52"
       style="fill:#0000ff;stroke-width:0.26458332" />
    <ellipse
       ry="2.1381562"
       rx="2.271791"
       cy="171.73967"
       cx="89.402237"
       id="path10-93-6-5"
       style="fill:#0000ff;stroke-width:0.26458332" />
    <ellipse
       ry="2.1381562"
       rx="2.271791"
       cy="131.91652"
       cx="83.522301"
       id="path10-93-6-4"
       style="fill:#0000ff;stroke-width:0.26458332" />
    <ellipse
       ry="2.1381562"
       rx="2.271791"
       cy="164.1225"
       cx="58.666237"
       id="path10-93-6-7"
       style="fill:#0000ff;stroke-width:0.26458332" />
    <ellipse
       ry="2.1381562"
       rx="2.271791"
       cy="159.31163"
       cx="76.172386"
       id="path10-93-6-5-4"
       style="fill:#0000ff;stroke-width:0.26458332" />
    <ellipse
       ry="2.1381562"
       rx="2.271791"
       cy="188.44402"
       cx="86.72953"
       id="path10-93-6-5-43"
       style="fill:#0000ff;stroke-width:0.26458332" />
    <ellipse
       ry="2.1381562"
       rx="2.271791"
       cy="139.40005"
       cx="104.36934"
       id="path10-93-6-5-0"
       style="fill:#0000ff;stroke-width:0.26458332" />
    <ellipse
       ry="2.1381562"
       rx="2.271791"
       cy="153.83261"
       cx="69.223381"
       id="path10-35-7"
       style="fill:#ff0000;stroke-width:0.26458332" />
    <ellipse
       ry="2.1381562"
       rx="2.271791"
       cy="142.60728"
       cx="98.222122"
       id="path10-35-8"
       style="fill:#ff0000;stroke-width:0.26458332" />
    <ellipse
       ry="2.1381562"
       rx="2.271791"
       cy="155.43622"
       cx="91.674026"
       id="path10-35-6"
       style="fill:#ff0000;stroke-width:0.26458332" />
    <ellipse
       ry="2.1381562"
       rx="2.271791"
       cy="176.41689"
       cx="72.965157"
       id="path10-35-88"
       style="fill:#ff0000;stroke-width:0.26458332" />
    <ellipse
       ry="2.1381562"
       rx="2.271791"
       cy="141.67186"
       cx="76.439659"
       id="path10-35-4"
       style="fill:#ff0000;stroke-width:0.26458332" />
    <ellipse
       ry="2.1381562"
       rx="2.271791"
       cy="163.72159"
       cx="37.551945"
       id="path10-35-3"
       style="fill:#ff0000;stroke-width:0.26458332" />
    <ellipse
       ry="2.1381562"
       rx="2.271791"
       cy="152.49626"
       cx="45.837299"
       id="path10-35-1"
       style="fill:#ff0000;stroke-width:0.26458332" />
    <ellipse
       ry="2.1381562"
       rx="2.271791"
       cy="121.493"
       cx="74.034233"
       id="path10-35-49"
       style="fill:#ff0000;stroke-width:0.26458332" />
    <ellipse
       ry="2.1381562"
       rx="2.271791"
       cy="168.79971"
       cx="61.338932"
       id="path10-35-2"
       style="fill:#ff0000;stroke-width:0.26458332" />
  </g>
  <g
     transform="translate(-43.671707,-27.721634)"
     id="g6662">
    <g
       style="font-style:normal;font-variant:normal;font-weight:normal;font-stretch:normal;letter-spacing:normal;word-spacing:normal;text-anchor:start;fill:none;fill-opacity:1;fill-rule:evenodd;stroke:#000000;stroke-linecap:butt;stroke-linejoin:miter;stroke-miterlimit:10.43299961;stroke-dasharray:none;stroke-dashoffset:0;stroke-opacity:1"
       id="g6660"
       transform="matrix(0.20881453,0,0,-0.20881453,-36.542543,119.99051)"
       xml:space="preserve"
       stroke-miterlimit="10.433"
       font-style="normal"
       font-variant="normal"
       font-weight="normal"
       font-stretch="normal"
       font-size-adjust="none"
       letter-spacing="normal"
       word-spacing="normal"><path
         style="fill:#000000;stroke-width:0"
         inkscape:connector-curvature="0"
         d="m 465.08,411.82 -0.2,-0.34 -0.2,-0.32 -0.2,-0.31 -0.2,-0.28 -0.2,-0.27 -0.2,-0.25 -0.2,-0.23 -0.2,-0.22 -0.2,-0.19 -0.19,-0.19 -0.2,-0.17 -0.2,-0.15 -0.19,-0.15 -0.19,-0.12 -0.2,-0.12 -0.19,-0.11 -0.19,-0.09 -0.19,-0.09 -0.19,-0.07 -0.19,-0.07 -0.18,-0.06 -0.19,-0.05 -0.18,-0.04 -0.18,-0.04 -0.18,-0.03 -0.18,-0.03 -0.35,-0.04 -0.34,-0.02 -0.33,-0.02 c -0.55,-0.05 -0.59,-0.91 -0.59,-0.96 0,-0.14 0.04,-0.59 0.59,-0.59 1.25,0 2.7,0.16 3.99,0.16 1.54,0 3.14,-0.16 4.64,-0.16 0.25,0 0.89,0 0.89,0.95 0,0.55 -0.39,0.55 -0.8,0.6 -0.3,0.04 -2.09,0.14 -2.09,1.68 0,0.46 0.25,1.05 0.7,1.89 l 3.59,6.29 h 11.36 l -0.11,1.54 h -10.4 l 9.26,16.3 1.14,-16.3 0.11,-1.54 0.55,-8.27 c 0,-1 -1.2,-1.59 -3.34,-1.59 -0.55,0 -1.15,0 -1.15,-0.96 0,-0.59 0.6,-0.59 0.75,-0.59 1.85,0 3.83,0.16 5.72,0.16 1.75,0 3.55,-0.16 5.24,-0.16 0.29,0 0.89,0 0.89,0.89 0,0.66 -0.39,0.66 -1.19,0.66 -2.59,0 -2.73,0.39 -2.84,1.68 l -2.14,31.19 c -0.05,1.09 -0.1,1.25 -0.89,1.25 -0.8,0 -1,-0.34 -1.3,-0.89 z"
         id="path6540" /><path
         style="fill:#000000;stroke-width:0"
         inkscape:connector-curvature="0"
         d="m 506.37,439.53 0.01,0.01 v 0.02 l 0.01,0.02 v 0.02 l 0.01,0.02 v 0.02 l 0.01,0.02 0.01,0.02 v 0.02 l 0.01,0.03 0.01,0.04 0.01,0.05 0.02,0.05 0.01,0.05 v 0.03 l 0.01,0.02 0.01,0.02 v 0.02 0.03 l 0.01,0.02 v 0.02 l 0.01,0.02 v 0.01 0.02 0.02 l 0.01,0.01 v 0.01 0.01 c 0,0.44 -0.3,0.6 -0.71,0.6 -0.15,0 -0.64,-0.05 -0.79,-0.11 l -4.94,-0.39 c -0.59,-0.05 -1.14,-0.1 -1.14,-1.05 0,-0.55 0.5,-0.55 1.2,-0.55 2.39,0 2.49,-0.34 2.49,-0.84 0,-0.16 -0.16,-0.8 -0.16,-0.84 l -6.22,-24.93 c -0.05,-0.2 -0.3,-1.18 -0.3,-1.93 0,-2.64 1.8,-4.49 4.19,-4.49 1.89,0 2.89,1.35 3.53,2.6 0.85,1.73 1.55,4.92 1.55,5.07 0,0.5 -0.41,0.5 -0.75,0.5 -0.25,0 -0.55,0 -0.7,-0.25 l -0.35,-1.25 c -0.84,-3.48 -1.79,-5.57 -3.18,-5.57 -1.3,0 -1.3,1.34 -1.3,2.04 0,0.35 0,1.1 0.3,2.28 z"
         id="path6542" /><path
         style="fill:#000000;stroke-width:0"
         inkscape:connector-curvature="0"
         d="m 515.45,414.92 0.09,0.41 0.1,0.4 0.11,0.4 0.1,0.41 0.1,0.4 0.1,0.4 0.1,0.4 0.1,0.41 c 0.65,2.44 0.65,2.55 1.25,3.6 1.45,2.48 3.59,5.37 7.03,5.37 2.28,0 2.28,-2.53 2.28,-3.28 0,-1.34 -0.34,-2.8 -0.44,-3.25 l -3.25,-12.95 c -0.09,-0.3 -0.14,-0.55 -0.14,-0.69 0,-0.55 0.39,-1.3 1.39,-1.3 0.6,0 1.45,0.35 1.8,1.3 l 1.98,7.97 c 0.25,1.09 0.57,2.14 0.8,3.23 0.65,2.44 0.65,2.55 1.25,3.6 1.45,2.48 3.59,5.37 7.03,5.37 2.28,0 2.28,-2.53 2.28,-3.28 0,-3.09 -2.19,-9.02 -2.87,-11.02 -0.66,-1.68 -0.82,-2.14 -0.82,-3.18 0,-2.19 1.41,-3.99 3.8,-3.99 4.63,0 6.33,7.42 6.33,7.67 0,0.5 -0.41,0.5 -0.75,0.5 -0.66,0 -0.66,-0.11 -0.85,-0.84 -0.4,-1.34 -1.75,-6.23 -4.63,-6.23 -1.05,0 -1.1,0.75 -1.1,1.45 0,1.23 0.5,2.53 0.89,3.73 1,2.64 3.05,8.22 3.05,11.11 0,4.19 -2.89,5.17 -5.24,5.17 -3.48,0 -5.97,-2.18 -7.47,-4.37 -0.4,3.44 -2.98,4.37 -5.23,4.37 -2.98,0 -5.42,-1.64 -7.12,-3.93 -0.35,2.45 -2.05,3.93 -4.19,3.93 -1.8,0 -2.78,-1.14 -3.58,-2.64 -0.95,-1.98 -1.59,-4.92 -1.59,-5.03 0,-0.5 0.5,-0.5 0.73,-0.5 0.66,0 0.7,0.07 0.95,1.16 0.89,3.48 1.85,5.92 3.4,5.92 1.29,0 1.29,-1.44 1.29,-1.98 0,-0.8 -0.16,-1.75 -0.36,-2.55 l -3.73,-14.95 c -0.1,-0.3 -0.14,-0.55 -0.14,-0.69 0,-0.55 0.39,-1.3 1.39,-1.3 0.59,0 1.45,0.35 1.8,1.3 z"
         id="path6544" /><path
         style="fill:#000000;stroke-width:0"
         inkscape:connector-curvature="0"
         d="m 570.03,420.04 v 0.44 l -0.03,0.43 -0.04,0.43 -0.06,0.41 -0.07,0.41 -0.09,0.4 -0.11,0.38 -0.12,0.38 -0.14,0.36 -0.15,0.36 -0.16,0.34 -0.18,0.33 -0.2,0.32 -0.2,0.3 -0.22,0.3 -0.24,0.27 -0.24,0.27 -0.26,0.25 -0.27,0.24 -0.28,0.22 -0.3,0.2 -0.3,0.19 -0.32,0.18 -0.33,0.15 -0.33,0.14 -0.35,0.13 -0.36,0.1 -0.37,0.09 -0.37,0.07 -0.39,0.05 -0.39,0.02 -0.41,0.01 c -6.17,0 -12.59,-7.06 -12.59,-14.34 0,-5.12 3.14,-8.22 7.27,-8.22 v 1.1 c -1.94,0 -3.78,1.54 -3.78,5.12 0,2.5 1.29,8.03 2.88,10.72 1.85,3.05 4.24,4.53 6.18,4.53 2.45,0 3.84,-2.19 3.84,-5.12 0,-2.14 -1.09,-7.29 -2.69,-10.27 -1.45,-2.73 -3.98,-4.98 -6.43,-4.98 v 0 -1.1 c 6.18,0 12.6,7.08 12.6,14.39 z"
         id="path6546" /><path
         style="fill:#000000;stroke-width:0"
         inkscape:connector-curvature="0"
         d="m 582.43,416.01 0.41,-0.09 0.4,-0.1 0.41,-0.1 0.19,-0.06 0.2,-0.06 0.19,-0.06 0.19,-0.06 0.19,-0.07 0.18,-0.08 0.17,-0.07 0.17,-0.09 0.17,-0.09 0.16,-0.09 0.15,-0.1 0.15,-0.11 0.13,-0.12 0.14,-0.12 0.12,-0.13 0.11,-0.14 0.11,-0.15 0.09,-0.16 0.09,-0.16 0.08,-0.18 0.06,-0.19 0.06,-0.2 0.04,-0.21 0.03,-0.22 0.01,-0.11 0.01,-0.12 0.01,-0.12 v -0.13 c 0,-1.59 -1.35,-5.57 -6.47,-5.57 -1.1,0 -3.98,0.25 -4.78,2.79 2.53,0.25 2.53,2.33 2.53,2.44 0,0.94 -0.64,1.59 -1.69,1.59 -1.14,0 -2.54,-0.84 -2.54,-3.09 0,-3.03 2.88,-4.83 6.43,-4.83 7.47,0 9.36,6.08 9.36,8.38 0,4.33 -3.89,5.22 -5.92,5.67 -1.41,0.3 -3.19,0.7 -3.19,2.84 0,1.19 1.05,4.58 5.03,4.58 1.35,0 3.19,-0.5 3.74,-2.44 -1.6,-0.2 -2,-1.54 -2,-2.04 0,-0.55 0.3,-1.39 1.5,-1.39 0.84,0 2.14,0.59 2.14,2.73 0,2.3 -2.05,4.23 -5.33,4.23 -5.83,0 -7.88,-4.78 -7.88,-7.37 0,-3.83 3.24,-4.53 4.65,-4.83 z"
         id="path6548" /><path
         style="fill:#000000;stroke-width:0"
         inkscape:connector-curvature="0"
         d="m 603.47,426.12 h 4.23 c 0.84,0 1.39,0 1.39,0.95 0,0.6 -0.44,0.6 -1.24,0.6 h -3.98 l 1.85,7.37 c 0.18,0.71 0.18,0.8 0.18,1.05 0,1.05 -0.84,1.3 -1.34,1.3 -1.25,0 -1.74,-1.05 -1.94,-1.8 l -1.95,-7.92 h -4.24 c -0.84,0 -1.39,0 -1.39,-0.94 0,-0.61 0.46,-0.61 1.25,-0.61 h 3.99 l -3.6,-14.3 c -0.04,-0.18 -0.25,-0.98 -0.25,-1.68 0,-2.5 1.66,-4.49 4.24,-4.49 5.05,0 7.58,7.42 7.58,7.67 0,0.5 -0.4,0.5 -0.75,0.5 -0.6,0 -0.6,-0.04 -0.99,-0.95 -0.91,-2.39 -2.89,-6.12 -5.73,-6.12 -1.35,0 -1.35,1.25 -1.35,2.04 0,0.35 0,1.14 0.35,2.53 z"
         id="path6550" /><path
         style="fill:#000000;stroke-width:0"
         inkscape:connector-curvature="0"
         d="m 632.56,440.78 -7.17,-0.55 v -1.55 c 3.49,0 3.89,-0.34 3.89,-2.79 v -25.91 c 0,-2.23 -0.55,-2.23 -3.89,-2.23 v -1.55 c 1.64,0.05 4.28,0.16 5.53,0.16 1.25,0 3.69,-0.11 5.53,-0.16 v 1.55 c -3.34,0 -3.89,0 -3.89,2.23 z"
         id="path6552" /><path
         style="fill:#000000;stroke-width:0"
         inkscape:connector-curvature="0"
         d="m 646.36,428.21 -6.97,-0.54 v -1.55 c 3.23,0 3.69,-0.3 3.69,-2.73 v -13.41 c 0,-2.23 -0.55,-2.23 -3.89,-2.23 v -1.55 c 1.59,0.05 4.28,0.16 5.48,0.16 1.75,0 3.49,-0.11 5.19,-0.16 v 1.55 c -3.3,0 -3.5,0.25 -3.5,2.18 z"
         id="path6554" /><path
         style="fill:#000000;stroke-width:0"
         inkscape:connector-curvature="0"
         d="m 646.56,436.89 v 0.14 l -0.01,0.15 -0.02,0.14 -0.02,0.14 -0.03,0.13 -0.04,0.13 -0.04,0.13 -0.05,0.12 -0.06,0.12 -0.06,0.12 -0.07,0.11 -0.07,0.1 -0.07,0.1 -0.08,0.1 -0.09,0.1 -0.09,0.08 -0.09,0.09 -0.1,0.08 -0.1,0.07 -0.1,0.07 -0.11,0.07 -0.11,0.06 -0.11,0.05 -0.12,0.05 -0.12,0.04 -0.12,0.04 -0.12,0.03 -0.13,0.03 -0.12,0.02 -0.13,0.01 -0.13,0.01 -0.13,0.01 c -1.54,0 -2.64,-1.35 -2.64,-2.64 0,-1.35 1.1,-2.64 2.64,-2.64 1.39,0 2.64,1.04 2.64,2.64 z"
         id="path6556" /><path
         style="fill:#000000;stroke-width:0"
         inkscape:connector-curvature="0"
         d="m 656.83,423.34 v -13.36 c 0,-2.23 -0.55,-2.23 -3.89,-2.23 v -1.55 c 1.75,0.05 4.28,0.16 5.62,0.16 1.3,0 3.89,-0.11 5.58,-0.16 v 1.55 c -3.33,0 -3.87,0 -3.87,2.23 v 9.17 c 0,5.19 3.53,7.97 6.71,7.97 3.14,0 3.69,-2.69 3.69,-5.53 v -11.61 c 0,-2.23 -0.55,-2.23 -3.89,-2.23 v -1.55 c 1.75,0.05 4.3,0.16 5.64,0.16 1.3,0 3.88,-0.11 5.58,-0.16 v 1.55 c -2.59,0 -3.84,0 -3.89,1.5 v 9.51 c 0,4.28 0,5.83 -1.55,7.61 -0.68,0.86 -2.34,1.84 -5.22,1.84 -3.64,0 -5.98,-2.14 -7.37,-5.21 v 5.21 l -7.03,-0.54 v -1.55 c 3.48,0 3.89,-0.34 3.89,-2.78 z"
         id="path6558" /><path
         style="fill:#000000;stroke-width:0"
         inkscape:connector-curvature="0"
         d="m 684.59,417.71 0.05,1.05 c 0.3,7.42 4.48,8.66 6.19,8.66 5.12,0 5.62,-6.72 5.62,-8.66 h -11.81 l -0.05,-1.05 h 13.91 c 1.09,0 1.23,0 1.23,1.05 0,4.92 -2.68,9.75 -8.9,9.75 -5.78,0 -10.38,-5.12 -10.38,-11.36 0,-6.67 5.24,-11.5 10.97,-11.5 6.08,0 8.31,5.53 8.31,6.47 0,0.5 -0.39,0.61 -0.64,0.61 -0.45,0 -0.54,-0.3 -0.65,-0.7 -1.74,-5.13 -6.22,-5.13 -6.72,-5.13 -2.5,0 -4.49,1.49 -5.63,3.33 -1.5,2.39 -1.5,5.69 -1.5,7.48 z"
         id="path6560" /><path
         style="fill:#000000;stroke-width:0"
         inkscape:connector-curvature="0"
         d="m 717.73,409.98 0.03,-0.19 0.03,-0.18 0.03,-0.19 0.04,-0.18 0.05,-0.19 0.06,-0.18 0.06,-0.18 0.07,-0.18 0.07,-0.18 0.08,-0.17 0.09,-0.18 0.1,-0.16 0.1,-0.16 0.1,-0.16 0.12,-0.16 0.12,-0.14 0.12,-0.14 0.13,-0.14 0.14,-0.13 0.15,-0.12 0.15,-0.12 0.15,-0.1 0.17,-0.1 0.17,-0.09 0.17,-0.08 0.18,-0.07 0.19,-0.06 0.19,-0.05 0.2,-0.04 0.21,-0.03 0.21,-0.02 0.21,-0.01 c 1.04,0 4.08,0.71 4.08,4.74 v 2.78 h -1.25 v -2.78 c 0,-2.89 -1.23,-3.19 -1.79,-3.19 -1.64,0 -1.85,2.23 -1.85,2.48 v 9.97 c 0,2.1 0,4.03 -1.78,5.88 -1.95,1.93 -4.44,2.73 -6.83,2.73 -4.09,0 -7.53,-2.33 -7.53,-5.62 0,-1.49 1,-2.35 2.3,-2.35 1.39,0 2.3,1 2.3,2.3 0,0.59 -0.25,2.23 -2.55,2.3 1.34,1.73 3.78,2.28 5.37,2.28 2.46,0 5.29,-1.94 5.29,-6.38 v -1.84 -1.05 -4.98 c 0,-4.74 -3.58,-6.42 -5.83,-6.42 -2.44,0 -4.49,1.75 -4.49,4.23 0,2.73 2.1,6.88 10.32,7.17 v 0 1.05 c -2.54,-0.14 -6.02,-0.3 -9.16,-1.8 -3.74,-1.69 -4.99,-4.28 -4.99,-6.47 0,-4.03 4.83,-5.28 7.97,-5.28 3.3,0 5.58,1.99 6.53,4.33 z"
         id="path6562" /><path
         style="fill:#000000;stroke-width:0"
         inkscape:connector-curvature="0"
         d="m 734.41,422.75 v 5.46 l -6.92,-0.54 v -1.55 c 3.48,0 3.89,-0.34 3.89,-2.78 v -13.36 c 0,-2.23 -0.55,-2.23 -3.89,-2.23 v -1.55 c 1.95,0.05 4.28,0.16 5.69,0.16 1.98,0 4.32,0 6.32,-0.16 v 1.55 h -1.04 c -3.69,0 -3.8,0.54 -3.8,2.34 v 7.67 c 0,4.92 2.09,9.36 5.89,9.36 0.35,0 0.44,0 0.55,-0.05 -0.16,-0.04 -1.16,-0.64 -1.16,-1.93 0,-1.41 1.05,-2.14 2.16,-2.14 0.89,0 2.14,0.59 2.14,2.18 0,1.6 -1.55,3.03 -3.69,3.03 -3.64,0 -5.44,-3.32 -6.14,-5.46 z"
         id="path6564" /><path
         style="fill:#000000;stroke-width:0"
         inkscape:connector-curvature="0"
         d="m 754.47,440.78 -7.17,-0.55 v -1.55 c 3.48,0 3.89,-0.34 3.89,-2.79 v -25.91 c 0,-2.23 -0.55,-2.23 -3.89,-2.23 v -1.55 c 1.64,0.05 4.28,0.16 5.53,0.16 1.25,0 3.69,-0.11 5.53,-0.16 v 1.55 c -3.34,0 -3.89,0 -3.89,2.23 z"
         id="path6566" /><path
         style="fill:#000000;stroke-width:0"
         inkscape:connector-curvature="0"
         d="m 780.12,422.93 0.07,0.15 0.06,0.14 0.07,0.14 0.06,0.13 0.07,0.12 0.07,0.13 0.07,0.12 0.07,0.11 0.15,0.22 0.16,0.2 0.15,0.19 0.17,0.18 0.16,0.16 0.17,0.14 0.16,0.14 0.17,0.12 0.17,0.11 0.17,0.1 0.17,0.09 0.17,0.09 0.17,0.07 0.17,0.06 0.16,0.05 0.16,0.05 0.16,0.04 0.15,0.03 0.14,0.03 0.15,0.02 0.13,0.02 0.13,0.02 0.13,0.01 h 0.11 l 0.11,0.01 h 0.1 0.09 0.08 v 1.55 c -1.16,-0.1 -2.6,-0.14 -3.74,-0.14 -0.91,0 -3.25,0.09 -4.34,0.14 v -1.55 c 1.54,-0.05 2.34,-0.89 2.34,-2.14 0,-0.5 -0.05,-0.59 -0.3,-1.19 l -5.03,-12.26 -5.53,13.4 c -0.2,0.5 -0.29,0.71 -0.29,0.91 0,1.28 1.84,1.28 2.78,1.28 v 1.55 c -1.28,-0.05 -4.58,-0.14 -5.43,-0.14 -1.34,0 -3.34,0.04 -4.82,0.14 v -1.55 c 2.39,0 3.32,0 4.03,-1.73 l 7.47,-18.19 c -0.25,-0.64 -0.94,-2.3 -1.25,-2.94 -1.1,-2.73 -2.49,-6.19 -5.68,-6.19 -0.25,0 -1.39,0 -2.34,0.91 1.55,0.2 1.94,1.3 1.94,2.09 0,1.3 -0.94,2.1 -2.08,2.1 -1,0 -2.09,-0.66 -2.09,-2.14 0,-2.25 2.09,-4.05 4.57,-4.05 3.14,0 5.19,2.84 6.38,5.69 z"
         id="path6568" /><path
         style="fill:#000000;stroke-width:0"
         inkscape:connector-curvature="0"
         d="m 812.77,415.87 0.11,-0.02 0.13,-0.02 0.14,-0.03 0.16,-0.04 0.17,-0.04 0.17,-0.04 0.19,-0.05 0.2,-0.06 0.21,-0.06 0.21,-0.07 0.21,-0.08 0.22,-0.08 0.22,-0.1 0.22,-0.1 0.22,-0.11 0.22,-0.12 0.22,-0.14 0.21,-0.14 0.21,-0.15 0.19,-0.16 0.19,-0.18 0.18,-0.19 0.17,-0.2 0.16,-0.21 0.14,-0.22 0.07,-0.12 0.06,-0.12 0.06,-0.13 0.05,-0.12 0.05,-0.14 0.05,-0.13 0.04,-0.14 0.03,-0.14 0.04,-0.15 0.02,-0.15 0.02,-0.16 0.02,-0.15 v -0.17 l 0.01,-0.16 c 0,-2.53 -1.75,-4.53 -5.63,-4.53 -4.18,0 -5.98,2.84 -6.93,7.07 -0.15,0.64 -0.19,0.85 -0.69,0.85 -0.66,0 -0.66,-0.35 -0.66,-1.25 v -6.58 c 0,-0.84 0,-1.19 0.55,-1.19 0.25,0 0.3,0.05 1.25,1 0.09,0.1 0.09,0.19 1,1.14 2.18,-2.09 4.43,-2.14 5.48,-2.14 5.72,0 8.02,3.35 8.02,6.92 0,2.64 -1.5,4.14 -2.1,4.74 -1.64,1.59 -3.59,2 -5.68,2.39 -2.79,0.55 -6.13,1.2 -6.13,4.09 0,1.74 1.3,3.78 5.58,3.78 5.48,0 5.73,-4.48 5.83,-6.03 0.06,-0.45 0.5,-0.45 0.61,-0.45 0.64,0 0.64,0.25 0.64,1.2 v 5.03 c 0,0.85 0,1.19 -0.55,1.19 -0.25,0 -0.34,0 -1,-0.59 -0.14,-0.21 -0.64,-0.64 -0.84,-0.8 -1.89,1.39 -3.94,1.39 -4.69,1.39 -6.08,0 -7.97,-3.33 -7.97,-6.12 0,-1.74 0.8,-3.14 2.14,-4.24 1.59,-1.29 3,-1.59 6.58,-2.28 z"
         id="path6570" /><path
         style="fill:#000000;stroke-width:0"
         inkscape:connector-curvature="0"
         d="m 827.62,417.71 0.05,1.05 c 0.3,7.42 4.48,8.66 6.18,8.66 5.13,0 5.63,-6.72 5.63,-8.66 h -11.81 l -0.05,-1.05 h 13.91 c 1.09,0 1.23,0 1.23,1.05 0,4.92 -2.69,9.75 -8.91,9.75 -5.78,0 -10.37,-5.12 -10.37,-11.36 0,-6.67 5.24,-11.5 10.97,-11.5 6.08,0 8.31,5.53 8.31,6.47 0,0.5 -0.39,0.61 -0.64,0.61 -0.45,0 -0.55,-0.3 -0.65,-0.7 -1.74,-5.13 -6.22,-5.13 -6.72,-5.13 -2.5,0 -4.49,1.49 -5.63,3.33 -1.5,2.39 -1.5,5.69 -1.5,7.48 z"
         id="path6572" /><path
         style="fill:#000000;stroke-width:0"
         inkscape:connector-curvature="0"
         d="m 852.73,424.93 v 3.28 l -7.17,-0.54 v -1.55 c 3.54,0 3.89,-0.3 3.89,-2.48 v -23.32 c 0,-2.25 -0.55,-2.25 -3.89,-2.25 v -1.54 c 1.7,0.06 4.28,0.15 5.58,0.15 1.34,0 3.89,-0.09 5.64,-0.15 v 1.54 c -3.35,0 -3.89,0 -3.89,2.25 v 8.36 0.46 l 0.7,0.65 c -0.7,1.05 -0.7,1.1 -0.7,2.08 v 0 11.13 c 1.43,2.53 3.89,3.98 6.42,3.98 3.64,0 6.69,-4.39 6.69,-10.02 0,-6.03 -3.5,-10.21 -7.19,-10.21 -1.99,0 -3.88,1 -5.22,3.04 l -0.7,-0.65 c 0.25,-0.8 2.34,-3.49 6.12,-3.49 5.94,0 11.11,4.88 11.11,11.31 0,6.33 -4.83,11.25 -10.4,11.25 -3.9,0 -5.99,-2.18 -6.99,-3.28 z"
         id="path6574" /><path
         style="fill:#000000;stroke-width:0"
         inkscape:connector-curvature="0"
         d="m 888.48,409.98 0.02,-0.19 0.03,-0.18 0.04,-0.19 0.04,-0.18 0.05,-0.19 0.05,-0.18 0.07,-0.18 0.06,-0.18 0.08,-0.18 0.08,-0.17 0.09,-0.18 0.09,-0.16 0.1,-0.16 0.11,-0.16 0.11,-0.16 0.12,-0.14 0.13,-0.14 0.13,-0.14 0.14,-0.13 0.14,-0.12 0.15,-0.12 0.16,-0.1 0.16,-0.1 0.17,-0.09 0.18,-0.08 0.18,-0.07 0.19,-0.06 0.19,-0.05 0.2,-0.04 0.2,-0.03 0.21,-0.02 0.22,-0.01 c 1.03,0 4.08,0.71 4.08,4.74 v 2.78 h -1.25 v -2.78 c 0,-2.89 -1.23,-3.19 -1.8,-3.19 -1.64,0 -1.84,2.23 -1.84,2.48 v 9.97 c 0,2.1 0,4.03 -1.78,5.88 -1.96,1.93 -4.44,2.73 -6.83,2.73 -4.1,0 -7.53,-2.33 -7.53,-5.62 0,-1.49 1,-2.35 2.3,-2.35 1.38,0 2.29,1 2.29,2.3 0,0.59 -0.25,2.23 -2.54,2.3 1.34,1.73 3.78,2.28 5.37,2.28 2.45,0 5.28,-1.94 5.28,-6.38 v -1.84 -1.05 -4.98 c 0,-4.74 -3.58,-6.42 -5.83,-6.42 -2.44,0 -4.48,1.75 -4.48,4.23 0,2.73 2.09,6.88 10.31,7.17 v 0 1.05 c -2.53,-0.14 -6.02,-0.3 -9.15,-1.8 -3.74,-1.69 -4.99,-4.28 -4.99,-6.47 0,-4.03 4.83,-5.28 7.97,-5.28 3.3,0 5.58,1.99 6.53,4.33 z"
         id="path6576" /><path
         style="fill:#000000;stroke-width:0"
         inkscape:connector-curvature="0"
         d="m 905.16,422.75 v 5.46 l -6.93,-0.54 v -1.55 c 3.49,0 3.89,-0.34 3.89,-2.78 v -13.36 c 0,-2.23 -0.54,-2.23 -3.89,-2.23 v -1.55 c 1.96,0.05 4.29,0.16 5.69,0.16 1.99,0 4.33,0 6.33,-0.16 v 1.55 h -1.05 c -3.68,0 -3.79,0.54 -3.79,2.34 v 7.67 c 0,4.92 2.09,9.36 5.89,9.36 0.34,0 0.43,0 0.54,-0.05 -0.15,-0.04 -1.15,-0.64 -1.15,-1.93 0,-1.41 1.04,-2.14 2.15,-2.14 0.89,0 2.14,0.59 2.14,2.18 0,1.6 -1.54,3.03 -3.68,3.03 -3.64,0 -5.44,-3.32 -6.14,-5.46 z"
         id="path6578" /><path
         style="fill:#000000;stroke-width:0"
         inkscape:connector-curvature="0"
         d="m 933,409.98 0.02,-0.19 0.03,-0.18 0.03,-0.19 0.05,-0.18 0.04,-0.19 0.06,-0.18 0.06,-0.18 0.07,-0.18 0.07,-0.18 0.09,-0.17 0.08,-0.18 0.1,-0.16 0.1,-0.16 0.11,-0.16 0.11,-0.16 0.12,-0.14 0.12,-0.14 0.14,-0.14 0.13,-0.13 0.15,-0.12 0.15,-0.12 0.16,-0.1 0.16,-0.1 0.17,-0.09 0.17,-0.08 0.18,-0.07 0.19,-0.06 0.2,-0.05 0.19,-0.04 0.21,-0.03 0.21,-0.02 0.22,-0.01 c 1.03,0 4.08,0.71 4.08,4.74 v 2.78 h -1.25 v -2.78 c 0,-2.89 -1.24,-3.19 -1.8,-3.19 -1.64,0 -1.85,2.23 -1.85,2.48 v 9.97 c 0,2.1 0,4.03 -1.78,5.88 -1.95,1.93 -4.44,2.73 -6.82,2.73 -4.1,0 -7.54,-2.33 -7.54,-5.62 0,-1.49 1,-2.35 2.3,-2.35 1.39,0 2.3,1 2.3,2.3 0,0.59 -0.25,2.23 -2.55,2.3 1.34,1.73 3.78,2.28 5.37,2.28 2.46,0 5.29,-1.94 5.29,-6.38 v -1.84 -1.05 -4.98 c 0,-4.74 -3.58,-6.42 -5.83,-6.42 -2.44,0 -4.49,1.75 -4.49,4.23 0,2.73 2.1,6.88 10.32,7.17 v 0 1.05 c -2.54,-0.14 -6.02,-0.3 -9.16,-1.8 -3.73,-1.69 -4.98,-4.28 -4.98,-6.47 0,-4.03 4.82,-5.28 7.97,-5.28 3.29,0 5.57,1.99 6.53,4.33 z"
         id="path6580" /><path
         style="fill:#000000;stroke-width:0"
         inkscape:connector-curvature="0"
         d="m 949.92,424.98 v 15.8 l -7.17,-0.55 v -1.55 c 3.48,0 3.89,-0.34 3.89,-2.79 V 406.2 h 1.25 c 0.05,0.05 0.44,0.75 1.78,3.09 0.75,-1.15 2.85,-3.64 6.53,-3.64 l -0.2,1.1 c -2.23,0 -4.03,1.2 -5.22,3.04 -0.7,1.05 -0.7,1.19 -0.7,2.08 v 0 10.27 c 0,0.95 0,1 0.54,1.79 1.94,2.8 4.69,3.19 5.88,3.19 2.25,0 4.05,-1.3 5.23,-3.19 1.3,-2.04 1.46,-4.87 1.46,-6.92 0,-1.84 -0.11,-4.83 -1.55,-7.08 -1.05,-1.54 -2.94,-3.18 -5.64,-3.18 l 0.2,-1.1 c 5.94,0 11.11,4.88 11.11,11.31 0,6.33 -4.87,11.25 -10.56,11.25 -3.87,0 -6.03,-2.34 -6.83,-3.23 z"
         id="path6582" /><path
         style="fill:#000000;stroke-width:0"
         inkscape:connector-curvature="0"
         d="m 977.89,440.78 -7.17,-0.55 v -1.55 c 3.48,0 3.89,-0.34 3.89,-2.79 v -25.91 c 0,-2.23 -0.55,-2.23 -3.89,-2.23 v -1.55 c 1.64,0.05 4.28,0.16 5.53,0.16 1.25,0 3.69,-0.11 5.53,-0.16 v 1.55 c -3.34,0 -3.89,0 -3.89,2.23 z"
         id="path6584" /><path
         style="fill:#000000;stroke-width:0"
         inkscape:connector-curvature="0"
         d="m 988.41,417.71 0.04,1.05 c 0.3,7.42 4.49,8.66 6.19,8.66 5.13,0 5.66,-6.72 5.66,-8.66 h -11.85 l -0.04,-1.05 h 13.89 c 1.1,0 1.2,0 1.2,1.05 0,4.92 -2.6,9.75 -8.86,9.75 -5.78,0 -10.37,-5.12 -10.37,-11.36 0,-6.67 5.23,-11.5 10.96,-11.5 6.07,0 8.27,5.53 8.27,6.47 0,0.5 -0.3,0.61 -0.6,0.61 -0.4,0 -0.5,-0.3 -0.7,-0.7 -1.7,-5.13 -6.17,-5.13 -6.67,-5.13 -2.5,0 -4.48,1.49 -5.62,3.33 -1.5,2.39 -1.5,5.69 -1.5,7.48 z"
         id="path6586" /><path
         style="fill:#000000;stroke-width:0"
         inkscape:connector-curvature="0"
         d="m 397.36,334.49 v 0.02 0.03 0.01 0.02 l -0.01,0.01 v 0.02 l -0.01,0.02 v 0.01 l -0.01,0.02 -0.01,0.02 -0.01,0.03 -0.02,0.02 -0.01,0.02 -0.02,0.03 -0.02,0.03 -0.03,0.03 -0.02,0.04 -0.03,0.03 -0.02,0.02 -0.02,0.02 -0.01,0.02 -0.02,0.02 -0.02,0.02 -0.02,0.03 -0.02,0.02 -0.02,0.02 -0.03,0.03 -0.02,0.03 -0.02,0.02 -0.03,0.03 -0.03,0.03 -0.02,0.03 -0.03,0.03 -0.03,0.03 -0.03,0.03 -0.03,0.03 -0.04,0.04 -0.03,0.03 -0.04,0.04 -0.03,0.04 -0.04,0.03 -0.04,0.04 c -6.22,6.28 -7.81,15.69 -7.81,23.31 0,8.68 1.89,17.35 8.01,23.57 0.64,0.61 0.64,0.7 0.64,0.86 0,0.34 -0.18,0.48 -0.48,0.48 -0.5,0 -4.99,-3.37 -7.92,-9.7 -2.55,-5.49 -3.14,-11.02 -3.14,-15.21 0,-3.89 0.54,-9.9 3.28,-15.54 2.98,-6.13 7.28,-9.36 7.78,-9.36 0.3,0 0.48,0.14 0.48,0.5 z"
         id="path6588" /><path
         style="fill:#000000;stroke-width:0"
         inkscape:connector-curvature="0"
         d="m 421.87,363.38 0.45,0.12 0.44,0.13 0.44,0.13 0.43,0.15 0.42,0.16 0.41,0.17 0.41,0.18 0.4,0.19 0.38,0.2 0.38,0.2 0.36,0.22 0.36,0.22 0.34,0.24 0.33,0.24 0.31,0.25 0.31,0.25 0.29,0.27 0.27,0.27 0.26,0.28 0.24,0.29 0.23,0.3 0.21,0.3 0.19,0.31 0.17,0.31 0.16,0.32 0.14,0.33 0.11,0.34 0.1,0.34 0.08,0.34 0.05,0.35 0.03,0.36 0.02,0.36 c 0,4.79 -5.68,8.97 -13,8.97 h -15.64 v -1.54 h 1.18 c 3.85,0 3.94,-0.55 3.94,-2.35 v -26.25 c 0,-1.79 -0.09,-2.34 -3.94,-2.34 h -1.18 v -1.55 c 1.78,0.16 5.32,0.16 7.26,0.16 1.94,0 5.49,0 7.28,-0.16 v 1.55 h -1.2 c -3.83,0 -3.94,0.55 -3.94,2.34 v 12.6 1.11 12.89 c 0,1.15 0,1.75 1.1,1.9 0.5,0.1 1.95,0.1 2.95,0.1 4.47,0 10.06,-0.21 10.06,-7.43 0,-3.43 -1.2,-7.46 -8.58,-7.46 h -5.53 v -1.11 h 5.74 c 0.79,0 2.89,0 4.62,-1.69 1.91,-1.8 1.91,-3.35 1.91,-6.67 0,-3.25 0,-5.24 2.03,-7.13 2.05,-1.8 4.78,-2.09 6.28,-2.09 3.89,0 4.73,4.08 4.73,5.48 0,0.3 0,0.85 -0.64,0.85 -0.54,0 -0.54,-0.46 -0.61,-0.8 -0.29,-3.55 -2.03,-4.44 -3.28,-4.44 -2.43,0 -2.84,2.55 -3.54,7.17 l -0.64,3.99 c -0.9,3.19 -3.35,4.84 -6.08,5.78 z"
         id="path6590" /><path
         style="fill:#000000;stroke-width:0"
         inkscape:connector-curvature="0"
         d="m 442.45,357.96 0.04,1.04 c 0.3,7.43 4.49,8.66 6.19,8.66 5.12,0 5.62,-6.72 5.62,-8.66 h -11.81 l -0.04,-1.04 h 13.9 c 1.1,0 1.24,0 1.24,1.04 0,4.93 -2.69,9.75 -8.91,9.75 -5.78,0 -10.38,-5.12 -10.38,-11.36 0,-6.67 5.24,-11.5 10.97,-11.5 6.08,0 8.32,5.54 8.32,6.47 0,0.5 -0.39,0.61 -0.64,0.61 -0.46,0 -0.55,-0.29 -0.66,-0.7 -1.74,-5.13 -6.22,-5.13 -6.72,-5.13 -2.5,0 -4.48,1.49 -5.62,3.33 -1.5,2.39 -1.5,5.69 -1.5,7.49 z"
         id="path6592" /><path
         style="fill:#000000;stroke-width:0"
         inkscape:connector-curvature="0"
         d="m 475.59,350.22 0.02,-0.18 0.03,-0.19 0.03,-0.19 0.05,-0.18 0.04,-0.19 0.06,-0.18 0.06,-0.18 0.07,-0.18 0.07,-0.18 0.09,-0.17 0.08,-0.17 0.1,-0.17 0.1,-0.16 0.11,-0.16 0.11,-0.15 0.12,-0.15 0.12,-0.14 0.14,-0.14 0.13,-0.13 0.15,-0.12 0.15,-0.11 0.16,-0.11 0.16,-0.1 0.17,-0.09 0.17,-0.08 0.18,-0.07 0.19,-0.06 0.2,-0.05 0.19,-0.04 0.21,-0.03 0.21,-0.02 0.22,-0.01 c 1.03,0 4.07,0.71 4.07,4.74 v 2.78 h -1.25 v -2.78 c 0,-2.89 -1.23,-3.19 -1.79,-3.19 -1.64,0 -1.85,2.24 -1.85,2.49 v 9.96 c 0,2.1 0,4.04 -1.78,5.88 -1.95,1.94 -4.43,2.73 -6.83,2.73 -4.09,0 -7.53,-2.32 -7.53,-5.62 0,-1.49 1,-2.34 2.3,-2.34 1.39,0 2.3,1 2.3,2.29 0,0.6 -0.25,2.24 -2.55,2.3 1.34,1.73 3.78,2.28 5.38,2.28 2.45,0 5.28,-1.94 5.28,-6.37 v -1.85 -1.05 -4.98 c 0,-4.73 -3.58,-6.42 -5.83,-6.42 -2.44,0 -4.49,1.75 -4.49,4.23 0,2.74 2.1,6.88 10.32,7.17 v 0 1.05 c -2.53,-0.14 -6.02,-0.3 -9.16,-1.8 -3.73,-1.68 -4.98,-4.28 -4.98,-6.46 0,-4.04 4.82,-5.29 7.96,-5.29 3.3,0 5.58,1.99 6.54,4.33 z"
         id="path6594" /><path
         style="fill:#000000;stroke-width:0"
         inkscape:connector-curvature="0"
         d="m 492.76,381.02 -7.17,-0.55 v -1.54 c 3.48,0 3.89,-0.35 3.89,-2.8 v -25.91 c 0,-2.23 -0.55,-2.23 -3.89,-2.23 v -1.55 c 1.64,0.05 4.28,0.16 5.53,0.16 1.25,0 3.69,-0.11 5.53,-0.16 v 1.55 c -3.34,0 -3.89,0 -3.89,2.23 z"
         id="path6596" /><path
         style="fill:#000000;stroke-width:0"
         inkscape:connector-curvature="0"
         d="m 506.56,368.46 -6.97,-0.55 v -1.55 c 3.23,0 3.69,-0.29 3.69,-2.73 v -13.41 c 0,-2.23 -0.55,-2.23 -3.89,-2.23 v -1.55 c 1.59,0.05 4.28,0.16 5.48,0.16 1.75,0 3.49,-0.11 5.19,-0.16 v 1.55 c -3.3,0 -3.5,0.25 -3.5,2.19 z"
         id="path6598" /><path
         style="fill:#000000;stroke-width:0"
         inkscape:connector-curvature="0"
         d="m 506.76,377.13 v 0.15 l -0.01,0.14 -0.02,0.14 -0.02,0.14 -0.04,0.13 -0.03,0.13 -0.05,0.13 -0.05,0.12 -0.05,0.12 -0.06,0.12 -0.07,0.11 -0.07,0.11 -0.07,0.1 -0.08,0.1 -0.09,0.09 -0.09,0.09 -0.09,0.08 -0.1,0.08 -0.1,0.08 -0.1,0.06 -0.11,0.07 -0.11,0.06 -0.11,0.05 -0.12,0.05 -0.12,0.04 -0.12,0.04 -0.12,0.04 -0.13,0.02 -0.12,0.02 -0.13,0.02 -0.13,0.01 h -0.13 c -1.55,0 -2.64,-1.34 -2.64,-2.64 0,-1.34 1.09,-2.64 2.64,-2.64 1.39,0 2.64,1.05 2.64,2.64 z"
         id="path6600" /><path
         style="fill:#000000;stroke-width:0"
         inkscape:connector-curvature="0"
         d="m 520.17,366.36 h 7.12 v 1.55 h -7.12 v 9.17 h -1.25 c -0.05,-4.08 -1.55,-9.42 -6.42,-9.61 v -1.11 h 4.23 v -13.75 c 0,-6.12 4.62,-6.72 6.42,-6.72 3.53,0 4.94,3.54 4.94,6.72 v 2.85 h -1.25 v -2.74 c 0,-3.68 -1.5,-5.58 -3.34,-5.58 -3.33,0 -3.33,4.54 -3.33,5.38 z"
         id="path6602" /><path
         style="fill:#000000;stroke-width:0"
         inkscape:connector-curvature="0"
         d="m 550.09,363.18 0.07,0.14 0.06,0.14 0.06,0.14 0.07,0.13 0.07,0.13 0.07,0.12 0.07,0.12 0.07,0.11 0.15,0.22 0.16,0.21 0.15,0.18 0.16,0.18 0.17,0.16 0.16,0.15 0.17,0.13 0.17,0.12 0.17,0.12 0.17,0.1 0.17,0.09 0.17,0.08 0.17,0.07 0.17,0.06 0.16,0.06 0.16,0.04 0.15,0.04 0.16,0.04 0.14,0.02 0.15,0.03 0.13,0.01 0.13,0.02 0.12,0.01 h 0.12 l 0.11,0.01 h 0.09 0.09 0.08 v 1.55 c -1.15,-0.09 -2.59,-0.14 -3.73,-0.14 -0.91,0 -3.25,0.09 -4.34,0.14 v -1.55 c 1.54,-0.04 2.34,-0.89 2.34,-2.14 0,-0.5 -0.05,-0.59 -0.3,-1.18 l -5.03,-12.27 -5.53,13.41 c -0.2,0.5 -0.3,0.7 -0.3,0.9 0,1.28 1.85,1.28 2.78,1.28 v 1.55 c -1.28,-0.05 -4.57,-0.14 -5.42,-0.14 -1.34,0 -3.34,0.05 -4.82,0.14 v -1.55 c 2.39,0 3.32,0 4.03,-1.73 l 7.47,-18.19 c -0.26,-0.64 -0.94,-2.3 -1.26,-2.94 -1.09,-2.73 -2.48,-6.18 -5.67,-6.18 -0.25,0 -1.39,0 -2.34,0.9 1.55,0.21 1.94,1.3 1.94,2.1 0,1.29 -0.94,2.09 -2.08,2.09 -1,0 -2.09,-0.66 -2.09,-2.14 0,-2.25 2.09,-4.05 4.57,-4.05 3.14,0 5.19,2.85 6.38,5.69 z"
         id="path6604" /><path
         style="fill:#000000;stroke-width:0"
         inkscape:connector-curvature="0"
         d="m 578.32,357.3 0.01,0.38 0.01,0.37 0.01,0.35 0.02,0.35 0.03,0.35 0.03,0.33 0.03,0.33 0.05,0.31 0.04,0.31 0.05,0.3 0.06,0.3 0.06,0.28 0.13,0.55 0.15,0.52 0.17,0.48 0.18,0.46 0.2,0.43 0.21,0.4 0.22,0.38 0.23,0.35 0.24,0.33 0.25,0.3 0.26,0.27 0.26,0.26 0.27,0.23 0.28,0.21 0.28,0.19 0.28,0.17 0.28,0.15 0.28,0.13 0.29,0.11 0.28,0.09 0.28,0.08 0.27,0.06 0.27,0.05 0.27,0.03 0.26,0.02 0.25,0.01 c 0.44,0 3.58,-0.05 5.33,-1.84 -2.05,-0.16 -2.35,-1.64 -2.35,-2.3 0,-1.3 0.89,-2.3 2.3,-2.3 1.28,0 2.28,0.86 2.28,2.35 0,3.39 -3.78,5.32 -7.62,5.32 -6.22,0 -10.82,-5.37 -10.82,-11.54 0,-6.38 4.94,-11.32 10.72,-11.32 6.67,0 8.27,5.99 8.27,6.47 0,0.5 -0.5,0.5 -0.64,0.5 -0.46,0 -0.55,-0.18 -0.66,-0.5 -1.44,-4.62 -4.67,-5.22 -6.52,-5.22 -2.63,0 -7.03,2.15 -7.03,10.16 z"
         id="path6606" /><path
         style="fill:#000000;stroke-width:0"
         inkscape:connector-curvature="0"
         d="m 598.62,350.22 v -0.1 -0.1 l -0.01,-0.19 -0.01,-0.18 -0.01,-0.16 -0.02,-0.16 -0.02,-0.14 -0.03,-0.14 -0.04,-0.12 -0.04,-0.11 -0.05,-0.11 -0.05,-0.09 -0.07,-0.09 -0.07,-0.07 -0.08,-0.07 -0.09,-0.07 -0.1,-0.05 -0.11,-0.05 -0.12,-0.04 -0.13,-0.04 -0.14,-0.03 -0.15,-0.03 -0.17,-0.02 -0.17,-0.02 -0.1,-0.01 -0.09,-0.01 h -0.1 l -0.1,-0.01 h -0.11 L 596.33,348 h -0.11 -0.12 l -0.12,-0.01 h -0.12 -0.13 -0.13 -0.14 -0.14 -0.14 -0.14 -0.16 -0.15 v -1.55 c 1.75,0.05 4.28,0.16 5.62,0.16 1.3,0 3.9,-0.11 5.58,-0.16 v 1.55 c -3.33,0 -3.87,0 -3.87,2.23 v 9.17 c 0,5.19 3.53,7.97 6.72,7.97 3.14,0 3.69,-2.68 3.69,-5.53 v -11.61 c 0,-2.23 -0.55,-2.23 -3.9,-2.23 v -1.55 c 1.75,0.05 4.3,0.16 5.65,0.16 1.29,0 3.87,-0.11 5.57,-0.16 v 1.55 c -2.59,0 -3.84,0 -3.89,1.5 V 359 c 0,4.29 0,5.83 -1.55,7.61 -0.68,0.86 -2.34,1.85 -5.21,1.85 -4.19,0 -6.39,-2.99 -7.24,-4.88 v 17.44 l -7.17,-0.55 v -1.54 c 3.49,0 3.89,-0.35 3.89,-2.8 z"
         id="path6608" /><path
         style="fill:#000000;stroke-width:0"
         inkscape:connector-curvature="0"
         d="m 626.39,357.96 0.04,1.04 c 0.3,7.43 4.49,8.66 6.19,8.66 5.13,0 5.63,-6.72 5.63,-8.66 h -11.82 l -0.04,-1.04 h 13.9 c 1.1,0 1.24,0 1.24,1.04 0,4.93 -2.69,9.75 -8.91,9.75 -5.78,0 -10.37,-5.12 -10.37,-11.36 0,-6.67 5.23,-11.5 10.97,-11.5 6.07,0 8.31,5.54 8.31,6.47 0,0.5 -0.39,0.61 -0.64,0.61 -0.46,0 -0.55,-0.29 -0.66,-0.7 -1.73,-5.13 -6.22,-5.13 -6.72,-5.13 -2.5,0 -4.48,1.49 -5.62,3.33 -1.5,2.39 -1.5,5.69 -1.5,7.49 z"
         id="path6610" /><path
         style="fill:#000000;stroke-width:0"
         inkscape:connector-curvature="0"
         d="m 648.76,357.3 0.01,0.38 v 0.37 l 0.02,0.35 0.02,0.35 0.02,0.35 0.04,0.33 0.03,0.33 0.04,0.31 0.05,0.31 0.05,0.3 0.06,0.3 0.06,0.28 0.13,0.55 0.15,0.52 0.17,0.48 0.18,0.46 0.2,0.43 0.21,0.4 0.22,0.38 0.23,0.35 0.24,0.33 0.25,0.3 0.26,0.27 0.26,0.26 0.27,0.23 0.27,0.21 0.28,0.19 0.28,0.17 0.29,0.15 0.28,0.13 0.28,0.11 0.28,0.09 0.28,0.08 0.28,0.06 0.27,0.05 0.27,0.03 0.25,0.02 0.26,0.01 c 0.43,0 3.57,-0.05 5.32,-1.84 -2.04,-0.16 -2.34,-1.64 -2.34,-2.3 0,-1.3 0.89,-2.3 2.3,-2.3 1.28,0 2.28,0.86 2.28,2.35 0,3.39 -3.78,5.32 -7.63,5.32 -6.21,0 -10.81,-5.37 -10.81,-11.54 0,-6.38 4.94,-11.32 10.72,-11.32 6.67,0 8.26,5.99 8.26,6.47 0,0.5 -0.5,0.5 -0.63,0.5 -0.46,0 -0.55,-0.18 -0.66,-0.5 -1.44,-4.62 -4.67,-5.22 -6.52,-5.22 -2.64,0 -7.03,2.15 -7.03,10.16 z"
         id="path6612" /><path
         style="fill:#000000;stroke-width:0"
         inkscape:connector-curvature="0"
         d="m 668.85,350.22 v -0.1 -0.1 -0.19 l -0.01,-0.18 -0.02,-0.16 -0.02,-0.16 -0.02,-0.14 -0.03,-0.14 -0.04,-0.12 -0.04,-0.11 -0.05,-0.11 -0.05,-0.09 -0.07,-0.09 -0.07,-0.07 -0.08,-0.07 -0.09,-0.07 -0.1,-0.05 -0.11,-0.05 -0.12,-0.04 -0.13,-0.04 -0.14,-0.03 -0.15,-0.03 -0.16,-0.02 -0.18,-0.02 -0.09,-0.01 -0.1,-0.01 h -0.1 l -0.1,-0.01 h -0.11 L 666.56,348 h -0.11 -0.12 l -0.12,-0.01 h -0.12 -0.13 -0.13 -0.14 -0.13 -0.15 -0.14 -0.15 -0.16 v -1.55 c 1.66,0.05 3.99,0.16 5.44,0.16 1.48,0 3.48,-0.06 5.48,-0.16 v 1.55 c -3.34,0 -3.89,0 -3.89,2.23 v 5.14 l 3.19,2.74 c 3.83,-5.28 5.92,-8.06 5.92,-8.97 0,-0.94 -0.84,-1.14 -1.78,-1.14 v -1.55 c 1.39,0.05 4.33,0.16 5.38,0.16 1.43,0 2.89,-0.06 4.32,-0.16 v 1.55 c -1.84,0 -2.93,0 -4.82,2.64 l -6.33,8.92 c -0.05,0.09 -0.3,0.39 -0.3,0.55 0,0.19 3.53,3.19 4.03,3.58 3.14,2.54 5.24,2.64 6.28,2.68 v 1.55 c -1.43,-0.14 -2.09,-0.14 -3.48,-0.14 -1.8,0 -4.89,0.09 -5.58,0.14 v -1.55 c 0.94,-0.04 1.44,-0.59 1.44,-1.23 0,-1 -0.69,-1.59 -1.1,-1.95 l -7.03,-6.08 v 23.92 l -7.17,-0.55 v -1.54 c 3.49,0 3.89,-0.35 3.89,-2.8 z"
         id="path6614" /><polygon
         style="fill:#000000;stroke-width:0"
         points="707.2,358.64 707.2,355.75 720.4,355.75 720.4,358.64 "
         id="polygon6616" /><path
         style="fill:#000000;stroke-width:0"
         inkscape:connector-curvature="0"
         d="m 745.37,363.58 v -13.36 c 0,-2.23 -0.55,-2.23 -3.89,-2.23 v -1.55 c 1.75,0.05 4.28,0.16 5.62,0.16 1.3,0 3.9,-0.11 5.58,-0.16 v 1.55 c -3.33,0 -3.87,0 -3.87,2.23 v 9.17 c 0,5.19 3.53,7.97 6.72,7.97 3.14,0 3.69,-2.68 3.69,-5.53 v -11.61 c 0,-2.23 -0.55,-2.23 -3.9,-2.23 v -1.55 c 1.75,0.05 4.3,0.16 5.65,0.16 1.29,0 3.87,-0.11 5.57,-0.16 v 1.55 c -2.59,0 -3.84,0 -3.89,1.5 V 359 c 0,4.29 0,5.83 -1.55,7.61 -0.68,0.86 -2.34,1.85 -5.21,1.85 -3.64,0 -5.99,-2.14 -7.38,-5.22 v 5.22 l -7.03,-0.55 v -1.55 c 3.49,0 3.89,-0.34 3.89,-2.78 z"
         id="path6618" /><path
         style="fill:#000000;stroke-width:0"
         inkscape:connector-curvature="0"
         d="m 791.07,357.1 -0.01,0.59 -0.04,0.59 -0.07,0.58 -0.1,0.57 -0.13,0.56 -0.15,0.55 -0.17,0.54 -0.2,0.53 -0.22,0.51 -0.25,0.51 -0.26,0.48 -0.29,0.48 -0.31,0.46 -0.33,0.44 -0.35,0.42 -0.36,0.41 -0.39,0.38 -0.4,0.37 -0.41,0.35 -0.44,0.33 -0.44,0.3 -0.46,0.28 -0.48,0.26 -0.49,0.24 -0.49,0.21 -0.51,0.18 -0.53,0.16 -0.53,0.13 -0.54,0.11 -0.54,0.07 -0.56,0.05 -0.56,0.01 -0.05,-1.09 c 2.19,0 4.33,-1.09 5.63,-3.23 1.29,-2.14 1.29,-5.04 1.29,-6.93 0,-1.79 0,-4.48 -1.09,-6.67 -1.09,-2.25 -3.28,-3.69 -5.78,-3.69 v 0 c -2.14,0 -4.33,1.05 -5.67,3.33 -1.25,2.21 -1.25,5.24 -1.25,7.03 0,1.94 0,4.63 1.18,6.83 1.36,2.28 3.69,3.33 5.69,3.33 l 0.05,1.09 c -6.22,0 -11.06,-5.42 -11.06,-11.65 0,-6.42 5.18,-11.21 11.01,-11.21 6.03,0 11.06,4.88 11.06,11.21 z"
         id="path6620" /><path
         style="fill:#000000;stroke-width:0"
         inkscape:connector-curvature="0"
         d="m 801.19,366.36 h 7.12 v 1.55 h -7.12 v 9.17 h -1.25 c -0.05,-4.08 -1.55,-9.42 -6.42,-9.61 v -1.11 h 4.23 v -13.75 c 0,-6.12 4.63,-6.72 6.42,-6.72 3.53,0 4.94,3.54 4.94,6.72 v 2.85 h -1.25 v -2.74 c 0,-3.68 -1.5,-5.58 -3.34,-5.58 -3.33,0 -3.33,4.54 -3.33,5.38 z"
         id="path6622" /><path
         style="fill:#000000;stroke-width:0"
         inkscape:connector-curvature="0"
         d="m 817.36,350.22 v -0.1 -0.1 -0.19 l -0.01,-0.18 -0.02,-0.16 -0.02,-0.16 -0.02,-0.14 -0.03,-0.14 -0.03,-0.12 -0.05,-0.11 -0.05,-0.11 -0.05,-0.09 -0.07,-0.09 -0.07,-0.07 -0.08,-0.07 -0.09,-0.07 -0.1,-0.05 -0.11,-0.05 -0.12,-0.04 -0.13,-0.04 -0.14,-0.03 -0.15,-0.03 -0.16,-0.02 -0.18,-0.02 -0.09,-0.01 -0.1,-0.01 h -0.1 l -0.1,-0.01 h -0.11 L 815.07,348 h -0.11 -0.12 l -0.12,-0.01 h -0.12 -0.13 -0.13 -0.13 -0.14 -0.15 -0.14 -0.15 -0.16 v -1.55 c 1.75,0.05 4.28,0.16 5.63,0.16 1.3,0 3.89,-0.11 5.58,-0.16 v 1.55 c -3.33,0 -3.88,0 -3.88,2.23 v 9.17 c 0,5.19 3.53,7.97 6.72,7.97 3.14,0 3.69,-2.68 3.69,-5.53 v -11.61 c 0,-2.23 -0.55,-2.23 -3.89,-2.23 v -1.55 c 1.75,0.05 4.29,0.16 5.64,0.16 1.29,0 3.87,-0.11 5.57,-0.16 v 1.55 c -2.59,0 -3.84,0 -3.88,1.5 V 359 c 0,4.29 0,5.83 -1.55,7.61 -0.69,0.86 -2.35,1.85 -5.22,1.85 -4.19,0 -6.39,-2.99 -7.23,-4.88 v 17.44 l -7.18,-0.55 v -1.54 c 3.49,0 3.89,-0.35 3.89,-2.8 z"
         id="path6624" /><path
         style="fill:#000000;stroke-width:0"
         inkscape:connector-curvature="0"
         d="m 848.41,368.46 -6.97,-0.55 v -1.55 c 3.24,0 3.69,-0.29 3.69,-2.73 v -13.41 c 0,-2.23 -0.55,-2.23 -3.89,-2.23 v -1.55 c 1.59,0.05 4.28,0.16 5.48,0.16 1.75,0 3.49,-0.11 5.19,-0.16 v 1.55 c -3.3,0 -3.5,0.25 -3.5,2.19 z"
         id="path6626" /><path
         style="fill:#000000;stroke-width:0"
         inkscape:connector-curvature="0"
         d="m 848.61,377.13 v 0.15 l -0.01,0.14 -0.02,0.14 -0.02,0.14 -0.03,0.13 -0.04,0.13 -0.04,0.13 -0.05,0.12 -0.06,0.12 -0.06,0.12 -0.07,0.11 -0.07,0.11 -0.07,0.1 -0.08,0.1 -0.09,0.09 -0.09,0.09 -0.09,0.08 -0.1,0.08 -0.1,0.08 -0.1,0.06 -0.11,0.07 -0.11,0.06 -0.11,0.05 -0.12,0.05 -0.12,0.04 -0.12,0.04 -0.12,0.04 -0.12,0.02 -0.13,0.02 -0.13,0.02 -0.13,0.01 h -0.13 c -1.54,0 -2.64,-1.34 -2.64,-2.64 0,-1.34 1.1,-2.64 2.64,-2.64 1.39,0 2.64,1.05 2.64,2.64 z"
         id="path6628" /><path
         style="fill:#000000;stroke-width:0"
         inkscape:connector-curvature="0"
         d="m 858.88,363.58 v -13.36 c 0,-2.23 -0.55,-2.23 -3.89,-2.23 v -1.55 c 1.75,0.05 4.28,0.16 5.62,0.16 1.3,0 3.89,-0.11 5.58,-0.16 v 1.55 c -3.33,0 -3.87,0 -3.87,2.23 v 9.17 c 0,5.19 3.53,7.97 6.71,7.97 3.15,0 3.69,-2.68 3.69,-5.53 v -11.61 c 0,-2.23 -0.54,-2.23 -3.89,-2.23 v -1.55 c 1.75,0.05 4.3,0.16 5.64,0.16 1.3,0 3.88,-0.11 5.58,-0.16 v 1.55 c -2.59,0 -3.84,0 -3.89,1.5 V 359 c 0,4.29 0,5.83 -1.55,7.61 -0.68,0.86 -2.34,1.85 -5.21,1.85 -3.65,0 -5.99,-2.14 -7.38,-5.22 v 5.22 l -7.03,-0.55 v -1.55 c 3.48,0 3.89,-0.34 3.89,-2.78 z"
         id="path6630" /><path
         style="fill:#000000;stroke-width:0"
         inkscape:connector-curvature="0"
         d="m 886.4,353.07 v 0.02 0.02 0.04 0.03 0.05 0.04 0.05 l 0.01,0.06 v 0.06 l 0.01,0.06 0.01,0.06 0.01,0.07 0.01,0.08 0.02,0.07 0.01,0.08 0.02,0.08 0.02,0.08 0.03,0.09 0.02,0.08 0.03,0.09 0.03,0.09 0.04,0.09 0.04,0.1 0.04,0.09 0.05,0.09 0.05,0.1 0.05,0.1 0.06,0.09 0.06,0.1 0.07,0.09 0.07,0.1 0.08,0.09 c 1.95,-1.39 3.98,-1.55 4.94,-1.55 V 355 c -4.35,0 -4.35,4.99 -4.35,6.14 0,1.35 0.07,2.94 0.8,4.18 0.4,0.61 1.55,2 3.55,2 4.32,0 4.32,-4.99 4.32,-6.13 0,-1.34 -0.04,-2.94 -0.79,-4.19 -0.39,-0.59 -1.55,-2 -3.53,-2 v 0 -1.14 c 4.62,0 8.06,3.44 8.06,7.28 0,1.85 -0.8,3.69 -2.03,4.83 1.78,1.69 3.57,1.94 4.48,1.94 0.09,0 0.34,0 0.5,-0.05 -0.56,-0.2 -0.79,-0.75 -0.79,-1.34 0,-0.84 0.63,-1.44 1.43,-1.44 0.5,0 1.44,0.35 1.44,1.49 0,0.84 -0.59,2.43 -2.53,2.43 -1,0 -3.19,-0.29 -5.28,-2.32 -2.1,1.64 -4.19,1.78 -5.28,1.78 -4.65,0 -8.08,-3.44 -8.08,-7.27 0,-2.19 1.09,-4.09 2.34,-5.14 -0.64,-0.73 -1.54,-2.39 -1.54,-4.12 0,-1.55 0.65,-3.44 2.2,-4.44 -3,-0.85 -4.6,-2.99 -4.6,-4.99 0,-3.57 4.94,-6.32 11.02,-6.32 l 0.05,1.14 c -5.04,0 -8.47,2.54 -8.47,5.18 0,2.3 1.89,4.14 4.09,4.29 h 2.94 c 4.28,0 9.86,0 9.86,-4.29 0,-2.68 -3.53,-5.18 -8.42,-5.18 v 0 l -0.05,-1.14 c 5.88,0 11.06,2.54 11.06,6.42 0,1.75 -0.7,4.29 -3.23,5.69 -2.64,1.39 -5.53,1.39 -8.58,1.39 -1.25,0 -3.39,0 -3.74,0.04 -1.59,0.21 -2.63,1.75 -2.63,3.35 z"
         id="path6632" /><path
         style="fill:#000000;stroke-width:0"
         inkscape:connector-curvature="0"
         d="m 931.32,368.46 -6.97,-0.55 v -1.55 c 3.24,0 3.69,-0.29 3.69,-2.73 v -13.41 c 0,-2.23 -0.54,-2.23 -3.89,-2.23 v -1.55 c 1.6,0.05 4.28,0.16 5.49,0.16 1.75,0 3.48,-0.11 5.18,-0.16 v 1.55 c -3.29,0 -3.5,0.25 -3.5,2.19 z"
         id="path6634" /><path
         style="fill:#000000;stroke-width:0"
         inkscape:connector-curvature="0"
         d="m 931.53,377.13 -0.01,0.15 -0.01,0.14 -0.02,0.14 -0.02,0.14 -0.03,0.13 -0.04,0.13 -0.04,0.13 -0.05,0.12 -0.05,0.12 -0.07,0.12 -0.06,0.11 -0.07,0.11 -0.08,0.1 -0.08,0.1 -0.08,0.09 -0.09,0.09 -0.09,0.08 -0.1,0.08 -0.1,0.08 -0.11,0.06 -0.1,0.07 -0.11,0.06 -0.12,0.05 -0.11,0.05 -0.12,0.04 -0.12,0.04 -0.13,0.04 -0.12,0.02 -0.13,0.02 -0.12,0.02 -0.13,0.01 h -0.13 c -1.55,0 -2.64,-1.34 -2.64,-2.64 0,-1.34 1.09,-2.64 2.64,-2.64 1.39,0 2.64,1.05 2.64,2.64 z"
         id="path6636" /><path
         style="fill:#000000;stroke-width:0"
         inkscape:connector-curvature="0"
         d="m 946.67,356.11 0.11,-0.02 0.13,-0.02 0.14,-0.03 0.16,-0.04 0.16,-0.03 0.18,-0.05 0.19,-0.05 0.2,-0.06 0.2,-0.06 0.22,-0.07 0.21,-0.08 0.22,-0.08 0.22,-0.1 0.22,-0.1 0.22,-0.11 0.22,-0.12 0.22,-0.13 0.21,-0.15 0.2,-0.15 0.2,-0.16 0.19,-0.18 0.18,-0.18 0.17,-0.2 0.16,-0.22 0.14,-0.22 0.07,-0.12 0.06,-0.12 0.06,-0.12 0.05,-0.13 0.05,-0.13 0.05,-0.14 0.04,-0.14 0.03,-0.14 0.03,-0.15 0.03,-0.15 0.02,-0.15 0.01,-0.16 0.01,-0.16 v -0.17 c 0,-2.53 -1.75,-4.53 -5.62,-4.53 -4.19,0 -5.98,2.84 -6.94,7.08 -0.14,0.64 -0.19,0.84 -0.69,0.84 -0.65,0 -0.65,-0.34 -0.65,-1.25 v -6.58 c 0,-0.84 0,-1.19 0.55,-1.19 0.25,0 0.29,0.05 1.25,1 0.09,0.1 0.09,0.19 1,1.15 2.18,-2.1 4.43,-2.15 5.48,-2.15 5.72,0 8.02,3.35 8.02,6.93 0,2.64 -1.5,4.14 -2.1,4.73 -1.64,1.59 -3.59,2 -5.68,2.39 -2.79,0.55 -6.13,1.2 -6.13,4.1 0,1.73 1.3,3.78 5.58,3.78 5.48,0 5.73,-4.49 5.83,-6.03 0.06,-0.46 0.5,-0.46 0.6,-0.46 0.65,0 0.65,0.25 0.65,1.21 v 5.03 c 0,0.84 0,1.18 -0.55,1.18 -0.25,0 -0.35,0 -1,-0.59 -0.14,-0.2 -0.64,-0.64 -0.85,-0.8 -1.88,1.39 -3.93,1.39 -4.68,1.39 -6.08,0 -7.97,-3.32 -7.97,-6.12 0,-1.74 0.8,-3.14 2.14,-4.24 1.59,-1.29 3,-1.59 6.58,-2.28 z"
         id="path6638" /><path
         style="fill:#000000;stroke-width:0"
         inkscape:connector-curvature="0"
         d="m 981.11,365.18 v 3.28 l -7.17,-0.55 v -1.55 c 3.54,0 3.89,-0.29 3.89,-2.48 v -23.31 c 0,-2.25 -0.55,-2.25 -3.89,-2.25 v -1.55 c 1.7,0.06 4.28,0.16 5.58,0.16 1.34,0 3.89,-0.1 5.64,-0.16 v 1.55 c -3.35,0 -3.89,0 -3.89,2.25 v 8.36 0.45 l 0.7,0.66 c -0.7,1.04 -0.7,1.09 -0.7,2.07 v 0 11.13 c 1.43,2.53 3.89,3.98 6.42,3.98 3.64,0 6.69,-4.39 6.69,-10.01 0,-6.03 -3.5,-10.22 -7.19,-10.22 -1.99,0 -3.88,1 -5.22,3.05 l -0.7,-0.66 c 0.25,-0.8 2.34,-3.49 6.12,-3.49 5.94,0 11.11,4.88 11.11,11.32 0,6.33 -4.83,11.25 -10.41,11.25 -3.89,0 -5.98,-2.19 -6.98,-3.28 z"
         id="path6640" /><path
         style="fill:#000000;stroke-width:0"
         inkscape:connector-curvature="0"
         d="m 1007.2,357.96 0.1,1.04 c 0.3,7.43 4.5,8.66 6.2,8.66 5.1,0 5.6,-6.72 5.6,-8.66 h -11.8 l -0.1,-1.04 h 13.9 c 1.1,0 1.3,0 1.3,1.04 0,4.93 -2.7,9.75 -8.9,9.75 -5.8,0 -10.4,-5.12 -10.4,-11.36 0,-6.67 5.2,-11.5 11,-11.5 6,0 8.3,5.54 8.3,6.47 0,0.5 -0.4,0.61 -0.7,0.61 -0.4,0 -0.5,-0.29 -0.6,-0.7 -1.8,-5.13 -6.2,-5.13 -6.7,-5.13 -2.5,0 -4.5,1.49 -5.7,3.33 -1.5,2.39 -1.5,5.69 -1.5,7.49 z"
         id="path6642" /><path
         style="fill:#000000;stroke-width:0"
         inkscape:connector-curvature="0"
         d="m 1032.1,362.99 v 5.47 l -6.9,-0.55 v -1.55 c 3.5,0 3.9,-0.34 3.9,-2.78 v -13.36 c 0,-2.23 -0.6,-2.23 -3.9,-2.23 v -1.55 c 1.9,0.05 4.3,0.16 5.7,0.16 1.9,0 4.3,0 6.3,-0.16 v 1.55 h -1.1 c -3.6,0 -3.8,0.55 -3.8,2.34 V 358 c 0,4.93 2.1,9.36 5.9,9.36 0.4,0 0.5,0 0.6,-0.04 -0.2,-0.05 -1.2,-0.64 -1.2,-1.94 0,-1.41 1.1,-2.14 2.2,-2.14 0.9,0 2.1,0.59 2.1,2.19 0,1.59 -1.5,3.03 -3.7,3.03 -3.6,0 -5.4,-3.33 -6.1,-5.47 z"
         id="path6644" /><path
         style="fill:#000000;stroke-width:0"
         inkscape:connector-curvature="0"
         d="m 1052.1,367.91 v 5.78 c 0,4.39 2.3,6.78 4.5,6.78 0.2,0 1,0 1.7,-0.36 -0.6,-0.18 -1.5,-0.84 -1.5,-2.07 0,-1.16 0.8,-2.16 2.1,-2.16 1.5,0 2.2,1 2.2,2.2 0,1.85 -1.8,3.49 -4.5,3.49 -3.4,0 -7.7,-2.64 -7.7,-7.93 v -5.73 h -3.9 v -1.55 h 3.9 v -16.14 c 0,-2.23 -0.5,-2.23 -3.9,-2.23 v -1.55 c 2,0.05 4.3,0.16 5.7,0.16 2,0 4.4,0 6.4,-0.16 v 1.55 h -1.1 c -3.7,0 -3.8,0.55 -3.8,2.34 v 16.03 h 5.7 v 1.55 z"
         id="path6646" /><path
         style="fill:#000000;stroke-width:0"
         inkscape:connector-curvature="0"
         d="m 1064.1,357.96 0.1,1.04 c 0.3,7.43 4.4,8.66 6.1,8.66 5.2,0 5.7,-6.72 5.7,-8.66 h -11.8 l -0.1,-1.04 h 13.9 c 1.1,0 1.2,0 1.2,1.04 0,4.93 -2.6,9.75 -8.9,9.75 -5.7,0 -10.3,-5.12 -10.3,-11.36 0,-6.67 5.2,-11.5 10.9,-11.5 6.1,0 8.3,5.54 8.3,6.47 0,0.5 -0.3,0.61 -0.6,0.61 -0.4,0 -0.5,-0.29 -0.6,-0.7 -1.8,-5.13 -6.3,-5.13 -6.8,-5.13 -2.5,0 -4.4,1.49 -5.6,3.33 -1.5,2.39 -1.5,5.69 -1.5,7.49 z"
         id="path6648" /><path
         style="fill:#000000;stroke-width:0"
         inkscape:connector-curvature="0"
         d="m 1086.5,357.3 v 0.38 0.37 0.35 0.35 l 0.1,0.35 v 0.33 0.33 l 0.1,0.31 v 0.31 l 0.1,0.3 v 0.3 l 0.1,0.28 0.1,0.55 0.2,0.52 0.1,0.48 0.2,0.46 0.2,0.43 0.2,0.4 0.2,0.38 0.3,0.35 0.2,0.33 0.3,0.3 0.2,0.27 0.3,0.26 0.3,0.23 0.2,0.21 0.3,0.19 0.3,0.17 0.3,0.15 0.3,0.13 0.2,0.11 0.3,0.09 0.3,0.08 0.3,0.06 0.2,0.05 0.3,0.03 0.3,0.02 0.2,0.01 c 0.5,0 3.6,-0.05 5.4,-1.84 -2.1,-0.16 -2.4,-1.64 -2.4,-2.3 0,-1.3 0.9,-2.3 2.3,-2.3 1.3,0 2.3,0.86 2.3,2.35 0,3.39 -3.8,5.32 -7.6,5.32 -6.3,0 -10.9,-5.37 -10.9,-11.54 0,-6.38 5,-11.32 10.8,-11.32 6.6,0 8.2,5.99 8.2,6.47 0,0.5 -0.5,0.5 -0.6,0.5 -0.5,0 -0.6,-0.18 -0.7,-0.5 -1.4,-4.62 -4.6,-5.22 -6.5,-5.22 -2.6,0 -7,2.15 -7,10.16 z"
         id="path6650" /><path
         style="fill:#000000;stroke-width:0"
         inkscape:connector-curvature="0"
         d="m 1111.4,366.36 h 7.1 v 1.55 h -7.1 v 9.17 h -1.3 c 0,-4.08 -1.5,-9.42 -6.4,-9.61 v -1.11 h 4.2 v -13.75 c 0,-6.12 4.7,-6.72 6.4,-6.72 3.6,0 5,3.54 5,6.72 v 2.85 h -1.3 v -2.74 c 0,-3.68 -1.5,-5.58 -3.3,-5.58 -3.3,0 -3.3,4.54 -3.3,5.38 z"
         id="path6652" /><path
         style="fill:#000000;stroke-width:0"
         inkscape:connector-curvature="0"
         d="m 1129.7,356.85 1.9,22.72 c 0,1.65 -1.3,2.54 -2.6,2.54 -1.3,0 -2.7,-0.89 -2.7,-2.54 l 2,-22.66 c 0,-0.75 0.1,-1.16 0.7,-1.16 0.5,0 0.6,0.25 0.7,1.1 z"
         id="path6654" /><path
         style="fill:#000000;stroke-width:0"
         inkscape:connector-curvature="0"
         d="m 1131.6,349.08 v 0.14 0.13 0.13 0.13 l -0.1,0.13 v 0.12 0.12 l -0.1,0.12 v 0.12 l -0.1,0.11 -0.1,0.11 v 0.11 l -0.1,0.1 -0.1,0.1 -0.1,0.1 -0.1,0.09 v 0.09 l -0.1,0.08 -0.1,0.08 -0.1,0.08 -0.2,0.07 -0.1,0.06 -0.1,0.06 -0.1,0.05 -0.1,0.05 -0.1,0.04 -0.2,0.04 -0.1,0.03 -0.1,0.02 -0.2,0.02 -0.1,0.01 h -0.1 c -1.5,0 -2.7,-1.2 -2.7,-2.64 0,-1.44 1.2,-2.64 2.7,-2.64 1.4,0 2.6,1.2 2.6,2.64 z"
         id="path6656" /><path
         style="fill:#000000;stroke-width:0"
         inkscape:connector-curvature="0"
         d="m 1150.2,358.89 v 0.38 0.38 0.39 0.41 0.84 l -0.1,0.88 -0.1,0.92 -0.1,0.95 -0.1,0.98 -0.2,1 -0.2,1.02 -0.2,1.04 -0.3,1.05 -0.3,1.06 -0.3,1.06 -0.4,1.07 -0.2,0.53 -0.3,0.53 -0.2,0.53 -0.2,0.53 c -3,6.13 -7.3,9.36 -7.8,9.36 -0.3,0 -0.5,-0.19 -0.5,-0.48 0,-0.16 0,-0.25 0.9,-1.16 4.9,-4.92 7.8,-12.84 7.8,-23.27 0,-8.51 -1.9,-17.28 -8.1,-23.56 -0.6,-0.59 -0.6,-0.7 -0.6,-0.84 0,-0.3 0.2,-0.5 0.5,-0.5 0.5,0 5,3.39 7.9,9.72 2.6,5.47 3.1,11 3.1,15.18 z"
         id="path6658" /></g>  </g>
</svg>
