<?xml version="1.0" encoding="UTF-8" standalone="no"?>
<!-- Created with Inkscape (http://www.inkscape.org/) -->

<svg
   xmlns:dc="http://purl.org/dc/elements/1.1/"
   xmlns:cc="http://creativecommons.org/ns#"
   xmlns:rdf="http://www.w3.org/1999/02/22-rdf-syntax-ns#"
   xmlns:svg="http://www.w3.org/2000/svg"
   xmlns="http://www.w3.org/2000/svg"
   xmlns:xlink="http://www.w3.org/1999/xlink"
   xmlns:sodipodi="http://sodipodi.sourceforge.net/DTD/sodipodi-0.dtd"
   xmlns:inkscape="http://www.inkscape.org/namespaces/inkscape"
   width="304.80316mm"
   height="296.21399mm"
   viewBox="0 0 304.80316 296.21399"
   version="1.1"
   id="svg8"
   inkscape:version="0.92.3 (2405546, 2018-03-11)"
   sodipodi:docname="cost-functional-gradient.svg">
  <sodipodi:namedview
     id="base"
     pagecolor="#ffffff"
     bordercolor="#666666"
     borderopacity="1.0"
     inkscape:pageopacity="0.0"
     inkscape:pageshadow="2"
     inkscape:zoom="0.98994949"
     inkscape:cx="308.56665"
     inkscape:cy="486.55137"
     inkscape:document-units="mm"
     inkscape:current-layer="layer1"
     showgrid="false"
     inkscape:window-width="3773"
     inkscape:window-height="2098"
     inkscape:window-x="67"
     inkscape:window-y="98"
     inkscape:window-maximized="1"
     fit-margin-top="0"
     fit-margin-left="0"
     fit-margin-right="0"
     fit-margin-bottom="0" />
  <defs
     id="defs2">
    <marker
       inkscape:stockid="Arrow2Mend"
       orient="auto"
       refY="0"
       refX="0"
       id="Arrow2Mend"
       style="overflow:visible"
       inkscape:isstock="true">
      <path
         id="path1070"
         style="fill:#000000;fill-opacity:1;fill-rule:evenodd;stroke:#000000;stroke-width:0.625;stroke-linejoin:round;stroke-opacity:1"
         d="M 8.7185878,4.0337352 -2.2072895,0.01601326 8.7185884,-4.0017078 c -1.7454984,2.3720609 -1.7354408,5.6174519 -6e-7,8.035443 z"
         transform="scale(-0.6)"
         inkscape:connector-curvature="0" />
    </marker>
    <marker
       inkscape:stockid="Arrow1Mend"
       orient="auto"
       refY="0"
       refX="0"
       id="Arrow1Mend"
       style="overflow:visible"
       inkscape:isstock="true">
      <path
         id="path1105"
         d="M 0,0 5,-5 -12.5,0 5,5 Z"
         style="fill:#000000;fill-opacity:1;fill-rule:evenodd;stroke:#000000;stroke-width:1.00000003pt;stroke-opacity:1"
         transform="matrix(-0.4,0,0,-0.4,-4,0)"
         inkscape:connector-curvature="0" />
    </marker>
    <marker
       inkscape:stockid="Arrow1Lend"
       orient="auto"
       refY="0"
       refX="0"
       id="Arrow1Lend"
       style="overflow:visible"
       inkscape:isstock="true">
      <path
         id="path1099"
         d="M 0,0 5,-5 -12.5,0 5,5 Z"
         style="fill:#000000;fill-opacity:1;fill-rule:evenodd;stroke:#000000;stroke-width:1.00000003pt;stroke-opacity:1"
         transform="matrix(-0.8,0,0,-0.8,-10,0)"
         inkscape:connector-curvature="0" />
    </marker>
    <linearGradient
       inkscape:collect="always"
       id="linearGradient1048">
      <stop
         style="stop-color:#0000ff;stop-opacity:1;"
         offset="0"
         id="stop1044" />
      <stop
         style="stop-color:#0000ff;stop-opacity:0;"
         offset="1"
         id="stop1046" />
    </linearGradient>
    <linearGradient
       inkscape:collect="always"
       id="linearGradient1038">
      <stop
         style="stop-color:#0000ff;stop-opacity:1;"
         offset="0"
         id="stop1034" />
      <stop
         style="stop-color:#0000ff;stop-opacity:0;"
         offset="1"
         id="stop1036" />
    </linearGradient>
    <linearGradient
       inkscape:collect="always"
       id="linearGradient1028">
      <stop
         style="stop-color:#0000ff;stop-opacity:1;"
         offset="0"
         id="stop1024" />
      <stop
         style="stop-color:#0000ff;stop-opacity:0;"
         offset="1"
         id="stop1026" />
    </linearGradient>
    <linearGradient
       inkscape:collect="always"
       xlink:href="#linearGradient1028"
       id="linearGradient1030"
       x1="941.46222"
       y1="272.98135"
       x2="1422.2948"
       y2="372.98645"
       gradientUnits="userSpaceOnUse"
       gradientTransform="matrix(0.26835494,0,0,0.26749885,-4.7124941,0.71314433)" />
    <linearGradient
       inkscape:collect="always"
       xlink:href="#linearGradient1038"
       id="linearGradient1040"
       x1="1723.3203"
       y1="187.11839"
       x2="1138.4419"
       y2="378.0372"
       gradientUnits="userSpaceOnUse"
       gradientTransform="matrix(0.26458333,0,0,0.26458333,-1.111805,2.112334)" />
    <linearGradient
       inkscape:collect="always"
       xlink:href="#linearGradient1048"
       id="linearGradient1050"
       x1="1329.3607"
       y1="-60.36898"
       x2="1326.3303"
       y2="467.9408"
       gradientUnits="userSpaceOnUse"
       gradientTransform="matrix(0.26458333,0,0,0.26458333,-0.8018087,5.8799298)" />
    <linearGradient
       inkscape:collect="always"
       xlink:href="#linearGradient1038"
       id="linearGradient1092"
       gradientUnits="userSpaceOnUse"
       gradientTransform="matrix(0.26458333,0,0,0.26458333,-1.111805,2.112334)"
       x1="1723.3203"
       y1="187.11839"
       x2="1138.4419"
       y2="378.0372" />
  </defs>
  <metadata
     id="metadata5">
    <rdf:RDF>
      <cc:Work
         rdf:about="">
        <dc:format>image/svg+xml</dc:format>
        <dc:type
           rdf:resource="http://purl.org/dc/dcmitype/StillImage" />
        <dc:title></dc:title>
      </cc:Work>
    </rdf:RDF>
  </metadata>
  <g
     id="layer1"
     inkscape:groupmode="layer"
     inkscape:label="Layer 1"
     transform="translate(73.72546,-7.2786682)">
    <ellipse
       style="fill:#ff0000;stroke:#ff0000;stroke-width:1;stroke-miterlimit:4;stroke-dasharray:none;stroke-dashoffset:0;stroke-opacity:1"
       id="path1817"
       cx="97.86158"
       cy="178.43141"
       rx="2.1381562"
       ry="2.0045214" />
    <g
       transform="translate(-1.8708861,-20.847022)"
       id="g825">
      <path
         style="fill:none;stroke:#000000;stroke-width:0.26458332px;stroke-linecap:butt;stroke-linejoin:miter;stroke-opacity:1"
         d="m 17.907058,28.126854 1.603617,182.277816 -80.982667,83.92264"
         id="path819"
         inkscape:connector-curvature="0" />
      <path
         style="fill:none;stroke:#000000;stroke-width:0.26458332px;stroke-linecap:butt;stroke-linejoin:miter;stroke-opacity:1"
         d="M 19.510675,210.40467 179.07058,209.87013"
         id="path821"
         inkscape:connector-curvature="0" />
    </g>
    <g
       id="g867"
       transform="translate(-158.94046,-18.596844)">
      <g
         word-spacing="normal"
         letter-spacing="normal"
         font-size-adjust="none"
         font-stretch="normal"
         font-weight="normal"
         font-variant="normal"
         font-style="normal"
         stroke-miterlimit="10.433"
         xml:space="preserve"
         transform="matrix(0.3,0,0,-0.3,-52.5,222.75)"
         id="content"
         style="font-style:normal;font-variant:normal;font-weight:normal;font-stretch:normal;letter-spacing:normal;word-spacing:normal;text-anchor:start;fill:none;fill-opacity:1;fill-rule:evenodd;stroke:#000000;stroke-linecap:butt;stroke-linejoin:miter;stroke-miterlimit:10.43299961;stroke-dasharray:none;stroke-dashoffset:0;stroke-opacity:1"><path
           id="path854"
           d="m 482.47,436.59 0.04,0.15 0.04,0.14 0.03,0.14 0.04,0.13 0.03,0.12 0.04,0.12 0.04,0.11 0.04,0.11 0.04,0.1 0.04,0.09 0.05,0.09 0.05,0.08 0.06,0.08 0.06,0.07 0.07,0.07 0.08,0.06 0.08,0.06 0.09,0.05 0.09,0.05 0.11,0.04 0.11,0.04 0.13,0.04 0.13,0.03 0.07,0.01 0.08,0.02 0.07,0.01 0.08,0.01 0.08,0.01 0.09,0.01 0.09,0.01 0.09,0.01 0.09,0.01 h 0.1 l 0.1,0.01 h 0.11 l 0.1,0.01 h 0.11 0.12 0.12 0.12 0.13 c 0.79,0 1.34,0 1.34,0.96 0,0.43 -0.3,0.59 -0.69,0.59 -1.25,0 -4.28,-0.16 -5.53,-0.16 -1.64,0 -5.69,0.16 -7.33,0.16 -0.45,0 -1.04,0 -1.04,-1 0,-0.55 0.4,-0.55 1.7,-0.55 1.14,0 1.64,0 2.88,-0.09 1.2,-0.16 1.54,-0.31 1.54,-1 0,-0.3 -0.09,-0.66 -0.19,-1.05 l -5.73,-22.87 c -1.2,-4.83 -4.58,-7.47 -7.17,-7.47 -1.3,0 -3.94,0.5 -4.74,3.09 0.14,-0.04 0.5,-0.04 0.6,-0.04 1.94,0 3.23,1.68 3.23,3.18 0,1.6 -1.34,2.08 -2.19,2.08 -0.89,0 -3.34,-0.59 -3.34,-3.98 0,-3.08 2.64,-5.42 6.58,-5.42 4.59,0 9.76,3.28 11.01,8.21 z"
           inkscape:connector-curvature="0"
           style="fill:#000000;stroke-width:0" /><path
           id="path856"
           d="m 504.4,394.25 v 0.02 0.03 0.01 0.02 l -0.01,0.01 v 0.02 l -0.01,0.01 v 0.02 l -0.01,0.02 -0.01,0.02 -0.01,0.02 -0.02,0.03 -0.01,0.02 -0.02,0.03 -0.02,0.03 -0.03,0.03 -0.02,0.03 -0.03,0.04 -0.02,0.02 -0.02,0.02 -0.01,0.02 -0.02,0.02 -0.02,0.02 -0.02,0.03 -0.02,0.02 -0.02,0.02 -0.03,0.03 -0.02,0.02 -0.02,0.03 -0.03,0.03 -0.03,0.03 -0.02,0.03 -0.03,0.03 -0.03,0.03 -0.03,0.03 -0.04,0.03 -0.03,0.04 -0.03,0.03 -0.04,0.04 -0.03,0.03 -0.04,0.04 -0.04,0.04 c -6.22,6.28 -7.81,15.69 -7.81,23.31 0,8.67 1.89,17.35 8.01,23.56 0.64,0.61 0.64,0.71 0.64,0.86 0,0.35 -0.19,0.49 -0.48,0.49 -0.5,0 -4.99,-3.38 -7.92,-9.7 -2.55,-5.49 -3.14,-11.02 -3.14,-15.21 0,-3.89 0.54,-9.9 3.28,-15.54 2.98,-6.13 7.28,-9.36 7.78,-9.36 0.29,0 0.48,0.14 0.48,0.5 z"
           inkscape:connector-curvature="0"
           style="fill:#000000;stroke-width:0" /><path
           id="path858"
           d="m 543.95,424.93 0.05,0.12 0.05,0.11 0.03,0.06 0.03,0.05 0.03,0.05 0.04,0.05 0.03,0.04 0.05,0.05 0.05,0.04 0.05,0.05 0.06,0.04 0.07,0.04 0.07,0.03 0.08,0.04 0.09,0.03 0.1,0.03 0.1,0.03 0.12,0.03 0.12,0.02 0.07,0.01 0.07,0.02 0.07,0.01 0.07,0.01 0.08,0.01 0.08,0.01 0.08,0.01 h 0.09 l 0.09,0.01 0.09,0.01 h 0.1 l 0.1,0.01 0.1,0.01 h 0.11 l 0.1,0.01 h 0.12 0.11 l 0.12,0.01 h 0.13 0.13 0.13 0.13 v 2.34 c -1.15,-0.11 -2.64,-0.15 -3.84,-0.15 -1.34,0 -3.69,0.11 -4.78,0.15 v -2.34 c 0.45,0 2.89,-0.05 2.89,-0.59 0,-0.16 -0.14,-0.46 -0.2,-0.61 l -5.22,-12.75 -5.69,13.95 h 2.8 v 2.34 c -1.6,-0.04 -4.19,-0.15 -5.69,-0.15 -2.09,0 -4.19,0.11 -4.99,0.15 v -2.34 h 2.94 c 1.05,-2.5 1.05,-2.59 1.05,-2.64 0,-0.2 -0.14,-0.5 -0.19,-0.66 l -3.94,-9.56 -5.23,12.86 h 2.78 v 2.34 c -2.03,-0.11 -4.08,-0.15 -6.12,-0.15 -1.55,0 -3.74,0.11 -5.43,0.15 v -2.34 h 2.94 l 7.63,-18.64 c 0.34,-0.84 0.54,-1.34 1.78,-1.34 1.25,0 1.45,0.5 1.79,1.34 l 5.29,12.91 5.28,-12.91 c 0.36,-0.84 0.54,-1.34 1.79,-1.34 1.25,0 1.46,0.5 1.8,1.34 z"
           inkscape:connector-curvature="0"
           style="fill:#000000;stroke-width:0" /><path
           id="path860"
           d="m 559.58,406.25 v 0.3 l -0.01,0.3 -0.02,0.29 -0.02,0.28 -0.04,0.27 -0.03,0.26 -0.05,0.26 -0.05,0.24 -0.06,0.24 -0.06,0.23 -0.07,0.22 -0.08,0.21 -0.08,0.2 -0.09,0.19 -0.1,0.19 -0.1,0.17 -0.11,0.16 -0.11,0.16 -0.12,0.14 -0.12,0.13 -0.13,0.13 -0.13,0.11 -0.14,0.1 -0.14,0.1 -0.15,0.08 -0.16,0.07 -0.15,0.06 -0.17,0.05 -0.17,0.04 -0.17,0.03 -0.17,0.01 -0.18,0.01 c -1.65,0 -2.65,-1.25 -2.65,-2.64 0,-1.34 1,-2.64 2.65,-2.64 0.59,0 1.25,0.2 1.75,0.64 0.13,0.11 0.2,0.16 0.25,0.16 0.04,0 0.09,-0.05 0.09,-0.75 0,-3.69 -1.74,-6.68 -3.39,-8.32 -0.55,-0.54 -0.55,-0.65 -0.55,-0.79 0,-0.36 0.25,-0.55 0.5,-0.55 0.55,0 4.53,3.83 4.53,9.66 z"
           inkscape:connector-curvature="0"
           style="fill:#000000;stroke-width:0" /><path
           id="path862"
           d="m 583.46,440.23 v 0 0.01 0 0.01 0.02 l -0.01,0.01 v 0.02 0.02 0.02 l -0.01,0.02 v 0.02 l -0.01,0.02 -0.01,0.02 -0.01,0.03 -0.01,0.02 -0.01,0.03 -0.01,0.02 -0.02,0.03 -0.02,0.02 -0.02,0.02 -0.02,0.03 -0.01,0.01 -0.01,0.01 -0.02,0.01 -0.01,0.01 -0.02,0.01 -0.01,0.01 -0.02,0.01 -0.01,0.01 -0.02,0.01 -0.02,0.01 h -0.02 l -0.02,0.01 -0.02,0.01 h -0.02 l -0.02,0.01 -0.02,0.01 H 583 582.98 l -0.03,0.01 h -0.02 -0.03 l -0.03,0.01 h -0.02 -0.03 c -1.16,0 -4.79,-0.41 -6.08,-0.5 -0.41,-0.05 -0.96,-0.1 -0.96,-1 0,-0.6 0.46,-0.6 1.21,-0.6 2.39,0 2.48,-0.34 2.48,-0.84 0,-0.36 -0.45,-2.05 -0.7,-3.09 l -4.08,-16.24 c -0.59,-2.5 -0.79,-3.3 -0.79,-5.03 0,-4.73 2.63,-7.83 6.32,-7.83 v 1.1 c -1.7,0 -3.34,1.34 -3.34,5.03 0,0.95 0,1.89 0.8,5.03 l 1.09,4.59 c 0.3,1.1 0.3,1.19 0.75,1.74 2.44,3.23 4.69,3.98 5.98,3.98 1.8,0 3.15,-1.48 3.15,-4.69 0,-2.93 -1.66,-8.65 -2.55,-10.56 -1.64,-3.33 -3.94,-5.12 -5.88,-5.12 v -1.1 c 5.88,0 12,7.42 12,14.6 0,4.53 -2.64,7.96 -6.62,7.96 -2.28,0 -4.33,-1.43 -5.83,-2.98 z"
           inkscape:connector-curvature="0"
           style="fill:#000000;stroke-width:0" /><path
           id="path864"
           d="m 607.3,418.65 v 0.37 l -0.01,0.39 v 0.39 l -0.02,0.41 -0.04,0.84 -0.06,0.88 -0.08,0.92 -0.11,0.95 -0.13,0.97 -0.16,1.01 -0.2,1.02 -0.23,1.03 -0.27,1.05 -0.3,1.06 -0.35,1.07 -0.39,1.07 -0.22,0.53 -0.22,0.53 -0.24,0.53 -0.25,0.53 c -2.99,6.12 -7.27,9.36 -7.77,9.36 -0.29,0 -0.5,-0.19 -0.5,-0.49 0,-0.15 0,-0.25 0.94,-1.15 4.89,-4.92 7.74,-12.85 7.74,-23.27 0,-8.51 -1.85,-17.28 -8.03,-23.56 -0.65,-0.59 -0.65,-0.7 -0.65,-0.84 0,-0.3 0.21,-0.5 0.5,-0.5 0.5,0 4.97,3.39 7.93,9.71 2.53,5.47 3.12,11 3.12,15.19 z"
           inkscape:connector-curvature="0"
           style="fill:#000000;stroke-width:0" /></g>    </g>
    <g
       transform="translate(-155.28359,163.56895)"
       id="g911">
      <g
         style="font-style:normal;font-variant:normal;font-weight:normal;font-stretch:normal;letter-spacing:normal;word-spacing:normal;text-anchor:start;fill:none;fill-opacity:1;fill-rule:evenodd;stroke:#000000;stroke-linecap:butt;stroke-linejoin:miter;stroke-miterlimit:10.43299961;stroke-dasharray:none;stroke-dashoffset:0;stroke-opacity:1"
         id="g909"
         transform="matrix(0.3,0,0,-0.3,-52.5,222.75)"
         xml:space="preserve"
         stroke-miterlimit="10.433"
         font-style="normal"
         font-variant="normal"
         font-weight="normal"
         font-stretch="normal"
         font-size-adjust="none"
         letter-spacing="normal"
         word-spacing="normal"><path
           style="fill:#000000;stroke-width:0"
           inkscape:connector-curvature="0"
           d="m 492.24,424.93 0.05,0.12 0.04,0.11 0.03,0.06 0.03,0.05 0.03,0.05 0.04,0.05 0.04,0.04 0.04,0.05 0.05,0.04 0.06,0.05 0.06,0.04 0.06,0.04 0.08,0.03 0.08,0.04 0.08,0.03 0.1,0.03 0.11,0.03 0.11,0.03 0.13,0.02 0.06,0.01 0.07,0.02 0.07,0.01 0.08,0.01 0.07,0.01 0.08,0.01 0.09,0.01 h 0.08 l 0.09,0.01 0.1,0.01 h 0.09 l 0.1,0.01 0.1,0.01 h 0.11 l 0.11,0.01 h 0.11 0.12 l 0.12,0.01 h 0.12 0.13 0.13 0.14 v 2.34 c -1.16,-0.11 -2.64,-0.15 -3.84,-0.15 -1.35,0 -3.69,0.11 -4.79,0.15 v -2.34 c 0.46,0 2.89,-0.05 2.89,-0.59 0,-0.16 -0.14,-0.46 -0.2,-0.61 l -5.22,-12.75 -5.68,13.95 h 2.79 v 2.34 c -1.59,-0.04 -4.19,-0.15 -5.69,-0.15 -2.09,0 -4.18,0.11 -4.98,0.15 v -2.34 h 2.94 c 1.04,-2.5 1.04,-2.59 1.04,-2.64 0,-0.2 -0.14,-0.5 -0.18,-0.66 l -3.94,-9.56 -5.23,12.86 h 2.78 v 2.34 c -2.03,-0.11 -4.08,-0.15 -6.13,-0.15 -1.55,0 -3.73,0.11 -5.42,0.15 v -2.34 h 2.94 l 7.62,-18.64 c 0.35,-0.84 0.55,-1.34 1.78,-1.34 1.25,0 1.46,0.5 1.8,1.34 l 5.28,12.91 5.28,-12.91 c 0.36,-0.84 0.55,-1.34 1.8,-1.34 1.25,0 1.45,0.5 1.8,1.34 z"
           id="path907" /></g>    </g>
    <g
       id="g961"
       transform="translate(86.328057,84.189901)">
      <g
         word-spacing="normal"
         letter-spacing="normal"
         font-size-adjust="none"
         font-stretch="normal"
         font-weight="normal"
         font-variant="normal"
         font-style="normal"
         stroke-miterlimit="10.433"
         xml:space="preserve"
         transform="matrix(0.3,0,0,-0.3,-52.5,222.75)"
         id="g959"
         style="font-style:normal;font-variant:normal;font-weight:normal;font-stretch:normal;letter-spacing:normal;word-spacing:normal;text-anchor:start;fill:none;fill-opacity:1;fill-rule:evenodd;stroke:#000000;stroke-linecap:butt;stroke-linejoin:miter;stroke-miterlimit:10.43299961;stroke-dasharray:none;stroke-dashoffset:0;stroke-opacity:1"><path
           id="path957"
           d="m 467.43,440.23 v 0 0.01 0 0.01 l -0.01,0.02 v 0.01 0.02 0.02 0.02 l -0.01,0.02 v 0.02 l -0.01,0.02 -0.01,0.02 -0.01,0.03 -0.01,0.02 -0.01,0.03 -0.01,0.02 -0.02,0.03 -0.02,0.02 -0.02,0.02 -0.02,0.03 -0.01,0.01 -0.02,0.01 -0.01,0.01 -0.01,0.01 -0.02,0.01 -0.01,0.01 -0.02,0.01 -0.01,0.01 -0.02,0.01 -0.02,0.01 h -0.02 l -0.02,0.01 -0.02,0.01 h -0.02 l -0.02,0.01 -0.02,0.01 h -0.03 -0.02 l -0.03,0.01 h -0.02 -0.03 l -0.03,0.01 h -0.03 -0.02 c -1.16,0 -4.79,-0.41 -6.08,-0.5 -0.41,-0.05 -0.96,-0.1 -0.96,-1 0,-0.6 0.46,-0.6 1.21,-0.6 2.39,0 2.48,-0.34 2.48,-0.84 0,-0.36 -0.45,-2.05 -0.7,-3.09 l -4.08,-16.24 c -0.59,-2.5 -0.8,-3.3 -0.8,-5.03 0,-4.73 2.64,-7.83 6.33,-7.83 v 1.1 c -1.7,0 -3.34,1.34 -3.34,5.03 0,0.95 0,1.89 0.79,5.03 l 1.1,4.59 c 0.3,1.1 0.3,1.19 0.75,1.74 2.44,3.23 4.69,3.98 5.98,3.98 1.8,0 3.14,-1.48 3.14,-4.69 0,-2.93 -1.65,-8.65 -2.54,-10.56 -1.64,-3.33 -3.94,-5.12 -5.88,-5.12 v -1.1 c 5.88,0 12,7.42 12,14.6 0,4.53 -2.64,7.96 -6.62,7.96 -2.28,0 -4.33,-1.43 -5.83,-2.98 z"
           inkscape:connector-curvature="0"
           style="fill:#000000;stroke-width:0" /></g>    </g>
    <ellipse
       style="fill:none;stroke:#ff0000;stroke-width:1;stroke-miterlimit:4;stroke-dasharray:none;stroke-dashoffset:0;stroke-opacity:1"
       id="path1028"
       cx="51.757584"
       cy="230.94987"
       rx="46.371265"
       ry="9.3544331" />
    <ellipse
       style="fill:none;stroke:#ff0000;stroke-width:1.19457722;stroke-miterlimit:4;stroke-dasharray:none;stroke-dashoffset:0;stroke-opacity:1"
       id="path1033"
       cx="51.623947"
       cy="230.54897"
       rx="31.707785"
       ry="4.8471975" />
    <ellipse
       style="fill:none;stroke:#ff0000;stroke-width:1;stroke-miterlimit:4;stroke-dasharray:none;stroke-dashoffset:0;stroke-opacity:1"
       id="path1037"
       cx="52.024849"
       cy="231.61806"
       rx="57.329311"
       ry="15.367997" />
    <ellipse
       style="fill:none;stroke:#ff0000;stroke-width:1;stroke-miterlimit:4;stroke-dasharray:none;stroke-dashoffset:0;stroke-opacity:1"
       id="path1039"
       cx="52.960297"
       cy="232.01895"
       rx="67.886459"
       ry="19.243404" />
    <g
       id="g1090"
       transform="translate(-295.33282,4.8108518)">
      <path
         inkscape:connector-curvature="0"
         id="path1022"
         d="m 340.97302,209.24998 c -7.5026,-1.56017 -15.86036,-5.80419 -23.855,-12.11344 -3.50574,-2.76669 -10.67331,-9.89552 -14.14033,-14.06391 -5.03892,-6.05833 -10.34556,-13.5297 -13.51159,-19.0234 -9.31232,-16.15879 -16.1423,-46.43767 -19.6326,-87.035838 -0.37052,-4.309922 -0.75674,-9.295384 -0.85822,-11.0788 l -0.18453,-3.242577 1.30402,1.752698 c 9.40659,12.643102 33.27349,21.864125 63.28802,24.451437 2.60913,0.224911 6.09619,0.409625 7.74902,0.41047 l 3.00512,0.0016 0.18047,32.08798 c 0.0993,17.64839 0.2613,44.76444 0.36006,60.25787 l 0.1796,28.16988 -0.65441,-0.0192 c -0.35992,-0.0105 -1.81324,-0.26017 -3.22963,-0.55472 z"
         style="fill:url(#linearGradient1030);fill-opacity:1;stroke:none;stroke-width:1.02291667;stroke-miterlimit:4;stroke-dasharray:none;stroke-dashoffset:0;stroke-opacity:1" />
      <path
         inkscape:connector-curvature="0"
         id="path1032"
         d="m 344.69678,200.63088 c -0.0882,-5.0562 -0.2235,-27.23379 -0.30076,-49.28352 -0.0772,-22.04974 -0.21862,-45.06998 -0.31419,-51.15608 l -0.17375,-11.06566 1.13922,0.1528 c 1.41631,0.18997 13.19445,-0.21575 17.51949,-0.6035 29.54607,-2.648819 53.15619,-12.143897 61.78941,-24.849329 l 1.18658,-1.746252 -0.15412,1.469982 c -0.0848,0.80849 -0.33785,3.695002 -0.5624,6.414469 -2.1495,26.03286 -6.46856,52.52162 -11.37407,69.75734 -3.15695,11.09208 -6.38127,18.97181 -10.66662,26.0675 -11.24778,18.62418 -24.99505,32.82524 -38.14432,39.40346 -5.65401,2.82856 -10.66651,4.18382 -16.54198,4.47255 l -3.24221,0.15933 z"
         style="fill:url(#linearGradient1092);fill-opacity:1;stroke:none;stroke-width:1.01015258;stroke-miterlimit:4;stroke-dasharray:none;stroke-dashoffset:0;stroke-opacity:1" />
      <path
         inkscape:connector-curvature="0"
         id="path1042"
         d="M 336.818,91.086835 C 310.31554,89.58877 286.61535,81.93049 275.45086,71.257172 c -4.01489,-3.838263 -6.09774,-7.162901 -6.92044,-11.046299 -0.49464,-2.334847 -0.49363,-3.769521 0.004,-6.123797 3.33738,-15.779297 31.23338,-28.532458 67.5802,-30.895487 6.15508,-0.400163 22.34797,-0.165507 27.86467,0.403795 12.19263,1.258235 21.84879,3.213108 31.1278,6.301771 35.71632,11.888728 41.6686,33.690741 13.33887,48.857702 -17.00133,9.102056 -44.62685,13.858243 -71.62824,12.331978 z"
         style="fill:url(#linearGradient1050);fill-opacity:1;stroke:none;stroke-width:1.01015258;stroke-miterlimit:4;stroke-dasharray:none;stroke-dashoffset:0;stroke-opacity:1" />
    </g>
    <path
       style="fill:none;stroke:#000000;stroke-width:0.79481584;stroke-linecap:butt;stroke-linejoin:miter;stroke-miterlimit:4;stroke-dasharray:none;stroke-opacity:1;marker-end:url(#Arrow2Mend)"
       d="m 96.672947,228.55665 31.749263,-4.37063"
       id="path1041"
       inkscape:connector-curvature="0" />
    <path
       style="fill:none;stroke:#000000;stroke-width:0.5;stroke-linecap:butt;stroke-linejoin:miter;stroke-miterlimit:4;stroke-dasharray:0.5, 1;stroke-dashoffset:0;stroke-opacity:1"
       d="m 97.861576,180.16867 -1.18863,48.38798"
       id="path1821"
       inkscape:connector-curvature="0" />
    <g
       id="g3048"
       transform="translate(-308.42903,176.66516)">
      <g
         word-spacing="normal"
         letter-spacing="normal"
         font-size-adjust="none"
         font-stretch="normal"
         font-weight="normal"
         font-variant="normal"
         font-style="normal"
         stroke-miterlimit="10.433"
         xml:space="preserve"
         transform="matrix(0.393542,0,0,-0.393542,-68.86985,209.247)"
         id="g3046"
         style="font-style:normal;font-variant:normal;font-weight:normal;font-stretch:normal;letter-spacing:normal;word-spacing:normal;text-anchor:start;fill:none;fill-opacity:1;fill-rule:evenodd;stroke:#000000;stroke-linecap:butt;stroke-linejoin:miter;stroke-miterlimit:10.43299961;stroke-dasharray:none;stroke-dashoffset:0;stroke-opacity:1"><path
           id="path2938"
           d="m 971.98,329.58 0.01,0.01 0.01,0.02 0.01,0.01 0.01,0.02 0.01,0.02 0.01,0.02 0.01,0.02 0.01,0.02 0.01,0.02 0.01,0.02 0.01,0.02 0.01,0.03 0.02,0.05 0.02,0.04 0.02,0.05 0.02,0.05 v 0.03 l 0.01,0.02 0.01,0.03 v 0.02 l 0.01,0.02 v 0.02 l 0.01,0.03 v 0.02 l 0.01,0.02 v 0.02 0.02 0.02 c 0,0.35 -0.05,0.4 -1.19,0.4 h -34.39 c -1.14,0 -1.18,-0.05 -1.18,-0.4 0,-0.19 0.13,-0.55 0.25,-0.69 l 16.78,-33.64 c 0.35,-0.64 0.5,-0.94 1.34,-0.94 0.86,0 1,0.3 1.36,0.94 l 0.14,3.75 -13.7,27.39 H 969 l -13.66,-27.39 -0.14,-3.75 z"
           inkscape:connector-curvature="0"
           style="fill:#000000;stroke-width:0" /><path
           id="path2940"
           d="m 1001.6,327.03 v 0.15 l 0.1,0.14 v 0.14 0.13 l 0.1,0.13 v 0.11 0.12 l 0.1,0.1 v 0.1 l 0.1,0.09 v 0.09 l 0.1,0.08 v 0.08 l 0.1,0.07 0.1,0.07 v 0.06 l 0.1,0.06 0.1,0.05 0.1,0.05 0.1,0.05 0.1,0.03 0.1,0.04 0.2,0.03 0.1,0.02 v 0.01 l 0.1,0.01 0.1,0.01 0.1,0.01 v 0.01 l 0.1,0.01 0.1,0.01 0.1,0.01 h 0.1 l 0.1,0.01 h 0.1 l 0.1,0.01 h 0.1 0.2 0.1 0.1 0.1 c 0.8,0 1.4,0 1.4,0.96 0,0.44 -0.3,0.59 -0.7,0.59 -1.3,0 -4.3,-0.15 -5.55,-0.15 -1.64,0 -5.68,0.15 -7.33,0.15 -0.45,0 -1.04,0 -1.04,-1 0,-0.55 0.4,-0.55 1.7,-0.55 1.14,0 1.64,0 2.88,-0.09 1.2,-0.15 1.54,-0.31 1.54,-1 0,-0.3 -0.09,-0.65 -0.18,-1.05 l -5.74,-22.87 c -1.2,-4.83 -4.58,-7.47 -7.17,-7.47 -1.3,0 -3.94,0.5 -4.73,3.09 0.14,-0.04 0.5,-0.04 0.59,-0.04 1.94,0 3.23,1.69 3.23,3.19 0,1.59 -1.34,2.07 -2.18,2.07 -0.9,0 -3.35,-0.59 -3.35,-3.98 0,-3.08 2.64,-5.42 6.58,-5.42 4.59,0 9.77,3.28 11.02,8.22 z"
           inkscape:connector-curvature="0"
           style="fill:#000000;stroke-width:0" /><path
           id="path2942"
           d="m 1023.5,284.69 v 0.02 0.03 0.01 0.02 0.01 0.02 0.02 0.01 0.02 0.02 0.02 l -0.1,0.03 v 0.02 0.03 0.03 0.03 l -0.1,0.04 v 0.03 0.02 0.02 0.02 l -0.1,0.02 v 0.02 0.03 0.02 0.02 l -0.1,0.03 v 0.03 0.02 0.03 l -0.1,0.03 v 0.03 0.03 0.03 l -0.1,0.03 v 0.03 0.04 l -0.1,0.03 v 0.04 0.03 l -0.1,0.04 v 0.04 c -6.2,6.28 -7.8,15.69 -7.8,23.31 0,8.68 1.9,17.35 8,23.57 0.6,0.61 0.6,0.7 0.6,0.86 0,0.34 -0.2,0.48 -0.5,0.48 -0.5,0 -5,-3.38 -7.9,-9.7 -2.5,-5.49 -3.1,-11.02 -3.1,-15.21 0,-3.89 0.5,-9.9 3.3,-15.54 2.9,-6.13 7.2,-9.36 7.7,-9.36 0.3,0 0.5,0.14 0.5,0.5 z"
           inkscape:connector-curvature="0"
           style="fill:#000000;stroke-width:0" /><path
           id="path2944"
           d="m 1063.1,315.38 v 0.11 l 0.1,0.11 v 0.06 0.05 l 0.1,0.05 v 0.05 0.05 l 0.1,0.04 v 0.05 l 0.1,0.04 v 0.04 l 0.1,0.04 0.1,0.03 0.1,0.04 v 0.03 l 0.1,0.03 0.2,0.03 0.1,0.03 0.1,0.03 0.1,0.01 v 0.01 l 0.1,0.01 0.1,0.01 v 0.01 l 0.1,0.01 0.1,0.01 0.1,0.01 h 0.1 l 0.1,0.01 0.1,0.01 h 0.1 l 0.1,0.01 h 0.1 l 0.1,0.01 h 0.1 0.1 l 0.1,0.01 h 0.2 0.1 0.1 0.2 v 2.35 c -1.2,-0.11 -2.7,-0.16 -3.9,-0.16 -1.3,0 -3.7,0.11 -4.8,0.16 v -2.35 c 0.5,0 2.9,-0.04 2.9,-0.59 0,-0.16 -0.1,-0.45 -0.2,-0.61 l -5.2,-12.75 -5.7,13.95 h 2.8 v 2.35 c -1.6,-0.05 -4.2,-0.16 -5.7,-0.16 -2.1,0 -4.2,0.11 -4.9,0.16 v -2.35 h 2.9 c 1,-2.5 1,-2.59 1,-2.64 0,-0.2 -0.1,-0.5 -0.2,-0.66 l -3.9,-9.56 -5.2,12.86 h 2.8 v 2.35 c -2.1,-0.11 -4.1,-0.16 -6.2,-0.16 -1.5,0 -3.7,0.11 -5.4,0.16 v -2.35 h 2.9 l 7.7,-18.64 c 0.3,-0.84 0.5,-1.34 1.7,-1.34 1.3,0 1.5,0.5 1.9,1.34 l 5.2,12.91 5.3,-12.91 c 0.4,-0.84 0.6,-1.34 1.8,-1.34 1.3,0 1.5,0.5 1.8,1.34 z"
           inkscape:connector-curvature="0"
           style="fill:#000000;stroke-width:0" /><path
           id="path2946"
           d="m 1078.7,296.69 v 0.3 0.3 0.29 l -0.1,0.28 v 0.27 0.26 l -0.1,0.26 v 0.25 l -0.1,0.23 v 0.23 l -0.1,0.22 -0.1,0.21 -0.1,0.2 -0.1,0.2 -0.1,0.18 -0.1,0.17 -0.1,0.16 -0.1,0.16 -0.1,0.14 -0.1,0.13 -0.1,0.13 -0.2,0.11 -0.1,0.11 -0.2,0.09 -0.1,0.08 -0.2,0.07 -0.1,0.06 -0.2,0.05 -0.2,0.04 -0.1,0.03 -0.2,0.02 h -0.2 c -1.6,0 -2.6,-1.25 -2.6,-2.64 0,-1.34 1,-2.64 2.6,-2.64 0.6,0 1.3,0.2 1.8,0.64 0.1,0.11 0.2,0.16 0.2,0.16 0.1,0 0.1,-0.05 0.1,-0.75 0,-3.69 -1.7,-6.67 -3.4,-8.31 -0.5,-0.55 -0.5,-0.66 -0.5,-0.8 0,-0.36 0.2,-0.55 0.5,-0.55 0.5,0 4.5,3.83 4.5,9.66 z"
           inkscape:connector-curvature="0"
           style="fill:#000000;stroke-width:0" /><path
           id="path2948"
           d="m 1102.6,330.67 v 0 0.01 0.01 0.01 0.01 0.01 0.02 0.02 0.02 0.02 0.02 l -0.1,0.02 v 0.03 0.02 0.02 0.03 0.02 0.03 0.02 l -0.1,0.03 v 0.02 0.01 0.01 0.01 0.01 l -0.1,0.01 v 0.01 0.01 0.01 0.01 0.01 l -0.1,0.01 v 0 0.01 0.01 0 l -0.1,0.01 v 0 0.01 0 h -0.1 v 0.01 0 0 h -0.1 c -1.1,0 -4.7,-0.41 -6,-0.5 -0.5,-0.05 -1,-0.1 -1,-1 0,-0.6 0.5,-0.6 1.2,-0.6 2.4,0 2.5,-0.34 2.5,-0.84 0,-0.36 -0.5,-2.05 -0.7,-3.09 l -4.1,-16.24 c -0.6,-2.5 -0.8,-3.29 -0.8,-5.03 0,-4.73 2.7,-7.83 6.3,-7.83 v 1.1 c -1.7,0 -3.3,1.34 -3.3,5.03 0,0.95 0,1.89 0.8,5.03 l 1.1,4.59 c 0.3,1.1 0.3,1.19 0.7,1.74 2.5,3.23 4.7,3.98 6,3.98 1.8,0 3.2,-1.48 3.2,-4.68 0,-2.94 -1.7,-8.66 -2.6,-10.57 -1.6,-3.33 -3.9,-5.12 -5.9,-5.12 v -1.1 c 5.9,0 12,7.43 12,14.6 0,4.53 -2.6,7.97 -6.6,7.97 -2.3,0 -4.3,-1.44 -5.8,-2.99 z"
           inkscape:connector-curvature="0"
           style="fill:#000000;stroke-width:0" /><path
           id="path2950"
           d="m 1126.4,309.09 v 0.37 0.39 0.39 0.41 0.84 l -0.1,0.88 -0.1,0.92 -0.1,0.95 -0.1,0.98 -0.2,1 -0.2,1.02 -0.2,1.04 -0.3,1.05 -0.3,1.06 -0.3,1.06 -0.4,1.07 -0.2,0.53 -0.3,0.53 -0.2,0.53 -0.3,0.53 c -2.9,6.13 -7.2,9.36 -7.7,9.36 -0.3,0 -0.5,-0.19 -0.5,-0.48 0,-0.16 0,-0.25 0.9,-1.16 4.9,-4.92 7.7,-12.84 7.7,-23.27 0,-8.51 -1.8,-17.28 -8,-23.56 -0.6,-0.59 -0.6,-0.7 -0.6,-0.84 0,-0.3 0.2,-0.5 0.5,-0.5 0.5,0 4.9,3.39 7.9,9.72 2.5,5.47 3.1,11 3.1,15.18 z"
           inkscape:connector-curvature="0"
           style="fill:#000000;stroke-width:0" /><path
           id="path2952"
           d="m 1156.7,315.38 v 3.28 l -7.2,-0.55 v -1.55 c 3.6,0 3.9,-0.29 3.9,-2.48 v -23.31 c 0,-2.25 -0.5,-2.25 -3.9,-2.25 v -1.55 c 1.7,0.06 4.3,0.15 5.6,0.15 1.4,0 3.9,-0.09 5.7,-0.15 v 1.55 c -3.4,0 -3.9,0 -3.9,2.25 v 8.35 0.46 l 0.7,0.65 c -0.7,1.05 -0.7,1.1 -0.7,2.08 v 0 11.13 c 1.4,2.53 3.9,3.98 6.4,3.98 3.6,0 6.7,-4.39 6.7,-10.01 0,-6.03 -3.5,-10.22 -7.2,-10.22 -2,0 -3.9,1 -5.2,3.04 l -0.7,-0.65 c 0.2,-0.8 2.3,-3.49 6.1,-3.49 5.9,0 11.1,4.88 11.1,11.32 0,6.32 -4.8,11.25 -10.4,11.25 -3.9,0 -6,-2.19 -7,-3.28 z"
           inkscape:connector-curvature="0"
           style="fill:#000000;stroke-width:0" /><path
           id="path2954"
           d="m 1200.8,307.3 v 0.59 l -0.1,0.59 -0.1,0.58 -0.1,0.57 -0.1,0.56 -0.1,0.55 -0.2,0.54 -0.2,0.53 -0.2,0.51 -0.3,0.51 -0.2,0.48 -0.3,0.48 -0.3,0.45 -0.4,0.45 -0.3,0.42 -0.4,0.41 -0.4,0.38 -0.4,0.37 -0.4,0.35 -0.4,0.33 -0.5,0.3 -0.4,0.28 -0.5,0.26 -0.5,0.24 -0.5,0.21 -0.5,0.18 -0.5,0.16 -0.5,0.13 -0.6,0.11 -0.5,0.07 -0.6,0.05 -0.5,0.01 -0.1,-1.09 c 2.2,0 4.3,-1.09 5.6,-3.24 1.3,-2.14 1.3,-5.03 1.3,-6.92 0,-1.79 0,-4.48 -1.1,-6.67 -1.1,-2.25 -3.2,-3.69 -5.7,-3.69 v 0 c -2.2,0 -4.4,1.05 -5.7,3.33 -1.3,2.21 -1.3,5.24 -1.3,7.03 0,1.94 0,4.63 1.2,6.83 1.4,2.28 3.7,3.33 5.7,3.33 l 0.1,1.09 c -6.3,0 -11.1,-5.42 -11.1,-11.65 0,-6.42 5.2,-11.21 11,-11.21 6,0 11.1,4.88 11.1,11.21 z"
           inkscape:connector-curvature="0"
           style="fill:#000000;stroke-width:0" /><path
           id="path2956"
           d="m 1211.1,318.66 -7,-0.55 v -1.55 c 3.2,0 3.7,-0.29 3.7,-2.73 v -13.41 c 0,-2.23 -0.6,-2.23 -3.9,-2.23 v -1.55 c 1.6,0.05 4.3,0.16 5.5,0.16 1.7,0 3.5,-0.11 5.2,-0.16 v 1.55 c -3.3,0 -3.5,0.25 -3.5,2.19 z"
           inkscape:connector-curvature="0"
           style="fill:#000000;stroke-width:0" /><path
           id="path2958"
           d="m 1211.3,327.33 v 0.15 0.14 l -0.1,0.14 v 0.14 0.13 0.13 l -0.1,0.13 v 0.12 l -0.1,0.12 -0.1,0.12 v 0.11 l -0.1,0.1 -0.1,0.11 v 0.09 l -0.1,0.1 -0.1,0.09 -0.1,0.08 -0.1,0.08 -0.1,0.07 -0.1,0.07 -0.1,0.07 -0.1,0.06 -0.1,0.05 -0.2,0.05 -0.1,0.04 -0.1,0.04 -0.1,0.03 -0.1,0.03 -0.2,0.02 -0.1,0.02 -0.1,0.01 h -0.2 c -1.5,0 -2.6,-1.35 -2.6,-2.64 0,-1.35 1.1,-2.64 2.6,-2.64 1.4,0 2.7,1.04 2.7,2.64 z"
           inkscape:connector-curvature="0"
           style="fill:#000000;stroke-width:0" /><path
           id="path2960"
           d="m 1221.5,313.78 v -13.36 c 0,-2.23 -0.5,-2.23 -3.8,-2.23 v -1.55 c 1.7,0.05 4.2,0.16 5.6,0.16 1.3,0 3.9,-0.11 5.6,-0.16 v 1.55 c -3.4,0 -3.9,0 -3.9,2.23 v 9.17 c 0,5.19 3.5,7.97 6.7,7.97 3.1,0 3.7,-2.68 3.7,-5.53 v -11.61 c 0,-2.23 -0.6,-2.23 -3.9,-2.23 v -1.55 c 1.7,0.05 4.3,0.16 5.6,0.16 1.3,0 3.9,-0.11 5.6,-0.16 v 1.55 c -2.6,0 -3.8,0 -3.9,1.5 v 9.51 c 0,4.28 0,5.83 -1.5,7.61 -0.7,0.86 -2.4,1.85 -5.2,1.85 -3.7,0 -6,-2.14 -7.4,-5.22 v 5.22 l -7,-0.55 v -1.55 c 3.4,0 3.8,-0.34 3.8,-2.78 z"
           inkscape:connector-curvature="0"
           style="fill:#000000;stroke-width:0" /><path
           id="path2962"
           d="m 1251,316.56 h 7.1 v 1.55 h -7.1 v 9.17 h -1.3 c 0,-4.08 -1.5,-9.42 -6.4,-9.61 v -1.11 h 4.2 v -13.75 c 0,-6.12 4.7,-6.72 6.4,-6.72 3.6,0 5,3.53 5,6.72 v 2.85 h -1.3 v -2.74 c 0,-3.69 -1.5,-5.58 -3.3,-5.58 -3.3,0 -3.3,4.54 -3.3,5.38 z"
           inkscape:connector-curvature="0"
           style="fill:#000000;stroke-width:0" /><path
           id="path2964"
           d="m 1272,306.31 0.1,-0.02 0.1,-0.02 0.2,-0.03 0.1,-0.04 0.2,-0.03 0.2,-0.05 0.2,-0.05 0.2,-0.06 0.2,-0.06 0.2,-0.07 0.2,-0.08 0.2,-0.08 0.3,-0.1 0.2,-0.1 0.2,-0.11 0.2,-0.12 0.2,-0.13 0.2,-0.15 0.2,-0.15 0.2,-0.16 0.2,-0.18 0.2,-0.18 0.2,-0.2 0.1,-0.22 0.2,-0.22 0.1,-0.12 v -0.12 l 0.1,-0.12 v -0.13 l 0.1,-0.13 v -0.14 l 0.1,-0.14 v -0.14 -0.15 l 0.1,-0.15 v -0.15 -0.16 -0.16 -0.17 c 0,-2.53 -1.8,-4.53 -5.6,-4.53 -4.2,0 -6,2.84 -7,7.08 -0.1,0.64 -0.2,0.84 -0.7,0.84 -0.6,0 -0.6,-0.34 -0.6,-1.25 v -6.58 c 0,-0.84 0,-1.19 0.5,-1.19 0.3,0 0.3,0.05 1.3,1 0.1,0.1 0.1,0.19 1,1.14 2.2,-2.09 4.4,-2.14 5.5,-2.14 5.7,0 8,3.35 8,6.93 0,2.64 -1.5,4.14 -2.1,4.73 -1.6,1.59 -3.6,2 -5.7,2.39 -2.8,0.55 -6.1,1.2 -6.1,4.09 0,1.74 1.3,3.79 5.6,3.79 5.5,0 5.7,-4.49 5.8,-6.04 0.1,-0.45 0.5,-0.45 0.6,-0.45 0.6,0 0.6,0.25 0.6,1.2 v 5.04 c 0,0.84 0,1.18 -0.5,1.18 -0.3,0 -0.4,0 -1,-0.59 -0.1,-0.2 -0.6,-0.64 -0.9,-0.8 -1.8,1.39 -3.9,1.39 -4.6,1.39 -6.1,0 -8,-3.33 -8,-6.12 0,-1.74 0.8,-3.14 2.1,-4.24 1.6,-1.29 3,-1.59 6.6,-2.28 z"
           inkscape:connector-curvature="0"
           style="fill:#000000;stroke-width:0" /><path
           id="path2966"
           d="m 1306.6,318.66 -7,-0.55 v -1.55 c 3.2,0 3.7,-0.29 3.7,-2.73 v -13.41 c 0,-2.23 -0.5,-2.23 -3.9,-2.23 v -1.55 c 1.6,0.05 4.3,0.16 5.5,0.16 1.8,0 3.5,-0.11 5.2,-0.16 v 1.55 c -3.3,0 -3.5,0.25 -3.5,2.19 z"
           inkscape:connector-curvature="0"
           style="fill:#000000;stroke-width:0" /><path
           id="path2968"
           d="m 1306.8,327.33 v 0.15 0.14 0.14 l -0.1,0.14 v 0.13 0.13 l -0.1,0.13 v 0.12 l -0.1,0.12 v 0.12 l -0.1,0.11 -0.1,0.1 -0.1,0.11 v 0.09 l -0.1,0.1 -0.1,0.09 -0.1,0.08 -0.1,0.08 -0.1,0.07 -0.1,0.07 -0.1,0.07 -0.1,0.06 -0.1,0.05 -0.2,0.05 -0.1,0.04 -0.1,0.04 -0.1,0.03 -0.1,0.03 -0.2,0.02 -0.1,0.02 -0.1,0.01 h -0.1 c -1.6,0 -2.7,-1.35 -2.7,-2.64 0,-1.35 1.1,-2.64 2.7,-2.64 1.3,0 2.6,1.04 2.6,2.64 z"
           inkscape:connector-curvature="0"
           style="fill:#000000;stroke-width:0" /><path
           id="path2970"
           d="m 1317.1,313.78 v -13.36 c 0,-2.23 -0.6,-2.23 -3.9,-2.23 v -1.55 c 1.7,0.05 4.2,0.16 5.6,0.16 1.3,0 3.9,-0.11 5.6,-0.16 v 1.55 c -3.4,0 -3.9,0 -3.9,2.23 v 9.17 c 0,5.19 3.5,7.97 6.7,7.97 3.1,0 3.7,-2.68 3.7,-5.53 v -11.61 c 0,-2.23 -0.6,-2.23 -3.9,-2.23 v -1.55 c 1.8,0.05 4.3,0.16 5.7,0.16 1.2,0 3.8,-0.11 5.5,-0.16 v 1.55 c -2.6,0 -3.8,0 -3.9,1.5 v 9.51 c 0,4.28 0,5.83 -1.5,7.61 -0.7,0.86 -2.4,1.85 -5.2,1.85 -3.7,0 -6,-2.14 -7.4,-5.22 v 5.22 l -7,-0.55 v -1.55 c 3.5,0 3.9,-0.34 3.9,-2.78 z"
           inkscape:connector-curvature="0"
           style="fill:#000000;stroke-width:0" /><path
           id="path2972"
           d="m 1374.9,299.38 v -3.29 l 7.3,0.55 v 1.55 c -3.5,0 -3.9,0.34 -3.9,2.78 v 30.25 l -7.1,-0.55 v -1.55 c 3.5,0 3.9,-0.34 3.9,-2.79 v -10.75 c -1.5,1.78 -3.6,3.08 -6.3,3.08 l 0.2,-1.1 c 1.7,0 3.8,-0.75 5.4,-2.98 0.5,-0.85 0.5,-0.96 0.5,-1.85 v 0 -10.21 c 0,-0.9 0,-1 -0.5,-1.85 -1.5,-2.39 -3.8,-3.48 -5.9,-3.48 -2.3,0 -4.1,1.29 -5.3,3.19 -1.3,2.04 -1.4,4.89 -1.4,6.92 0,1.84 0.1,4.84 1.5,7.08 1.1,1.54 3,3.18 5.7,3.18 l -0.2,1.1 c -5.9,0 -11.1,-4.88 -11.1,-11.3 0,-6.33 4.9,-11.27 10.5,-11.27 3.2,0 5.5,1.69 6.7,3.29 z"
           inkscape:connector-curvature="0"
           style="fill:#000000;stroke-width:0" /><path
           id="path2974"
           d="m 1392.5,318.66 -7,-0.55 v -1.55 c 3.3,0 3.7,-0.29 3.7,-2.73 v -13.41 c 0,-2.23 -0.5,-2.23 -3.9,-2.23 v -1.55 c 1.6,0.05 4.3,0.16 5.5,0.16 1.8,0 3.5,-0.11 5.2,-0.16 v 1.55 c -3.3,0 -3.5,0.25 -3.5,2.19 z"
           inkscape:connector-curvature="0"
           style="fill:#000000;stroke-width:0" /><path
           id="path2976"
           d="m 1392.7,327.33 v 0.15 0.14 0.14 l -0.1,0.14 v 0.13 0.13 l -0.1,0.13 v 0.12 l -0.1,0.12 v 0.12 l -0.1,0.11 -0.1,0.1 v 0.11 l -0.1,0.09 -0.1,0.1 -0.1,0.09 -0.1,0.08 -0.1,0.08 -0.1,0.07 -0.1,0.07 -0.1,0.07 -0.1,0.06 -0.1,0.05 -0.1,0.05 -0.2,0.04 -0.1,0.04 -0.1,0.03 -0.1,0.03 -0.2,0.02 -0.1,0.02 -0.1,0.01 h -0.1 c -1.6,0 -2.7,-1.35 -2.7,-2.64 0,-1.35 1.1,-2.64 2.7,-2.64 1.3,0 2.6,1.04 2.6,2.64 z"
           inkscape:connector-curvature="0"
           style="fill:#000000;stroke-width:0" /><path
           id="path2978"
           d="m 1405.8,313.19 v 5.47 l -6.9,-0.55 v -1.55 c 3.5,0 3.9,-0.34 3.9,-2.78 v -13.36 c 0,-2.23 -0.6,-2.23 -3.9,-2.23 v -1.55 c 1.9,0.05 4.3,0.16 5.7,0.16 2,0 4.3,0 6.3,-0.16 v 1.55 h -1.1 c -3.6,0 -3.7,0.54 -3.7,2.34 v 7.67 c 0,4.92 2,9.36 5.8,9.36 0.4,0 0.5,0 0.6,-0.04 -0.2,-0.05 -1.2,-0.64 -1.2,-1.94 0,-1.41 1.1,-2.14 2.2,-2.14 0.9,0 2.1,0.59 2.1,2.18 0,1.6 -1.5,3.04 -3.7,3.04 -3.6,0 -5.4,-3.33 -6.1,-5.47 z"
           inkscape:connector-curvature="0"
           style="fill:#000000;stroke-width:0" /><path
           id="path2980"
           d="m 1422.6,308.16 v 1.04 c 0.3,7.42 4.5,8.66 6.2,8.66 5.1,0 5.6,-6.72 5.6,-8.66 h -11.8 v -1.04 h 13.9 c 1.1,0 1.2,0 1.2,1.04 0,4.92 -2.7,9.75 -8.9,9.75 -5.8,0 -10.4,-5.12 -10.4,-11.36 0,-6.67 5.3,-11.5 11,-11.5 6.1,0 8.3,5.53 8.3,6.47 0,0.5 -0.4,0.61 -0.6,0.61 -0.5,0 -0.6,-0.29 -0.7,-0.7 -1.7,-5.13 -6.2,-5.13 -6.7,-5.13 -2.5,0 -4.5,1.49 -5.6,3.33 -1.5,2.39 -1.5,5.69 -1.5,7.49 z"
           inkscape:connector-curvature="0"
           style="fill:#000000;stroke-width:0" /><path
           id="path2982"
           d="m 1444.9,307.5 0.1,0.38 v 0.36 0.36 0.35 0.35 l 0.1,0.33 v 0.32 0.32 l 0.1,0.31 v 0.3 l 0.1,0.29 v 0.29 l 0.2,0.55 0.1,0.51 0.2,0.49 0.2,0.46 0.2,0.43 0.2,0.4 0.2,0.38 0.2,0.35 0.3,0.33 0.2,0.3 0.3,0.27 0.2,0.26 0.3,0.23 0.3,0.21 0.3,0.19 0.2,0.17 0.3,0.14 0.3,0.13 0.3,0.12 0.3,0.09 0.3,0.08 0.2,0.06 0.3,0.05 0.3,0.03 0.2,0.02 0.3,0.01 c 0.4,0 3.6,-0.05 5.3,-1.84 -2,-0.16 -2.3,-1.65 -2.3,-2.3 0,-1.3 0.9,-2.3 2.3,-2.3 1.2,0 2.2,0.86 2.2,2.34 0,3.4 -3.7,5.33 -7.6,5.33 -6.2,0 -10.8,-5.37 -10.8,-11.54 0,-6.38 5,-11.32 10.7,-11.32 6.7,0 8.3,5.99 8.3,6.47 0,0.5 -0.5,0.5 -0.6,0.5 -0.5,0 -0.6,-0.18 -0.7,-0.5 -1.4,-4.62 -4.7,-5.22 -6.5,-5.22 -2.7,0 -7.1,2.14 -7.1,10.16 z"
           inkscape:connector-curvature="0"
           style="fill:#000000;stroke-width:0" /><path
           id="path2984"
           d="m 1469.8,316.56 h 7.1 v 1.55 h -7.1 v 9.17 h -1.2 c -0.1,-4.08 -1.6,-9.42 -6.4,-9.61 v -1.11 h 4.2 v -13.75 c 0,-6.12 4.6,-6.72 6.4,-6.72 3.5,0 5,3.53 5,6.72 v 2.85 h -1.3 v -2.74 c 0,-3.69 -1.5,-5.58 -3.3,-5.58 -3.4,0 -3.4,4.54 -3.4,5.38 z"
           inkscape:connector-curvature="0"
           style="fill:#000000;stroke-width:0" /><path
           id="path2986"
           d="m 1489.3,318.66 -6.9,-0.55 v -1.55 c 3.2,0 3.7,-0.29 3.7,-2.73 v -13.41 c 0,-2.23 -0.6,-2.23 -3.9,-2.23 v -1.55 c 1.6,0.05 4.2,0.16 5.4,0.16 1.8,0 3.5,-0.11 5.2,-0.16 v 1.55 c -3.3,0 -3.5,0.25 -3.5,2.19 z"
           inkscape:connector-curvature="0"
           style="fill:#000000;stroke-width:0" /><path
           id="path2988"
           d="m 1489.5,327.33 v 0.15 0.14 0.14 0.14 l -0.1,0.13 v 0.13 0.13 l -0.1,0.12 v 0.12 l -0.1,0.12 -0.1,0.11 v 0.1 l -0.1,0.11 -0.1,0.09 -0.1,0.1 -0.1,0.09 -0.1,0.08 -0.1,0.08 -0.1,0.07 -0.1,0.07 -0.1,0.07 -0.1,0.06 -0.1,0.05 -0.1,0.05 -0.1,0.04 -0.2,0.04 -0.1,0.03 -0.1,0.03 -0.1,0.02 -0.2,0.02 -0.1,0.01 h -0.1 c -1.6,0 -2.7,-1.35 -2.7,-2.64 0,-1.35 1.1,-2.64 2.7,-2.64 1.4,0 2.6,1.04 2.6,2.64 z"
           inkscape:connector-curvature="0"
           style="fill:#000000;stroke-width:0" /><path
           id="path2990"
           d="m 1517.8,307.3 v 0.59 l -0.1,0.59 v 0.58 l -0.1,0.57 -0.2,0.56 -0.1,0.55 -0.2,0.54 -0.2,0.53 -0.2,0.51 -0.3,0.51 -0.2,0.48 -0.3,0.48 -0.3,0.45 -0.4,0.45 -0.3,0.42 -0.4,0.41 -0.3,0.38 -0.4,0.37 -0.5,0.35 -0.4,0.33 -0.4,0.3 -0.5,0.28 -0.5,0.26 -0.5,0.24 -0.5,0.21 -0.5,0.18 -0.5,0.16 -0.5,0.13 -0.6,0.11 -0.5,0.07 -0.6,0.05 -0.5,0.01 -0.1,-1.09 c 2.2,0 4.4,-1.09 5.6,-3.24 1.3,-2.14 1.3,-5.03 1.3,-6.92 0,-1.79 0,-4.48 -1,-6.67 -1.2,-2.25 -3.3,-3.69 -5.8,-3.69 v 0 c -2.2,0 -4.4,1.05 -5.7,3.33 -1.3,2.21 -1.3,5.24 -1.3,7.03 0,1.94 0,4.63 1.2,6.83 1.4,2.28 3.7,3.33 5.7,3.33 l 0.1,1.09 c -6.2,0 -11.1,-5.42 -11.1,-11.65 0,-6.42 5.2,-11.21 11,-11.21 6.1,0 11.1,4.88 11.1,11.21 z"
           inkscape:connector-curvature="0"
           style="fill:#000000;stroke-width:0" /><path
           id="path2992"
           d="m 1524.8,313.78 v -13.36 c 0,-2.23 -0.6,-2.23 -3.9,-2.23 v -1.55 c 1.7,0.05 4.2,0.16 5.6,0.16 1.3,0 3.9,-0.11 5.6,-0.16 v 1.55 c -3.4,0 -3.9,0 -3.9,2.23 v 9.17 c 0,5.19 3.5,7.97 6.7,7.97 3.2,0 3.7,-2.68 3.7,-5.53 v -11.61 c 0,-2.23 -0.5,-2.23 -3.9,-2.23 v -1.55 c 1.8,0.05 4.3,0.16 5.6,0.16 1.3,0 3.9,-0.11 5.6,-0.16 v 1.55 c -2.6,0 -3.8,0 -3.9,1.5 v 9.51 c 0,4.28 0,5.83 -1.5,7.61 -0.7,0.86 -2.4,1.85 -5.2,1.85 -3.7,0 -6,-2.14 -7.4,-5.22 v 5.22 l -7,-0.55 v -1.55 c 3.4,0 3.9,-0.34 3.9,-2.78 z"
           inkscape:connector-curvature="0"
           style="fill:#000000;stroke-width:0" /><path
           id="path2994"
           d="m 975.79,232.54 -0.02,0.59 -0.04,0.59 -0.07,0.58 -0.1,0.57 -0.12,0.56 -0.15,0.55 -0.18,0.54 -0.19,0.53 -0.23,0.51 -0.24,0.5 -0.27,0.49 -0.29,0.47 -0.3,0.46 -0.33,0.44 -0.35,0.43 -0.37,0.4 -0.38,0.39 -0.4,0.37 -0.42,0.35 -0.43,0.32 -0.45,0.31 -0.46,0.28 -0.47,0.26 -0.49,0.24 -0.5,0.21 -0.51,0.18 -0.52,0.16 -0.53,0.13 -0.54,0.11 -0.55,0.07 -0.55,0.05 -0.57,0.01 -0.04,-1.09 c 2.18,0 4.32,-1.1 5.62,-3.24 1.3,-2.14 1.3,-5.03 1.3,-6.92 0,-1.79 0,-4.48 -1.1,-6.67 -1.09,-2.25 -3.28,-3.69 -5.78,-3.69 v 0 c -2.14,0 -4.32,1.05 -5.67,3.33 -1.25,2.2 -1.25,5.24 -1.25,7.03 0,1.94 0,4.63 1.19,6.83 1.36,2.28 3.69,3.33 5.69,3.33 l 0.04,1.09 c -6.22,0 -11.06,-5.42 -11.06,-11.65 0,-6.43 5.19,-11.21 11.02,-11.21 6.03,0 11.06,4.88 11.06,11.21 z"
           inkscape:connector-curvature="0"
           style="fill:#000000;stroke-width:0" /><path
           id="path2996"
           d="m 986,243.35 v 5.78 c 0,4.39 2.39,6.78 4.57,6.78 0.16,0 0.91,0 1.66,-0.36 -0.61,-0.19 -1.5,-0.84 -1.5,-2.08 0,-1.15 0.8,-2.15 2.14,-2.15 1.44,0 2.19,1 2.19,2.2 0,1.84 -1.84,3.48 -4.49,3.48 -3.48,0 -7.72,-2.64 -7.72,-7.92 v -5.73 h -3.93 v -1.55 h 3.93 v -16.14 c 0,-2.23 -0.54,-2.23 -3.88,-2.23 v -1.55 c 1.95,0.05 4.29,0.16 5.68,0.16 1.99,0 4.33,0 6.33,-0.16 v 1.55 h -1.05 c -3.68,0 -3.78,0.54 -3.78,2.34 v 16.03 h 5.67 v 1.55 z"
           inkscape:connector-curvature="0"
           style="fill:#000000;stroke-width:0" /><path
           id="path2998"
           d="m 1017.8,243.9 -7,-0.55 v -1.55 c 3.2,0 3.7,-0.3 3.7,-2.73 v -13.41 c 0,-2.23 -0.6,-2.23 -3.9,-2.23 v -1.55 c 1.6,0.05 4.3,0.16 5.5,0.16 1.7,0 3.5,-0.11 5.2,-0.16 v 1.55 c -3.3,0 -3.5,0.25 -3.5,2.18 z"
           inkscape:connector-curvature="0"
           style="fill:#000000;stroke-width:0" /><path
           id="path3000"
           d="m 1018,252.57 v 0.14 0.15 l -0.1,0.14 v 0.14 0.13 l -0.1,0.13 v 0.13 0.12 l -0.1,0.12 -0.1,0.11 V 254 l -0.1,0.1 -0.1,0.1 -0.1,0.1 v 0.1 l -0.1,0.08 -0.1,0.09 -0.1,0.08 -0.1,0.07 -0.1,0.07 -0.1,0.07 -0.1,0.06 -0.2,0.05 -0.1,0.05 -0.1,0.04 -0.1,0.04 -0.1,0.03 -0.2,0.03 -0.1,0.02 -0.1,0.01 -0.1,0.01 -0.2,0.01 c -1.5,0 -2.6,-1.35 -2.6,-2.64 0,-1.35 1.1,-2.64 2.6,-2.64 1.4,0 2.7,1.04 2.7,2.64 z"
           inkscape:connector-curvature="0"
           style="fill:#000000;stroke-width:0" /><path
           id="path3002"
           d="m 1028.2,239.02 v -13.36 c 0,-2.23 -0.5,-2.23 -3.9,-2.23 v -1.55 c 1.8,0.05 4.3,0.16 5.7,0.16 1.3,0 3.9,-0.11 5.6,-0.16 v 1.55 c -3.4,0 -3.9,0 -3.9,2.23 v 9.17 c 0,5.19 3.5,7.97 6.7,7.97 3.1,0 3.7,-2.69 3.7,-5.53 v -11.61 c 0,-2.23 -0.6,-2.23 -3.9,-2.23 v -1.55 c 1.7,0.05 4.3,0.16 5.6,0.16 1.3,0 3.9,-0.11 5.6,-0.16 v 1.55 c -2.6,0 -3.8,0 -3.9,1.5 v 9.51 c 0,4.28 0,5.83 -1.5,7.61 -0.7,0.86 -2.4,1.85 -5.2,1.85 -3.7,0 -6,-2.15 -7.4,-5.22 v 5.22 l -7.1,-0.55 v -1.55 c 3.5,0 3.9,-0.34 3.9,-2.78 z"
           inkscape:connector-curvature="0"
           style="fill:#000000;stroke-width:0" /><path
           id="path3004"
           d="m 1056.3,232.74 v 0.37 0.37 0.36 0.35 l 0.1,0.34 v 0.34 0.32 l 0.1,0.32 v 0.31 l 0.1,0.3 v 0.29 l 0.1,0.29 0.1,0.55 0.2,0.51 0.1,0.49 0.2,0.46 0.2,0.43 0.2,0.4 0.3,0.38 0.2,0.35 0.2,0.32 0.3,0.3 0.2,0.28 0.3,0.25 0.3,0.24 0.2,0.21 0.3,0.18 0.3,0.17 0.3,0.15 0.3,0.13 0.3,0.12 0.2,0.09 0.3,0.08 0.3,0.06 0.3,0.05 0.2,0.03 0.3,0.02 0.2,0.01 c 0.5,0 3.6,-0.05 5.4,-1.85 -2.1,-0.15 -2.4,-1.64 -2.4,-2.29 0,-1.3 0.9,-2.3 2.3,-2.3 1.3,0 2.3,0.86 2.3,2.34 0,3.39 -3.8,5.33 -7.6,5.33 -6.2,0 -10.8,-5.37 -10.8,-11.54 0,-6.38 4.9,-11.32 10.7,-11.32 6.7,0 8.2,5.99 8.2,6.47 0,0.5 -0.5,0.5 -0.6,0.5 -0.4,0 -0.5,-0.19 -0.7,-0.5 -1.4,-4.62 -4.6,-5.22 -6.5,-5.22 -2.6,0 -7,2.14 -7,10.16 z"
           inkscape:connector-curvature="0"
           style="fill:#000000;stroke-width:0" /><path
           id="path3006"
           d="m 1080.9,238.43 v 5.47 l -7,-0.55 v -1.55 c 3.5,0 3.9,-0.34 3.9,-2.78 v -13.36 c 0,-2.23 -0.5,-2.23 -3.9,-2.23 v -1.55 c 2,0.05 4.3,0.16 5.7,0.16 2,0 4.4,0 6.4,-0.16 v 1.55 h -1.1 c -3.7,0 -3.8,0.54 -3.8,2.34 v 7.67 c 0,4.92 2.1,9.36 5.9,9.36 0.3,0 0.4,0 0.6,-0.05 -0.2,-0.04 -1.2,-0.64 -1.2,-1.93 0,-1.41 1,-2.14 2.2,-2.14 0.8,0 2.1,0.59 2.1,2.18 0,1.6 -1.6,3.04 -3.7,3.04 -3.6,0 -5.4,-3.33 -6.1,-5.47 z"
           inkscape:connector-curvature="0"
           style="fill:#000000;stroke-width:0" /><path
           id="path3008"
           d="m 1097.6,233.4 0.1,1.04 c 0.3,7.42 4.5,8.66 6.2,8.66 5.1,0 5.6,-6.72 5.6,-8.66 h -11.8 l -0.1,-1.04 h 14 c 1,0 1.2,0 1.2,1.04 0,4.92 -2.7,9.75 -8.9,9.75 -5.8,0 -10.4,-5.12 -10.4,-11.36 0,-6.67 5.2,-11.5 11,-11.5 6.1,0 8.3,5.53 8.3,6.47 0,0.5 -0.4,0.61 -0.7,0.61 -0.4,0 -0.5,-0.3 -0.6,-0.7 -1.7,-5.13 -6.2,-5.13 -6.7,-5.13 -2.5,0 -4.5,1.49 -5.7,3.33 -1.5,2.39 -1.5,5.69 -1.5,7.49 z"
           inkscape:connector-curvature="0"
           style="fill:#000000;stroke-width:0" /><path
           id="path3010"
           d="m 1130.8,225.66 v -0.19 -0.18 l 0.1,-0.19 v -0.18 l 0.1,-0.19 v -0.18 l 0.1,-0.18 v -0.18 l 0.1,-0.18 0.1,-0.17 0.1,-0.18 0.1,-0.16 0.1,-0.16 0.1,-0.16 0.1,-0.16 0.1,-0.14 0.1,-0.14 0.2,-0.14 0.1,-0.13 0.2,-0.12 0.1,-0.12 0.2,-0.1 0.1,-0.1 0.2,-0.09 0.2,-0.08 0.2,-0.07 0.1,-0.06 0.2,-0.05 0.2,-0.04 0.2,-0.03 0.3,-0.02 0.2,-0.01 c 1,0 4.1,0.71 4.1,4.74 v 2.78 h -1.3 v -2.78 c 0,-2.89 -1.2,-3.19 -1.8,-3.19 -1.6,0 -1.8,2.23 -1.8,2.48 v 9.97 c 0,2.1 0,4.03 -1.8,5.88 -2,1.94 -4.5,2.73 -6.9,2.73 -4,0 -7.5,-2.33 -7.5,-5.62 0,-1.49 1,-2.35 2.3,-2.35 1.4,0 2.3,1 2.3,2.3 0,0.59 -0.2,2.23 -2.5,2.3 1.3,1.73 3.8,2.28 5.3,2.28 2.5,0 5.3,-1.94 5.3,-6.38 v -1.84 -1.05 -4.98 c 0,-4.74 -3.6,-6.42 -5.8,-6.42 -2.4,0 -4.5,1.75 -4.5,4.23 0,2.74 2.1,6.88 10.3,7.17 v 0 1.05 c -2.5,-0.14 -6,-0.3 -9.1,-1.8 -3.8,-1.68 -5,-4.28 -5,-6.47 0,-4.03 4.8,-5.28 7.9,-5.28 3.4,0 5.6,1.99 6.6,4.33 z"
           inkscape:connector-curvature="0"
           style="fill:#000000;stroke-width:0" /><path
           id="path3012"
           d="m 1149.5,231.55 0.1,-0.02 0.1,-0.02 0.2,-0.03 0.1,-0.04 0.2,-0.04 0.2,-0.04 0.2,-0.05 0.2,-0.06 0.2,-0.06 0.2,-0.07 0.2,-0.08 0.2,-0.08 0.2,-0.1 0.3,-0.1 0.2,-0.11 0.2,-0.12 0.2,-0.14 0.2,-0.14 0.2,-0.15 0.2,-0.16 0.2,-0.18 0.2,-0.19 0.2,-0.2 0.1,-0.21 0.2,-0.22 v -0.12 l 0.1,-0.12 0.1,-0.13 v -0.12 l 0.1,-0.14 v -0.13 l 0.1,-0.14 v -0.14 -0.15 -0.15 l 0.1,-0.16 v -0.15 -0.17 -0.16 c 0,-2.53 -1.8,-4.53 -5.6,-4.53 -4.2,0 -6,2.84 -7,7.07 -0.1,0.65 -0.2,0.85 -0.7,0.85 -0.6,0 -0.6,-0.35 -0.6,-1.25 v -6.58 c 0,-0.84 0,-1.19 0.5,-1.19 0.3,0 0.3,0.05 1.3,1 0.1,0.1 0.1,0.19 1,1.14 2.2,-2.09 4.4,-2.14 5.5,-2.14 5.7,0 8,3.35 8,6.92 0,2.65 -1.5,4.15 -2.1,4.74 -1.7,1.59 -3.6,2 -5.7,2.39 -2.8,0.55 -6.1,1.2 -6.1,4.09 0,1.74 1.3,3.78 5.6,3.78 5.4,0 5.7,-4.48 5.8,-6.03 0,-0.45 0.5,-0.45 0.6,-0.45 0.6,0 0.6,0.25 0.6,1.2 V 243 c 0,0.85 0,1.19 -0.5,1.19 -0.3,0 -0.4,0 -1,-0.59 -0.2,-0.2 -0.7,-0.64 -0.9,-0.8 -1.8,1.39 -3.9,1.39 -4.6,1.39 -6.1,0 -8,-3.33 -8,-6.12 0,-1.74 0.8,-3.14 2.1,-4.24 1.6,-1.29 3,-1.59 6.6,-2.28 z"
           inkscape:connector-curvature="0"
           style="fill:#000000;stroke-width:0" /><path
           id="path3014"
           d="m 1167.6,243.9 -6.9,-0.55 v -1.55 c 3.2,0 3.7,-0.3 3.7,-2.73 v -13.41 c 0,-2.23 -0.6,-2.23 -3.9,-2.23 v -1.55 c 1.6,0.05 4.3,0.16 5.4,0.16 1.8,0 3.5,-0.11 5.2,-0.16 v 1.55 c -3.3,0 -3.5,0.25 -3.5,2.18 z"
           inkscape:connector-curvature="0"
           style="fill:#000000;stroke-width:0" /><path
           id="path3016"
           d="m 1167.8,252.57 v 0.14 0.15 0.14 0.14 0.13 l -0.1,0.13 v 0.13 l -0.1,0.12 v 0.12 l -0.1,0.11 -0.1,0.12 v 0.1 l -0.1,0.1 -0.1,0.1 -0.1,0.1 -0.1,0.08 -0.1,0.09 v 0.08 l -0.1,0.07 -0.2,0.07 -0.1,0.07 -0.1,0.06 -0.1,0.05 -0.1,0.05 -0.1,0.04 -0.1,0.04 -0.2,0.03 -0.1,0.03 -0.1,0.02 -0.1,0.01 -0.2,0.01 -0.1,0.01 c -1.5,0 -2.6,-1.35 -2.6,-2.64 0,-1.35 1.1,-2.64 2.6,-2.64 1.4,0 2.6,1.04 2.6,2.64 z"
           inkscape:connector-curvature="0"
           style="fill:#000000;stroke-width:0" /><path
           id="path3018"
           d="m 1178.1,239.02 v -13.36 c 0,-2.23 -0.5,-2.23 -3.9,-2.23 v -1.55 c 1.8,0.05 4.3,0.16 5.6,0.16 1.3,0 3.9,-0.11 5.6,-0.16 v 1.55 c -3.3,0 -3.9,0 -3.9,2.23 v 9.17 c 0,5.19 3.6,7.97 6.8,7.97 3.1,0 3.6,-2.69 3.6,-5.53 v -11.61 c 0,-2.23 -0.5,-2.23 -3.8,-2.23 v -1.55 c 1.7,0.05 4.3,0.16 5.6,0.16 1.3,0 3.9,-0.11 5.6,-0.16 v 1.55 c -2.6,0 -3.9,0 -3.9,1.5 v 9.51 c 0,4.28 0,5.83 -1.6,7.61 -0.6,0.86 -2.3,1.85 -5.2,1.85 -3.6,0 -6,-2.15 -7.4,-5.22 v 5.22 l -7,-0.55 v -1.55 c 3.5,0 3.9,-0.34 3.9,-2.78 z"
           inkscape:connector-curvature="0"
           style="fill:#000000;stroke-width:0" /><path
           id="path3020"
           d="m 1205.6,228.5 v 0.03 0.02 0.03 0.04 0.04 0.05 0.05 0.06 0.05 0.07 l 0.1,0.06 v 0.07 0.07 0.08 0.08 0.08 0.08 l 0.1,0.08 v 0.09 0.09 l 0.1,0.09 v 0.09 0.09 l 0.1,0.1 v 0.09 l 0.1,0.1 v 0.09 l 0.1,0.1 v 0.09 l 0.1,0.1 0.1,0.09 0.1,0.1 c 1.9,-1.39 3.9,-1.55 4.9,-1.55 v 1.14 c -4.3,0 -4.3,4.99 -4.3,6.14 0,1.35 0,2.94 0.8,4.17 0.4,0.61 1.5,2 3.5,2 4.3,0 4.3,-4.98 4.3,-6.12 0,-1.34 0,-2.94 -0.8,-4.19 -0.4,-0.59 -1.5,-2 -3.5,-2 v 0 -1.14 c 4.6,0 8.1,3.44 8.1,7.28 0,1.85 -0.8,3.69 -2.1,4.83 1.8,1.69 3.6,1.94 4.5,1.94 0.1,0 0.4,0 0.5,-0.05 -0.5,-0.2 -0.8,-0.75 -0.8,-1.34 0,-0.85 0.7,-1.44 1.5,-1.44 0.5,0 1.4,0.34 1.4,1.48 0,0.85 -0.6,2.44 -2.5,2.44 -1,0 -3.2,-0.29 -5.3,-2.33 -2.1,1.64 -4.2,1.79 -5.3,1.79 -4.6,0 -8.1,-3.44 -8.1,-7.27 0,-2.19 1.1,-4.09 2.4,-5.14 -0.7,-0.74 -1.6,-2.39 -1.6,-4.13 0,-1.54 0.7,-3.43 2.2,-4.43 -3,-0.85 -4.6,-2.99 -4.6,-4.99 0,-3.58 5,-6.33 11.1,-6.33 v 1.14 c -5,0 -8.5,2.55 -8.5,5.19 0,2.3 1.9,4.14 4.1,4.28 h 3 c 4.2,0 9.8,0 9.8,-4.28 0,-2.69 -3.5,-5.19 -8.4,-5.19 v 0 -1.14 c 5.8,0 11,2.55 11,6.43 0,1.75 -0.7,4.29 -3.2,5.68 -2.7,1.39 -5.6,1.39 -8.6,1.39 -1.2,0 -3.4,0 -3.7,0.05 -1.6,0.2 -2.7,1.75 -2.7,3.34 z"
           inkscape:connector-curvature="0"
           style="fill:#000000;stroke-width:0" /><path
           id="path3022"
           d="m 1268.8,252.27 v 0.15 l 0.1,0.14 v 0.14 l 0.1,0.13 v 0.12 0.12 l 0.1,0.11 v 0.11 0.1 l 0.1,0.09 v 0.09 l 0.1,0.08 v 0.08 l 0.1,0.07 0.1,0.07 0.1,0.06 v 0.06 l 0.1,0.05 0.1,0.05 0.1,0.04 0.1,0.04 0.2,0.04 0.1,0.03 0.1,0.01 v 0.02 l 0.1,0.01 0.1,0.01 0.1,0.01 0.1,0.01 0.1,0.01 v 0.01 h 0.1 l 0.1,0.01 0.1,0.01 h 0.1 0.1 l 0.2,0.01 h 0.1 0.1 0.1 0.1 c 0.8,0 1.4,0 1.4,0.96 0,0.43 -0.3,0.59 -0.7,0.59 -1.3,0 -4.3,-0.16 -5.5,-0.16 -1.7,0 -5.7,0.16 -7.4,0.16 -0.4,0 -1,0 -1,-1 0,-0.55 0.4,-0.55 1.7,-0.55 1.1,0 1.6,0 2.9,-0.09 1.2,-0.16 1.5,-0.31 1.5,-1 0,-0.3 -0.1,-0.66 -0.2,-1.05 l -5.7,-22.87 c -1.2,-4.83 -4.6,-7.47 -7.2,-7.47 -1.3,0 -3.9,0.5 -4.7,3.09 0.1,-0.04 0.5,-0.04 0.6,-0.04 1.9,0 3.2,1.68 3.2,3.18 0,1.6 -1.3,2.08 -2.2,2.08 -0.9,0 -3.3,-0.59 -3.3,-3.98 0,-3.08 2.6,-5.42 6.6,-5.42 4.6,0 9.7,3.28 11,8.21 z"
           inkscape:connector-curvature="0"
           style="fill:#000000;stroke-width:0" /><path
           id="path3024"
           d="m 1290.7,209.93 v 0.02 0.03 0.01 0.02 0.01 0.02 0.01 0.02 0.02 0.02 0.02 0.03 0.02 l -0.1,0.03 v 0.03 0.03 0.03 l -0.1,0.04 v 0.02 0.02 0.02 0.02 l -0.1,0.02 v 0.03 0.02 0.02 0.03 l -0.1,0.02 v 0.03 0.03 0.03 l -0.1,0.03 v 0.03 0.03 l -0.1,0.03 v 0.03 0.04 l -0.1,0.03 v 0.04 0.03 l -0.1,0.04 v 0.04 c -6.2,6.28 -7.8,15.69 -7.8,23.31 0,8.67 1.9,17.35 8,23.56 0.6,0.61 0.6,0.71 0.6,0.86 0,0.35 -0.1,0.49 -0.5,0.49 -0.4,0 -4.9,-3.38 -7.9,-9.7 -2.5,-5.49 -3.1,-11.02 -3.1,-15.21 0,-3.89 0.5,-9.9 3.3,-15.54 3,-6.13 7.3,-9.36 7.7,-9.36 0.4,0 0.5,0.14 0.5,0.5 z"
           inkscape:connector-curvature="0"
           style="fill:#000000;stroke-width:0" /><path
           id="path3026"
           d="m 1330.3,240.61 v 0.12 l 0.1,0.11 v 0.06 0.05 l 0.1,0.05 v 0.05 l 0.1,0.04 v 0.05 0.04 l 0.1,0.05 0.1,0.04 v 0.04 l 0.1,0.03 0.1,0.04 0.1,0.03 0.1,0.03 0.1,0.03 0.1,0.03 0.1,0.02 0.1,0.01 v 0.02 l 0.1,0.01 0.1,0.01 0.1,0.01 v 0.01 l 0.1,0.01 h 0.1 l 0.1,0.01 0.1,0.01 h 0.1 l 0.1,0.01 0.1,0.01 h 0.1 l 0.1,0.01 h 0.1 0.1 l 0.2,0.01 h 0.1 0.1 0.1 0.2 V 244 c -1.2,-0.1 -2.7,-0.15 -3.9,-0.15 -1.3,0 -3.6,0.11 -4.7,0.15 v -2.34 c 0.4,0 2.8,-0.05 2.8,-0.59 0,-0.16 -0.1,-0.46 -0.2,-0.61 l -5.2,-12.75 -5.7,13.95 h 2.8 V 244 c -1.6,-0.04 -4.2,-0.15 -5.7,-0.15 -2.1,0 -4.1,0.11 -4.9,0.15 v -2.34 h 2.9 c 1,-2.5 1,-2.59 1,-2.64 0,-0.2 -0.1,-0.5 -0.1,-0.66 l -4,-9.56 -5.2,12.86 h 2.8 V 244 c -2.1,-0.1 -4.1,-0.15 -6.2,-0.15 -1.5,0 -3.7,0.11 -5.4,0.15 v -2.34 h 3 l 7.6,-18.64 c 0.3,-0.84 0.5,-1.34 1.8,-1.34 1.2,0 1.4,0.5 1.8,1.34 l 5.2,12.91 5.3,-12.91 c 0.4,-0.84 0.6,-1.34 1.8,-1.34 1.3,0 1.5,0.5 1.8,1.34 z"
           inkscape:connector-curvature="0"
           style="fill:#000000;stroke-width:0" /><path
           id="path3028"
           d="m 1345.9,221.93 v 0.3 0.3 0.29 0.28 l -0.1,0.27 v 0.26 l -0.1,0.26 v 0.24 l -0.1,0.24 v 0.23 l -0.1,0.22 -0.1,0.21 -0.1,0.2 v 0.19 l -0.1,0.19 -0.1,0.17 -0.2,0.16 -0.1,0.16 -0.1,0.14 -0.1,0.13 -0.1,0.13 -0.2,0.11 -0.1,0.1 -0.1,0.1 -0.2,0.08 -0.2,0.07 -0.1,0.06 -0.2,0.05 -0.1,0.04 -0.2,0.03 -0.2,0.01 -0.2,0.01 c -1.6,0 -2.6,-1.25 -2.6,-2.64 0,-1.34 1,-2.64 2.6,-2.64 0.6,0 1.3,0.2 1.8,0.64 0.1,0.11 0.2,0.16 0.2,0.16 0.1,0 0.1,-0.05 0.1,-0.75 0,-3.69 -1.7,-6.68 -3.4,-8.32 -0.5,-0.54 -0.5,-0.65 -0.5,-0.79 0,-0.36 0.2,-0.55 0.5,-0.55 0.5,0 4.5,3.83 4.5,9.66 z"
           inkscape:connector-curvature="0"
           style="fill:#000000;stroke-width:0" /><path
           id="path3030"
           d="m 1369.8,255.91 v 0 0.01 0 0.01 0.02 0.01 0.02 0.02 0.02 0.02 0.02 0.02 0.02 l -0.1,0.03 v 0.02 0.03 0.02 0.03 0.02 0.02 l -0.1,0.03 v 0.01 0.01 0.01 0.01 0.01 0.01 l -0.1,0.01 v 0.01 0.01 0.01 0 l -0.1,0.01 v 0.01 0 0.01 0.01 h -0.1 v 0 0.01 0 h -0.1 v 0.01 0 0 c -1.2,0 -4.8,-0.41 -6.1,-0.5 -0.4,-0.05 -1,-0.1 -1,-1 0,-0.6 0.5,-0.6 1.2,-0.6 2.4,0 2.5,-0.34 2.5,-0.84 0,-0.36 -0.5,-2.05 -0.7,-3.09 l -4.1,-16.24 c -0.6,-2.5 -0.8,-3.29 -0.8,-5.03 0,-4.73 2.7,-7.83 6.4,-7.83 v 1.1 c -1.8,0 -3.4,1.34 -3.4,5.03 0,0.95 0,1.89 0.8,5.03 l 1.1,4.59 c 0.3,1.1 0.3,1.19 0.7,1.74 2.5,3.23 4.7,3.98 6,3.98 1.8,0 3.2,-1.48 3.2,-4.69 0,-2.93 -1.7,-8.65 -2.6,-10.56 -1.6,-3.33 -3.9,-5.12 -5.8,-5.12 v -1.1 c 5.8,0 12,7.42 12,14.6 0,4.53 -2.7,7.97 -6.7,7.97 -2.2,0 -4.3,-1.44 -5.8,-2.99 z"
           inkscape:connector-curvature="0"
           style="fill:#000000;stroke-width:0" /><path
           id="path3032"
           d="m 1393.6,234.33 v 0.37 0.39 0.39 0.41 0.84 l -0.1,0.88 -0.1,0.92 -0.1,0.95 -0.1,0.97 -0.2,1.01 -0.2,1.02 -0.2,1.03 -0.3,1.05 -0.3,1.06 -0.3,1.07 -0.4,1.07 -0.2,0.53 -0.3,0.53 -0.2,0.53 -0.3,0.53 c -2.9,6.12 -7.2,9.36 -7.7,9.36 -0.3,0 -0.5,-0.19 -0.5,-0.49 0,-0.15 0,-0.25 0.9,-1.15 4.9,-4.92 7.8,-12.85 7.8,-23.27 0,-8.51 -1.9,-17.28 -8.1,-23.56 -0.6,-0.59 -0.6,-0.7 -0.6,-0.84 0,-0.3 0.2,-0.5 0.5,-0.5 0.5,0 5,3.39 7.9,9.72 2.5,5.46 3.1,11 3.1,15.18 z"
           inkscape:connector-curvature="0"
           style="fill:#000000;stroke-width:0" /><path
           id="path3034"
           d="m 1436,238.47 v 0.11 0.12 l 0.1,0.12 0.1,0.12 v 0.13 l 0.1,0.13 v 0.13 l 0.1,0.14 0.1,0.13 0.1,0.14 v 0.14 l 0.1,0.13 0.1,0.14 0.2,0.13 0.1,0.14 0.1,0.13 0.1,0.12 0.2,0.13 0.1,0.11 0.2,0.12 0.1,0.11 0.2,0.1 0.2,0.09 0.2,0.09 0.2,0.08 0.2,0.07 0.3,0.07 0.2,0.05 0.3,0.05 0.1,0.01 0.2,0.02 0.1,0.01 0.1,0.01 0.2,0.01 h 0.2 v 1.55 c -1.2,-0.1 -2.6,-0.14 -3.8,-0.14 -1.2,0 -3.5,0.09 -4.3,0.14 v -1.55 c 1.8,-0.05 2.4,-1.19 2.4,-2.14 0,-0.44 -0.1,-0.64 -0.3,-1.19 l -5.1,-12.7 -5.6,13.89 c -0.3,0.66 -0.3,0.75 -0.3,0.86 0,1.28 2,1.28 2.8,1.28 v 1.55 c -1.4,-0.05 -4.2,-0.14 -5.4,-0.14 -1.3,0 -3.3,0.04 -4.8,0.14 v -1.55 c 3.1,0 3.3,-0.3 4,-1.84 l 7.1,-17.67 c 0.4,-0.71 0.4,-0.96 1.1,-0.96 0.6,0 0.8,0.46 1,0.96 z"
           inkscape:connector-curvature="0"
           style="fill:#000000;stroke-width:0" /><path
           id="path3036"
           d="m 1455.3,225.66 0.1,-0.19 v -0.18 -0.19 l 0.1,-0.18 v -0.19 l 0.1,-0.18 v -0.18 l 0.1,-0.18 0.1,-0.18 0.1,-0.17 0.1,-0.18 0.1,-0.16 0.1,-0.16 0.1,-0.16 0.1,-0.16 0.1,-0.14 0.1,-0.14 0.2,-0.14 0.1,-0.13 0.1,-0.12 0.2,-0.12 0.1,-0.1 0.2,-0.1 0.2,-0.09 0.1,-0.08 0.2,-0.07 0.2,-0.06 0.2,-0.05 0.2,-0.04 0.2,-0.03 0.2,-0.02 0.2,-0.01 c 1.1,0 4.1,0.71 4.1,4.74 v 2.78 h -1.2 v -2.78 c 0,-2.89 -1.3,-3.19 -1.8,-3.19 -1.7,0 -1.9,2.23 -1.9,2.48 v 9.97 c 0,2.1 0,4.03 -1.7,5.88 -2,1.94 -4.5,2.73 -6.9,2.73 -4.1,0 -7.5,-2.33 -7.5,-5.62 0,-1.49 1,-2.35 2.3,-2.35 1.4,0 2.3,1 2.3,2.3 0,0.59 -0.3,2.23 -2.6,2.3 1.4,1.73 3.8,2.28 5.4,2.28 2.5,0 5.3,-1.94 5.3,-6.38 v -1.84 -1.05 -4.98 c 0,-4.74 -3.6,-6.42 -5.8,-6.42 -2.5,0 -4.5,1.75 -4.5,4.23 0,2.74 2.1,6.88 10.3,7.17 v 0 1.05 c -2.5,-0.14 -6,-0.3 -9.2,-1.8 -3.7,-1.68 -5,-4.28 -5,-6.47 0,-4.03 4.9,-5.28 8,-5.28 3.3,0 5.6,1.99 6.5,4.33 z"
           inkscape:connector-curvature="0"
           style="fill:#000000;stroke-width:0" /><path
           id="path3038"
           d="m 1472.5,256.46 -7.1,-0.55 v -1.55 c 3.4,0 3.8,-0.34 3.8,-2.79 v -25.91 c 0,-2.23 -0.5,-2.23 -3.8,-2.23 v -1.55 c 1.6,0.05 4.2,0.16 5.5,0.16 1.2,0 3.7,-0.11 5.5,-0.16 v 1.55 c -3.3,0 -3.9,0 -3.9,2.23 z"
           inkscape:connector-curvature="0"
           style="fill:#000000;stroke-width:0" /><path
           id="path3040"
           d="m 1497,225.82 v -4.49 l 7.2,0.55 v 1.55 c -3.5,0 -3.9,0.34 -3.9,2.78 v 17.69 l -7.4,-0.55 v -1.55 c 3.5,0 3.9,-0.34 3.9,-2.78 v -8.87 c 0,-4.33 -2.4,-7.72 -6,-7.72 -4.2,0 -4.4,2.34 -4.4,4.93 v 16.54 l -7.3,-0.55 v -1.55 c 3.9,0 3.9,-0.14 3.9,-4.58 v -7.47 c 0,-3.89 0,-8.42 7.6,-8.42 2.8,0 4.9,1.39 6.4,4.49 z"
           inkscape:connector-curvature="0"
           style="fill:#000000;stroke-width:0" /><path
           id="path3042"
           d="m 1510.8,233.4 v 1.04 c 0.3,7.42 4.5,8.66 6.2,8.66 5.1,0 5.6,-6.72 5.6,-8.66 h -11.8 v -1.04 h 13.9 c 1.1,0 1.2,0 1.2,1.04 0,4.92 -2.7,9.75 -8.9,9.75 -5.8,0 -10.4,-5.12 -10.4,-11.36 0,-6.67 5.3,-11.5 11,-11.5 6.1,0 8.3,5.53 8.3,6.47 0,0.5 -0.4,0.61 -0.6,0.61 -0.5,0 -0.6,-0.3 -0.7,-0.7 -1.7,-5.13 -6.2,-5.13 -6.7,-5.13 -2.5,0 -4.5,1.49 -5.6,3.33 -1.5,2.39 -1.5,5.69 -1.5,7.49 z"
           inkscape:connector-curvature="0"
           style="fill:#000000;stroke-width:0" /><path
           id="path3044"
           d="m 1537.7,231.55 0.1,-0.02 0.1,-0.02 0.2,-0.03 0.1,-0.04 0.2,-0.04 0.2,-0.04 0.1,-0.05 0.2,-0.06 0.2,-0.06 0.3,-0.07 0.2,-0.08 0.2,-0.08 0.2,-0.1 0.2,-0.1 0.3,-0.11 0.2,-0.12 0.2,-0.14 0.2,-0.14 0.2,-0.15 0.2,-0.16 0.2,-0.18 0.2,-0.19 0.1,-0.2 0.2,-0.21 0.1,-0.22 0.1,-0.12 0.1,-0.12 v -0.13 l 0.1,-0.12 v -0.14 l 0.1,-0.13 v -0.14 l 0.1,-0.14 v -0.15 -0.15 -0.16 -0.15 l 0.1,-0.17 v -0.16 c 0,-2.53 -1.8,-4.53 -5.7,-4.53 -4.2,0 -6,2.84 -6.9,7.07 -0.1,0.65 -0.2,0.85 -0.7,0.85 -0.7,0 -0.7,-0.35 -0.7,-1.25 v -6.58 c 0,-0.84 0,-1.19 0.6,-1.19 0.3,0 0.3,0.05 1.3,1 0,0.1 0,0.19 1,1.14 2.1,-2.09 4.4,-2.14 5.4,-2.14 5.7,0 8,3.35 8,6.92 0,2.65 -1.4,4.15 -2,4.74 -1.7,1.59 -3.6,2 -5.7,2.39 -2.8,0.55 -6.2,1.2 -6.2,4.09 0,1.74 1.3,3.78 5.6,3.78 5.5,0 5.8,-4.48 5.9,-6.03 0,-0.45 0.4,-0.45 0.6,-0.45 0.6,0 0.6,0.25 0.6,1.2 V 243 c 0,0.85 0,1.19 -0.6,1.19 -0.2,0 -0.3,0 -1,-0.59 -0.1,-0.2 -0.6,-0.64 -0.8,-0.8 -1.9,1.39 -3.9,1.39 -4.7,1.39 -6.1,0 -8,-3.33 -8,-6.12 0,-1.74 0.9,-3.14 2.2,-4.24 1.6,-1.29 3,-1.59 6.6,-2.28 z"
           inkscape:connector-curvature="0"
           style="fill:#000000;stroke-width:0" /></g>    </g>
  </g>
</svg>
