<?xml version="1.0" encoding="UTF-8" standalone="no"?>
<!-- Created with Inkscape (http://www.inkscape.org/) -->

<svg
   xmlns:dc="http://purl.org/dc/elements/1.1/"
   xmlns:cc="http://creativecommons.org/ns#"
   xmlns:rdf="http://www.w3.org/1999/02/22-rdf-syntax-ns#"
   xmlns:svg="http://www.w3.org/2000/svg"
   xmlns="http://www.w3.org/2000/svg"
   xmlns:sodipodi="http://sodipodi.sourceforge.net/DTD/sodipodi-0.dtd"
   xmlns:inkscape="http://www.inkscape.org/namespaces/inkscape"
   sodipodi:docname="linearly_separable_example.svg"
   inkscape:version="0.92.3 (2405546, 2018-03-11)"
   id="svg8"
   version="1.1"
   viewBox="0 0 159.98735 146.17016"
   height="146.17017mm"
   width="159.98735mm">
  <sodipodi:namedview
     fit-margin-bottom="0"
     fit-margin-right="0"
     fit-margin-left="0"
     fit-margin-top="0"
     inkscape:window-maximized="1"
     inkscape:window-y="98"
     inkscape:window-x="67"
     inkscape:window-height="2098"
     inkscape:window-width="3773"
     showguides="false"
     showgrid="false"
     inkscape:current-layer="svg8"
     inkscape:document-units="mm"
     inkscape:cy="269.56116"
     inkscape:cx="-46.642756"
     inkscape:zoom="1.979899"
     inkscape:pageshadow="2"
     inkscape:pageopacity="0.0"
     borderopacity="1.0"
     bordercolor="#666666"
     pagecolor="#ffffff"
     id="base" />
  <defs
     id="defs2" />
  <metadata
     id="metadata5">
    <rdf:RDF>
      <cc:Work
         rdf:about="">
        <dc:format>image/svg+xml</dc:format>
        <dc:type
           rdf:resource="http://purl.org/dc/dcmitype/StillImage" />
        <dc:title />
      </cc:Work>
    </rdf:RDF>
  </metadata>
  <g
     transform="translate(2.0039461,-76.75162)"
     inkscape:label="Layer 1"
     inkscape:groupmode="layer"
     id="layer1">
    <ellipse
       style="fill:#ff0000;stroke-width:0.26458332"
       id="path10"
       cx="39.288624"
       cy="139.84552"
       rx="2.271791"
       ry="2.1381562" />
    <ellipse
       style="fill:#ff0000;stroke-width:0.26458332"
       id="path10-3"
       cx="57.462948"
       cy="136.23738"
       rx="2.271791"
       ry="2.1381562" />
    <ellipse
       style="fill:#ff0000;stroke-width:0.26458332"
       id="path10-6"
       cx="68.688271"
       cy="134.50012"
       rx="2.271791"
       ry="2.1381562" />
    <ellipse
       style="fill:#ff0000;stroke-width:0.26458332"
       id="path10-7"
       cx="68.821907"
       cy="134.7674"
       rx="2.271791"
       ry="2.1381562" />
    <ellipse
       style="fill:#ff0000;stroke-width:0.26458332"
       id="path10-5"
       cx="53.72118"
       cy="145.05728"
       rx="2.271791"
       ry="2.1381562" />
    <ellipse
       style="fill:#ff0000;stroke-width:0.26458332"
       id="path10-35"
       cx="62.674702"
       cy="151.87265"
       rx="2.271791"
       ry="2.1381562" />
    <ellipse
       style="fill:#ff0000;stroke-width:0.26458332"
       id="path10-62"
       cx="65.347397"
       cy="124.21025"
       rx="2.271791"
       ry="2.1381562" />
    <ellipse
       style="fill:#ff0000;stroke-width:0.26458332"
       id="path10-9"
       cx="72.563683"
       cy="145.99271"
       rx="2.271791"
       ry="2.1381562" />
    <ellipse
       style="fill:#ff0000;stroke-width:0.26458332"
       id="path10-1"
       cx="46.103992"
       cy="129.28838"
       rx="2.271791"
       ry="2.1381562" />
    <ellipse
       style="fill:#ff0000;stroke-width:0.26458332"
       id="path10-2"
       cx="49.578495"
       cy="159.22255"
       rx="2.271791"
       ry="2.1381562" />
    <ellipse
       style="fill:#ff0000;stroke-width:0.26458332"
       id="path10-70"
       cx="37.150467"
       cy="156.54987"
       rx="2.271791"
       ry="2.1381562" />
    <ellipse
       style="fill:#0000ff;stroke-width:0.26458332"
       id="path10-93"
       cx="89.401657"
       cy="168.04245"
       rx="2.271791"
       ry="2.1381562" />
    <ellipse
       style="fill:#0000ff;stroke-width:0.26458332"
       id="path10-93-6"
       cx="88.733482"
       cy="175.12509"
       rx="2.271791"
       ry="2.1381562" />
    <ellipse
       style="fill:#0000ff;stroke-width:0.26458332"
       id="path10-93-0"
       cx="94.747047"
       cy="177.12962"
       rx="2.271791"
       ry="2.1381562" />
    <ellipse
       style="fill:#0000ff;stroke-width:0.26458332"
       id="path10-93-62"
       cx="104.76965"
       cy="167.64156"
       rx="2.271791"
       ry="2.1381562" />
    <ellipse
       style="fill:#0000ff;stroke-width:0.26458332"
       id="path10-93-61"
       cx="107.04145"
       cy="158.95529"
       rx="2.271791"
       ry="2.1381562" />
    <ellipse
       style="fill:#0000ff;stroke-width:0.26458332"
       id="path10-93-8"
       cx="97.553375"
       cy="166.70612"
       rx="2.271791"
       ry="2.1381562" />
    <ellipse
       style="fill:#0000ff;stroke-width:0.26458332"
       id="path10-93-7"
       cx="99.290634"
       cy="155.21352"
       rx="2.271791"
       ry="2.1381562" />
    <ellipse
       style="fill:#0000ff;stroke-width:0.26458332"
       id="path10-93-9"
       cx="120.53856"
       cy="146.39362"
       rx="2.271791"
       ry="2.1381562" />
    <ellipse
       style="fill:#0000ff;stroke-width:0.26458332"
       id="path10-93-2"
       cx="115.19317"
       cy="142.51822"
       rx="2.271791"
       ry="2.1381562" />
    <ellipse
       style="fill:#0000ff;stroke-width:0.26458332"
       id="path10-93-02"
       cx="106.90781"
       cy="145.99272"
       rx="2.271791"
       ry="2.1381562" />
    <ellipse
       style="fill:#0000ff;stroke-width:0.26458332"
       id="path10-93-3"
       cx="116.12861"
       cy="154.81261"
       rx="2.271791"
       ry="2.1381562" />
    <path
       style="fill:none;stroke:#000000;stroke-width:0.41728395px;stroke-linecap:butt;stroke-linejoin:miter;stroke-opacity:1"
       d="M 24.093166,209.83131 123.05532,110.04496"
       id="path156"
       inkscape:connector-curvature="0" />
    <path
       style="fill:none;stroke:#000000;stroke-width:0.30993277px;stroke-linecap:butt;stroke-linejoin:miter;stroke-opacity:1"
       d="M 5.6127638,91.700886 5.7461908,219.89306"
       id="path339"
       inkscape:connector-curvature="0" />
    <path
       style="fill:none;stroke:#000000;stroke-width:0.29872999px;stroke-linecap:butt;stroke-linejoin:miter;stroke-opacity:1"
       d="M 0.66732907,215.08147 157.0217,214.81502"
       id="path341"
       inkscape:connector-curvature="0" />
    <g
       id="g654"
       transform="matrix(0.5,0,0,0.5,109.1659,171.36078)">
      <g
         id="content"
         transform="matrix(0.3,0,0,-0.3,-52.5,222.75)"
         xml:space="preserve"
         stroke-miterlimit="10.433"
         font-style="normal"
         font-variant="normal"
         font-weight="normal"
         font-stretch="normal"
         font-size-adjust="none"
         letter-spacing="normal"
         word-spacing="normal"
         style="font-style:normal;font-variant:normal;font-weight:normal;font-stretch:normal;letter-spacing:normal;word-spacing:normal;text-anchor:start;fill:none;fill-opacity:1;fill-rule:evenodd;stroke:#000000;stroke-linecap:butt;stroke-linejoin:miter;stroke-miterlimit:10.43299961;stroke-dasharray:none;stroke-dashoffset:0;stroke-opacity:1"><path
           d="m 472.16,421.25 0.03,0.13 0.04,0.15 0.04,0.16 0.04,0.18 0.06,0.19 0.06,0.21 0.06,0.22 0.07,0.22 0.08,0.23 0.09,0.24 0.1,0.25 0.1,0.24 0.11,0.25 0.12,0.25 0.13,0.25 0.14,0.25 0.15,0.24 0.15,0.24 0.17,0.23 0.18,0.22 0.18,0.22 0.2,0.2 0.21,0.19 0.22,0.18 0.23,0.16 0.25,0.14 0.12,0.07 0.13,0.06 0.14,0.05 0.13,0.05 0.14,0.05 0.14,0.04 0.15,0.03 0.15,0.03 0.15,0.02 0.16,0.02 0.16,0.01 h 0.16 c 0.25,0 1.44,0 2.48,-0.64 -1.39,-0.25 -2.39,-1.5 -2.39,-2.69 0,-0.79 0.55,-1.75 1.89,-1.75 1.1,0 2.69,0.89 2.69,2.89 0,2.6 -2.94,3.28 -4.63,3.28 -2.89,0 -4.64,-2.64 -5.23,-3.78 -1.25,3.28 -3.94,3.78 -5.37,3.78 -5.19,0 -8.04,-6.42 -8.04,-7.67 0,-0.5 0.5,-0.5 0.61,-0.5 0.39,0 0.55,0.11 0.64,0.55 1.69,5.28 4.99,6.53 6.68,6.53 0.95,0 2.68,-0.44 2.68,-3.33 0,-1.54 -0.84,-4.89 -2.68,-11.86 -0.8,-3.09 -2.54,-5.18 -4.74,-5.18 -0.3,0 -1.44,0 -2.48,0.65 1.25,0.24 2.34,1.28 2.34,2.69 0,1.34 -1.09,1.73 -1.84,1.73 -1.5,0 -2.75,-1.29 -2.75,-2.89 0,-2.28 2.5,-3.28 4.68,-3.28 3.3,0 5.08,3.49 5.24,3.78 0.59,-1.84 2.39,-3.78 5.37,-3.78 5.14,0 7.99,6.42 7.99,7.67 0,0.5 -0.45,0.5 -0.61,0.5 -0.44,0 -0.55,-0.2 -0.64,-0.54 -1.64,-5.33 -5.03,-6.53 -6.63,-6.53 -1.95,0 -2.75,1.59 -2.75,3.29 0,1.1 0.3,2.19 0.86,4.38 z"
           id="path649"
           inkscape:connector-curvature="0"
           style="fill:#000000;stroke-width:0" /><path
           d="m 495.63,420.92 v 0.04 0.04 0.05 0.04 0.03 0.04 0.04 0.03 0.04 0.03 l -0.01,0.03 v 0.03 0.03 l -0.01,0.03 v 0.03 0.02 l -0.01,0.03 v 0.02 l -0.01,0.03 v 0.02 l -0.01,0.04 -0.02,0.04 -0.02,0.03 -0.02,0.03 -0.02,0.03 -0.02,0.03 -0.03,0.02 -0.03,0.02 -0.03,0.02 -0.04,0.01 -0.04,0.01 -0.05,0.02 h -0.02 -0.02 l -0.03,0.01 h -0.03 l -0.02,0.01 h -0.03 -0.03 -0.03 -0.03 l -0.04,0.01 h -0.03 -0.04 -0.03 -0.04 -0.04 -0.04 -0.04 -0.04 -0.05 -0.04 c -2.24,-2.2 -5.39,-2.23 -6.83,-2.23 v -1.25 c 0.84,0 3.14,0 5.04,0.97 v -17.77 c 0,-1.16 0,-1.61 -3.48,-1.61 h -1.31 v -1.25 c 0.62,0.03 4.9,0.14 6.2,0.14 1.08,0 5.47,-0.11 6.24,-0.14 v 1.25 h -1.33 c -3.49,0 -3.49,0.45 -3.49,1.61 z"
           id="path651"
           inkscape:connector-curvature="0"
           style="fill:#000000;stroke-width:0" /></g>    </g>
    <g
       id="g764"
       transform="matrix(0.5,0,0,0.5,-44.297946,45.075933)">
      <g
         word-spacing="normal"
         letter-spacing="normal"
         font-size-adjust="none"
         font-stretch="normal"
         font-weight="normal"
         font-variant="normal"
         font-style="normal"
         stroke-miterlimit="10.433"
         xml:space="preserve"
         transform="matrix(0.3,0,0,-0.3,-52.5,222.75)"
         id="g762"
         style="font-style:normal;font-variant:normal;font-weight:normal;font-stretch:normal;letter-spacing:normal;word-spacing:normal;text-anchor:start;fill:none;fill-opacity:1;fill-rule:evenodd;stroke:#000000;stroke-linecap:butt;stroke-linejoin:miter;stroke-miterlimit:10.43299961;stroke-dasharray:none;stroke-dashoffset:0;stroke-opacity:1"><path
           id="path758"
           d="m 472.16,421.25 0.03,0.13 0.04,0.15 0.04,0.16 0.04,0.18 0.06,0.19 0.06,0.21 0.06,0.22 0.07,0.22 0.08,0.23 0.09,0.24 0.1,0.25 0.1,0.24 0.11,0.25 0.12,0.25 0.13,0.25 0.14,0.25 0.15,0.24 0.15,0.24 0.17,0.23 0.18,0.22 0.18,0.22 0.2,0.2 0.21,0.19 0.22,0.18 0.23,0.16 0.25,0.14 0.12,0.07 0.13,0.06 0.14,0.05 0.13,0.05 0.14,0.05 0.14,0.04 0.15,0.03 0.15,0.03 0.15,0.02 0.16,0.02 0.16,0.01 h 0.16 c 0.25,0 1.44,0 2.48,-0.64 -1.39,-0.25 -2.39,-1.5 -2.39,-2.69 0,-0.79 0.55,-1.75 1.89,-1.75 1.1,0 2.69,0.89 2.69,2.89 0,2.6 -2.94,3.28 -4.63,3.28 -2.89,0 -4.64,-2.64 -5.23,-3.78 -1.25,3.28 -3.94,3.78 -5.37,3.78 -5.19,0 -8.04,-6.42 -8.04,-7.67 0,-0.5 0.5,-0.5 0.61,-0.5 0.39,0 0.55,0.11 0.64,0.55 1.69,5.28 4.99,6.53 6.68,6.53 0.95,0 2.68,-0.44 2.68,-3.33 0,-1.54 -0.84,-4.89 -2.68,-11.86 -0.8,-3.09 -2.54,-5.18 -4.74,-5.18 -0.3,0 -1.44,0 -2.48,0.65 1.25,0.24 2.34,1.28 2.34,2.69 0,1.34 -1.09,1.73 -1.84,1.73 -1.5,0 -2.75,-1.29 -2.75,-2.89 0,-2.28 2.5,-3.28 4.68,-3.28 3.3,0 5.08,3.49 5.24,3.78 0.59,-1.84 2.39,-3.78 5.37,-3.78 5.14,0 7.99,6.42 7.99,7.67 0,0.5 -0.45,0.5 -0.61,0.5 -0.44,0 -0.55,-0.2 -0.64,-0.54 -1.64,-5.33 -5.03,-6.53 -6.63,-6.53 -1.95,0 -2.75,1.59 -2.75,3.29 0,1.1 0.3,2.19 0.86,4.38 z"
           inkscape:connector-curvature="0"
           style="fill:#000000;stroke-width:0" /><path
           id="path760"
           d="m 501.55,405.11 h -1.18 c -0.1,-0.77 -0.46,-2.83 -0.91,-3.18 -0.26,-0.2 -2.95,-0.2 -3.44,-0.2 h -6.42 c 3.66,3.23 4.88,4.2 6.97,5.84 2.58,2.07 4.98,4.22 4.98,7.54 0,4.21 -3.68,6.79 -8.15,6.79 -4.31,0 -7.25,-3.03 -7.25,-6.23 0,-1.78 1.5,-1.96 1.86,-1.96 0.83,0 1.84,0.6 1.84,1.85 0,0.62 -0.25,1.84 -2.06,1.84 1.08,2.47 3.45,3.24 5.09,3.24 3.49,0 5.3,-2.71 5.3,-5.53 0,-3.04 -2.16,-5.44 -3.28,-6.69 l -8.39,-8.3 c -0.36,-0.31 -0.36,-0.39 -0.36,-1.36 h 14.36 z"
           inkscape:connector-curvature="0"
           style="fill:#000000;stroke-width:0" /></g>    </g>
    <g
       transform="translate(-64.144686,-13.76438)"
       id="g914">
      <g
         style="font-style:normal;font-variant:normal;font-weight:normal;font-stretch:normal;letter-spacing:normal;word-spacing:normal;text-anchor:start;fill:none;fill-opacity:1;fill-rule:evenodd;stroke:#000000;stroke-linecap:butt;stroke-linejoin:miter;stroke-miterlimit:10.43299961;stroke-dasharray:none;stroke-dashoffset:0;stroke-opacity:1"
         id="g912"
         transform="matrix(0.3,0,0,-0.3,-52.5,222.75)"
         xml:space="preserve"
         stroke-miterlimit="10.433"
         font-style="normal"
         font-variant="normal"
         font-weight="normal"
         font-stretch="normal"
         font-size-adjust="none"
         letter-spacing="normal"
         word-spacing="normal"><path
           style="fill:#000000;stroke-width:0"
           inkscape:connector-curvature="0"
           d="m 484.52,419.06 h -1.25 c -0.55,-5.1 -1.25,-11.31 -10.02,-11.31 h -4.07 c -2.35,0 -2.46,0.34 -2.46,1.98 v 26.56 c 0,1.69 0,2.39 4.74,2.39 h 1.65 v 1.55 c -1.79,-0.16 -6.32,-0.16 -8.37,-0.16 -1.94,0 -5.83,0 -7.58,0.16 v -1.55 h 1.2 c 3.83,0 3.94,-0.54 3.94,-2.34 v -26.25 c 0,-1.8 -0.11,-2.34 -3.94,-2.34 h -1.2 v -1.55 h 25.95 z"
           id="path876" /><path
           style="fill:#000000;stroke-width:0"
           inkscape:connector-curvature="0"
           d="m 495.41,428.21 -6.97,-0.54 v -1.55 c 3.24,0 3.69,-0.3 3.69,-2.73 v -13.41 c 0,-2.23 -0.55,-2.23 -3.89,-2.23 v -1.55 c 1.59,0.05 4.28,0.16 5.48,0.16 1.75,0 3.49,-0.11 5.19,-0.16 v 1.55 c -3.3,0 -3.5,0.25 -3.5,2.18 z"
           id="path878" /><path
           style="fill:#000000;stroke-width:0"
           inkscape:connector-curvature="0"
           d="m 495.61,436.89 v 0.14 l -0.01,0.15 -0.02,0.14 -0.02,0.14 -0.03,0.13 -0.04,0.13 -0.04,0.13 -0.05,0.12 -0.06,0.12 -0.06,0.12 -0.07,0.11 -0.07,0.1 -0.07,0.1 -0.08,0.1 -0.09,0.1 -0.09,0.08 -0.09,0.09 -0.1,0.08 -0.1,0.07 -0.1,0.07 -0.11,0.07 -0.11,0.06 -0.11,0.05 -0.12,0.05 -0.12,0.04 -0.12,0.04 -0.12,0.03 -0.12,0.03 -0.13,0.02 -0.13,0.01 -0.13,0.01 -0.13,0.01 c -1.54,0 -2.64,-1.35 -2.64,-2.64 0,-1.35 1.1,-2.64 2.64,-2.64 1.39,0 2.64,1.04 2.64,2.64 z"
           id="path880" /><path
           style="fill:#000000;stroke-width:0"
           inkscape:connector-curvature="0"
           d="m 505.88,423.34 v -13.36 c 0,-2.23 -0.55,-2.23 -3.89,-2.23 v -1.55 c 1.75,0.05 4.28,0.16 5.62,0.16 1.3,0 3.89,-0.11 5.58,-0.16 v 1.55 c -3.33,0 -3.87,0 -3.87,2.23 v 9.17 c 0,5.19 3.53,7.97 6.71,7.97 3.15,0 3.69,-2.69 3.69,-5.53 v -11.61 c 0,-2.23 -0.54,-2.23 -3.89,-2.23 v -1.55 c 1.75,0.05 4.3,0.16 5.64,0.16 1.3,0 3.88,-0.11 5.58,-0.16 v 1.55 c -2.59,0 -3.84,0 -3.89,1.5 v 9.51 c 0,4.28 0,5.83 -1.55,7.61 -0.68,0.86 -2.34,1.84 -5.21,1.84 -3.65,0 -5.99,-2.14 -7.38,-5.21 v 5.21 l -7.03,-0.54 v -1.55 c 3.48,0 3.89,-0.34 3.89,-2.78 z"
           id="path882" /><path
           style="fill:#000000;stroke-width:0"
           inkscape:connector-curvature="0"
           d="m 533.65,417.71 0.04,1.05 c 0.3,7.42 4.49,8.66 6.19,8.66 5.12,0 5.62,-6.72 5.62,-8.66 h -11.81 l -0.04,-1.05 h 13.9 c 1.1,0 1.23,0 1.23,1.05 0,4.92 -2.68,9.75 -8.9,9.75 -5.78,0 -10.38,-5.12 -10.38,-11.36 0,-6.67 5.24,-11.5 10.97,-11.5 6.08,0 8.31,5.53 8.31,6.47 0,0.5 -0.38,0.61 -0.63,0.61 -0.46,0 -0.55,-0.3 -0.66,-0.7 -1.74,-5.13 -6.22,-5.13 -6.72,-5.13 -2.5,0 -4.49,1.49 -5.62,3.33 -1.5,2.39 -1.5,5.69 -1.5,7.48 z"
           id="path884" /><path
           style="fill:#000000;stroke-width:0"
           inkscape:connector-curvature="0"
           d="m 566.78,409.98 0.03,-0.19 0.03,-0.18 0.03,-0.19 0.04,-0.18 0.05,-0.19 0.06,-0.18 0.06,-0.18 0.07,-0.18 0.07,-0.18 0.09,-0.17 0.08,-0.18 0.1,-0.16 0.1,-0.16 0.1,-0.16 0.12,-0.16 0.12,-0.14 0.12,-0.14 0.14,-0.14 0.13,-0.13 0.15,-0.12 0.15,-0.12 0.16,-0.1 0.16,-0.1 0.17,-0.09 0.17,-0.08 0.18,-0.07 0.19,-0.06 0.19,-0.05 0.2,-0.04 0.21,-0.03 0.21,-0.02 0.22,-0.01 c 1.03,0 4.07,0.71 4.07,4.74 v 2.78 h -1.25 v -2.78 c 0,-2.89 -1.23,-3.19 -1.79,-3.19 -1.64,0 -1.85,2.23 -1.85,2.48 v 9.97 c 0,2.1 0,4.03 -1.78,5.88 -1.95,1.93 -4.43,2.73 -6.83,2.73 -4.09,0 -7.53,-2.33 -7.53,-5.62 0,-1.49 1,-2.35 2.3,-2.35 1.39,0 2.3,1 2.3,2.3 0,0.59 -0.25,2.23 -2.55,2.3 1.34,1.73 3.78,2.28 5.38,2.28 2.45,0 5.28,-1.94 5.28,-6.38 v -1.84 -1.05 -4.98 c 0,-4.74 -3.58,-6.42 -5.83,-6.42 -2.44,0 -4.49,1.75 -4.49,4.23 0,2.73 2.1,6.88 10.32,7.17 v 0 1.05 c -2.53,-0.14 -6.02,-0.3 -9.16,-1.8 -3.74,-1.69 -4.99,-4.28 -4.99,-6.47 0,-4.03 4.83,-5.28 7.97,-5.28 3.3,0 5.58,1.99 6.53,4.33 z"
           id="path886" /><path
           style="fill:#000000;stroke-width:0"
           inkscape:connector-curvature="0"
           d="m 583.46,422.75 v 5.46 l -6.92,-0.54 v -1.55 c 3.48,0 3.89,-0.34 3.89,-2.78 v -13.36 c 0,-2.23 -0.55,-2.23 -3.89,-2.23 v -1.55 c 1.95,0.05 4.28,0.16 5.69,0.16 1.98,0 4.32,0 6.32,-0.16 v 1.55 h -1.04 c -3.69,0 -3.8,0.54 -3.8,2.34 v 7.67 c 0,4.92 2.09,9.36 5.89,9.36 0.35,0 0.44,0 0.55,-0.05 -0.16,-0.04 -1.16,-0.64 -1.16,-1.93 0,-1.41 1.05,-2.14 2.16,-2.14 0.89,0 2.14,0.59 2.14,2.18 0,1.6 -1.55,3.03 -3.69,3.03 -3.64,0 -5.44,-3.32 -6.14,-5.46 z"
           id="path888" /><path
           style="fill:#000000;stroke-width:0"
           inkscape:connector-curvature="0"
           d="m 603.52,440.78 -7.17,-0.55 v -1.55 c 3.48,0 3.89,-0.34 3.89,-2.79 v -25.91 c 0,-2.23 -0.55,-2.23 -3.89,-2.23 v -1.55 c 1.64,0.05 4.28,0.16 5.53,0.16 1.25,0 3.69,-0.11 5.53,-0.16 v 1.55 c -3.34,0 -3.89,0 -3.89,2.23 z"
           id="path890" /><path
           style="fill:#000000;stroke-width:0"
           inkscape:connector-curvature="0"
           d="m 629.18,422.93 0.06,0.15 0.06,0.14 0.07,0.14 0.06,0.13 0.07,0.12 0.07,0.13 0.07,0.12 0.08,0.11 0.14,0.22 0.16,0.2 0.16,0.19 0.16,0.18 0.16,0.16 0.17,0.14 0.16,0.14 0.17,0.12 0.17,0.11 0.17,0.1 0.17,0.09 0.17,0.09 0.17,0.07 0.17,0.06 0.16,0.05 0.16,0.05 0.16,0.04 0.15,0.03 0.15,0.03 0.14,0.02 0.13,0.02 0.13,0.02 0.13,0.01 h 0.11 l 0.11,0.01 h 0.1 0.09 0.08 v 1.55 c -1.16,-0.1 -2.6,-0.14 -3.74,-0.14 -0.9,0 -3.25,0.09 -4.34,0.14 v -1.55 c 1.54,-0.05 2.34,-0.89 2.34,-2.14 0,-0.5 -0.05,-0.59 -0.3,-1.19 l -5.03,-12.26 -5.53,13.4 c -0.2,0.5 -0.29,0.71 -0.29,0.91 0,1.28 1.84,1.28 2.78,1.28 v 1.55 c -1.28,-0.05 -4.58,-0.14 -5.43,-0.14 -1.34,0 -3.34,0.04 -4.82,0.14 v -1.55 c 2.39,0 3.32,0 4.03,-1.73 l 7.47,-18.19 c -0.25,-0.64 -0.94,-2.3 -1.25,-2.94 -1.1,-2.73 -2.49,-6.19 -5.68,-6.19 -0.25,0 -1.38,0 -2.34,0.91 1.55,0.2 1.94,1.3 1.94,2.09 0,1.3 -0.94,2.1 -2.08,2.1 -1,0 -2.09,-0.66 -2.09,-2.14 0,-2.25 2.09,-4.05 4.57,-4.05 3.15,0 5.19,2.84 6.38,5.69 z"
           id="path892" /><path
           style="fill:#000000;stroke-width:0"
           inkscape:connector-curvature="0"
           d="m 661.82,415.87 0.11,-0.02 0.13,-0.02 0.14,-0.03 0.16,-0.04 0.17,-0.04 0.18,-0.04 0.18,-0.05 0.2,-0.06 0.21,-0.06 0.21,-0.07 0.21,-0.08 0.22,-0.08 0.22,-0.1 0.22,-0.1 0.23,-0.11 0.21,-0.12 0.22,-0.14 0.21,-0.14 0.21,-0.15 0.19,-0.16 0.19,-0.18 0.19,-0.19 0.16,-0.2 0.16,-0.21 0.14,-0.22 0.07,-0.12 0.06,-0.12 0.06,-0.13 0.06,-0.12 0.04,-0.14 0.05,-0.13 0.04,-0.14 0.04,-0.14 0.03,-0.15 0.02,-0.15 0.02,-0.16 0.02,-0.15 0.01,-0.17 v -0.16 c 0,-2.53 -1.75,-4.53 -5.63,-4.53 -4.18,0 -5.98,2.84 -6.93,7.07 -0.15,0.64 -0.19,0.85 -0.69,0.85 -0.66,0 -0.66,-0.35 -0.66,-1.25 v -6.58 c 0,-0.84 0,-1.19 0.55,-1.19 0.25,0 0.3,0.05 1.25,1 0.09,0.1 0.09,0.19 1,1.14 2.19,-2.09 4.44,-2.14 5.48,-2.14 5.72,0 8.02,3.35 8.02,6.92 0,2.64 -1.5,4.14 -2.1,4.74 -1.64,1.59 -3.59,2 -5.68,2.39 -2.78,0.55 -6.13,1.2 -6.13,4.09 0,1.74 1.3,3.78 5.58,3.78 5.48,0 5.73,-4.48 5.83,-6.03 0.06,-0.45 0.5,-0.45 0.61,-0.45 0.64,0 0.64,0.25 0.64,1.2 v 5.03 c 0,0.85 0,1.19 -0.55,1.19 -0.25,0 -0.34,0 -1,-0.59 -0.14,-0.21 -0.64,-0.64 -0.84,-0.8 -1.89,1.39 -3.94,1.39 -4.69,1.39 -6.08,0 -7.97,-3.33 -7.97,-6.12 0,-1.74 0.8,-3.14 2.14,-4.24 1.6,-1.29 3,-1.59 6.58,-2.28 z"
           id="path894" /><path
           style="fill:#000000;stroke-width:0"
           inkscape:connector-curvature="0"
           d="m 676.67,417.71 0.05,1.05 c 0.3,7.42 4.48,8.66 6.19,8.66 5.12,0 5.62,-6.72 5.62,-8.66 h -11.81 l -0.05,-1.05 h 13.91 c 1.09,0 1.23,0 1.23,1.05 0,4.92 -2.69,9.75 -8.9,9.75 -5.79,0 -10.38,-5.12 -10.38,-11.36 0,-6.67 5.24,-11.5 10.97,-11.5 6.08,0 8.31,5.53 8.31,6.47 0,0.5 -0.39,0.61 -0.64,0.61 -0.45,0 -0.55,-0.3 -0.65,-0.7 -1.74,-5.13 -6.22,-5.13 -6.72,-5.13 -2.5,0 -4.49,1.49 -5.63,3.33 -1.5,2.39 -1.5,5.69 -1.5,7.48 z"
           id="path896" /><path
           style="fill:#000000;stroke-width:0"
           inkscape:connector-curvature="0"
           d="m 701.78,424.93 v 3.28 l -7.17,-0.54 v -1.55 c 3.55,0 3.89,-0.3 3.89,-2.48 v -23.32 c 0,-2.25 -0.55,-2.25 -3.89,-2.25 v -1.54 c 1.7,0.06 4.28,0.15 5.58,0.15 1.34,0 3.89,-0.09 5.64,-0.15 v 1.54 c -3.35,0 -3.89,0 -3.89,2.25 v 8.36 0.46 l 0.7,0.65 c -0.7,1.05 -0.7,1.1 -0.7,2.08 v 0 11.13 c 1.44,2.53 3.89,3.98 6.42,3.98 3.64,0 6.69,-4.39 6.69,-10.02 0,-6.03 -3.5,-10.21 -7.19,-10.21 -1.98,0 -3.88,1 -5.22,3.04 l -0.7,-0.65 c 0.25,-0.8 2.34,-3.49 6.12,-3.49 5.94,0 11.11,4.88 11.11,11.31 0,6.33 -4.83,11.25 -10.4,11.25 -3.89,0 -5.99,-2.18 -6.99,-3.28 z"
           id="path898" /><path
           style="fill:#000000;stroke-width:0"
           inkscape:connector-curvature="0"
           d="m 737.53,409.98 0.02,-0.19 0.03,-0.18 0.04,-0.19 0.04,-0.18 0.05,-0.19 0.05,-0.18 0.07,-0.18 0.06,-0.18 0.08,-0.18 0.08,-0.17 0.09,-0.18 0.09,-0.16 0.1,-0.16 0.11,-0.16 0.11,-0.16 0.12,-0.14 0.13,-0.14 0.13,-0.14 0.14,-0.13 0.14,-0.12 0.15,-0.12 0.16,-0.1 0.16,-0.1 0.17,-0.09 0.18,-0.08 0.18,-0.07 0.19,-0.06 0.19,-0.05 0.2,-0.04 0.2,-0.03 0.22,-0.02 0.21,-0.01 c 1.03,0 4.08,0.71 4.08,4.74 v 2.78 h -1.25 v -2.78 c 0,-2.89 -1.23,-3.19 -1.8,-3.19 -1.64,0 -1.84,2.23 -1.84,2.48 v 9.97 c 0,2.1 0,4.03 -1.78,5.88 -1.95,1.93 -4.44,2.73 -6.83,2.73 -4.09,0 -7.53,-2.33 -7.53,-5.62 0,-1.49 1,-2.35 2.3,-2.35 1.39,0 2.29,1 2.29,2.3 0,0.59 -0.25,2.23 -2.54,2.3 1.34,1.73 3.78,2.28 5.37,2.28 2.45,0 5.28,-1.94 5.28,-6.38 v -1.84 -1.05 -4.98 c 0,-4.74 -3.58,-6.42 -5.83,-6.42 -2.43,0 -4.48,1.75 -4.48,4.23 0,2.73 2.09,6.88 10.31,7.17 v 0 1.05 c -2.53,-0.14 -6.01,-0.3 -9.15,-1.8 -3.74,-1.69 -4.99,-4.28 -4.99,-6.47 0,-4.03 4.83,-5.28 7.97,-5.28 3.3,0 5.58,1.99 6.53,4.33 z"
           id="path900" /><path
           style="fill:#000000;stroke-width:0"
           inkscape:connector-curvature="0"
           d="m 754.21,422.75 v 5.46 l -6.93,-0.54 v -1.55 c 3.49,0 3.9,-0.34 3.9,-2.78 v -13.36 c 0,-2.23 -0.55,-2.23 -3.9,-2.23 v -1.55 c 1.96,0.05 4.29,0.16 5.69,0.16 1.99,0 4.33,0 6.33,-0.16 v 1.55 h -1.05 c -3.68,0 -3.79,0.54 -3.79,2.34 v 7.67 c 0,4.92 2.09,9.36 5.89,9.36 0.34,0 0.43,0 0.55,-0.05 -0.16,-0.04 -1.16,-0.64 -1.16,-1.93 0,-1.41 1.04,-2.14 2.16,-2.14 0.88,0 2.13,0.59 2.13,2.18 0,1.6 -1.54,3.03 -3.68,3.03 -3.64,0 -5.44,-3.32 -6.14,-5.46 z"
           id="path902" /><path
           style="fill:#000000;stroke-width:0"
           inkscape:connector-curvature="0"
           d="m 782.05,409.98 0.02,-0.19 0.03,-0.18 0.03,-0.19 0.05,-0.18 0.05,-0.19 0.05,-0.18 0.06,-0.18 0.07,-0.18 0.08,-0.18 0.08,-0.17 0.09,-0.18 0.09,-0.16 0.1,-0.16 0.11,-0.16 0.11,-0.16 0.12,-0.14 0.13,-0.14 0.13,-0.14 0.14,-0.13 0.14,-0.12 0.15,-0.12 0.16,-0.1 0.16,-0.1 0.17,-0.09 0.17,-0.08 0.19,-0.07 0.18,-0.06 0.2,-0.05 0.2,-0.04 0.2,-0.03 0.21,-0.02 0.22,-0.01 c 1.03,0 4.08,0.71 4.08,4.74 v 2.78 h -1.25 v -2.78 c 0,-2.89 -1.24,-3.19 -1.8,-3.19 -1.64,0 -1.85,2.23 -1.85,2.48 v 9.97 c 0,2.1 0,4.03 -1.78,5.88 -1.95,1.93 -4.43,2.73 -6.82,2.73 -4.1,0 -7.54,-2.33 -7.54,-5.62 0,-1.49 1,-2.35 2.3,-2.35 1.39,0 2.3,1 2.3,2.3 0,0.59 -0.25,2.23 -2.55,2.3 1.35,1.73 3.78,2.28 5.38,2.28 2.45,0 5.28,-1.94 5.28,-6.38 v -1.84 -1.05 -4.98 c 0,-4.74 -3.58,-6.42 -5.83,-6.42 -2.44,0 -4.48,1.75 -4.48,4.23 0,2.73 2.09,6.88 10.31,7.17 v 0 1.05 c -2.53,-0.14 -6.02,-0.3 -9.16,-1.8 -3.73,-1.69 -4.98,-4.28 -4.98,-6.47 0,-4.03 4.83,-5.28 7.97,-5.28 3.29,0 5.57,1.99 6.53,4.33 z"
           id="path904" /><path
           style="fill:#000000;stroke-width:0"
           inkscape:connector-curvature="0"
           d="m 798.97,424.98 v 15.8 l -7.17,-0.55 v -1.55 c 3.48,0 3.89,-0.34 3.89,-2.79 V 406.2 h 1.25 c 0.05,0.05 0.44,0.75 1.78,3.09 0.75,-1.15 2.85,-3.64 6.53,-3.64 l -0.2,1.1 c -2.23,0 -4.03,1.2 -5.22,3.04 -0.7,1.05 -0.7,1.19 -0.7,2.08 v 0 10.27 c 0,0.95 0,1 0.55,1.79 1.93,2.8 4.68,3.19 5.87,3.19 2.25,0 4.05,-1.3 5.23,-3.19 1.3,-2.04 1.46,-4.87 1.46,-6.92 0,-1.84 -0.11,-4.83 -1.55,-7.08 -1.04,-1.54 -2.94,-3.18 -5.64,-3.18 l 0.2,-1.1 c 5.94,0 11.11,4.88 11.11,11.31 0,6.33 -4.87,11.25 -10.56,11.25 -3.87,0 -6.03,-2.34 -6.83,-3.23 z"
           id="path906" /><path
           style="fill:#000000;stroke-width:0"
           inkscape:connector-curvature="0"
           d="m 826.94,440.78 -7.17,-0.55 v -1.55 c 3.48,0 3.89,-0.34 3.89,-2.79 v -25.91 c 0,-2.23 -0.55,-2.23 -3.89,-2.23 v -1.55 c 1.64,0.05 4.28,0.16 5.53,0.16 1.25,0 3.69,-0.11 5.53,-0.16 v 1.55 c -3.34,0 -3.89,0 -3.89,2.23 z"
           id="path908" /><path
           style="fill:#000000;stroke-width:0"
           inkscape:connector-curvature="0"
           d="m 837.46,417.71 0.04,1.05 c 0.3,7.42 4.49,8.66 6.19,8.66 5.13,0 5.63,-6.72 5.63,-8.66 H 837.5 l -0.04,-1.05 h 13.9 c 1.1,0 1.24,0 1.24,1.05 0,4.92 -2.69,9.75 -8.91,9.75 -5.78,0 -10.37,-5.12 -10.37,-11.36 0,-6.67 5.23,-11.5 10.96,-11.5 6.08,0 8.32,5.53 8.32,6.47 0,0.5 -0.39,0.61 -0.64,0.61 -0.46,0 -0.55,-0.3 -0.66,-0.7 -1.73,-5.13 -6.22,-5.13 -6.72,-5.13 -2.5,0 -4.48,1.49 -5.62,3.33 -1.5,2.39 -1.5,5.69 -1.5,7.48 z"
           id="path910" /></g>    </g>
    <g
       id="g1135"
       transform="translate(76.773152,76.53743)">
      <g
         transform="translate(-11.49259,-0.80180858)"
         id="g2114">
        <g
           style="font-style:normal;font-variant:normal;font-weight:normal;font-stretch:normal;letter-spacing:normal;word-spacing:normal;text-anchor:start;fill:none;fill-opacity:1;fill-rule:evenodd;stroke:#000000;stroke-linecap:butt;stroke-linejoin:miter;stroke-miterlimit:10.43299961;stroke-dasharray:none;stroke-dashoffset:0;stroke-opacity:1"
           id="g2112"
           transform="matrix(0.15886084,0,0,-0.15886084,-27.800647,95.631382)"
           xml:space="preserve"
           stroke-miterlimit="10.433"
           font-style="normal"
           font-variant="normal"
           font-weight="normal"
           font-stretch="normal"
           font-size-adjust="none"
           letter-spacing="normal"
           word-spacing="normal"><path
             style="fill:#000000;stroke-width:0"
             inkscape:connector-curvature="0"
             d="m 492.24,424.93 0.05,0.12 0.04,0.11 0.03,0.06 0.03,0.05 0.03,0.05 0.04,0.05 0.04,0.04 0.04,0.05 0.05,0.04 0.06,0.05 0.06,0.04 0.06,0.04 0.08,0.03 0.08,0.04 0.08,0.03 0.1,0.03 0.11,0.03 0.11,0.03 0.13,0.02 0.06,0.01 0.07,0.02 0.07,0.01 0.08,0.01 0.07,0.01 0.08,0.01 0.09,0.01 h 0.08 l 0.09,0.01 0.1,0.01 h 0.09 l 0.1,0.01 0.1,0.01 h 0.11 l 0.11,0.01 h 0.11 0.12 l 0.12,0.01 h 0.12 0.13 0.13 0.14 v 2.34 c -1.16,-0.11 -2.64,-0.15 -3.84,-0.15 -1.35,0 -3.69,0.11 -4.79,0.15 v -2.34 c 0.46,0 2.89,-0.05 2.89,-0.59 0,-0.16 -0.14,-0.46 -0.2,-0.61 l -5.22,-12.75 -5.68,13.95 h 2.79 v 2.34 c -1.59,-0.04 -4.19,-0.15 -5.69,-0.15 -2.09,0 -4.18,0.11 -4.98,0.15 v -2.34 h 2.94 c 1.04,-2.5 1.04,-2.59 1.04,-2.64 0,-0.2 -0.14,-0.5 -0.18,-0.66 l -3.94,-9.56 -5.23,12.86 h 2.78 v 2.34 c -2.03,-0.11 -4.08,-0.15 -6.13,-0.15 -1.55,0 -3.73,0.11 -5.42,0.15 v -2.34 h 2.94 l 7.62,-18.64 c 0.35,-0.84 0.55,-1.34 1.78,-1.34 1.25,0 1.46,0.5 1.8,1.34 l 5.28,12.91 5.28,-12.91 c 0.36,-0.84 0.55,-1.34 1.8,-1.34 1.25,0 1.45,0.5 1.8,1.34 z"
             id="path2096" /><path
             style="fill:#000000;stroke-width:0"
             inkscape:connector-curvature="0"
             d="m 518.36,418.65 v 0.14 l -0.01,0.13 -0.02,0.13 -0.02,0.13 -0.03,0.13 -0.04,0.13 -0.04,0.12 -0.05,0.12 -0.05,0.11 -0.06,0.12 -0.06,0.11 -0.07,0.11 -0.08,0.1 -0.08,0.1 -0.08,0.1 -0.09,0.09 -0.09,0.08 -0.09,0.09 -0.1,0.08 -0.11,0.07 -0.1,0.07 -0.11,0.06 -0.12,0.06 -0.12,0.05 -0.12,0.05 -0.12,0.04 -0.12,0.04 -0.13,0.03 -0.13,0.02 -0.13,0.02 -0.14,0.01 h -0.13 c -1.44,0 -2.64,-1.18 -2.64,-2.64 0,-1.44 1.2,-2.64 2.64,-2.64 1.45,0 2.64,1.2 2.64,2.64 z"
             id="path2098" /><path
             style="fill:#000000;stroke-width:0"
             inkscape:connector-curvature="0"
             d="m 550.99,418.45 5.83,6.48 c 0.65,0.71 0.95,1.05 5.09,1.05 v 2.34 c -1.75,-0.11 -4.34,-0.15 -4.59,-0.15 -1.25,0 -3.74,0.11 -5.13,0.15 v -2.34 c 0.69,0 1.3,-0.11 1.89,-0.45 -0.2,-0.3 -0.2,-0.39 -0.4,-0.6 l -4.18,-4.68 -4.89,5.73 h 2 v 2.34 c -1.29,-0.04 -4.43,-0.15 -6.03,-0.15 -1.59,0 -3.84,0.11 -5.48,0.15 v -2.34 h 3.53 l 7.78,-9.17 -6.53,-7.33 c -0.85,-0.94 -2.64,-0.94 -5.03,-0.94 v -2.34 c 1.75,0.09 4.34,0.16 4.58,0.16 1.25,0 4.14,-0.11 5.14,-0.16 v 2.34 c -0.89,0 -1.85,0.25 -1.85,0.55 0,0.05 0,0.09 0.35,0.5 l 4.84,5.42 5.47,-6.47 h -1.94 v -2.34 c 1.3,0.05 4.33,0.16 5.99,0.16 1.59,0 3.82,-0.11 5.47,-0.16 v 2.34 h -3.54 z"
             id="path2100" /><path
             style="fill:#000000;stroke-width:0"
             inkscape:connector-curvature="0"
             d="m 595.41,417.65 h 13.91 c 0.68,0 1.64,0 1.64,1 0,1 -0.96,1 -1.64,1 h -13.91 v 13.96 c 0,0.68 0,1.64 -1,1.64 -0.98,0 -0.98,-0.96 -0.98,-1.64 v -13.96 h -13.96 c -0.7,0 -1.64,0 -1.64,-1 0,-1 0.94,-1 1.64,-1 h 13.96 v -13.94 c 0,-0.7 0,-1.65 0.98,-1.65 1,0 1,0.95 1,1.65 z"
             id="path2102" /><path
             style="fill:#000000;stroke-width:0"
             inkscape:connector-curvature="0"
             d="m 636.74,440.23 v 0 0.01 0 0.01 0.02 0.01 l -0.01,0.02 v 0.02 0.02 l -0.01,0.02 v 0.02 l -0.01,0.02 -0.01,0.02 v 0.03 l -0.02,0.02 -0.01,0.03 -0.01,0.02 -0.02,0.03 -0.02,0.02 -0.02,0.02 -0.02,0.03 -0.01,0.01 -0.01,0.01 -0.02,0.01 -0.01,0.01 -0.01,0.01 -0.02,0.01 -0.02,0.01 -0.01,0.01 -0.02,0.01 -0.02,0.01 h -0.02 l -0.02,0.01 -0.02,0.01 h -0.02 l -0.02,0.01 -0.02,0.01 h -0.02 -0.03 l -0.02,0.01 h -0.03 -0.03 l -0.02,0.01 h -0.03 -0.03 c -1.16,0 -4.78,-0.41 -6.08,-0.5 -0.41,-0.05 -0.95,-0.1 -0.95,-1 0,-0.6 0.45,-0.6 1.2,-0.6 2.39,0 2.48,-0.34 2.48,-0.84 0,-0.36 -0.45,-2.05 -0.7,-3.09 l -4.08,-16.24 c -0.59,-2.5 -0.79,-3.3 -0.79,-5.03 0,-4.73 2.64,-7.83 6.32,-7.83 v 1.1 c -1.7,0 -3.34,1.34 -3.34,5.03 0,0.95 0,1.89 0.8,5.03 l 1.09,4.59 c 0.3,1.1 0.3,1.19 0.75,1.74 2.44,3.23 4.69,3.98 5.98,3.98 1.8,0 3.15,-1.48 3.15,-4.69 0,-2.93 -1.66,-8.65 -2.55,-10.56 -1.64,-3.33 -3.94,-5.12 -5.88,-5.12 v -1.1 c 5.88,0 12,7.42 12,14.6 0,4.53 -2.64,7.96 -6.62,7.96 -2.28,0 -4.33,-1.43 -5.83,-2.98 z"
             id="path2104" /><path
             style="fill:#000000;stroke-width:0"
             inkscape:connector-curvature="0"
             d="m 694.23,422.5 h 0.14 0.14 0.15 l 0.07,0.01 h 0.07 l 0.07,0.01 0.07,0.01 0.07,0.01 0.07,0.01 0.07,0.01 0.07,0.02 0.06,0.02 0.07,0.02 0.06,0.02 0.05,0.03 0.06,0.03 0.05,0.04 0.05,0.03 0.05,0.05 0.04,0.04 0.04,0.05 0.02,0.03 0.02,0.03 0.02,0.02 0.01,0.03 0.02,0.03 0.01,0.04 0.01,0.03 0.01,0.04 0.01,0.03 0.01,0.04 0.01,0.04 v 0.04 l 0.01,0.04 v 0.04 0.04 0.05 c 0,1 -0.95,1 -1.64,1 h -29.84 c -0.7,0 -1.64,0 -1.64,-1 0,-0.98 0.94,-0.98 1.69,-0.98 z"
             id="path2106" /><path
             style="fill:#000000;stroke-width:0"
             inkscape:connector-curvature="0"
             d="m 694.27,412.82 h 0.07 0.06 l 0.14,0.01 h 0.14 0.07 l 0.07,0.01 0.07,0.01 h 0.07 l 0.07,0.01 0.06,0.02 0.07,0.01 0.07,0.02 0.06,0.02 0.06,0.02 0.06,0.02 0.06,0.03 0.05,0.03 0.06,0.04 0.05,0.04 0.04,0.04 0.04,0.05 0.03,0.02 0.01,0.03 0.02,0.02 0.02,0.03 0.02,0.03 0.01,0.03 0.02,0.03 0.01,0.03 0.01,0.04 0.01,0.03 0.01,0.04 0.01,0.04 0.01,0.04 v 0.04 l 0.01,0.04 v 0.04 0.05 0.04 c 0,1 -0.95,1 -1.68,1 h -29.75 c -0.75,0 -1.69,0 -1.69,-1 0,-1 0.94,-1 1.64,-1 z"
             id="path2108" /><path
             style="fill:#000000;stroke-width:0"
             inkscape:connector-curvature="0"
             d="m 735.47,422.14 v 0.74 l -0.02,0.75 -0.02,0.75 -0.03,0.74 -0.04,0.75 -0.06,0.74 -0.08,0.74 -0.09,0.73 -0.12,0.73 -0.14,0.73 -0.16,0.72 -0.19,0.72 -0.22,0.72 -0.24,0.7 -0.28,0.7 -0.15,0.35 -0.16,0.34 c -2.28,4.8 -6.38,5.6 -8.47,5.6 -2.98,0 -6.62,-1.3 -8.67,-5.94 -1.6,-3.44 -1.85,-7.33 -1.85,-11.31 0,-3.74 0.21,-8.22 2.25,-12 2.15,-4.03 5.79,-5.03 8.22,-5.03 v 1.09 c -1.93,0 -4.89,1.25 -5.78,6.03 -0.55,2.98 -0.55,7.56 -0.55,10.52 0,3.18 0,6.46 0.41,9.15 0.94,5.94 4.67,6.38 5.92,6.38 1.64,0 4.94,-0.89 5.88,-5.83 0.5,-2.78 0.5,-6.58 0.5,-9.7 0,-3.75 0,-7.13 -0.55,-10.32 -0.75,-4.73 -3.59,-6.23 -5.83,-6.23 v 0 -1.09 c 2.69,0 6.47,1.04 8.67,5.78 1.6,3.43 1.85,7.31 1.85,11.25 z"
             id="path2110" /></g>      </g>
    </g>
  </g>
  <g
     transform="matrix(0.7,0,0,0.7,-55.429676,70.9129)"
     id="g1182">
    <g
       style="font-style:normal;font-variant:normal;font-weight:normal;font-stretch:normal;letter-spacing:normal;word-spacing:normal;text-anchor:start;fill:none;fill-opacity:1;fill-rule:evenodd;stroke:#000000;stroke-linecap:butt;stroke-linejoin:miter;stroke-miterlimit:10.43299961;stroke-dasharray:none;stroke-dashoffset:0;stroke-opacity:1"
       id="g1180"
       transform="matrix(0.22554504,0,0,-0.22554504,-39.470382,119.99051)"
       xml:space="preserve"
       stroke-miterlimit="10.433"
       font-style="normal"
       font-variant="normal"
       font-weight="normal"
       font-stretch="normal"
       font-size-adjust="none"
       letter-spacing="normal"
       word-spacing="normal"><path
         style="fill:#000000;stroke-width:0"
         inkscape:connector-curvature="0"
         d="m 1221.4,315.38 v 0.11 l 0.1,0.11 v 0.06 0.05 0.05 l 0.1,0.05 v 0.05 l 0.1,0.04 v 0.05 l 0.1,0.04 v 0.04 l 0.1,0.04 0.1,0.03 v 0.04 l 0.1,0.03 0.1,0.03 0.1,0.03 0.2,0.03 0.1,0.03 v 0.01 l 0.1,0.01 0.1,0.01 0.1,0.01 v 0.01 l 0.1,0.01 0.1,0.01 0.1,0.01 h 0.1 l 0.1,0.01 0.1,0.01 h 0.1 l 0.1,0.01 h 0.1 l 0.1,0.01 h 0.1 0.1 l 0.1,0.01 h 0.2 0.1 0.1 0.2 v 2.35 c -1.2,-0.11 -2.7,-0.16 -3.9,-0.16 -1.3,0 -3.7,0.11 -4.8,0.16 v -2.35 c 0.5,0 2.9,-0.04 2.9,-0.59 0,-0.16 -0.1,-0.45 -0.2,-0.61 l -5.2,-12.75 -5.7,13.95 h 2.8 v 2.35 c -1.6,-0.05 -4.2,-0.16 -5.7,-0.16 -2.1,0 -4.2,0.11 -5,0.16 v -2.35 h 3 c 1,-2.5 1,-2.59 1,-2.64 0,-0.2 -0.1,-0.5 -0.2,-0.66 l -3.9,-9.56 -5.2,12.86 h 2.7 v 2.35 c -2,-0.11 -4,-0.16 -6.1,-0.16 -1.5,0 -3.7,0.11 -5.4,0.16 v -2.35 h 2.9 l 7.6,-18.64 c 0.4,-0.84 0.6,-1.34 1.8,-1.34 1.3,0 1.5,0.5 1.8,1.34 l 5.3,12.91 5.3,-12.91 c 0.3,-0.84 0.5,-1.34 1.8,-1.34 1.2,0 1.4,0.5 1.8,1.34 z"
         id="path1140" /><path
         style="fill:#000000;stroke-width:0"
         inkscape:connector-curvature="0"
         d="m 1247.4,309.09 v 0.14 l -0.1,0.13 v 0.13 0.13 0.13 l -0.1,0.13 v 0.12 0.12 l -0.1,0.12 -0.1,0.11 v 0.11 l -0.1,0.11 -0.1,0.1 v 0.1 l -0.1,0.1 -0.1,0.09 -0.1,0.09 -0.1,0.08 -0.1,0.08 -0.1,0.07 -0.1,0.07 -0.1,0.06 -0.1,0.06 -0.2,0.06 -0.1,0.04 -0.1,0.04 -0.1,0.04 -0.2,0.03 -0.1,0.02 -0.1,0.02 -0.1,0.01 h -0.2 c -1.4,0 -2.6,-1.18 -2.6,-2.64 0,-1.43 1.2,-2.64 2.6,-2.64 1.5,0 2.7,1.21 2.7,2.64 z"
         id="path1142" /><path
         style="fill:#000000;stroke-width:0"
         inkscape:connector-curvature="0"
         d="m 1280,308.89 5.8,6.49 c 0.7,0.7 1,1.04 5.1,1.04 v 2.35 c -1.7,-0.11 -4.3,-0.16 -4.6,-0.16 -1.2,0 -3.7,0.11 -5.1,0.16 v -2.35 c 0.7,0 1.3,-0.11 1.9,-0.45 -0.2,-0.3 -0.2,-0.39 -0.4,-0.59 l -4.2,-4.69 -4.9,5.73 h 2 v 2.35 c -1.3,-0.05 -4.4,-0.16 -6,-0.16 -1.6,0 -3.9,0.11 -5.5,0.16 v -2.35 h 3.5 l 7.8,-9.17 -6.5,-7.33 c -0.9,-0.94 -2.7,-0.94 -5.1,-0.94 v -2.34 c 1.8,0.09 4.4,0.16 4.6,0.16 1.3,0 4.2,-0.11 5.2,-0.16 v 2.34 c -0.9,0 -1.9,0.25 -1.9,0.55 0,0.05 0,0.09 0.4,0.5 l 4.8,5.42 5.5,-6.47 h -2 v -2.34 c 1.3,0.05 4.4,0.16 6,0.16 1.6,0 3.8,-0.11 5.5,-0.16 v 2.34 h -3.5 z"
         id="path1144" /><path
         style="fill:#000000;stroke-width:0"
         inkscape:connector-curvature="0"
         d="m 1324.4,308.09 h 13.9 c 0.7,0 1.7,0 1.7,1 0,1 -1,1 -1.7,1 h -13.9 v 13.96 c 0,0.68 0,1.64 -1,1.64 -1,0 -1,-0.96 -1,-1.64 v -13.96 h -13.9 c -0.7,0 -1.7,0 -1.7,-1 0,-1 1,-1 1.7,-1 h 13.9 v -13.93 c 0,-0.71 0,-1.66 1,-1.66 1,0 1,0.95 1,1.66 z"
         id="path1146" /><path
         style="fill:#000000;stroke-width:0"
         inkscape:connector-curvature="0"
         d="m 1365.7,330.67 v 0 0.01 0.01 0.01 0.01 0.01 0.02 0.02 0.02 0.02 0.02 0.02 0.03 0.02 0.02 0.03 0.02 l -0.1,0.03 v 0.02 0.03 0.02 0.01 0.01 l -0.1,0.01 v 0.01 0.01 0.01 0.01 0.01 0.01 l -0.1,0.01 v 0.01 0 0.01 0.01 h -0.1 v 0.01 0 0.01 h -0.1 v 0 0.01 0 h -0.1 v 0 c -1.2,0 -4.8,-0.41 -6.1,-0.5 -0.4,-0.05 -0.9,-0.1 -0.9,-1 0,-0.6 0.4,-0.6 1.2,-0.6 2.4,0 2.5,-0.34 2.5,-0.84 0,-0.36 -0.5,-2.05 -0.7,-3.09 l -4.1,-16.24 c -0.6,-2.5 -0.8,-3.29 -0.8,-5.03 0,-4.73 2.6,-7.83 6.3,-7.83 v 1.1 c -1.7,0 -3.3,1.34 -3.3,5.03 0,0.95 0,1.89 0.8,5.03 l 1.1,4.59 c 0.2,1.1 0.2,1.19 0.7,1.74 2.4,3.23 4.7,3.98 6,3.98 1.8,0 3.1,-1.48 3.1,-4.68 0,-2.94 -1.6,-8.66 -2.5,-10.57 -1.7,-3.33 -4,-5.12 -5.9,-5.12 v -1.1 c 5.9,0 12,7.43 12,14.6 0,4.53 -2.6,7.97 -6.6,7.97 -2.3,0 -4.3,-1.44 -5.8,-2.99 z"
         id="path1148" /><path
         style="fill:#000000;stroke-width:0"
         inkscape:connector-curvature="0"
         d="m 1422.6,321.45 0.1,0.03 v 0.03 l 0.1,0.03 v 0.02 l 0.1,0.03 v 0.03 l 0.1,0.02 v 0.03 l 0.1,0.03 v 0.03 l 0.1,0.03 v 0.03 0.02 l 0.1,0.03 v 0.04 0.03 l 0.1,0.03 v 0.03 0.03 0.04 l 0.1,0.03 v 0.04 0.04 0.04 0.04 0.04 0.04 l 0.1,0.05 v 0.04 0.05 0.05 0.05 c 0,0.54 -0.5,1 -1,1 -0.2,0 -0.3,0 -0.9,-0.35 l -27.6,-13.01 c -0.6,-0.25 -1,-0.5 -1,-1.1 0,-0.59 0.4,-0.84 1,-1.09 l 27.6,-13 c 0.6,-0.36 0.7,-0.36 0.9,-0.36 0.5,0 1,0.45 1,1 0,0.55 -0.4,0.8 -1,1.09 l -26.1,12.36 z"
         id="path1150" /><path
         style="fill:#000000;stroke-width:0"
         inkscape:connector-curvature="0"
         d="m 1464.6,312.58 v 0.75 0.74 0.75 l -0.1,0.74 v 0.75 l -0.1,0.74 -0.1,0.74 -0.1,0.73 -0.1,0.74 -0.1,0.72 -0.2,0.73 -0.2,0.71 -0.2,0.72 -0.2,0.7 -0.3,0.7 -0.2,0.35 -0.1,0.34 c -2.3,4.8 -6.4,5.6 -8.5,5.6 -3,0 -6.6,-1.3 -8.7,-5.94 -1.5,-3.44 -1.8,-7.33 -1.8,-11.31 0,-3.74 0.2,-8.22 2.3,-12 2.1,-4.03 5.7,-5.03 8.2,-5.03 v 1.09 c -2,0 -4.9,1.25 -5.8,6.03 -0.5,2.99 -0.5,7.56 -0.5,10.52 0,3.19 0,6.47 0.4,9.15 0.9,5.94 4.6,6.38 5.9,6.38 1.6,0 4.9,-0.89 5.8,-5.83 0.5,-2.78 0.5,-6.58 0.5,-9.7 0,-3.75 0,-7.13 -0.5,-10.31 -0.7,-4.74 -3.6,-6.24 -5.8,-6.24 v 0 -1.09 c 2.7,0 6.4,1.04 8.7,5.78 1.5,3.44 1.8,7.31 1.8,11.25 z"
         id="path1152" /><path
         style="fill:#000000;stroke-width:0"
         inkscape:connector-curvature="0"
         d="m 1049.8,238.18 0.4,-0.34 0.4,-0.31 0.4,-0.31 0.4,-0.3 0.5,-0.28 0.4,-0.27 0.4,-0.26 0.4,-0.25 0.4,-0.23 0.4,-0.23 0.4,-0.21 0.4,-0.19 0.4,-0.19 0.3,-0.17 0.2,-0.08 0.2,-0.08 0.1,-0.08 0.2,-0.07 c -1.8,-0.79 -4.2,-2.09 -6.3,-3.83 h -31.6 c -0.9,0 -1.8,0 -1.8,-1 0,-1 0.9,-1 1.7,-1 h 29.5 c -2.4,-2.29 -5,-6.67 -5,-7.32 0,-0.55 0.6,-0.55 0.9,-0.55 0.4,0 0.8,0 1,0.41 1,1.89 2.4,4.53 5.7,7.42 3.4,3.03 6.7,4.37 9.3,5.12 0.9,0.3 0.9,0.36 1,0.46 0.1,0.04 0.1,0.2 0.1,0.29 0,0.11 0,0.21 0,0.3 l -0.2,0.11 c -0.1,0.05 -0.1,0.09 -1.1,0.39 -6.7,2 -11.7,6.53 -14.5,11.86 -0.5,1 -0.6,1.05 -1.3,1.05 -0.3,0 -0.9,0 -0.9,-0.55 0,-0.66 2.5,-4.99 5,-7.33 h -29.5 c -0.8,0 -1.7,0 -1.7,-1 0,-0.98 0.9,-0.98 1.8,-0.98 z"
         id="path1154" /><path
         style="fill:#000000;stroke-width:0"
         inkscape:connector-curvature="0"
         d="m 1095.6,241.8 h 4.3 c 1,0 1.5,0 1.5,1 0,0.55 -0.5,0.55 -1.3,0.55 h -4.2 l 1.1,5.69 c 0.2,1.04 0.9,4.57 1.2,5.17 0.4,0.95 1.3,1.7 2.3,1.7 0.2,0 1.5,0 2.5,-0.91 -2.2,-0.18 -2.7,-1.93 -2.7,-2.68 0,-1.14 0.9,-1.74 1.8,-1.74 1.3,0 2.8,1.1 2.8,2.99 0,2.29 -2.3,3.43 -4.4,3.43 -1.7,0 -4.8,-0.89 -6.3,-5.82 -0.3,-1.05 -0.4,-1.55 -1.6,-7.83 h -3.5 c -0.9,0 -1.5,0 -1.5,-0.94 0,-0.61 0.5,-0.61 1.4,-0.61 h 3.3 l -3.7,-19.67 c -0.9,-4.83 -1.8,-9.38 -4.4,-9.38 -0.2,0 -1.4,0 -2.4,0.91 2.3,0.14 2.8,1.94 2.8,2.69 0,1.14 -0.9,1.75 -1.9,1.75 -1.3,0 -2.7,-1.1 -2.7,-3 0,-2.24 2.2,-3.44 4.2,-3.44 2.8,0 4.8,2.94 5.7,4.84 1.5,3.15 2.7,9.16 2.8,9.52 z"
         id="path1156" /><path
         style="fill:#000000;stroke-width:0"
         inkscape:connector-curvature="0"
         d="m 1123.6,209.93 v 0.02 0.03 0.01 0.02 0.01 0.02 0.01 0.02 0.02 0.02 l -0.1,0.02 v 0.03 0.02 0.03 0.03 0.03 l -0.1,0.03 v 0.04 0.02 0.02 l -0.1,0.02 v 0.02 0.02 0.03 0.02 l -0.1,0.02 v 0.03 0.02 0.03 l -0.1,0.03 v 0.03 0.03 0.03 l -0.1,0.03 v 0.03 0.03 l -0.1,0.04 v 0.03 0.04 l -0.1,0.03 v 0.04 0.04 c -6.3,6.28 -7.9,15.69 -7.9,23.31 0,8.67 1.9,17.35 8.1,23.56 0.6,0.61 0.6,0.71 0.6,0.86 0,0.35 -0.2,0.49 -0.5,0.49 -0.5,0 -5,-3.38 -7.9,-9.7 -2.5,-5.49 -3.1,-11.02 -3.1,-15.21 0,-3.89 0.5,-9.9 3.2,-15.54 3,-6.13 7.3,-9.36 7.8,-9.36 0.3,0 0.5,0.14 0.5,0.5 z"
         id="path1158" /><path
         style="fill:#000000;stroke-width:0"
         inkscape:connector-curvature="0"
         d="m 1163.2,240.61 v 0.12 0.11 l 0.1,0.06 v 0.05 0.05 l 0.1,0.05 v 0.04 l 0.1,0.05 v 0.04 l 0.1,0.05 v 0.04 l 0.1,0.04 0.1,0.03 v 0.04 l 0.1,0.03 0.1,0.03 0.1,0.03 0.1,0.03 0.2,0.02 v 0.01 l 0.1,0.02 0.1,0.01 0.1,0.01 v 0.01 l 0.1,0.01 0.1,0.01 h 0.1 l 0.1,0.01 0.1,0.01 h 0.1 l 0.1,0.01 0.1,0.01 h 0.1 l 0.1,0.01 h 0.1 0.1 l 0.1,0.01 h 0.1 0.2 0.1 0.1 V 244 c -1.1,-0.1 -2.6,-0.15 -3.8,-0.15 -1.3,0 -3.7,0.11 -4.8,0.15 v -2.34 c 0.5,0 2.9,-0.05 2.9,-0.59 0,-0.16 -0.1,-0.46 -0.2,-0.61 l -5.2,-12.75 -5.7,13.95 h 2.8 V 244 c -1.6,-0.04 -4.2,-0.15 -5.7,-0.15 -2.1,0 -4.2,0.11 -5,0.15 v -2.34 h 3 c 1,-2.5 1,-2.59 1,-2.64 0,-0.2 -0.1,-0.5 -0.2,-0.66 l -3.9,-9.56 -5.3,12.86 h 2.8 V 244 c -2,-0.1 -4,-0.15 -6.1,-0.15 -1.5,0 -3.7,0.11 -5.4,0.15 v -2.34 h 2.9 l 7.6,-18.64 c 0.4,-0.84 0.6,-1.34 1.8,-1.34 1.3,0 1.5,0.5 1.8,1.34 l 5.3,12.91 5.3,-12.91 c 0.4,-0.84 0.5,-1.34 1.8,-1.34 1.2,0 1.4,0.5 1.8,1.34 z"
         id="path1160" /><path
         style="fill:#000000;stroke-width:0"
         inkscape:connector-curvature="0"
         d="m 1189.3,234.33 v 0.14 0.13 l -0.1,0.13 v 0.13 0.13 0.13 l -0.1,0.12 v 0.12 l -0.1,0.11 v 0.12 l -0.1,0.11 -0.1,0.11 -0.1,0.1 v 0.1 l -0.1,0.1 -0.1,0.09 -0.1,0.08 -0.1,0.09 -0.1,0.08 -0.1,0.07 -0.1,0.07 -0.1,0.06 -0.1,0.06 -0.1,0.05 -0.2,0.05 -0.1,0.04 -0.1,0.04 -0.1,0.03 -0.2,0.02 -0.1,0.02 -0.1,0.01 h -0.2 c -1.4,0 -2.6,-1.18 -2.6,-2.64 0,-1.43 1.2,-2.64 2.6,-2.64 1.5,0 2.7,1.21 2.7,2.64 z"
         id="path1162" /><path
         style="fill:#000000;stroke-width:0"
         inkscape:connector-curvature="0"
         d="m 1221.8,234.13 5.8,6.48 c 0.7,0.71 1,1.05 5.1,1.05 V 244 c -1.8,-0.1 -4.3,-0.15 -4.6,-0.15 -1.2,0 -3.7,0.11 -5.1,0.15 v -2.34 c 0.7,0 1.3,-0.11 1.9,-0.45 -0.2,-0.3 -0.2,-0.39 -0.4,-0.6 l -4.2,-4.68 -4.9,5.73 h 2 V 244 c -1.3,-0.04 -4.4,-0.15 -6,-0.15 -1.6,0 -3.9,0.11 -5.5,0.15 v -2.34 h 3.5 l 7.8,-9.17 -6.5,-7.33 c -0.9,-0.94 -2.7,-0.94 -5.1,-0.94 v -2.34 c 1.8,0.09 4.4,0.16 4.6,0.16 1.3,0 4.2,-0.11 5.2,-0.16 v 2.34 c -0.9,0 -1.9,0.25 -1.9,0.55 0,0.05 0,0.09 0.4,0.5 l 4.8,5.42 5.5,-6.47 h -2 v -2.34 c 1.3,0.05 4.4,0.16 6,0.16 1.6,0 3.9,-0.11 5.5,-0.16 v 2.34 h -3.5 z"
         id="path1164" /><path
         style="fill:#000000;stroke-width:0"
         inkscape:connector-curvature="0"
         d="m 1266.3,233.33 h 13.9 c 0.7,0 1.7,0 1.7,1 0,1 -1,1 -1.7,1 h -13.9 v 13.96 c 0,0.68 0,1.64 -1,1.64 -1,0 -1,-0.96 -1,-1.64 v -13.96 h -13.9 c -0.7,0 -1.7,0 -1.7,-1 0,-1 1,-1 1.7,-1 h 13.9 V 219.4 c 0,-0.71 0,-1.66 1,-1.66 1,0 1,0.95 1,1.66 z"
         id="path1166" /><path
         style="fill:#000000;stroke-width:0"
         inkscape:connector-curvature="0"
         d="m 1307.7,255.91 v 0 0.01 h -0.1 v 0.01 0.02 0.01 0.02 0.02 0.02 0.02 0.02 0.02 0.02 0.03 0.02 0.03 0.02 0.03 l -0.1,0.02 v 0.02 0.03 0.01 0.01 0.01 l -0.1,0.01 v 0.01 0.01 0.01 0.01 0.01 l -0.1,0.01 v 0 0.01 0.01 0 l -0.1,0.01 v 0.01 0 0 l -0.1,0.01 v 0 0 0.01 h -0.1 v 0 c -1.2,0 -4.8,-0.41 -6.1,-0.5 -0.4,-0.05 -0.9,-0.1 -0.9,-1 0,-0.6 0.4,-0.6 1.2,-0.6 2.4,0 2.5,-0.34 2.5,-0.84 0,-0.36 -0.5,-2.05 -0.7,-3.09 l -4.1,-16.24 c -0.6,-2.5 -0.8,-3.29 -0.8,-5.03 0,-4.73 2.6,-7.83 6.3,-7.83 v 1.1 c -1.7,0 -3.3,1.34 -3.3,5.03 0,0.95 0,1.89 0.8,5.03 l 1.1,4.59 c 0.3,1.1 0.3,1.19 0.7,1.74 2.5,3.23 4.7,3.98 6,3.98 1.8,0 3.1,-1.48 3.1,-4.69 0,-2.93 -1.6,-8.65 -2.5,-10.56 -1.6,-3.33 -4,-5.12 -5.9,-5.12 v -1.1 c 5.9,0 12,7.42 12,14.6 0,4.53 -2.6,7.97 -6.6,7.97 -2.3,0 -4.3,-1.44 -5.8,-2.99 z"
         id="path1168" /><path
         style="fill:#000000;stroke-width:0"
         inkscape:connector-curvature="0"
         d="m 1331.5,234.33 v 0.37 0.39 0.39 0.41 l -0.1,0.84 v 0.88 l -0.1,0.92 -0.1,0.95 -0.2,0.97 -0.1,1.01 -0.2,1.02 -0.2,1.03 -0.3,1.05 -0.3,1.06 -0.4,1.07 -0.4,1.07 -0.2,0.53 -0.2,0.53 -0.2,0.53 -0.3,0.53 c -3,6.12 -7.3,9.36 -7.8,9.36 -0.2,0 -0.5,-0.19 -0.5,-0.49 0,-0.15 0,-0.25 1,-1.15 4.9,-4.92 7.7,-12.85 7.7,-23.27 0,-8.51 -1.8,-17.28 -8,-23.56 -0.7,-0.59 -0.7,-0.7 -0.7,-0.84 0,-0.3 0.3,-0.5 0.5,-0.5 0.5,0 5,3.39 8,9.72 2.5,5.46 3.1,11 3.1,15.18 z"
         id="path1170" /><path
         style="fill:#000000;stroke-width:0"
         inkscape:connector-curvature="0"
         d="m 1384.6,238.18 h 0.1 0.2 0.1 l 0.1,0.01 v 0 l 0.1,0.01 0.1,0.01 0.1,0.01 v 0.01 l 0.1,0.01 0.1,0.02 v 0.02 l 0.1,0.02 0.1,0.02 v 0.03 l 0.1,0.03 v 0.04 l 0.1,0.03 v 0.05 l 0.1,0.04 v 0.05 0.03 0.03 l 0.1,0.02 v 0.03 0.03 0.04 0.03 0.04 0.03 0.04 0.04 0.04 l 0.1,0.04 v 0.04 0.04 0.05 c 0,1 -1,1 -1.7,1 h -29.8 c -0.7,0 -1.7,0 -1.7,-1 0,-0.98 1,-0.98 1.7,-0.98 z"
         id="path1172" /><path
         style="fill:#000000;stroke-width:0"
         inkscape:connector-curvature="0"
         d="m 1384.6,228.5 h 0.1 0.1 l 0.1,0.01 h 0.1 0.1 l 0.1,0.01 v 0.01 h 0.1 l 0.1,0.01 v 0.02 l 0.1,0.01 0.1,0.02 v 0.02 l 0.1,0.02 0.1,0.02 v 0.03 l 0.1,0.03 v 0.04 l 0.1,0.04 v 0.04 l 0.1,0.05 v 0.02 0.03 0.02 0.03 l 0.1,0.03 v 0.03 0.03 0.03 0.04 0.03 0.04 0.04 0.04 0.04 l 0.1,0.04 v 0.04 0.05 0.04 c 0,1 -1,1 -1.7,1 h -29.8 c -0.7,0 -1.7,0 -1.7,-1 0,-1 1,-1 1.7,-1 z"
         id="path1174" /><path
         style="fill:#000000;stroke-width:0"
         inkscape:connector-curvature="0"
         d="m 1435.7,233.33 h 0.2 0.1 l 0.2,0.01 h 0.1 l 0.1,0.01 v 0 l 0.1,0.01 0.1,0.01 0.1,0.01 v 0.02 l 0.1,0.02 0.1,0.01 v 0.03 l 0.1,0.02 v 0.03 l 0.1,0.03 v 0.04 l 0.1,0.03 v 0.05 l 0.1,0.04 v 0.05 0.03 l 0.1,0.03 v 0.03 0.03 0.03 0.03 0.04 0.03 0.04 l 0.1,0.04 v 0.04 0.04 0.04 0.04 0.05 0.04 c 0,1 -0.9,1 -1.8,1 h -26.9 c -0.9,0 -1.8,0 -1.8,-1 0,-1 0.9,-1 1.8,-1 z"
         id="path1176" /><path
         style="fill:#000000;stroke-width:0"
         inkscape:connector-curvature="0"
         d="m 1456.3,253.77 v 0.05 0.06 0.05 0.05 0.05 0.05 0.04 0.05 0.04 0.04 0.04 0.04 0.04 0.03 0.04 0.03 0.07 0.06 0.05 l -0.1,0.05 v 0.05 0.04 0.04 0.03 l -0.1,0.03 v 0.03 0.03 l -0.1,0.02 v 0.02 0.01 h -0.1 v 0.01 0.01 h -0.1 v 0.01 0.01 0 h -0.1 v 0.01 0 h -0.1 v 0.01 h -0.1 v 0 0 h -0.1 v 0 l -0.1,0.01 v 0 h -0.1 v 0 c -3.1,-3.19 -7.5,-3.19 -9.1,-3.19 v -1.55 c 1,0 3.9,0 6.5,1.3 v -25.81 c 0,-1.8 -0.1,-2.39 -4.6,-2.39 h -1.6 v -1.55 c 1.7,0.16 6.1,0.16 8,0.16 2,0 6.4,0 8.1,-0.16 v 1.55 h -1.6 c -4.5,0 -4.6,0.54 -4.6,2.39 z"
         id="path1178" /></g>  </g>
  <g
     id="g1582"
     transform="matrix(0.7,0,0,0.7,-121.57889,-8.4661421)">
    <g
       word-spacing="normal"
       letter-spacing="normal"
       font-size-adjust="none"
       font-stretch="normal"
       font-weight="normal"
       font-variant="normal"
       font-style="normal"
       stroke-miterlimit="10.433"
       xml:space="preserve"
       transform="matrix(0.22554504,0,0,-0.22554504,-39.470382,119.99051)"
       id="g1580"
       style="font-style:normal;font-variant:normal;font-weight:normal;font-stretch:normal;letter-spacing:normal;word-spacing:normal;text-anchor:start;fill:none;fill-opacity:1;fill-rule:evenodd;stroke:#000000;stroke-linecap:butt;stroke-linejoin:miter;stroke-miterlimit:10.43299961;stroke-dasharray:none;stroke-dashoffset:0;stroke-opacity:1"><path
         id="path1542"
         d="m 1201.9,315.38 0.1,0.11 v 0.11 0.06 l 0.1,0.05 v 0.05 0.05 l 0.1,0.05 v 0.04 l 0.1,0.05 v 0.04 l 0.1,0.04 0.1,0.04 v 0.03 l 0.1,0.04 0.1,0.03 0.1,0.03 0.1,0.03 0.1,0.03 0.1,0.03 0.1,0.01 0.1,0.01 v 0.01 l 0.1,0.01 0.1,0.01 0.1,0.01 0.1,0.01 v 0.01 h 0.1 l 0.1,0.01 0.1,0.01 h 0.1 l 0.1,0.01 h 0.1 l 0.1,0.01 h 0.2 0.1 l 0.1,0.01 h 0.1 0.1 0.2 0.1 v 2.35 c -1.1,-0.11 -2.6,-0.16 -3.8,-0.16 -1.4,0 -3.7,0.11 -4.8,0.16 v -2.35 c 0.4,0 2.9,-0.04 2.9,-0.59 0,-0.16 -0.2,-0.45 -0.2,-0.61 l -5.2,-12.75 -5.7,13.95 h 2.8 v 2.35 c -1.6,-0.05 -4.2,-0.16 -5.7,-0.16 -2.1,0 -4.2,0.11 -5,0.16 v -2.35 h 2.9 c 1.1,-2.5 1.1,-2.59 1.1,-2.64 0,-0.2 -0.2,-0.5 -0.2,-0.66 l -4,-9.56 -5.2,12.86 h 2.8 v 2.35 c -2,-0.11 -4.1,-0.16 -6.1,-0.16 -1.6,0 -3.8,0.11 -5.5,0.16 v -2.35 h 3 l 7.6,-18.64 c 0.4,-0.84 0.6,-1.34 1.8,-1.34 1.2,0 1.4,0.5 1.8,1.34 l 5.3,12.91 5.3,-12.91 c 0.3,-0.84 0.5,-1.34 1.7,-1.34 1.3,0 1.5,0.5 1.9,1.34 z"
         inkscape:connector-curvature="0"
         style="fill:#000000;stroke-width:0" /><path
         id="path1544"
         d="m 1228,309.09 v 0.14 0.13 0.13 0.13 0.13 l -0.1,0.13 V 310 l -0.1,0.12 v 0.12 l -0.1,0.11 v 0.11 l -0.1,0.11 -0.1,0.1 -0.1,0.1 v 0.1 l -0.1,0.09 -0.1,0.09 -0.1,0.08 -0.1,0.08 -0.1,0.07 -0.1,0.07 -0.1,0.06 -0.2,0.06 -0.1,0.06 -0.1,0.04 -0.1,0.04 -0.1,0.04 -0.2,0.03 -0.1,0.02 -0.1,0.02 -0.2,0.01 h -0.1 c -1.4,0 -2.6,-1.18 -2.6,-2.64 0,-1.43 1.2,-2.64 2.6,-2.64 1.4,0 2.6,1.21 2.6,2.64 z"
         inkscape:connector-curvature="0"
         style="fill:#000000;stroke-width:0" /><path
         id="path1546"
         d="m 1260.6,308.89 5.8,6.49 c 0.6,0.7 0.9,1.04 5.1,1.04 v 2.35 c -1.8,-0.11 -4.4,-0.16 -4.6,-0.16 -1.3,0 -3.8,0.11 -5.1,0.16 v -2.35 c 0.6,0 1.3,-0.11 1.8,-0.45 -0.2,-0.3 -0.2,-0.39 -0.4,-0.59 l -4.1,-4.69 -4.9,5.73 h 2 v 2.35 c -1.3,-0.05 -4.5,-0.16 -6.1,-0.16 -1.5,0 -3.8,0.11 -5.4,0.16 v -2.35 h 3.5 l 7.8,-9.17 -6.6,-7.33 c -0.8,-0.94 -2.6,-0.94 -5,-0.94 v -2.34 c 1.8,0.09 4.4,0.16 4.6,0.16 1.2,0 4.1,-0.11 5.1,-0.16 v 2.34 c -0.9,0 -1.8,0.25 -1.8,0.55 0,0.05 0,0.09 0.3,0.5 l 4.9,5.42 5.4,-6.47 h -1.9 v -2.34 c 1.3,0.05 4.3,0.16 6,0.16 1.6,0 3.8,-0.11 5.5,-0.16 v 2.34 h -3.6 z"
         inkscape:connector-curvature="0"
         style="fill:#000000;stroke-width:0" /><path
         id="path1548"
         d="m 1305,308.09 h 13.9 c 0.7,0 1.6,0 1.6,1 0,1 -0.9,1 -1.6,1 H 1305 v 13.96 c 0,0.68 0,1.64 -1,1.64 -1,0 -1,-0.96 -1,-1.64 v -13.96 h -14 c -0.7,0 -1.6,0 -1.6,-1 0,-1 0.9,-1 1.6,-1 h 14 v -13.93 c 0,-0.71 0,-1.66 1,-1.66 1,0 1,0.95 1,1.66 z"
         inkscape:connector-curvature="0"
         style="fill:#000000;stroke-width:0" /><path
         id="path1550"
         d="m 1346.4,330.67 v 0 0.01 0.01 0.01 0.01 0.01 0.02 0.02 0.02 0.02 0.02 0.02 0.03 0.02 0.02 0.03 l -0.1,0.02 v 0.03 0.02 0.03 0.02 0.01 l -0.1,0.01 v 0.01 0.01 0.01 0.01 0.01 0.01 l -0.1,0.01 v 0.01 0.01 0 0.01 l -0.1,0.01 v 0 0.01 0 l -0.1,0.01 v 0 0 0.01 h -0.1 v 0 0 c -1.2,0 -4.8,-0.41 -6.1,-0.5 -0.4,-0.05 -0.9,-0.1 -0.9,-1 0,-0.6 0.4,-0.6 1.1,-0.6 2.4,0 2.5,-0.34 2.5,-0.84 0,-0.36 -0.4,-2.05 -0.7,-3.09 l -4,-16.24 c -0.6,-2.5 -0.8,-3.29 -0.8,-5.03 0,-4.73 2.6,-7.83 6.3,-7.83 v 1.1 c -1.7,0 -3.4,1.34 -3.4,5.03 0,0.95 0,1.89 0.8,5.03 l 1.1,4.59 c 0.3,1.1 0.3,1.19 0.8,1.74 2.4,3.23 4.7,3.98 6,3.98 1.8,0 3.1,-1.48 3.1,-4.68 0,-2.94 -1.7,-8.66 -2.5,-10.57 -1.7,-3.33 -4,-5.12 -5.9,-5.12 v -1.1 c 5.9,0 12,7.43 12,14.6 0,4.53 -2.7,7.97 -6.6,7.97 -2.3,0 -4.4,-1.44 -5.9,-2.99 z"
         inkscape:connector-curvature="0"
         style="fill:#000000;stroke-width:0" /><path
         id="path1552"
         d="m 1403.3,308 0.1,0.05 0.1,0.04 v 0.03 l 0.1,0.02 v 0.03 l 0.1,0.02 v 0.03 l 0.1,0.02 v 0.03 0.03 l 0.1,0.03 v 0.03 0.03 l 0.1,0.03 v 0.03 0.03 l 0.1,0.04 v 0.03 0.04 0.04 l 0.1,0.04 v 0.04 0.04 0.04 0.05 0.05 0.05 0.05 0.05 0.05 c 0,0.6 -0.4,0.85 -0.9,1.1 l -27.6,13.01 c -0.6,0.35 -0.8,0.35 -0.9,0.35 -0.6,0 -1,-0.46 -1,-1 0,-0.46 0.3,-0.75 1,-1.1 l 26.1,-12.36 -26.1,-12.36 c -0.7,-0.34 -1,-0.64 -1,-1.09 0,-0.55 0.4,-1 1,-1 0.1,0 0.3,0 0.9,0.36 z"
         inkscape:connector-curvature="0"
         style="fill:#000000;stroke-width:0" /><path
         id="path1554"
         d="m 1445.2,312.58 -0.1,0.75 v 0.74 0.75 0.74 l -0.1,0.75 v 0.74 l -0.1,0.74 -0.1,0.73 -0.1,0.74 -0.1,0.72 -0.2,0.73 -0.2,0.71 -0.2,0.72 -0.3,0.7 -0.2,0.7 -0.2,0.35 -0.1,0.34 c -2.3,4.8 -6.4,5.6 -8.5,5.6 -3,0 -6.6,-1.3 -8.7,-5.94 -1.6,-3.44 -1.8,-7.33 -1.8,-11.31 0,-3.74 0.2,-8.22 2.2,-12 2.2,-4.03 5.8,-5.03 8.2,-5.03 v 1.09 c -1.9,0 -4.8,1.25 -5.7,6.03 -0.6,2.99 -0.6,7.56 -0.6,10.52 0,3.19 0,6.47 0.4,9.15 1,5.94 4.7,6.38 5.9,6.38 1.7,0 5,-0.89 5.9,-5.83 0.5,-2.78 0.5,-6.58 0.5,-9.7 0,-3.75 0,-7.13 -0.5,-10.31 -0.8,-4.74 -3.6,-6.24 -5.9,-6.24 v 0 -1.09 c 2.7,0 6.5,1.04 8.7,5.78 1.6,3.44 1.9,7.31 1.9,11.25 z"
         inkscape:connector-curvature="0"
         style="fill:#000000;stroke-width:0" /><path
         id="path1556"
         d="m 1069.2,238.18 0.4,-0.34 0.5,-0.31 0.4,-0.31 0.4,-0.3 0.4,-0.28 0.4,-0.27 0.4,-0.26 0.5,-0.25 0.4,-0.23 0.4,-0.23 0.4,-0.21 0.3,-0.19 0.4,-0.19 0.4,-0.17 0.1,-0.08 0.2,-0.08 0.2,-0.08 0.1,-0.07 c -1.8,-0.79 -4.2,-2.09 -6.3,-3.83 h -31.6 c -0.8,0 -1.8,0 -1.8,-1 0,-1 0.9,-1 1.8,-1 h 29.4 c -2.4,-2.29 -5,-6.67 -5,-7.32 0,-0.55 0.7,-0.55 1,-0.55 0.4,0 0.7,0 0.9,0.41 1.1,1.89 2.5,4.53 5.7,7.42 3.4,3.03 6.8,4.37 9.4,5.12 0.8,0.3 0.9,0.36 0.9,0.46 0.2,0.04 0.2,0.2 0.2,0.29 0,0.11 0,0.21 -0.1,0.3 l -0.1,0.11 c -0.1,0.05 -0.2,0.09 -1.1,0.39 -6.8,2 -11.7,6.53 -14.5,11.86 -0.6,1 -0.6,1.05 -1.3,1.05 -0.3,0 -1,0 -1,-0.55 0,-0.66 2.6,-4.99 5,-7.33 h -29.4 c -0.9,0 -1.8,0 -1.8,-1 0,-0.98 1,-0.98 1.8,-0.98 z"
         inkscape:connector-curvature="0"
         style="fill:#000000;stroke-width:0" /><path
         id="path1558"
         d="m 1115,241.8 h 4.2 c 1,0 1.5,0 1.5,1 0,0.55 -0.5,0.55 -1.3,0.55 h -4.2 l 1.1,5.69 c 0.2,1.04 0.9,4.57 1.2,5.17 0.5,0.95 1.3,1.7 2.3,1.7 0.2,0 1.5,0 2.5,-0.91 -2.2,-0.18 -2.7,-1.93 -2.7,-2.68 0,-1.14 0.9,-1.74 1.8,-1.74 1.3,0 2.8,1.1 2.8,2.99 0,2.29 -2.3,3.43 -4.4,3.43 -1.7,0 -4.8,-0.89 -6.3,-5.82 -0.3,-1.05 -0.4,-1.55 -1.6,-7.83 h -3.5 c -0.9,0 -1.5,0 -1.5,-0.94 0,-0.61 0.5,-0.61 1.4,-0.61 h 3.3 l -3.7,-19.67 c -0.9,-4.83 -1.8,-9.38 -4.3,-9.38 -0.3,0 -1.5,0 -2.4,0.91 2.3,0.14 2.7,1.94 2.7,2.69 0,1.14 -0.9,1.75 -1.8,1.75 -1.3,0 -2.8,-1.1 -2.8,-3 0,-2.24 2.2,-3.44 4.3,-3.44 2.7,0 4.7,2.94 5.6,4.84 1.6,3.15 2.7,9.16 2.8,9.52 z"
         inkscape:connector-curvature="0"
         style="fill:#000000;stroke-width:0" /><path
         id="path1560"
         d="m 1142.9,209.93 v 0.02 0.03 0.01 0.02 0.01 0.02 0.01 0.02 0.02 0.02 0.02 l -0.1,0.03 v 0.02 0.03 0.03 0.03 l -0.1,0.03 v 0.04 0.02 0.02 0.02 l -0.1,0.02 v 0.02 0.03 0.02 0.02 l -0.1,0.03 v 0.02 0.03 0.03 l -0.1,0.03 v 0.03 0.03 0.03 l -0.1,0.03 v 0.03 0.04 l -0.1,0.03 v 0.04 0.03 l -0.1,0.04 v 0.04 c -6.2,6.28 -7.8,15.69 -7.8,23.31 0,8.67 1.9,17.35 8,23.56 0.6,0.61 0.6,0.71 0.6,0.86 0,0.35 -0.2,0.49 -0.5,0.49 -0.5,0 -5,-3.38 -7.9,-9.7 -2.5,-5.49 -3.1,-11.02 -3.1,-15.21 0,-3.89 0.5,-9.9 3.3,-15.54 2.9,-6.13 7.2,-9.36 7.7,-9.36 0.3,0 0.5,0.14 0.5,0.5 z"
         inkscape:connector-curvature="0"
         style="fill:#000000;stroke-width:0" /><path
         id="path1562"
         d="m 1182.5,240.61 v 0.12 l 0.1,0.11 v 0.06 0.05 l 0.1,0.05 v 0.05 0.04 l 0.1,0.05 v 0.04 l 0.1,0.05 v 0.04 l 0.1,0.04 0.1,0.03 0.1,0.04 v 0.03 l 0.1,0.03 0.2,0.03 0.1,0.03 0.1,0.02 0.1,0.01 v 0.02 l 0.1,0.01 0.1,0.01 v 0.01 l 0.1,0.01 0.1,0.01 h 0.1 l 0.1,0.01 0.1,0.01 h 0.1 l 0.1,0.01 0.1,0.01 h 0.1 l 0.1,0.01 h 0.1 0.1 l 0.1,0.01 h 0.2 0.1 0.1 0.2 V 244 c -1.2,-0.1 -2.7,-0.15 -3.9,-0.15 -1.3,0 -3.7,0.11 -4.8,0.15 v -2.34 c 0.5,0 2.9,-0.05 2.9,-0.59 0,-0.16 -0.1,-0.46 -0.2,-0.61 l -5.2,-12.75 -5.7,13.95 h 2.8 V 244 c -1.6,-0.04 -4.2,-0.15 -5.7,-0.15 -2.1,0 -4.2,0.11 -5,0.15 v -2.34 h 3 c 1,-2.5 1,-2.59 1,-2.64 0,-0.2 -0.1,-0.5 -0.2,-0.66 l -3.9,-9.56 -5.2,12.86 h 2.8 V 244 c -2.1,-0.1 -4.1,-0.15 -6.2,-0.15 -1.5,0 -3.7,0.11 -5.4,0.15 v -2.34 h 2.9 l 7.7,-18.64 c 0.3,-0.84 0.5,-1.34 1.7,-1.34 1.3,0 1.5,0.5 1.8,1.34 l 5.3,12.91 5.3,-12.91 c 0.4,-0.84 0.5,-1.34 1.8,-1.34 1.3,0 1.5,0.5 1.8,1.34 z"
         inkscape:connector-curvature="0"
         style="fill:#000000;stroke-width:0" /><path
         id="path1564"
         d="m 1208.6,234.33 v 0.14 0.13 0.13 l -0.1,0.13 v 0.13 0.13 l -0.1,0.12 v 0.12 l -0.1,0.11 v 0.12 l -0.1,0.11 -0.1,0.11 v 0.1 l -0.1,0.1 -0.1,0.1 -0.1,0.09 -0.1,0.08 -0.1,0.09 -0.1,0.08 -0.1,0.07 -0.1,0.07 -0.1,0.06 -0.1,0.06 -0.1,0.05 -0.1,0.05 -0.2,0.04 -0.1,0.04 -0.1,0.03 -0.1,0.02 -0.2,0.02 -0.1,0.01 h -0.2 c -1.4,0 -2.6,-1.18 -2.6,-2.64 0,-1.43 1.2,-2.64 2.6,-2.64 1.5,0 2.7,1.21 2.7,2.64 z"
         inkscape:connector-curvature="0"
         style="fill:#000000;stroke-width:0" /><path
         id="path1566"
         d="m 1241.2,234.13 5.9,6.48 c 0.6,0.71 0.9,1.05 5,1.05 V 244 c -1.7,-0.1 -4.3,-0.15 -4.5,-0.15 -1.3,0 -3.8,0.11 -5.2,0.15 v -2.34 c 0.7,0 1.3,-0.11 1.9,-0.45 -0.2,-0.3 -0.2,-0.39 -0.4,-0.6 l -4.2,-4.68 -4.9,5.73 h 2 V 244 c -1.2,-0.04 -4.4,-0.15 -6,-0.15 -1.6,0 -3.8,0.11 -5.5,0.15 v -2.34 h 3.6 l 7.7,-9.17 -6.5,-7.33 c -0.8,-0.94 -2.6,-0.94 -5,-0.94 v -2.34 c 1.7,0.09 4.3,0.16 4.6,0.16 1.2,0 4.1,-0.11 5.1,-0.16 v 2.34 c -0.9,0 -1.8,0.25 -1.8,0.55 0,0.05 0,0.09 0.3,0.5 l 4.8,5.42 5.5,-6.47 h -1.9 v -2.34 c 1.3,0.05 4.3,0.16 6,0.16 1.5,0 3.8,-0.11 5.4,-0.16 v 2.34 h -3.5 z"
         inkscape:connector-curvature="0"
         style="fill:#000000;stroke-width:0" /><path
         id="path1568"
         d="m 1285.6,233.33 h 14 c 0.6,0 1.6,0 1.6,1 0,1 -1,1 -1.6,1 h -14 v 13.96 c 0,0.68 0,1.64 -1,1.64 -0.9,0 -0.9,-0.96 -0.9,-1.64 v -13.96 h -14 c -0.7,0 -1.6,0 -1.6,-1 0,-1 0.9,-1 1.6,-1 h 14 V 219.4 c 0,-0.71 0,-1.66 0.9,-1.66 1,0 1,0.95 1,1.66 z"
         inkscape:connector-curvature="0"
         style="fill:#000000;stroke-width:0" /><path
         id="path1570"
         d="m 1327,255.91 v 0 0.01 0 0.01 0.02 0.01 0.02 0.02 0.02 0.02 0.02 l -0.1,0.02 v 0.02 0.03 0.02 0.03 0.02 0.03 0.02 l -0.1,0.02 v 0.03 0.01 0.01 0.01 0.01 l -0.1,0.01 v 0.01 0.01 0.01 0.01 0.01 h -0.1 v 0.01 0.01 0 0.01 l -0.1,0.01 v 0 0 0.01 h -0.1 v 0 0.01 0 h -0.1 c -1.1,0 -4.7,-0.41 -6.1,-0.5 -0.4,-0.05 -0.9,-0.1 -0.9,-1 0,-0.6 0.5,-0.6 1.2,-0.6 2.4,0 2.5,-0.34 2.5,-0.84 0,-0.36 -0.5,-2.05 -0.7,-3.09 l -4.1,-16.24 c -0.6,-2.5 -0.8,-3.29 -0.8,-5.03 0,-4.73 2.7,-7.83 6.3,-7.83 v 1.1 c -1.7,0 -3.3,1.34 -3.3,5.03 0,0.95 0,1.89 0.8,5.03 l 1.1,4.59 c 0.3,1.1 0.3,1.19 0.7,1.74 2.5,3.23 4.7,3.98 6,3.98 1.8,0 3.2,-1.48 3.2,-4.69 0,-2.93 -1.7,-8.65 -2.6,-10.56 -1.6,-3.33 -3.9,-5.12 -5.9,-5.12 v -1.1 c 5.9,0 12,7.42 12,14.6 0,4.53 -2.6,7.97 -6.6,7.97 -2.3,0 -4.3,-1.44 -5.8,-2.99 z"
         inkscape:connector-curvature="0"
         style="fill:#000000;stroke-width:0" /><path
         id="path1572"
         d="m 1350.8,234.33 v 0.37 0.39 0.39 0.41 l -0.1,0.84 v 0.88 l -0.1,0.92 -0.1,0.95 -0.1,0.97 -0.2,1.01 -0.2,1.02 -0.2,1.03 -0.3,1.05 -0.3,1.06 -0.3,1.07 -0.4,1.07 -0.3,0.53 -0.2,0.53 -0.2,0.53 -0.3,0.53 c -2.9,6.12 -7.2,9.36 -7.7,9.36 -0.3,0 -0.5,-0.19 -0.5,-0.49 0,-0.15 0,-0.25 0.9,-1.15 4.9,-4.92 7.7,-12.85 7.7,-23.27 0,-8.51 -1.8,-17.28 -8,-23.56 -0.6,-0.59 -0.6,-0.7 -0.6,-0.84 0,-0.3 0.2,-0.5 0.5,-0.5 0.5,0 4.9,3.39 7.9,9.72 2.5,5.46 3.1,11 3.1,15.18 z"
         inkscape:connector-curvature="0"
         style="fill:#000000;stroke-width:0" /><path
         id="path1574"
         d="m 1403.9,238.18 h 0.1 0.2 0.1 l 0.1,0.01 h 0.1 v 0.01 l 0.1,0.01 0.1,0.01 v 0.01 l 0.1,0.01 0.1,0.02 v 0.02 l 0.1,0.02 0.1,0.02 v 0.03 l 0.1,0.03 v 0.04 l 0.1,0.03 v 0.05 l 0.1,0.04 v 0.05 0.03 l 0.1,0.03 v 0.02 0.03 0.03 0.04 0.03 0.04 0.03 l 0.1,0.04 v 0.04 0.04 0.04 0.04 0.04 0.05 c 0,1 -1,1 -1.7,1 h -29.8 c -0.7,0 -1.6,0 -1.6,-1 0,-0.98 0.9,-0.98 1.6,-0.98 z"
         inkscape:connector-curvature="0"
         style="fill:#000000;stroke-width:0" /><path
         id="path1576"
         d="m 1403.9,228.5 h 0.1 0.1 l 0.1,0.01 h 0.1 0.1 l 0.1,0.01 0.1,0.01 v 0 l 0.1,0.01 0.1,0.02 v 0.01 l 0.1,0.02 0.1,0.02 v 0.02 l 0.1,0.02 v 0.03 l 0.1,0.03 v 0.04 l 0.1,0.04 v 0.04 l 0.1,0.05 v 0.02 0.03 0.02 l 0.1,0.03 v 0.03 0.03 0.03 0.03 0.04 0.03 0.04 l 0.1,0.04 v 0.04 0.04 0.04 0.04 0.05 0.04 c 0,1 -1,1 -1.7,1 h -29.8 c -0.7,0 -1.6,0 -1.6,-1 0,-1 0.9,-1 1.6,-1 z"
         inkscape:connector-curvature="0"
         style="fill:#000000;stroke-width:0" /><path
         id="path1578"
         d="m 1436.9,253.77 v 0.05 0.06 0.05 0.05 0.05 0.05 0.04 0.05 0.04 0.04 0.04 0.04 0.04 l -0.1,0.03 v 0.04 0.03 0.07 0.06 0.05 0.05 0.05 0.04 l -0.1,0.04 v 0.03 0.03 0.03 l -0.1,0.03 v 0.02 l -0.1,0.02 v 0.01 0 0.01 l -0.1,0.01 v 0 0.01 l -0.1,0.01 v 0 0 l -0.1,0.01 v 0 0 l -0.1,0.01 v 0 0 h -0.1 v 0 h -0.1 v 0.01 h -0.1 v 0 h -0.1 c -3.1,-3.19 -7.5,-3.19 -9,-3.19 v -1.55 c 1,0 3.9,0 6.5,1.3 v -25.81 c 0,-1.8 -0.2,-2.39 -4.6,-2.39 h -1.7 v -1.55 c 1.8,0.16 6.1,0.16 8.1,0.16 2,0 6.3,0 8.1,-0.16 v 1.55 h -1.6 c -4.5,0 -4.6,0.54 -4.6,2.39 z"
         inkscape:connector-curvature="0"
         style="fill:#000000;stroke-width:0" /></g>  </g>
</svg>
