<?xml version="1.0" encoding="UTF-8" standalone="no"?>
<!-- Created with Inkscape (http://www.inkscape.org/) -->

<svg
   xmlns:dc="http://purl.org/dc/elements/1.1/"
   xmlns:cc="http://creativecommons.org/ns#"
   xmlns:rdf="http://www.w3.org/1999/02/22-rdf-syntax-ns#"
   xmlns:svg="http://www.w3.org/2000/svg"
   xmlns="http://www.w3.org/2000/svg"
   xmlns:xlink="http://www.w3.org/1999/xlink"
   xmlns:sodipodi="http://sodipodi.sourceforge.net/DTD/sodipodi-0.dtd"
   xmlns:inkscape="http://www.inkscape.org/namespaces/inkscape"
   width="275.4794mm"
   height="278.996mm"
   viewBox="0 0 275.4794 278.996"
   version="1.1"
   id="svg8"
   inkscape:version="0.92.3 (2405546, 2018-03-11)"
   sodipodi:docname="cost-functional.svg">
  <sodipodi:namedview
     id="base"
     pagecolor="#ffffff"
     bordercolor="#666666"
     borderopacity="1.0"
     inkscape:pageopacity="0.0"
     inkscape:pageshadow="2"
     inkscape:zoom="0.98994949"
     inkscape:cx="517.66823"
     inkscape:cy="421.47551"
     inkscape:document-units="mm"
     inkscape:current-layer="layer1"
     showgrid="false"
     inkscape:window-width="3773"
     inkscape:window-height="2098"
     inkscape:window-x="67"
     inkscape:window-y="98"
     inkscape:window-maximized="1"
     fit-margin-top="0"
     fit-margin-left="0"
     fit-margin-right="0"
     fit-margin-bottom="0" />
  <defs
     id="defs2">
    <marker
       inkscape:stockid="Arrow1Mend"
       orient="auto"
       refY="0"
       refX="0"
       id="Arrow1Mend"
       style="overflow:visible"
       inkscape:isstock="true">
      <path
         id="path1105"
         d="M 0,0 5,-5 -12.5,0 5,5 Z"
         style="fill:#000000;fill-opacity:1;fill-rule:evenodd;stroke:#000000;stroke-width:1.00000003pt;stroke-opacity:1"
         transform="matrix(-0.4,0,0,-0.4,-4,0)"
         inkscape:connector-curvature="0" />
    </marker>
    <marker
       inkscape:stockid="Arrow1Lend"
       orient="auto"
       refY="0"
       refX="0"
       id="Arrow1Lend"
       style="overflow:visible"
       inkscape:isstock="true">
      <path
         id="path1099"
         d="M 0,0 5,-5 -12.5,0 5,5 Z"
         style="fill:#000000;fill-opacity:1;fill-rule:evenodd;stroke:#000000;stroke-width:1.00000003pt;stroke-opacity:1"
         transform="matrix(-0.8,0,0,-0.8,-10,0)"
         inkscape:connector-curvature="0" />
    </marker>
    <linearGradient
       inkscape:collect="always"
       id="linearGradient1048">
      <stop
         style="stop-color:#0000ff;stop-opacity:1;"
         offset="0"
         id="stop1044" />
      <stop
         style="stop-color:#0000ff;stop-opacity:0;"
         offset="1"
         id="stop1046" />
    </linearGradient>
    <linearGradient
       inkscape:collect="always"
       id="linearGradient1038">
      <stop
         style="stop-color:#0000ff;stop-opacity:1;"
         offset="0"
         id="stop1034" />
      <stop
         style="stop-color:#0000ff;stop-opacity:0;"
         offset="1"
         id="stop1036" />
    </linearGradient>
    <linearGradient
       inkscape:collect="always"
       id="linearGradient1028">
      <stop
         style="stop-color:#0000ff;stop-opacity:1;"
         offset="0"
         id="stop1024" />
      <stop
         style="stop-color:#0000ff;stop-opacity:0;"
         offset="1"
         id="stop1026" />
    </linearGradient>
    <linearGradient
       inkscape:collect="always"
       xlink:href="#linearGradient1028"
       id="linearGradient1030"
       x1="941.46222"
       y1="272.98135"
       x2="1422.2948"
       y2="372.98645"
       gradientUnits="userSpaceOnUse"
       gradientTransform="matrix(0.26835494,0,0,0.26749885,-4.7124941,0.71314433)" />
    <linearGradient
       inkscape:collect="always"
       xlink:href="#linearGradient1038"
       id="linearGradient1040"
       x1="1723.3203"
       y1="187.11839"
       x2="1138.4419"
       y2="378.0372"
       gradientUnits="userSpaceOnUse"
       gradientTransform="matrix(0.26458333,0,0,0.26458333,-1.111805,2.112334)" />
    <linearGradient
       inkscape:collect="always"
       xlink:href="#linearGradient1048"
       id="linearGradient1050"
       x1="1329.3607"
       y1="-60.36898"
       x2="1326.3303"
       y2="467.9408"
       gradientUnits="userSpaceOnUse"
       gradientTransform="matrix(0.26458333,0,0,0.26458333,-0.8018087,5.8799298)" />
    <linearGradient
       inkscape:collect="always"
       xlink:href="#linearGradient1038"
       id="linearGradient1092"
       gradientUnits="userSpaceOnUse"
       gradientTransform="matrix(0.26458333,0,0,0.26458333,-1.111805,2.112334)"
       x1="1723.3203"
       y1="187.11839"
       x2="1138.4419"
       y2="378.0372" />
  </defs>
  <metadata
     id="metadata5">
    <rdf:RDF>
      <cc:Work
         rdf:about="">
        <dc:format>image/svg+xml</dc:format>
        <dc:type
           rdf:resource="http://purl.org/dc/dcmitype/StillImage" />
        <dc:title></dc:title>
      </cc:Work>
    </rdf:RDF>
  </metadata>
  <g
     id="layer1"
     inkscape:groupmode="layer"
     inkscape:label="Layer 1"
     transform="translate(73.72546,-7.2786682)">
    <g
       transform="translate(-1.8708861,-20.847022)"
       id="g825">
      <path
         style="fill:none;stroke:#000000;stroke-width:0.26458332px;stroke-linecap:butt;stroke-linejoin:miter;stroke-opacity:1"
         d="m 17.907058,28.126854 1.603617,182.277816 -80.982667,83.92264"
         id="path819"
         inkscape:connector-curvature="0" />
      <path
         style="fill:none;stroke:#000000;stroke-width:0.26458332px;stroke-linecap:butt;stroke-linejoin:miter;stroke-opacity:1"
         d="M 19.510675,210.40467 179.07058,209.87013"
         id="path821"
         inkscape:connector-curvature="0" />
    </g>
    <g
       id="g867"
       transform="translate(-158.94046,-18.596844)">
      <g
         word-spacing="normal"
         letter-spacing="normal"
         font-size-adjust="none"
         font-stretch="normal"
         font-weight="normal"
         font-variant="normal"
         font-style="normal"
         stroke-miterlimit="10.433"
         xml:space="preserve"
         transform="matrix(0.3,0,0,-0.3,-52.5,222.75)"
         id="content"
         style="font-style:normal;font-variant:normal;font-weight:normal;font-stretch:normal;letter-spacing:normal;word-spacing:normal;text-anchor:start;fill:none;fill-opacity:1;fill-rule:evenodd;stroke:#000000;stroke-linecap:butt;stroke-linejoin:miter;stroke-miterlimit:10.43299961;stroke-dasharray:none;stroke-dashoffset:0;stroke-opacity:1"><path
           id="path854"
           d="m 482.47,436.59 0.04,0.15 0.04,0.14 0.03,0.14 0.04,0.13 0.03,0.12 0.04,0.12 0.04,0.11 0.04,0.11 0.04,0.1 0.04,0.09 0.05,0.09 0.05,0.08 0.06,0.08 0.06,0.07 0.07,0.07 0.08,0.06 0.08,0.06 0.09,0.05 0.09,0.05 0.11,0.04 0.11,0.04 0.13,0.04 0.13,0.03 0.07,0.01 0.08,0.02 0.07,0.01 0.08,0.01 0.08,0.01 0.09,0.01 0.09,0.01 0.09,0.01 0.09,0.01 h 0.1 l 0.1,0.01 h 0.11 l 0.1,0.01 h 0.11 0.12 0.12 0.12 0.13 c 0.79,0 1.34,0 1.34,0.96 0,0.43 -0.3,0.59 -0.69,0.59 -1.25,0 -4.28,-0.16 -5.53,-0.16 -1.64,0 -5.69,0.16 -7.33,0.16 -0.45,0 -1.04,0 -1.04,-1 0,-0.55 0.4,-0.55 1.7,-0.55 1.14,0 1.64,0 2.88,-0.09 1.2,-0.16 1.54,-0.31 1.54,-1 0,-0.3 -0.09,-0.66 -0.19,-1.05 l -5.73,-22.87 c -1.2,-4.83 -4.58,-7.47 -7.17,-7.47 -1.3,0 -3.94,0.5 -4.74,3.09 0.14,-0.04 0.5,-0.04 0.6,-0.04 1.94,0 3.23,1.68 3.23,3.18 0,1.6 -1.34,2.08 -2.19,2.08 -0.89,0 -3.34,-0.59 -3.34,-3.98 0,-3.08 2.64,-5.42 6.58,-5.42 4.59,0 9.76,3.28 11.01,8.21 z"
           inkscape:connector-curvature="0"
           style="fill:#000000;stroke-width:0" /><path
           id="path856"
           d="m 504.4,394.25 v 0.02 0.03 0.01 0.02 l -0.01,0.01 v 0.02 l -0.01,0.01 v 0.02 l -0.01,0.02 -0.01,0.02 -0.01,0.02 -0.02,0.03 -0.01,0.02 -0.02,0.03 -0.02,0.03 -0.03,0.03 -0.02,0.03 -0.03,0.04 -0.02,0.02 -0.02,0.02 -0.01,0.02 -0.02,0.02 -0.02,0.02 -0.02,0.03 -0.02,0.02 -0.02,0.02 -0.03,0.03 -0.02,0.02 -0.02,0.03 -0.03,0.03 -0.03,0.03 -0.02,0.03 -0.03,0.03 -0.03,0.03 -0.03,0.03 -0.04,0.03 -0.03,0.04 -0.03,0.03 -0.04,0.04 -0.03,0.03 -0.04,0.04 -0.04,0.04 c -6.22,6.28 -7.81,15.69 -7.81,23.31 0,8.67 1.89,17.35 8.01,23.56 0.64,0.61 0.64,0.71 0.64,0.86 0,0.35 -0.19,0.49 -0.48,0.49 -0.5,0 -4.99,-3.38 -7.92,-9.7 -2.55,-5.49 -3.14,-11.02 -3.14,-15.21 0,-3.89 0.54,-9.9 3.28,-15.54 2.98,-6.13 7.28,-9.36 7.78,-9.36 0.29,0 0.48,0.14 0.48,0.5 z"
           inkscape:connector-curvature="0"
           style="fill:#000000;stroke-width:0" /><path
           id="path858"
           d="m 543.95,424.93 0.05,0.12 0.05,0.11 0.03,0.06 0.03,0.05 0.03,0.05 0.04,0.05 0.03,0.04 0.05,0.05 0.05,0.04 0.05,0.05 0.06,0.04 0.07,0.04 0.07,0.03 0.08,0.04 0.09,0.03 0.1,0.03 0.1,0.03 0.12,0.03 0.12,0.02 0.07,0.01 0.07,0.02 0.07,0.01 0.07,0.01 0.08,0.01 0.08,0.01 0.08,0.01 h 0.09 l 0.09,0.01 0.09,0.01 h 0.1 l 0.1,0.01 0.1,0.01 h 0.11 l 0.1,0.01 h 0.12 0.11 l 0.12,0.01 h 0.13 0.13 0.13 0.13 v 2.34 c -1.15,-0.11 -2.64,-0.15 -3.84,-0.15 -1.34,0 -3.69,0.11 -4.78,0.15 v -2.34 c 0.45,0 2.89,-0.05 2.89,-0.59 0,-0.16 -0.14,-0.46 -0.2,-0.61 l -5.22,-12.75 -5.69,13.95 h 2.8 v 2.34 c -1.6,-0.04 -4.19,-0.15 -5.69,-0.15 -2.09,0 -4.19,0.11 -4.99,0.15 v -2.34 h 2.94 c 1.05,-2.5 1.05,-2.59 1.05,-2.64 0,-0.2 -0.14,-0.5 -0.19,-0.66 l -3.94,-9.56 -5.23,12.86 h 2.78 v 2.34 c -2.03,-0.11 -4.08,-0.15 -6.12,-0.15 -1.55,0 -3.74,0.11 -5.43,0.15 v -2.34 h 2.94 l 7.63,-18.64 c 0.34,-0.84 0.54,-1.34 1.78,-1.34 1.25,0 1.45,0.5 1.79,1.34 l 5.29,12.91 5.28,-12.91 c 0.36,-0.84 0.54,-1.34 1.79,-1.34 1.25,0 1.46,0.5 1.8,1.34 z"
           inkscape:connector-curvature="0"
           style="fill:#000000;stroke-width:0" /><path
           id="path860"
           d="m 559.58,406.25 v 0.3 l -0.01,0.3 -0.02,0.29 -0.02,0.28 -0.04,0.27 -0.03,0.26 -0.05,0.26 -0.05,0.24 -0.06,0.24 -0.06,0.23 -0.07,0.22 -0.08,0.21 -0.08,0.2 -0.09,0.19 -0.1,0.19 -0.1,0.17 -0.11,0.16 -0.11,0.16 -0.12,0.14 -0.12,0.13 -0.13,0.13 -0.13,0.11 -0.14,0.1 -0.14,0.1 -0.15,0.08 -0.16,0.07 -0.15,0.06 -0.17,0.05 -0.17,0.04 -0.17,0.03 -0.17,0.01 -0.18,0.01 c -1.65,0 -2.65,-1.25 -2.65,-2.64 0,-1.34 1,-2.64 2.65,-2.64 0.59,0 1.25,0.2 1.75,0.64 0.13,0.11 0.2,0.16 0.25,0.16 0.04,0 0.09,-0.05 0.09,-0.75 0,-3.69 -1.74,-6.68 -3.39,-8.32 -0.55,-0.54 -0.55,-0.65 -0.55,-0.79 0,-0.36 0.25,-0.55 0.5,-0.55 0.55,0 4.53,3.83 4.53,9.66 z"
           inkscape:connector-curvature="0"
           style="fill:#000000;stroke-width:0" /><path
           id="path862"
           d="m 583.46,440.23 v 0 0.01 0 0.01 0.02 l -0.01,0.01 v 0.02 0.02 0.02 l -0.01,0.02 v 0.02 l -0.01,0.02 -0.01,0.02 -0.01,0.03 -0.01,0.02 -0.01,0.03 -0.01,0.02 -0.02,0.03 -0.02,0.02 -0.02,0.02 -0.02,0.03 -0.01,0.01 -0.01,0.01 -0.02,0.01 -0.01,0.01 -0.02,0.01 -0.01,0.01 -0.02,0.01 -0.01,0.01 -0.02,0.01 -0.02,0.01 h -0.02 l -0.02,0.01 -0.02,0.01 h -0.02 l -0.02,0.01 -0.02,0.01 H 583 582.98 l -0.03,0.01 h -0.02 -0.03 l -0.03,0.01 h -0.02 -0.03 c -1.16,0 -4.79,-0.41 -6.08,-0.5 -0.41,-0.05 -0.96,-0.1 -0.96,-1 0,-0.6 0.46,-0.6 1.21,-0.6 2.39,0 2.48,-0.34 2.48,-0.84 0,-0.36 -0.45,-2.05 -0.7,-3.09 l -4.08,-16.24 c -0.59,-2.5 -0.79,-3.3 -0.79,-5.03 0,-4.73 2.63,-7.83 6.32,-7.83 v 1.1 c -1.7,0 -3.34,1.34 -3.34,5.03 0,0.95 0,1.89 0.8,5.03 l 1.09,4.59 c 0.3,1.1 0.3,1.19 0.75,1.74 2.44,3.23 4.69,3.98 5.98,3.98 1.8,0 3.15,-1.48 3.15,-4.69 0,-2.93 -1.66,-8.65 -2.55,-10.56 -1.64,-3.33 -3.94,-5.12 -5.88,-5.12 v -1.1 c 5.88,0 12,7.42 12,14.6 0,4.53 -2.64,7.96 -6.62,7.96 -2.28,0 -4.33,-1.43 -5.83,-2.98 z"
           inkscape:connector-curvature="0"
           style="fill:#000000;stroke-width:0" /><path
           id="path864"
           d="m 607.3,418.65 v 0.37 l -0.01,0.39 v 0.39 l -0.02,0.41 -0.04,0.84 -0.06,0.88 -0.08,0.92 -0.11,0.95 -0.13,0.97 -0.16,1.01 -0.2,1.02 -0.23,1.03 -0.27,1.05 -0.3,1.06 -0.35,1.07 -0.39,1.07 -0.22,0.53 -0.22,0.53 -0.24,0.53 -0.25,0.53 c -2.99,6.12 -7.27,9.36 -7.77,9.36 -0.29,0 -0.5,-0.19 -0.5,-0.49 0,-0.15 0,-0.25 0.94,-1.15 4.89,-4.92 7.74,-12.85 7.74,-23.27 0,-8.51 -1.85,-17.28 -8.03,-23.56 -0.65,-0.59 -0.65,-0.7 -0.65,-0.84 0,-0.3 0.21,-0.5 0.5,-0.5 0.5,0 4.97,3.39 7.93,9.71 2.53,5.47 3.12,11 3.12,15.19 z"
           inkscape:connector-curvature="0"
           style="fill:#000000;stroke-width:0" /></g>    </g>
    <g
       transform="translate(-155.28359,163.56895)"
       id="g911">
      <g
         style="font-style:normal;font-variant:normal;font-weight:normal;font-stretch:normal;letter-spacing:normal;word-spacing:normal;text-anchor:start;fill:none;fill-opacity:1;fill-rule:evenodd;stroke:#000000;stroke-linecap:butt;stroke-linejoin:miter;stroke-miterlimit:10.43299961;stroke-dasharray:none;stroke-dashoffset:0;stroke-opacity:1"
         id="g909"
         transform="matrix(0.3,0,0,-0.3,-52.5,222.75)"
         xml:space="preserve"
         stroke-miterlimit="10.433"
         font-style="normal"
         font-variant="normal"
         font-weight="normal"
         font-stretch="normal"
         font-size-adjust="none"
         letter-spacing="normal"
         word-spacing="normal"><path
           style="fill:#000000;stroke-width:0"
           inkscape:connector-curvature="0"
           d="m 492.24,424.93 0.05,0.12 0.04,0.11 0.03,0.06 0.03,0.05 0.03,0.05 0.04,0.05 0.04,0.04 0.04,0.05 0.05,0.04 0.06,0.05 0.06,0.04 0.06,0.04 0.08,0.03 0.08,0.04 0.08,0.03 0.1,0.03 0.11,0.03 0.11,0.03 0.13,0.02 0.06,0.01 0.07,0.02 0.07,0.01 0.08,0.01 0.07,0.01 0.08,0.01 0.09,0.01 h 0.08 l 0.09,0.01 0.1,0.01 h 0.09 l 0.1,0.01 0.1,0.01 h 0.11 l 0.11,0.01 h 0.11 0.12 l 0.12,0.01 h 0.12 0.13 0.13 0.14 v 2.34 c -1.16,-0.11 -2.64,-0.15 -3.84,-0.15 -1.35,0 -3.69,0.11 -4.79,0.15 v -2.34 c 0.46,0 2.89,-0.05 2.89,-0.59 0,-0.16 -0.14,-0.46 -0.2,-0.61 l -5.22,-12.75 -5.68,13.95 h 2.79 v 2.34 c -1.59,-0.04 -4.19,-0.15 -5.69,-0.15 -2.09,0 -4.18,0.11 -4.98,0.15 v -2.34 h 2.94 c 1.04,-2.5 1.04,-2.59 1.04,-2.64 0,-0.2 -0.14,-0.5 -0.18,-0.66 l -3.94,-9.56 -5.23,12.86 h 2.78 v 2.34 c -2.03,-0.11 -4.08,-0.15 -6.13,-0.15 -1.55,0 -3.73,0.11 -5.42,0.15 v -2.34 h 2.94 l 7.62,-18.64 c 0.35,-0.84 0.55,-1.34 1.78,-1.34 1.25,0 1.46,0.5 1.8,1.34 l 5.28,12.91 5.28,-12.91 c 0.36,-0.84 0.55,-1.34 1.8,-1.34 1.25,0 1.45,0.5 1.8,1.34 z"
           id="path907" /></g>    </g>
    <g
       id="g961"
       transform="translate(86.328057,84.189901)">
      <g
         word-spacing="normal"
         letter-spacing="normal"
         font-size-adjust="none"
         font-stretch="normal"
         font-weight="normal"
         font-variant="normal"
         font-style="normal"
         stroke-miterlimit="10.433"
         xml:space="preserve"
         transform="matrix(0.3,0,0,-0.3,-52.5,222.75)"
         id="g959"
         style="font-style:normal;font-variant:normal;font-weight:normal;font-stretch:normal;letter-spacing:normal;word-spacing:normal;text-anchor:start;fill:none;fill-opacity:1;fill-rule:evenodd;stroke:#000000;stroke-linecap:butt;stroke-linejoin:miter;stroke-miterlimit:10.43299961;stroke-dasharray:none;stroke-dashoffset:0;stroke-opacity:1"><path
           id="path957"
           d="m 467.43,440.23 v 0 0.01 0 0.01 l -0.01,0.02 v 0.01 0.02 0.02 0.02 l -0.01,0.02 v 0.02 l -0.01,0.02 -0.01,0.02 -0.01,0.03 -0.01,0.02 -0.01,0.03 -0.01,0.02 -0.02,0.03 -0.02,0.02 -0.02,0.02 -0.02,0.03 -0.01,0.01 -0.02,0.01 -0.01,0.01 -0.01,0.01 -0.02,0.01 -0.01,0.01 -0.02,0.01 -0.01,0.01 -0.02,0.01 -0.02,0.01 h -0.02 l -0.02,0.01 -0.02,0.01 h -0.02 l -0.02,0.01 -0.02,0.01 h -0.03 -0.02 l -0.03,0.01 h -0.02 -0.03 l -0.03,0.01 h -0.03 -0.02 c -1.16,0 -4.79,-0.41 -6.08,-0.5 -0.41,-0.05 -0.96,-0.1 -0.96,-1 0,-0.6 0.46,-0.6 1.21,-0.6 2.39,0 2.48,-0.34 2.48,-0.84 0,-0.36 -0.45,-2.05 -0.7,-3.09 l -4.08,-16.24 c -0.59,-2.5 -0.8,-3.3 -0.8,-5.03 0,-4.73 2.64,-7.83 6.33,-7.83 v 1.1 c -1.7,0 -3.34,1.34 -3.34,5.03 0,0.95 0,1.89 0.79,5.03 l 1.1,4.59 c 0.3,1.1 0.3,1.19 0.75,1.74 2.44,3.23 4.69,3.98 5.98,3.98 1.8,0 3.14,-1.48 3.14,-4.69 0,-2.93 -1.65,-8.65 -2.54,-10.56 -1.64,-3.33 -3.94,-5.12 -5.88,-5.12 v -1.1 c 5.88,0 12,7.42 12,14.6 0,4.53 -2.64,7.96 -6.62,7.96 -2.28,0 -4.33,-1.43 -5.83,-2.98 z"
           inkscape:connector-curvature="0"
           style="fill:#000000;stroke-width:0" /></g>    </g>
    <g
       id="g1090"
       transform="translate(-292.12559,16.036172)">
      <path
         inkscape:connector-curvature="0"
         id="path1022"
         d="m 340.97302,209.24998 c -7.5026,-1.56017 -15.86036,-5.80419 -23.855,-12.11344 -3.50574,-2.76669 -10.67331,-9.89552 -14.14033,-14.06391 -5.03892,-6.05833 -10.34556,-13.5297 -13.51159,-19.0234 -9.31232,-16.15879 -16.1423,-46.43767 -19.6326,-87.035838 -0.37052,-4.309922 -0.75674,-9.295384 -0.85822,-11.0788 l -0.18453,-3.242577 1.30402,1.752698 c 9.40659,12.643102 33.27349,21.864125 63.28802,24.451437 2.60913,0.224911 6.09619,0.409625 7.74902,0.41047 l 3.00512,0.0016 0.18047,32.08798 c 0.0993,17.64839 0.2613,44.76444 0.36006,60.25787 l 0.1796,28.16988 -0.65441,-0.0192 c -0.35992,-0.0105 -1.81324,-0.26017 -3.22963,-0.55472 z"
         style="fill:url(#linearGradient1030);fill-opacity:1;stroke:none;stroke-width:1.02291667;stroke-miterlimit:4;stroke-dasharray:none;stroke-dashoffset:0;stroke-opacity:1" />
      <path
         inkscape:connector-curvature="0"
         id="path1032"
         d="m 344.69678,200.63088 c -0.0882,-5.0562 -0.2235,-27.23379 -0.30076,-49.28352 -0.0772,-22.04974 -0.21862,-45.06998 -0.31419,-51.15608 l -0.17375,-11.06566 1.13922,0.1528 c 1.41631,0.18997 13.19445,-0.21575 17.51949,-0.6035 29.54607,-2.648819 53.15619,-12.143897 61.78941,-24.849329 l 1.18658,-1.746252 -0.15412,1.469982 c -0.0848,0.80849 -0.33785,3.695002 -0.5624,6.414469 -2.1495,26.03286 -6.46856,52.52162 -11.37407,69.75734 -3.15695,11.09208 -6.38127,18.97181 -10.66662,26.0675 -11.24778,18.62418 -24.99505,32.82524 -38.14432,39.40346 -5.65401,2.82856 -10.66651,4.18382 -16.54198,4.47255 l -3.24221,0.15933 z"
         style="fill:url(#linearGradient1092);fill-opacity:1;stroke:none;stroke-width:1.01015258;stroke-miterlimit:4;stroke-dasharray:none;stroke-dashoffset:0;stroke-opacity:1" />
      <path
         inkscape:connector-curvature="0"
         id="path1042"
         d="M 336.818,91.086835 C 310.31554,89.58877 286.61535,81.93049 275.45086,71.257172 c -4.01489,-3.838263 -6.09774,-7.162901 -6.92044,-11.046299 -0.49464,-2.334847 -0.49363,-3.769521 0.004,-6.123797 3.33738,-15.779297 31.23338,-28.532458 67.5802,-30.895487 6.15508,-0.400163 22.34797,-0.165507 27.86467,0.403795 12.19263,1.258235 21.84879,3.213108 31.1278,6.301771 35.71632,11.888728 41.6686,33.690741 13.33887,48.857702 -17.00133,9.102056 -44.62685,13.858243 -71.62824,12.331978 z"
         style="fill:url(#linearGradient1050);fill-opacity:1;stroke:none;stroke-width:1.01015258;stroke-miterlimit:4;stroke-dasharray:none;stroke-dashoffset:0;stroke-opacity:1" />
    </g>
    <path
       style="fill:none;stroke:#000000;stroke-width:1.23687005;stroke-linecap:butt;stroke-linejoin:miter;stroke-miterlimit:4;stroke-dasharray:none;stroke-opacity:1;marker-end:url(#Arrow1Mend)"
       d="M 140.56845,265.74234 C 59.025899,228.17176 59.025899,228.17176 59.025899,228.17176"
       id="path1094"
       inkscape:connector-curvature="0" />
    <g
       id="g1740"
       transform="translate(-103.4333,179.60512)">
      <g
         word-spacing="normal"
         letter-spacing="normal"
         font-size-adjust="none"
         font-stretch="normal"
         font-weight="normal"
         font-variant="normal"
         font-style="normal"
         stroke-miterlimit="10.433"
         xml:space="preserve"
         transform="matrix(0.3,0,0,-0.3,-52.5,222.75)"
         id="g1738"
         style="font-style:normal;font-variant:normal;font-weight:normal;font-stretch:normal;letter-spacing:normal;word-spacing:normal;text-anchor:start;fill:none;fill-opacity:1;fill-rule:evenodd;stroke:#000000;stroke-linecap:butt;stroke-linejoin:miter;stroke-miterlimit:10.43299961;stroke-dasharray:none;stroke-dashoffset:0;stroke-opacity:1"><path
           id="path1666"
           d="m 488.71,439.93 h -30.46 l -0.93,-11.22 h 1.25 c 0.68,8.04 1.43,9.68 8.95,9.68 0.91,0 2.2,0 2.7,-0.11 1.05,-0.19 1.05,-0.74 1.05,-1.89 v -26.25 c 0,-1.71 0,-2.39 -5.23,-2.39 h -2 v -1.55 c 2.04,0.16 7.12,0.16 9.42,0.16 2.29,0 7.42,0 9.47,-0.16 v 1.55 h -2 c -5.24,0 -5.24,0.68 -5.24,2.39 v 26.25 c 0,1 0,1.7 0.91,1.89 0.54,0.11 1.89,0.11 2.84,0.11 7.52,0 8.27,-1.64 8.95,-9.68 h 1.25 z"
           inkscape:connector-curvature="0"
           style="fill:#000000;stroke-width:0" /><path
           id="path1668"
           d="m 497,409.98 v -0.1 -0.1 -0.19 l -0.01,-0.18 -0.02,-0.17 -0.01,-0.15 -0.03,-0.15 -0.03,-0.13 -0.03,-0.12 -0.05,-0.11 -0.04,-0.11 -0.06,-0.09 -0.07,-0.09 -0.07,-0.08 -0.08,-0.07 -0.09,-0.06 -0.1,-0.05 -0.11,-0.05 -0.12,-0.05 -0.13,-0.03 -0.14,-0.04 -0.15,-0.02 -0.16,-0.03 -0.18,-0.01 -0.09,-0.01 -0.1,-0.01 -0.1,-0.01 h -0.1 l -0.11,-0.01 h -0.11 -0.11 l -0.12,-0.01 h -0.12 -0.12 -0.13 -0.13 -0.13 -0.14 -0.14 -0.15 -0.15 -0.16 v -1.55 c 1.75,0.05 4.28,0.16 5.63,0.16 1.3,0 3.89,-0.11 5.58,-0.16 v 1.55 c -3.33,0 -3.88,0 -3.88,2.23 v 9.17 c 0,5.19 3.53,7.97 6.72,7.97 3.14,0 3.69,-2.69 3.69,-5.53 v -11.61 c 0,-2.23 -0.55,-2.23 -3.89,-2.23 v -1.55 c 1.75,0.05 4.29,0.16 5.64,0.16 1.3,0 3.87,-0.11 5.58,-0.16 v 1.55 c -2.6,0 -3.85,0 -3.9,1.5 v 9.51 c 0,4.28 0,5.83 -1.54,7.61 -0.69,0.86 -2.35,1.84 -5.22,1.84 -4.19,0 -6.39,-2.98 -7.23,-4.87 v 17.44 l -7.18,-0.55 v -1.55 c 3.49,0 3.89,-0.34 3.89,-2.79 z"
           inkscape:connector-curvature="0"
           style="fill:#000000;stroke-width:0" /><path
           id="path1670"
           d="m 524.77,417.71 0.05,1.05 c 0.29,7.42 4.48,8.66 6.18,8.66 5.13,0 5.63,-6.72 5.63,-8.66 h -11.81 l -0.05,-1.05 h 13.91 c 1.09,0 1.23,0 1.23,1.05 0,4.92 -2.69,9.75 -8.91,9.75 -5.78,0 -10.37,-5.12 -10.37,-11.36 0,-6.67 5.23,-11.5 10.97,-11.5 6.08,0 8.31,5.53 8.31,6.47 0,0.5 -0.39,0.61 -0.64,0.61 -0.45,0 -0.55,-0.3 -0.66,-0.7 -1.73,-5.13 -6.21,-5.13 -6.71,-5.13 -2.5,0 -4.49,1.49 -5.63,3.33 -1.5,2.39 -1.5,5.69 -1.5,7.48 z"
           inkscape:connector-curvature="0"
           style="fill:#000000;stroke-width:0" /><path
           id="path1672"
           d="m 583.35,420.04 v 0.44 l -0.03,0.43 -0.04,0.43 -0.06,0.41 -0.07,0.41 -0.09,0.4 -0.11,0.38 -0.12,0.38 -0.14,0.36 -0.15,0.36 -0.16,0.34 -0.18,0.33 -0.2,0.32 -0.2,0.3 -0.22,0.3 -0.24,0.27 -0.24,0.27 -0.26,0.25 -0.27,0.24 -0.28,0.22 -0.3,0.2 -0.3,0.19 -0.32,0.18 -0.33,0.15 -0.33,0.14 -0.35,0.13 -0.36,0.1 -0.37,0.09 -0.37,0.07 -0.39,0.05 -0.39,0.02 -0.41,0.01 c -6.17,0 -12.59,-7.06 -12.59,-14.34 0,-5.12 3.14,-8.22 7.27,-8.22 v 1.1 c -1.94,0 -3.78,1.54 -3.78,5.12 0,2.5 1.29,8.03 2.88,10.72 1.85,3.05 4.24,4.53 6.18,4.53 2.45,0 3.84,-2.19 3.84,-5.12 0,-2.14 -1.09,-7.29 -2.69,-10.27 -1.45,-2.73 -3.98,-4.98 -6.43,-4.98 v 0 -1.1 c 6.18,0 12.6,7.08 12.6,14.39 z"
           inkscape:connector-curvature="0"
           style="fill:#000000;stroke-width:0" /><path
           id="path1674"
           d="m 598.53,439.53 v 0.01 l 0.01,0.02 v 0.02 l 0.01,0.02 v 0.02 l 0.01,0.02 0.01,0.02 v 0.02 l 0.01,0.02 v 0.03 l 0.02,0.04 0.01,0.05 0.01,0.05 0.02,0.05 v 0.03 l 0.01,0.02 v 0.02 l 0.01,0.02 v 0.03 l 0.01,0.02 v 0.02 0.02 l 0.01,0.01 v 0.02 0.02 0.01 0.01 0.01 c 0,0.44 -0.29,0.6 -0.7,0.6 -0.16,0 -0.64,-0.05 -0.8,-0.11 l -4.93,-0.39 c -0.6,-0.05 -1.15,-0.1 -1.15,-1.05 0,-0.55 0.5,-0.55 1.21,-0.55 2.39,0 2.48,-0.34 2.48,-0.84 0,-0.16 -0.15,-0.8 -0.15,-0.84 l -4.92,-19.69 c -0.05,-0.16 -0.55,-2.19 -0.55,-4.08 0,-4.19 2.09,-7.58 5.72,-7.58 v 1.1 c -1.24,0 -2.89,1.04 -2.89,4.78 0,2.18 0.45,3.93 1.9,9.62 0.35,1.19 0.35,1.28 1.1,2.28 1.43,2 3.32,3.69 5.23,3.69 2.24,0 2.74,-2.84 2.74,-4.44 0,-2.09 -1.35,-8.01 -2.8,-11.2 -0.6,-1.25 -2.74,-4.73 -5.28,-4.73 v 0 -1.1 c 5.58,0 11.42,7.47 11.42,14.8 0,5.33 -3,7.76 -5.99,7.76 -1.89,0 -3.59,-1.04 -5.28,-2.64 z"
           inkscape:connector-curvature="0"
           style="fill:#000000;stroke-width:0" /><path
           id="path1676"
           d="m 622.1,422.09 0.01,0.02 v 0.02 l 0.01,0.02 0.01,0.03 v 0.03 l 0.01,0.03 0.01,0.04 0.01,0.04 0.01,0.04 0.01,0.04 0.01,0.05 0.01,0.05 0.01,0.05 0.01,0.05 0.01,0.05 0.01,0.06 0.01,0.06 0.02,0.06 0.01,0.06 0.01,0.06 0.01,0.13 0.02,0.13 0.01,0.13 0.01,0.13 0.01,0.13 v 0.07 0.06 c 0,2.34 -1.5,4.48 -4.3,4.48 -4.92,0 -7.56,-7.31 -7.56,-7.67 0,-0.5 0.5,-0.5 0.74,-0.5 0.65,0 0.65,0.07 0.95,0.86 1.25,3.14 3.23,6.22 5.83,6.22 1.25,0 1.34,-1.09 1.34,-1.98 0,-0.8 -0.14,-1.75 -0.34,-2.55 l -4.74,-18.98 c -0.64,-2.65 -2.59,-6.54 -5.68,-6.54 -0.89,0 -1.6,0.41 -1.69,0.46 1.75,0.54 1.89,2.14 1.89,2.39 0,0.65 -0.44,1.59 -1.74,1.59 -0.9,0 -2.45,-0.69 -2.45,-2.64 0,-1.84 1.85,-2.89 4.05,-2.89 3.78,0 7.76,3.25 8.81,7.48 z"
           inkscape:connector-curvature="0"
           style="fill:#000000;stroke-width:0" /><path
           id="path1678"
           d="m 624.13,437.18 v 0.07 0.06 0.06 l -0.01,0.06 -0.01,0.06 v 0.06 l -0.01,0.06 -0.02,0.05 -0.01,0.05 -0.01,0.05 -0.02,0.05 -0.01,0.05 -0.02,0.05 -0.02,0.05 -0.04,0.08 -0.04,0.09 -0.05,0.07 -0.05,0.07 -0.05,0.07 -0.06,0.06 -0.06,0.06 -0.06,0.05 -0.07,0.05 -0.06,0.05 -0.07,0.04 -0.07,0.04 -0.07,0.03 -0.07,0.03 -0.07,0.03 -0.07,0.02 -0.07,0.02 -0.07,0.02 -0.07,0.01 -0.07,0.01 -0.06,0.01 -0.07,0.01 h -0.06 l -0.06,0.01 h -0.05 c -1.25,0 -2.44,-1.21 -2.44,-2.39 0,-0.66 0.5,-1.66 1.69,-1.66 1.2,0 2.43,1.11 2.43,2.34 z"
           inkscape:connector-curvature="0"
           style="fill:#000000;stroke-width:0" /><path
           id="path1680"
           d="m 633.5,417.71 0.14,0.01 h 0.16 0.16 0.18 l 0.18,0.01 h 0.19 l 0.2,0.01 0.21,0.01 0.21,0.01 0.22,0.02 0.23,0.01 0.23,0.02 0.47,0.04 0.49,0.05 0.5,0.07 0.51,0.07 0.5,0.09 0.51,0.11 0.5,0.11 0.25,0.07 0.24,0.07 0.24,0.07 0.24,0.08 0.23,0.08 0.23,0.09 c 3.93,1.59 3.93,4.83 3.93,5.17 0,2.3 -1.84,4.23 -5.03,4.23 v -1.09 c 2,0 3.14,-1.34 3.14,-3.03 0,-5.28 -8.22,-5.28 -9.86,-5.28 h -1.05 c 2.15,8.17 7.27,8.31 7.77,8.31 v 1.09 c -5.23,0 -12.36,-5.03 -12.36,-13.84 0,-4.48 2.41,-8.72 7.13,-8.72 6.39,0 10.51,4.99 10.51,5.74 0,0.25 -0.39,0.79 -0.8,0.79 -0.2,0 -0.25,-0.06 -0.63,-0.54 -3.69,-4.69 -8.13,-4.89 -8.97,-4.89 -3.24,0 -3.78,3.53 -3.78,5.48 0,1.89 0.48,4.13 0.84,5.48 z"
           inkscape:connector-curvature="0"
           style="fill:#000000;stroke-width:0" /><path
           id="path1682"
           d="m 663.66,424.98 -0.11,-0.02 -0.12,-0.01 -0.1,-0.02 -0.11,-0.03 -0.1,-0.02 -0.1,-0.03 -0.09,-0.03 -0.09,-0.03 -0.09,-0.03 -0.08,-0.03 -0.08,-0.04 -0.08,-0.04 -0.08,-0.04 -0.07,-0.04 -0.07,-0.04 -0.07,-0.04 -0.06,-0.05 -0.06,-0.04 -0.06,-0.05 -0.06,-0.05 -0.05,-0.05 -0.05,-0.05 -0.1,-0.1 -0.08,-0.1 -0.08,-0.1 -0.07,-0.11 -0.06,-0.1 -0.06,-0.11 -0.05,-0.1 -0.04,-0.1 -0.03,-0.1 -0.03,-0.1 -0.03,-0.09 -0.02,-0.09 -0.02,-0.08 -0.01,-0.07 -0.01,-0.07 v -0.06 l -0.01,-0.06 v -0.04 -0.04 -0.01 -0.01 -0.01 -0.01 c 0,-0.79 0.54,-1.59 1.68,-1.59 1.35,0 2.55,1.09 2.55,2.98 0,2.44 -2.14,4.28 -5.34,4.28 -6.17,0 -12.6,-7.06 -12.6,-14.34 0,-4.94 2.94,-8.22 7.31,-8.22 6.4,0 10.52,4.99 10.52,5.74 0,0.25 -0.39,0.79 -0.8,0.79 -0.2,0 -0.25,-0.06 -0.64,-0.54 -3.68,-4.69 -8.12,-4.89 -8.96,-4.89 -2.69,0 -3.94,2.25 -3.94,5.12 0,2.64 1.34,7.88 2.64,10.27 1.8,3.25 4.28,4.98 6.53,4.98 0.55,0 2.78,-0.09 3.53,-2.14 z"
           inkscape:connector-curvature="0"
           style="fill:#000000;stroke-width:0" /><path
           id="path1684"
           d="m 677.86,426.12 h 4.23 c 0.85,0 1.39,0 1.39,0.95 0,0.6 -0.43,0.6 -1.23,0.6 h -3.98 l 1.84,7.37 c 0.19,0.71 0.19,0.8 0.19,1.05 0,1.05 -0.85,1.3 -1.35,1.3 -1.25,0 -1.73,-1.05 -1.93,-1.8 l -1.96,-7.92 h -4.23 c -0.85,0 -1.39,0 -1.39,-0.94 0,-0.61 0.45,-0.61 1.25,-0.61 h 3.98 l -3.59,-14.3 c -0.05,-0.18 -0.25,-0.98 -0.25,-1.68 0,-2.5 1.65,-4.49 4.23,-4.49 5.05,0 7.58,7.42 7.58,7.67 0,0.5 -0.39,0.5 -0.75,0.5 -0.59,0 -0.59,-0.04 -0.98,-0.95 -0.91,-2.39 -2.89,-6.12 -5.74,-6.12 -1.34,0 -1.34,1.25 -1.34,2.04 0,0.35 0,1.14 0.34,2.53 z"
           inkscape:connector-curvature="0"
           style="fill:#000000;stroke-width:0" /><path
           id="path1686"
           d="m 697.95,413.32 v 0.03 0.02 0.02 l -0.01,0.02 v 0.02 0.02 0.02 l -0.01,0.02 v 0.02 l -0.01,0.01 v 0.02 l -0.01,0.02 -0.01,0.01 v 0.02 l -0.01,0.01 -0.01,0.01 -0.01,0.02 v 0.01 l -0.02,0.02 -0.02,0.02 -0.02,0.02 -0.02,0.02 -0.03,0.02 -0.02,0.01 -0.03,0.01 -0.03,0.01 -0.02,0.01 -0.03,0.01 -0.03,0.01 h -0.03 l -0.03,0.01 h -0.03 l -0.04,0.01 h -0.03 -0.03 -0.06 -0.07 -0.06 c -0.66,0 -0.66,-0.11 -0.87,-0.84 -0.38,-1.45 -1.73,-6.23 -4.62,-6.23 -0.41,0 -1.09,0.04 -1.09,1.39 0,1.29 0.64,2.93 1.29,4.78 l 3.19,8.53 c 0.5,1.44 0.6,1.84 0.6,2.78 0,2.75 -1.9,3.98 -3.74,3.98 -4.69,0 -6.38,-7.42 -6.38,-7.67 0,-0.5 0.5,-0.5 0.74,-0.5 0.66,0 0.7,0.11 0.91,0.8 0.45,1.66 1.73,6.28 4.62,6.28 0.55,0 1.11,-0.25 1.11,-1.39 0,-1.2 -0.56,-2.64 -0.91,-3.59 l -1.48,-4.13 c -0.66,-1.65 -1.25,-3.3 -1.84,-4.94 -0.71,-1.89 -0.91,-2.43 -0.91,-3.43 0,-1.94 1.2,-3.99 3.78,-3.99 4.69,0 6.33,7.47 6.33,7.67 z"
           inkscape:connector-curvature="0"
           style="fill:#000000;stroke-width:0" /><path
           id="path1688"
           d="m 697.7,437.23 v 0.06 0.05 l -0.01,0.06 v 0.05 l -0.01,0.06 -0.01,0.05 -0.01,0.1 -0.03,0.1 -0.03,0.09 -0.03,0.08 -0.04,0.09 -0.04,0.07 -0.04,0.08 -0.05,0.07 -0.05,0.06 -0.05,0.07 -0.06,0.05 -0.06,0.06 -0.06,0.05 -0.06,0.04 -0.07,0.05 -0.07,0.04 -0.07,0.03 -0.06,0.04 -0.08,0.02 -0.07,0.03 -0.07,0.02 -0.07,0.02 -0.07,0.02 -0.07,0.02 -0.07,0.01 -0.07,0.01 h -0.07 l -0.07,0.01 h -0.07 c -1.04,0 -2.39,-1 -2.39,-2.39 0,-1.25 1,-1.66 1.69,-1.66 1,0 2.39,0.95 2.39,2.39 z"
           inkscape:connector-curvature="0"
           style="fill:#000000;stroke-width:0" /><path
           id="path1690"
           d="m 721.27,424.93 -0.01,0.17 v 0.16 l -0.01,0.16 -0.01,0.16 -0.02,0.15 -0.02,0.16 -0.02,0.15 -0.03,0.14 -0.03,0.15 -0.04,0.14 -0.04,0.14 -0.04,0.13 -0.05,0.13 -0.05,0.13 -0.05,0.12 -0.06,0.11 -0.07,0.11 -0.07,0.11 -0.07,0.09 -0.07,0.1 -0.09,0.09 -0.08,0.08 -0.09,0.07 -0.1,0.07 -0.1,0.06 -0.1,0.05 -0.11,0.05 -0.12,0.04 -0.11,0.03 -0.13,0.02 -0.13,0.01 h -0.13 c -1.14,0 -2.39,-1.14 -2.39,-2.28 0,-0.65 0.36,-1 0.65,-1.34 1.19,-1.3 1.35,-2.89 1.35,-3.94 0,-1.4 -2.35,-13.9 -8.08,-13.9 -2.69,0 -3.23,2.5 -3.23,4.14 0,2.89 1.59,7.22 2.93,10.81 0.25,0.8 0.55,1.53 0.55,2.48 0,2.5 -1.64,4.03 -3.78,4.03 -4.64,0 -6.38,-7.37 -6.38,-7.67 0,-0.5 0.5,-0.5 0.74,-0.5 0.65,0 0.7,0.11 0.9,0.8 0.4,1.55 1.74,6.28 4.63,6.28 0.55,0 1.11,-0.14 1.11,-1.44 0,-1.2 -0.5,-2.54 -1.2,-4.48 -1.55,-4.24 -2.55,-7.24 -2.55,-9.56 0,-4.55 3.19,-5.99 6.14,-5.99 8.36,0 10.66,17.99 10.66,19.28 z"
           inkscape:connector-curvature="0"
           style="fill:#000000;stroke-width:0" /><path
           id="path1692"
           d="m 731.53,417.71 0.14,0.01 h 0.16 0.16 0.18 l 0.18,0.01 h 0.2 l 0.19,0.01 0.21,0.01 0.21,0.01 0.22,0.02 0.23,0.01 0.23,0.02 0.47,0.04 0.49,0.05 0.5,0.07 0.51,0.07 0.5,0.09 0.51,0.11 0.5,0.11 0.25,0.07 0.24,0.07 0.24,0.07 0.24,0.08 0.23,0.08 0.23,0.09 c 3.93,1.59 3.93,4.83 3.93,5.17 0,2.3 -1.84,4.23 -5.03,4.23 v -1.09 c 2,0 3.14,-1.34 3.14,-3.03 0,-5.28 -8.22,-5.28 -9.86,-5.28 h -1.04 c 2.14,8.17 7.26,8.31 7.76,8.31 v 1.09 c -5.23,0 -12.36,-5.03 -12.36,-13.84 0,-4.48 2.41,-8.72 7.13,-8.72 6.39,0 10.51,4.99 10.51,5.74 0,0.25 -0.39,0.79 -0.79,0.79 -0.21,0 -0.25,-0.06 -0.64,-0.54 -3.69,-4.69 -8.13,-4.89 -8.97,-4.89 -3.24,0 -3.78,3.53 -3.78,5.48 0,1.89 0.48,4.13 0.84,5.48 z"
           inkscape:connector-curvature="0"
           style="fill:#000000;stroke-width:0" /><path
           id="path1694"
           d="m 767.91,428.21 -6.97,-0.54 v -1.55 c 3.24,0 3.69,-0.3 3.69,-2.73 v -13.41 c 0,-2.23 -0.55,-2.23 -3.89,-2.23 v -1.55 c 1.59,0.05 4.28,0.16 5.48,0.16 1.75,0 3.49,-0.11 5.19,-0.16 v 1.55 c -3.3,0 -3.5,0.25 -3.5,2.18 z"
           inkscape:connector-curvature="0"
           style="fill:#000000;stroke-width:0" /><path
           id="path1696"
           d="m 768.11,436.89 v 0.14 l -0.01,0.15 -0.02,0.14 -0.02,0.14 -0.03,0.13 -0.04,0.13 -0.04,0.13 -0.05,0.12 -0.06,0.12 -0.06,0.12 -0.07,0.11 -0.07,0.1 -0.07,0.1 -0.08,0.1 -0.09,0.1 -0.09,0.08 -0.09,0.09 -0.1,0.08 -0.1,0.07 -0.1,0.07 -0.11,0.07 -0.11,0.06 -0.11,0.05 -0.12,0.05 -0.12,0.04 -0.12,0.04 -0.12,0.03 -0.12,0.03 -0.13,0.02 -0.13,0.01 -0.13,0.01 -0.13,0.01 c -1.54,0 -2.64,-1.35 -2.64,-2.64 0,-1.35 1.1,-2.64 2.64,-2.64 1.39,0 2.64,1.04 2.64,2.64 z"
           inkscape:connector-curvature="0"
           style="fill:#000000;stroke-width:0" /><path
           id="path1698"
           d="m 783.25,415.87 0.12,-0.02 0.12,-0.02 0.14,-0.03 0.16,-0.04 0.17,-0.04 0.18,-0.04 0.19,-0.05 0.2,-0.06 0.2,-0.06 0.21,-0.07 0.22,-0.08 0.22,-0.08 0.22,-0.1 0.22,-0.1 0.22,-0.11 0.22,-0.12 0.21,-0.14 0.21,-0.14 0.21,-0.15 0.2,-0.16 0.19,-0.18 0.18,-0.19 0.17,-0.2 0.15,-0.21 0.15,-0.22 0.06,-0.12 0.07,-0.12 0.05,-0.13 0.06,-0.12 0.05,-0.14 0.04,-0.13 0.04,-0.14 0.04,-0.14 0.03,-0.15 0.02,-0.15 0.02,-0.16 0.02,-0.15 0.01,-0.17 v -0.16 c 0,-2.53 -1.75,-4.53 -5.62,-4.53 -4.19,0 -5.99,2.84 -6.94,7.07 -0.14,0.64 -0.19,0.85 -0.69,0.85 -0.66,0 -0.66,-0.35 -0.66,-1.25 v -6.58 c 0,-0.84 0,-1.19 0.55,-1.19 0.25,0 0.3,0.05 1.25,1 0.1,0.1 0.1,0.19 1,1.14 2.19,-2.09 4.44,-2.14 5.49,-2.14 5.71,0 8.01,3.35 8.01,6.92 0,2.64 -1.5,4.14 -2.09,4.74 -1.64,1.59 -3.59,2 -5.69,2.39 -2.78,0.55 -6.12,1.2 -6.12,4.09 0,1.74 1.29,3.78 5.57,3.78 5.49,0 5.74,-4.48 5.83,-6.03 0.07,-0.45 0.5,-0.45 0.61,-0.45 0.64,0 0.64,0.25 0.64,1.2 v 5.03 c 0,0.85 0,1.19 -0.55,1.19 -0.25,0 -0.34,0 -1,-0.59 -0.13,-0.21 -0.63,-0.64 -0.84,-0.8 -1.89,1.39 -3.94,1.39 -4.69,1.39 -6.07,0 -7.97,-3.33 -7.97,-6.12 0,-1.74 0.8,-3.14 2.15,-4.24 1.59,-1.29 3,-1.59 6.57,-2.28 z"
           inkscape:connector-curvature="0"
           style="fill:#000000;stroke-width:0" /><path
           id="path1700"
           d="m 817.88,426.12 h 7.13 v 1.55 h -7.13 v 9.17 h -1.25 c -0.04,-4.08 -1.54,-9.42 -6.42,-9.61 v -1.11 h 4.24 v -13.75 c 0,-6.12 4.62,-6.72 6.42,-6.72 3.53,0 4.93,3.53 4.93,6.72 v 2.84 h -1.25 v -2.73 c 0,-3.69 -1.5,-5.58 -3.34,-5.58 -3.33,0 -3.33,4.53 -3.33,5.38 z"
           inkscape:connector-curvature="0"
           style="fill:#000000;stroke-width:0" /><path
           id="path1702"
           d="m 852.04,416.86 -0.01,0.59 -0.04,0.59 -0.08,0.58 -0.09,0.57 -0.13,0.56 -0.15,0.55 -0.17,0.54 -0.2,0.53 -0.22,0.51 -0.25,0.5 -0.26,0.49 -0.29,0.47 -0.31,0.46 -0.33,0.44 -0.35,0.43 -0.36,0.4 -0.39,0.39 -0.4,0.37 -0.41,0.35 -0.44,0.32 -0.44,0.31 -0.47,0.28 -0.47,0.26 -0.49,0.24 -0.5,0.21 -0.51,0.18 -0.52,0.16 -0.53,0.13 -0.54,0.11 -0.55,0.07 -0.55,0.05 -0.56,0.01 -0.05,-1.09 c 2.19,0 4.33,-1.1 5.62,-3.24 1.3,-2.14 1.3,-5.03 1.3,-6.92 0,-1.8 0,-4.48 -1.09,-6.67 -1.09,-2.25 -3.28,-3.69 -5.78,-3.69 v 0 c -2.14,0 -4.33,1.05 -5.68,3.33 -1.25,2.2 -1.25,5.23 -1.25,7.03 0,1.94 0,4.63 1.19,6.83 1.36,2.28 3.69,3.33 5.69,3.33 l 0.05,1.09 c -6.22,0 -11.06,-5.42 -11.06,-11.65 0,-6.43 5.18,-11.21 11.01,-11.21 6.03,0 11.06,4.88 11.06,11.21 z"
           inkscape:connector-curvature="0"
           style="fill:#000000;stroke-width:0" /><path
           id="path1704"
           d="m 875.57,423.34 v -13.36 c 0,-2.23 -0.54,-2.23 -3.89,-2.23 v -1.55 c 1.75,0.05 4.29,0.16 5.63,0.16 1.29,0 3.89,-0.11 5.58,-0.16 v 1.55 c -3.33,0 -3.88,0 -3.88,2.23 v 9.17 c 0,5.19 3.53,7.97 6.72,7.97 3.14,0 3.69,-2.69 3.69,-5.53 v -11.61 c 0,-2.23 -0.55,-2.23 -3.89,-2.23 v -1.55 c 1.75,0.05 4.29,0.16 5.64,0.16 1.3,0 3.87,-0.11 5.58,-0.16 v 1.55 c -3.35,0 -3.9,0 -3.9,2.23 v 9.17 c 0,5.19 3.55,7.97 6.74,7.97 3.14,0 3.69,-2.69 3.69,-5.53 v -11.61 c 0,-2.23 -0.55,-2.23 -3.89,-2.23 v -1.55 c 1.73,0.05 4.28,0.16 5.62,0.16 1.3,0 3.89,-0.11 5.58,-0.16 v 1.55 c -2.58,0 -3.83,0 -3.87,1.5 v 9.51 c 0,4.28 0,5.83 -1.55,7.61 -0.7,0.86 -2.35,1.84 -5.24,1.84 -4.18,0 -6.37,-2.98 -7.21,-4.87 -0.71,4.33 -4.4,4.87 -6.63,4.87 -3.64,0 -5.99,-2.14 -7.37,-5.21 v 5.21 l -7.04,-0.54 v -1.55 c 3.49,0 3.89,-0.34 3.89,-2.78 z"
           inkscape:connector-curvature="0"
           style="fill:#000000;stroke-width:0" /><path
           id="path1706"
           d="m 920.42,428.21 -6.97,-0.54 v -1.55 c 3.24,0 3.69,-0.3 3.69,-2.73 v -13.41 c 0,-2.23 -0.55,-2.23 -3.89,-2.23 v -1.55 c 1.59,0.05 4.28,0.16 5.48,0.16 1.75,0 3.49,-0.11 5.19,-0.16 v 1.55 c -3.3,0 -3.5,0.25 -3.5,2.18 z"
           inkscape:connector-curvature="0"
           style="fill:#000000;stroke-width:0" /><path
           id="path1708"
           d="m 920.62,436.89 v 0.14 l -0.01,0.15 -0.02,0.14 -0.02,0.14 -0.03,0.13 -0.04,0.13 -0.04,0.13 -0.05,0.12 -0.06,0.12 -0.06,0.12 -0.06,0.11 -0.07,0.1 -0.08,0.1 -0.08,0.1 -0.08,0.1 -0.09,0.08 -0.1,0.09 -0.09,0.08 -0.1,0.07 -0.11,0.07 -0.11,0.07 -0.11,0.06 -0.11,0.05 -0.12,0.05 -0.12,0.04 -0.12,0.04 -0.12,0.03 -0.12,0.03 -0.13,0.02 -0.13,0.01 -0.13,0.01 -0.13,0.01 c -1.54,0 -2.64,-1.35 -2.64,-2.64 0,-1.35 1.1,-2.64 2.64,-2.64 1.4,0 2.64,1.04 2.64,2.64 z"
           inkscape:connector-curvature="0"
           style="fill:#000000;stroke-width:0" /><path
           id="path1710"
           d="m 930.89,423.34 v -13.36 c 0,-2.23 -0.55,-2.23 -3.89,-2.23 v -1.55 c 1.75,0.05 4.28,0.16 5.62,0.16 1.3,0 3.9,-0.11 5.58,-0.16 v 1.55 c -3.32,0 -3.87,0 -3.87,2.23 v 9.17 c 0,5.19 3.53,7.97 6.72,7.97 3.14,0 3.68,-2.69 3.68,-5.53 v -11.61 c 0,-2.23 -0.54,-2.23 -3.89,-2.23 v -1.55 c 1.75,0.05 4.3,0.16 5.64,0.16 1.3,0 3.88,-0.11 5.58,-0.16 v 1.55 c -2.59,0 -3.84,0 -3.89,1.5 v 9.51 c 0,4.28 0,5.83 -1.55,7.61 -0.68,0.86 -2.34,1.84 -5.21,1.84 -3.64,0 -5.99,-2.14 -7.38,-5.21 v 5.21 L 927,427.67 v -1.55 c 3.48,0 3.89,-0.34 3.89,-2.78 z"
           inkscape:connector-curvature="0"
           style="fill:#000000;stroke-width:0" /><path
           id="path1712"
           d="m 961.94,428.21 -6.97,-0.54 v -1.55 c 3.23,0 3.69,-0.3 3.69,-2.73 v -13.41 c 0,-2.23 -0.55,-2.23 -3.89,-2.23 v -1.55 c 1.59,0.05 4.28,0.16 5.48,0.16 1.75,0 3.48,-0.11 5.19,-0.16 v 1.55 c -3.3,0 -3.5,0.25 -3.5,2.18 z"
           inkscape:connector-curvature="0"
           style="fill:#000000;stroke-width:0" /><path
           id="path1714"
           d="m 962.14,436.89 v 0.14 l -0.01,0.15 -0.02,0.14 -0.03,0.14 -0.03,0.13 -0.03,0.13 -0.05,0.13 -0.05,0.12 -0.05,0.12 -0.06,0.12 -0.07,0.11 -0.07,0.1 -0.07,0.1 -0.08,0.1 -0.09,0.1 -0.09,0.08 -0.09,0.09 -0.1,0.08 -0.1,0.07 -0.1,0.07 -0.11,0.07 -0.11,0.06 -0.11,0.05 -0.12,0.05 -0.12,0.04 -0.12,0.04 -0.12,0.03 -0.13,0.03 -0.12,0.02 -0.13,0.01 -0.13,0.01 -0.13,0.01 c -1.55,0 -2.64,-1.35 -2.64,-2.64 0,-1.35 1.09,-2.64 2.64,-2.64 1.39,0 2.64,1.04 2.64,2.64 z"
           inkscape:connector-curvature="0"
           style="fill:#000000;stroke-width:0" /><path
           id="path1716"
           d="m 972.41,423.34 v -13.36 c 0,-2.23 -0.55,-2.23 -3.89,-2.23 v -1.55 c 1.75,0.05 4.28,0.16 5.62,0.16 1.3,0 3.89,-0.11 5.58,-0.16 v 1.55 c -3.33,0 -3.88,0 -3.88,2.23 v 9.17 c 0,5.19 3.54,7.97 6.72,7.97 3.14,0 3.69,-2.69 3.69,-5.53 v -11.61 c 0,-2.23 -0.55,-2.23 -3.89,-2.23 v -1.55 c 1.75,0.05 4.3,0.16 5.64,0.16 1.3,0 3.88,-0.11 5.58,-0.16 v 1.55 c -3.35,0 -3.89,0 -3.89,2.23 v 9.17 c 0,5.19 3.54,7.97 6.73,7.97 3.14,0 3.68,-2.69 3.68,-5.53 v -11.61 c 0,-2.23 -0.54,-2.23 -3.88,-2.23 v -1.55 c 1.73,0.05 4.28,0.16 5.58,0.16 1.3,0 3.9,-0.11 5.6,-0.16 v 1.55 c -2.6,0 -3.8,0 -3.9,1.5 v 9.51 c 0,4.28 0,5.83 -1.5,7.61 -0.7,0.86 -2.34,1.84 -5.23,1.84 -4.19,0 -6.38,-2.98 -7.22,-4.87 -0.71,4.33 -4.39,4.87 -6.63,4.87 -3.64,0 -5.98,-2.14 -7.37,-5.21 v 5.21 l -7.03,-0.54 v -1.55 c 3.48,0 3.89,-0.34 3.89,-2.78 z"
           inkscape:connector-curvature="0"
           style="fill:#000000;stroke-width:0" /><path
           id="path1718"
           d="m 1017.2,428.21 -6.9,-0.54 v -1.55 c 3.2,0 3.7,-0.3 3.7,-2.73 v -13.41 c 0,-2.23 -0.6,-2.23 -3.9,-2.23 v -1.55 c 1.6,0.05 4.3,0.16 5.5,0.16 1.7,0 3.4,-0.11 5.2,-0.16 v 1.55 c -3.3,0 -3.6,0.25 -3.6,2.18 z"
           inkscape:connector-curvature="0"
           style="fill:#000000;stroke-width:0" /><path
           id="path1720"
           d="m 1017.5,436.89 v 0.14 l -0.1,0.15 v 0.14 0.14 0.13 l -0.1,0.13 v 0.13 l -0.1,0.12 v 0.12 l -0.1,0.12 v 0.11 l -0.1,0.1 -0.1,0.1 -0.1,0.1 v 0.1 l -0.1,0.08 -0.1,0.09 -0.1,0.08 -0.1,0.07 -0.1,0.07 -0.1,0.07 -0.2,0.06 -0.1,0.05 -0.1,0.05 -0.1,0.04 -0.1,0.04 -0.1,0.03 -0.2,0.03 -0.1,0.02 -0.1,0.01 -0.2,0.01 -0.1,0.01 c -1.5,0 -2.6,-1.35 -2.6,-2.64 0,-1.35 1.1,-2.64 2.6,-2.64 1.4,0 2.7,1.04 2.7,2.64 z"
           inkscape:connector-curvature="0"
           style="fill:#000000;stroke-width:0" /><path
           id="path1722"
           d="m 1041.7,426.18 v 0.03 0.02 0.03 l 0.1,0.02 v 0.02 0.03 0.02 0.02 0.02 l 0.1,0.02 v 0.02 0.02 0.02 0.01 0.04 l 0.1,0.03 v 0.03 0.03 0.03 0.02 0.03 0.02 l 0.1,0.02 v 0.03 0.02 0.02 0.02 0.01 0.02 0.02 0.02 0.03 0.03 0.04 0.04 c 0,0.64 -0.4,0.64 -1.3,0.64 h -15.9 l -0.6,-8.02 h 1.3 c 0.3,5.08 1.2,6.92 6.7,6.92 h 5.7 l -13.9,-18.78 c -0.5,-0.54 -0.5,-0.64 -0.5,-0.89 0,-0.7 0.4,-0.7 1.3,-0.7 h 16.5 l 0.8,9.31 h -1.2 c -0.5,-5.87 -1.5,-8.06 -7.3,-8.06 h -5.9 z"
           inkscape:connector-curvature="0"
           style="fill:#000000;stroke-width:0" /><path
           id="path1724"
           d="m 1049.8,417.71 0.1,1.05 c 0.3,7.42 4.5,8.66 6.2,8.66 5.1,0 5.6,-6.72 5.6,-8.66 h -11.8 l -0.1,-1.05 h 14 c 1,0 1.2,0 1.2,1.05 0,4.92 -2.7,9.75 -8.9,9.75 -5.8,0 -10.4,-5.12 -10.4,-11.36 0,-6.67 5.2,-11.5 11,-11.5 6.1,0 8.3,5.53 8.3,6.47 0,0.5 -0.4,0.61 -0.7,0.61 -0.4,0 -0.5,-0.3 -0.6,-0.7 -1.7,-5.13 -6.2,-5.13 -6.7,-5.13 -2.5,0 -4.5,1.49 -5.7,3.33 -1.5,2.39 -1.5,5.69 -1.5,7.48 z"
           inkscape:connector-curvature="0"
           style="fill:#000000;stroke-width:0" /><path
           id="path1726"
           d="m 1089,417.06 v 0.38 0.36 0.36 l 0.1,0.35 v 0.34 0.34 l 0.1,0.32 v 0.32 0.31 l 0.1,0.3 0.1,0.29 v 0.29 l 0.2,0.55 0.1,0.51 0.2,0.49 0.2,0.46 0.1,0.43 0.3,0.4 0.2,0.38 0.2,0.35 0.2,0.32 0.3,0.3 0.3,0.28 0.2,0.26 0.3,0.23 0.3,0.21 0.2,0.19 0.3,0.16 0.3,0.15 0.3,0.13 0.3,0.12 0.3,0.09 0.2,0.08 0.3,0.06 0.3,0.05 0.2,0.03 0.3,0.02 0.3,0.01 c 0.4,0 3.5,-0.05 5.3,-1.85 -2.1,-0.15 -2.4,-1.64 -2.4,-2.29 0,-1.3 0.9,-2.3 2.3,-2.3 1.3,0 2.3,0.86 2.3,2.34 0,3.39 -3.8,5.33 -7.6,5.33 -6.2,0 -10.8,-5.37 -10.8,-11.55 0,-6.37 4.9,-11.31 10.7,-11.31 6.7,0 8.3,5.99 8.3,6.47 0,0.5 -0.5,0.5 -0.7,0.5 -0.4,0 -0.5,-0.19 -0.6,-0.5 -1.5,-4.62 -4.7,-5.22 -6.5,-5.22 -2.7,0 -7.1,2.14 -7.1,10.16 z"
           inkscape:connector-curvature="0"
           style="fill:#000000;stroke-width:0" /><path
           id="path1728"
           d="m 1128.7,416.86 v 0.59 0.59 l -0.1,0.58 -0.1,0.57 -0.1,0.56 -0.2,0.55 -0.1,0.54 -0.2,0.53 -0.3,0.51 -0.2,0.5 -0.3,0.49 -0.3,0.47 -0.3,0.46 -0.3,0.44 -0.3,0.43 -0.4,0.4 -0.4,0.39 -0.4,0.37 -0.4,0.35 -0.4,0.32 -0.5,0.31 -0.4,0.28 -0.5,0.26 -0.5,0.24 -0.5,0.21 -0.5,0.18 -0.5,0.16 -0.6,0.13 -0.5,0.11 -0.6,0.07 -0.5,0.05 -0.6,0.01 v -1.09 c 2.2,0 4.3,-1.1 5.6,-3.24 1.3,-2.14 1.3,-5.03 1.3,-6.92 0,-1.8 0,-4.48 -1.1,-6.67 -1.1,-2.25 -3.3,-3.69 -5.8,-3.69 v 0 c -2.1,0 -4.3,1.05 -5.6,3.33 -1.3,2.2 -1.3,5.23 -1.3,7.03 0,1.94 0,4.63 1.2,6.83 1.3,2.28 3.7,3.33 5.7,3.33 v 1.09 c -6.2,0 -11,-5.42 -11,-11.65 0,-6.43 5.1,-11.21 11,-11.21 6,0 11,4.88 11,11.21 z"
           inkscape:connector-curvature="0"
           style="fill:#000000;stroke-width:0" /><path
           id="path1730"
           d="m 1140.6,415.87 0.1,-0.02 0.1,-0.02 0.2,-0.03 0.1,-0.04 0.2,-0.04 0.2,-0.04 0.2,-0.05 0.2,-0.06 0.2,-0.06 0.2,-0.07 0.2,-0.08 0.2,-0.08 0.2,-0.1 0.3,-0.1 0.2,-0.11 0.2,-0.12 0.2,-0.14 0.2,-0.14 0.2,-0.15 0.2,-0.16 0.2,-0.18 0.2,-0.19 0.2,-0.2 0.1,-0.21 0.2,-0.22 v -0.12 l 0.1,-0.12 0.1,-0.13 v -0.12 l 0.1,-0.14 v -0.13 -0.14 l 0.1,-0.14 v -0.15 -0.15 l 0.1,-0.16 v -0.15 -0.17 -0.16 c 0,-2.53 -1.8,-4.53 -5.6,-4.53 -4.2,0 -6,2.84 -7,7.07 -0.1,0.64 -0.2,0.85 -0.7,0.85 -0.6,0 -0.6,-0.35 -0.6,-1.25 v -6.58 c 0,-0.84 0,-1.19 0.5,-1.19 0.3,0 0.3,0.05 1.3,1 0.1,0.1 0.1,0.19 1,1.14 2.2,-2.09 4.4,-2.14 5.5,-2.14 5.7,0 8,3.35 8,6.92 0,2.64 -1.5,4.14 -2.1,4.74 -1.7,1.59 -3.6,2 -5.7,2.39 -2.8,0.55 -6.1,1.2 -6.1,4.09 0,1.74 1.3,3.78 5.5,3.78 5.5,0 5.8,-4.48 5.9,-6.03 0,-0.45 0.5,-0.45 0.6,-0.45 0.6,0 0.6,0.25 0.6,1.2 v 5.03 c 0,0.85 0,1.19 -0.5,1.19 -0.3,0 -0.4,0 -1,-0.59 -0.2,-0.21 -0.7,-0.64 -0.9,-0.8 -1.9,1.39 -3.9,1.39 -4.7,1.39 -6,0 -7.9,-3.33 -7.9,-6.12 0,-1.74 0.8,-3.14 2.1,-4.24 1.6,-1.29 3,-1.59 6.6,-2.28 z"
           inkscape:connector-curvature="0"
           style="fill:#000000;stroke-width:0" /><path
           id="path1732"
           d="m 1158.5,426.12 h 7.2 v 1.55 h -7.2 v 9.17 h -1.2 c -0.1,-4.08 -1.6,-9.42 -6.4,-9.61 v -1.11 h 4.2 v -13.75 c 0,-6.12 4.6,-6.72 6.4,-6.72 3.6,0 5,3.53 5,6.72 v 2.84 h -1.3 v -2.73 c 0,-3.69 -1.5,-5.58 -3.3,-5.58 -3.4,0 -3.4,4.53 -3.4,5.38 z"
           inkscape:connector-curvature="0"
           style="fill:#000000;stroke-width:0" /><path
           id="path1734"
           d="m 1176.8,416.61 2,22.71 c 0,1.66 -1.4,2.55 -2.6,2.55 -1.4,0 -2.7,-0.89 -2.7,-2.55 l 2,-22.65 c 0,-0.75 0.1,-1.16 0.7,-1.16 0.5,0 0.6,0.25 0.6,1.1 z"
           inkscape:connector-curvature="0"
           style="fill:#000000;stroke-width:0" /><path
           id="path1736"
           d="m 1178.8,408.84 v 0.13 0.14 0.13 l -0.1,0.13 v 0.12 0.13 l -0.1,0.12 v 0.12 l -0.1,0.12 v 0.11 l -0.1,0.11 -0.1,0.11 v 0.1 l -0.1,0.1 -0.1,0.1 -0.1,0.09 -0.1,0.09 -0.1,0.08 -0.1,0.08 -0.1,0.07 -0.1,0.07 -0.1,0.07 -0.1,0.06 -0.1,0.05 -0.1,0.05 -0.2,0.04 -0.1,0.04 -0.1,0.03 -0.1,0.02 -0.2,0.02 -0.1,0.01 h -0.1 c -1.5,0 -2.7,-1.2 -2.7,-2.64 0,-1.44 1.2,-2.64 2.7,-2.64 1.4,0 2.6,1.2 2.6,2.64 z"
           inkscape:connector-curvature="0"
           style="fill:#000000;stroke-width:0" /></g>    </g>
    <rect
       style="fill:none;stroke:#ff0000;stroke-width:0.97452235;stroke-miterlimit:4;stroke-dasharray:none;stroke-dashoffset:0;stroke-opacity:1"
       id="rect2480"
       width="97.579613"
       height="17.35869"
       x="103.68707"
       y="268.42871" />
  </g>
</svg>
