<?xml version="1.0" encoding="UTF-8" standalone="no"?>
<!-- Created with Inkscape (http://www.inkscape.org/) -->

<svg
   xmlns:dc="http://purl.org/dc/elements/1.1/"
   xmlns:cc="http://creativecommons.org/ns#"
   xmlns:rdf="http://www.w3.org/1999/02/22-rdf-syntax-ns#"
   xmlns:svg="http://www.w3.org/2000/svg"
   xmlns="http://www.w3.org/2000/svg"
   xmlns:sodipodi="http://sodipodi.sourceforge.net/DTD/sodipodi-0.dtd"
   xmlns:inkscape="http://www.inkscape.org/namespaces/inkscape"
   sodipodi:docname="not_linearly_separable_example.svg"
   inkscape:version="0.92.3 (2405546, 2018-03-11)"
   id="svg8"
   version="1.1"
   viewBox="0 0 159.98735 137.85206"
   height="137.85207mm"
   width="159.98735mm">
  <sodipodi:namedview
     fit-margin-bottom="0"
     fit-margin-right="0"
     fit-margin-left="0"
     fit-margin-top="0"
     inkscape:window-maximized="1"
     inkscape:window-y="98"
     inkscape:window-x="67"
     inkscape:window-height="2098"
     inkscape:window-width="3773"
     showguides="false"
     showgrid="false"
     inkscape:current-layer="layer1"
     inkscape:document-units="mm"
     inkscape:cy="269.56114"
     inkscape:cx="267.00961"
     inkscape:zoom="1.979899"
     inkscape:pageshadow="2"
     inkscape:pageopacity="0.0"
     borderopacity="1.0"
     bordercolor="#666666"
     pagecolor="#ffffff"
     id="base" />
  <defs
     id="defs2" />
  <metadata
     id="metadata5">
    <rdf:RDF>
      <cc:Work
         rdf:about="">
        <dc:format>image/svg+xml</dc:format>
        <dc:type
           rdf:resource="http://purl.org/dc/dcmitype/StillImage" />
        <dc:title></dc:title>
      </cc:Work>
    </rdf:RDF>
  </metadata>
  <g
     transform="translate(2.0039461,-85.069711)"
     inkscape:label="Layer 1"
     inkscape:groupmode="layer"
     id="layer1">
    <ellipse
       style="fill:#ff0000;stroke-width:0.26458332"
       id="path10"
       cx="40.892242"
       cy="145.05728"
       rx="2.271791"
       ry="2.1381562" />
    <ellipse
       style="fill:#ff0000;stroke-width:0.26458332"
       id="path10-3"
       cx="87.397133"
       cy="118.33032"
       rx="2.271791"
       ry="2.1381562" />
    <ellipse
       style="fill:#ff0000;stroke-width:0.26458332"
       id="path10-6"
       cx="68.688271"
       cy="134.50012"
       rx="2.271791"
       ry="2.1381562" />
    <ellipse
       style="fill:#ff0000;stroke-width:0.26458332"
       id="path10-7"
       cx="80.581764"
       cy="133.96559"
       rx="2.271791"
       ry="2.1381562" />
    <ellipse
       style="fill:#ff0000;stroke-width:0.26458332"
       id="path10-5"
       cx="61.204727"
       cy="154.0108"
       rx="2.271791"
       ry="2.1381562" />
    <ellipse
       style="fill:#ff0000;stroke-width:0.26458332"
       id="path10-35"
       cx="67.752823"
       cy="145.99272"
       rx="2.271791"
       ry="2.1381562" />
    <ellipse
       style="fill:#ff0000;stroke-width:0.26458332"
       id="path10-62"
       cx="65.347397"
       cy="124.21025"
       rx="2.271791"
       ry="2.1381562" />
    <ellipse
       style="fill:#ff0000;stroke-width:0.26458332"
       id="path10-9"
       cx="82.185387"
       cy="145.05727"
       rx="2.271791"
       ry="2.1381562" />
    <ellipse
       style="fill:#ff0000;stroke-width:0.26458332"
       id="path10-1"
       cx="99.825165"
       cy="118.33032"
       rx="2.271791"
       ry="2.1381562" />
    <ellipse
       style="fill:#ff0000;stroke-width:0.26458332"
       id="path10-2"
       cx="49.578495"
       cy="159.22255"
       rx="2.271791"
       ry="2.1381562" />
    <ellipse
       style="fill:#ff0000;stroke-width:0.26458332"
       id="path10-70"
       cx="37.150467"
       cy="156.54987"
       rx="2.271791"
       ry="2.1381562" />
    <ellipse
       style="fill:#0000ff;stroke-width:0.26458332"
       id="path10-93"
       cx="63.743786"
       cy="182.0741"
       rx="2.271791"
       ry="2.1381562" />
    <ellipse
       style="fill:#0000ff;stroke-width:0.26458332"
       id="path10-93-6"
       cx="53.053001"
       cy="182.60864"
       rx="2.271791"
       ry="2.1381562" />
    <ellipse
       style="fill:#0000ff;stroke-width:0.26458332"
       id="path10-93-0"
       cx="52.384823"
       cy="196.64029"
       rx="2.271791"
       ry="2.1381562" />
    <ellipse
       style="fill:#0000ff;stroke-width:0.26458332"
       id="path10-93-62"
       cx="88.198944"
       cy="174.18967"
       rx="2.271791"
       ry="2.1381562" />
    <ellipse
       style="fill:#0000ff;stroke-width:0.26458332"
       id="path10-93-61"
       cx="99.424271"
       cy="175.12509"
       rx="2.271791"
       ry="2.1381562" />
    <ellipse
       style="fill:#0000ff;stroke-width:0.26458332"
       id="path10-93-8"
       cx="57.329311"
       cy="169.64609"
       rx="2.271791"
       ry="2.1381562" />
    <ellipse
       style="fill:#0000ff;stroke-width:0.26458332"
       id="path10-93-7"
       cx="104.5024"
       cy="159.89073"
       rx="2.271791"
       ry="2.1381562" />
    <ellipse
       style="fill:#0000ff;stroke-width:0.26458332"
       id="path10-93-9"
       cx="92.475258"
       cy="140.78094"
       rx="2.271791"
       ry="2.1381562" />
    <ellipse
       style="fill:#0000ff;stroke-width:0.26458332"
       id="path10-93-2"
       cx="106.23964"
       cy="141.85005"
       rx="2.271791"
       ry="2.1381562" />
    <ellipse
       style="fill:#0000ff;stroke-width:0.26458332"
       id="path10-93-02"
       cx="100.89424"
       cy="149.46722"
       rx="2.271791"
       ry="2.1381562" />
    <ellipse
       style="fill:#0000ff;stroke-width:0.26458332"
       id="path10-93-3"
       cx="112.78774"
       cy="151.07083"
       rx="2.271791"
       ry="2.1381562" />
    <path
       style="fill:none;stroke:#000000;stroke-width:0.30993277px;stroke-linecap:butt;stroke-linejoin:miter;stroke-opacity:1"
       d="M 5.6127638,91.700886 5.7461908,219.89306"
       id="path339"
       inkscape:connector-curvature="0" />
    <path
       style="fill:none;stroke:#000000;stroke-width:0.29872999px;stroke-linecap:butt;stroke-linejoin:miter;stroke-opacity:1"
       d="M 0.66732907,215.08147 157.0217,214.81502"
       id="path341"
       inkscape:connector-curvature="0" />
    <g
       id="g654"
       transform="matrix(0.5,0,0,0.5,109.1659,171.36078)">
      <g
         id="content"
         transform="matrix(0.3,0,0,-0.3,-52.5,222.75)"
         xml:space="preserve"
         stroke-miterlimit="10.433"
         font-style="normal"
         font-variant="normal"
         font-weight="normal"
         font-stretch="normal"
         font-size-adjust="none"
         letter-spacing="normal"
         word-spacing="normal"
         style="font-style:normal;font-variant:normal;font-weight:normal;font-stretch:normal;letter-spacing:normal;word-spacing:normal;text-anchor:start;fill:none;fill-opacity:1;fill-rule:evenodd;stroke:#000000;stroke-linecap:butt;stroke-linejoin:miter;stroke-miterlimit:10.43299961;stroke-dasharray:none;stroke-dashoffset:0;stroke-opacity:1"><path
           d="m 472.16,421.25 0.03,0.13 0.04,0.15 0.04,0.16 0.04,0.18 0.06,0.19 0.06,0.21 0.06,0.22 0.07,0.22 0.08,0.23 0.09,0.24 0.1,0.25 0.1,0.24 0.11,0.25 0.12,0.25 0.13,0.25 0.14,0.25 0.15,0.24 0.15,0.24 0.17,0.23 0.18,0.22 0.18,0.22 0.2,0.2 0.21,0.19 0.22,0.18 0.23,0.16 0.25,0.14 0.12,0.07 0.13,0.06 0.14,0.05 0.13,0.05 0.14,0.05 0.14,0.04 0.15,0.03 0.15,0.03 0.15,0.02 0.16,0.02 0.16,0.01 h 0.16 c 0.25,0 1.44,0 2.48,-0.64 -1.39,-0.25 -2.39,-1.5 -2.39,-2.69 0,-0.79 0.55,-1.75 1.89,-1.75 1.1,0 2.69,0.89 2.69,2.89 0,2.6 -2.94,3.28 -4.63,3.28 -2.89,0 -4.64,-2.64 -5.23,-3.78 -1.25,3.28 -3.94,3.78 -5.37,3.78 -5.19,0 -8.04,-6.42 -8.04,-7.67 0,-0.5 0.5,-0.5 0.61,-0.5 0.39,0 0.55,0.11 0.64,0.55 1.69,5.28 4.99,6.53 6.68,6.53 0.95,0 2.68,-0.44 2.68,-3.33 0,-1.54 -0.84,-4.89 -2.68,-11.86 -0.8,-3.09 -2.54,-5.18 -4.74,-5.18 -0.3,0 -1.44,0 -2.48,0.65 1.25,0.24 2.34,1.28 2.34,2.69 0,1.34 -1.09,1.73 -1.84,1.73 -1.5,0 -2.75,-1.29 -2.75,-2.89 0,-2.28 2.5,-3.28 4.68,-3.28 3.3,0 5.08,3.49 5.24,3.78 0.59,-1.84 2.39,-3.78 5.37,-3.78 5.14,0 7.99,6.42 7.99,7.67 0,0.5 -0.45,0.5 -0.61,0.5 -0.44,0 -0.55,-0.2 -0.64,-0.54 -1.64,-5.33 -5.03,-6.53 -6.63,-6.53 -1.95,0 -2.75,1.59 -2.75,3.29 0,1.1 0.3,2.19 0.86,4.38 z"
           id="path649"
           inkscape:connector-curvature="0"
           style="fill:#000000;stroke-width:0" /><path
           d="m 495.63,420.92 v 0.04 0.04 0.05 0.04 0.03 0.04 0.04 0.03 0.04 0.03 l -0.01,0.03 v 0.03 0.03 l -0.01,0.03 v 0.03 0.02 l -0.01,0.03 v 0.02 l -0.01,0.03 v 0.02 l -0.01,0.04 -0.02,0.04 -0.02,0.03 -0.02,0.03 -0.02,0.03 -0.02,0.03 -0.03,0.02 -0.03,0.02 -0.03,0.02 -0.04,0.01 -0.04,0.01 -0.05,0.02 h -0.02 -0.02 l -0.03,0.01 h -0.03 l -0.02,0.01 h -0.03 -0.03 -0.03 -0.03 l -0.04,0.01 h -0.03 -0.04 -0.03 -0.04 -0.04 -0.04 -0.04 -0.04 -0.05 -0.04 c -2.24,-2.2 -5.39,-2.23 -6.83,-2.23 v -1.25 c 0.84,0 3.14,0 5.04,0.97 v -17.77 c 0,-1.16 0,-1.61 -3.48,-1.61 h -1.31 v -1.25 c 0.62,0.03 4.9,0.14 6.2,0.14 1.08,0 5.47,-0.11 6.24,-0.14 v 1.25 h -1.33 c -3.49,0 -3.49,0.45 -3.49,1.61 z"
           id="path651"
           inkscape:connector-curvature="0"
           style="fill:#000000;stroke-width:0" /></g>    </g>
    <g
       id="g764"
       transform="matrix(0.5,0,0,0.5,-44.297946,45.075933)">
      <g
         word-spacing="normal"
         letter-spacing="normal"
         font-size-adjust="none"
         font-stretch="normal"
         font-weight="normal"
         font-variant="normal"
         font-style="normal"
         stroke-miterlimit="10.433"
         xml:space="preserve"
         transform="matrix(0.3,0,0,-0.3,-52.5,222.75)"
         id="g762"
         style="font-style:normal;font-variant:normal;font-weight:normal;font-stretch:normal;letter-spacing:normal;word-spacing:normal;text-anchor:start;fill:none;fill-opacity:1;fill-rule:evenodd;stroke:#000000;stroke-linecap:butt;stroke-linejoin:miter;stroke-miterlimit:10.43299961;stroke-dasharray:none;stroke-dashoffset:0;stroke-opacity:1"><path
           id="path758"
           d="m 472.16,421.25 0.03,0.13 0.04,0.15 0.04,0.16 0.04,0.18 0.06,0.19 0.06,0.21 0.06,0.22 0.07,0.22 0.08,0.23 0.09,0.24 0.1,0.25 0.1,0.24 0.11,0.25 0.12,0.25 0.13,0.25 0.14,0.25 0.15,0.24 0.15,0.24 0.17,0.23 0.18,0.22 0.18,0.22 0.2,0.2 0.21,0.19 0.22,0.18 0.23,0.16 0.25,0.14 0.12,0.07 0.13,0.06 0.14,0.05 0.13,0.05 0.14,0.05 0.14,0.04 0.15,0.03 0.15,0.03 0.15,0.02 0.16,0.02 0.16,0.01 h 0.16 c 0.25,0 1.44,0 2.48,-0.64 -1.39,-0.25 -2.39,-1.5 -2.39,-2.69 0,-0.79 0.55,-1.75 1.89,-1.75 1.1,0 2.69,0.89 2.69,2.89 0,2.6 -2.94,3.28 -4.63,3.28 -2.89,0 -4.64,-2.64 -5.23,-3.78 -1.25,3.28 -3.94,3.78 -5.37,3.78 -5.19,0 -8.04,-6.42 -8.04,-7.67 0,-0.5 0.5,-0.5 0.61,-0.5 0.39,0 0.55,0.11 0.64,0.55 1.69,5.28 4.99,6.53 6.68,6.53 0.95,0 2.68,-0.44 2.68,-3.33 0,-1.54 -0.84,-4.89 -2.68,-11.86 -0.8,-3.09 -2.54,-5.18 -4.74,-5.18 -0.3,0 -1.44,0 -2.48,0.65 1.25,0.24 2.34,1.28 2.34,2.69 0,1.34 -1.09,1.73 -1.84,1.73 -1.5,0 -2.75,-1.29 -2.75,-2.89 0,-2.28 2.5,-3.28 4.68,-3.28 3.3,0 5.08,3.49 5.24,3.78 0.59,-1.84 2.39,-3.78 5.37,-3.78 5.14,0 7.99,6.42 7.99,7.67 0,0.5 -0.45,0.5 -0.61,0.5 -0.44,0 -0.55,-0.2 -0.64,-0.54 -1.64,-5.33 -5.03,-6.53 -6.63,-6.53 -1.95,0 -2.75,1.59 -2.75,3.29 0,1.1 0.3,2.19 0.86,4.38 z"
           inkscape:connector-curvature="0"
           style="fill:#000000;stroke-width:0" /><path
           id="path760"
           d="m 501.55,405.11 h -1.18 c -0.1,-0.77 -0.46,-2.83 -0.91,-3.18 -0.26,-0.2 -2.95,-0.2 -3.44,-0.2 h -6.42 c 3.66,3.23 4.88,4.2 6.97,5.84 2.58,2.07 4.98,4.22 4.98,7.54 0,4.21 -3.68,6.79 -8.15,6.79 -4.31,0 -7.25,-3.03 -7.25,-6.23 0,-1.78 1.5,-1.96 1.86,-1.96 0.83,0 1.84,0.6 1.84,1.85 0,0.62 -0.25,1.84 -2.06,1.84 1.08,2.47 3.45,3.24 5.09,3.24 3.49,0 5.3,-2.71 5.3,-5.53 0,-3.04 -2.16,-5.44 -3.28,-6.69 l -8.39,-8.3 c -0.36,-0.31 -0.36,-0.39 -0.36,-1.36 h 14.36 z"
           inkscape:connector-curvature="0"
           style="fill:#000000;stroke-width:0" /></g>    </g>
    <ellipse
       style="fill:#0000ff;stroke-width:0.26458332"
       id="path10-93-75"
       cx="82.185951"
       cy="172.2742"
       rx="2.271791"
       ry="2.1381562" />
    <ellipse
       style="fill:#0000ff;stroke-width:0.26458332"
       id="path10-93-92"
       cx="73.900597"
       cy="179.35686"
       rx="2.271791"
       ry="2.1381562" />
    <ellipse
       style="fill:#0000ff;stroke-width:0.26458332"
       id="path10-93-28"
       cx="67.486122"
       cy="168.26517"
       rx="2.271791"
       ry="2.1381562" />
    <ellipse
       style="fill:#0000ff;stroke-width:0.26458332"
       id="path10-93-97"
       cx="64.01162"
       cy="192.31943"
       rx="2.271791"
       ry="2.1381562" />
    <ellipse
       style="fill:#0000ff;stroke-width:0.26458332"
       id="path10-93-36"
       cx="100.4939"
       cy="128.97656"
       rx="2.271791"
       ry="2.1381562" />
    <ellipse
       style="fill:#0000ff;stroke-width:0.26458332"
       id="path10-93-1"
       cx="110.24925"
       cy="130.3129"
       rx="2.271791"
       ry="2.1381562" />
    <ellipse
       style="fill:#0000ff;stroke-width:0.26458332"
       id="path10-93-29"
       cx="90.738579"
       cy="130.17926"
       rx="2.271791"
       ry="2.1381562" />
    <ellipse
       style="fill:#ff0000;stroke-width:0.26458332"
       id="path10-9-3"
       cx="77.508736"
       cy="161.98434"
       rx="2.271791"
       ry="2.1381562" />
    <ellipse
       style="fill:#ff0000;stroke-width:0.26458332"
       id="path10-9-1"
       cx="74.435143"
       cy="153.56534"
       rx="2.271791"
       ry="2.1381562" />
    <ellipse
       style="fill:#ff0000;stroke-width:0.26458332"
       id="path10-9-9"
       cx="84.056847"
       cy="157.17348"
       rx="2.271791"
       ry="2.1381562" />
    <ellipse
       style="fill:#ff0000;stroke-width:0.26458332"
       id="path10-9-4"
       cx="91.54039"
       cy="161.58344"
       rx="2.271791"
       ry="2.1381562" />
    <ellipse
       style="fill:#ff0000;stroke-width:0.26458332"
       id="path10-5-7"
       cx="51.18269"
       cy="147.95268"
       rx="2.271791"
       ry="2.1381562" />
    <ellipse
       style="fill:#ff0000;stroke-width:0.26458332"
       id="path10-5-8"
       cx="53.855385"
       cy="137.12827"
       rx="2.271791"
       ry="2.1381562" />
    <ellipse
       style="fill:#ff0000;stroke-width:0.26458332"
       id="path10-5-4"
       cx="80.582336"
       cy="120.95846"
       rx="2.271791"
       ry="2.1381562" />
    <ellipse
       style="fill:#ff0000;stroke-width:0.26458332"
       id="path10-5-5"
       cx="39.021927"
       cy="165.05794"
       rx="2.271791"
       ry="2.1381562" />
    <ellipse
       style="fill:#ff0000;stroke-width:0.26458332"
       id="path10-5-0"
       cx="36.081963"
       cy="176.28326"
       rx="2.271791"
       ry="2.1381562" />
    <ellipse
       style="fill:#ff0000;stroke-width:0.26458332"
       id="path10-5-3"
       cx="45.035492"
       cy="171.20512"
       rx="2.271791"
       ry="2.1381562" />
    <ellipse
       style="fill:#ff0000;stroke-width:0.26458332"
       id="path10-5-6"
       cx="28.865685"
       cy="188.97855"
       rx="2.271791"
       ry="2.1381562" />
    <ellipse
       style="fill:#ff0000;stroke-width:0.26458332"
       id="path10-5-1"
       cx="36.616501"
       cy="186.84039"
       rx="2.271791"
       ry="2.1381562" />
    <path
       style="fill:none;stroke:#000000;stroke-width:0.26458332px;stroke-linecap:butt;stroke-linejoin:miter;stroke-opacity:1"
       d="m 41.694619,206.4847 c 1.422912,-10.68982 2.68661,-21.97508 6.949008,-31.00326 1.392964,-2.89512 2.894461,-6.24124 4.810854,-8.8199 2.011825,-2.70708 5.076043,-5.16498 8.418988,-5.61266 8.097788,-1.08444 19.423656,7.79157 27.528761,8.8199 4.091692,0.51913 10.454746,0.35449 11.75986,-2.00453 3.05831,-5.52795 -7.340911,-17.0248 -11.626224,-23.51971 -2.830538,-4.30873 -4.891577,-12.38437 -2.539061,-16.97161 2.068363,-4.03316 17.708625,-5.02968 30.602365,-4.54359"
       id="path4593"
       inkscape:connector-curvature="0"
       sodipodi:nodetypes="ccsssscsc" />
    <g
       id="g5072"
       transform="translate(-29.132378,57.12047)">
      <g
         word-spacing="normal"
         letter-spacing="normal"
         font-size-adjust="none"
         font-stretch="normal"
         font-weight="normal"
         font-variant="normal"
         font-style="normal"
         stroke-miterlimit="10.433"
         xml:space="preserve"
         transform="matrix(0.20881453,0,0,-0.20881453,-36.542543,119.99051)"
         id="g5070"
         style="font-style:normal;font-variant:normal;font-weight:normal;font-stretch:normal;letter-spacing:normal;word-spacing:normal;text-anchor:start;fill:none;fill-opacity:1;fill-rule:evenodd;stroke:#000000;stroke-linecap:butt;stroke-linejoin:miter;stroke-miterlimit:10.43299961;stroke-dasharray:none;stroke-dashoffset:0;stroke-opacity:1"><path
           id="path4970"
           d="m 467.08,439.57 -0.04,0.06 -0.04,0.05 -0.04,0.05 -0.03,0.05 -0.04,0.04 -0.03,0.04 -0.03,0.04 -0.03,0.03 -0.03,0.04 -0.03,0.03 -0.03,0.02 -0.04,0.03 -0.03,0.02 -0.03,0.02 -0.03,0.02 -0.04,0.02 -0.03,0.02 -0.04,0.01 -0.04,0.01 -0.04,0.01 -0.05,0.01 -0.04,0.01 -0.05,0.01 h -0.06 l -0.05,0.01 h -0.06 -0.07 l -0.06,0.01 h -0.08 -0.03 -0.04 -0.04 -0.04 -0.05 -0.04 -8.47 v -1.55 h 1.45 c 0.75,0 1.74,-0.04 2.49,-0.09 1.14,-0.16 1.2,-0.2 1.2,-1.16 v -26 c 0,-1.34 0,-3.68 -5.14,-3.68 v -1.55 c 1.75,0.05 4.19,0.16 5.83,0.16 1.65,0 4.09,-0.11 5.83,-0.16 v 1.55 c -5.13,0 -5.13,2.34 -5.13,3.68 v 25.91 c 0.25,-0.25 0.3,-0.3 0.5,-0.59 l 20.33,-29.91 c 0.44,-0.59 0.5,-0.64 0.84,-0.64 0.71,0 0.71,0.34 0.71,1.3 V 435 c 0,1.34 0,3.68 5.12,3.68 v 1.55 c -1.75,-0.05 -4.19,-0.16 -5.83,-0.16 -1.64,0 -4.09,0.11 -5.82,0.16 v -1.55 c 5.12,0 5.12,-2.34 5.12,-3.68 v -21.29 z"
           inkscape:connector-curvature="0"
           style="fill:#000000;stroke-width:0" /><path
           id="path4972"
           d="m 516.3,416.86 -0.01,0.59 -0.04,0.59 -0.07,0.58 -0.1,0.57 -0.13,0.56 -0.14,0.55 -0.18,0.54 -0.2,0.53 -0.22,0.51 -0.25,0.5 -0.26,0.49 -0.29,0.47 -0.31,0.46 -0.33,0.44 -0.35,0.43 -0.36,0.4 -0.39,0.39 -0.4,0.37 -0.41,0.35 -0.44,0.32 -0.44,0.31 -0.46,0.28 -0.48,0.26 -0.49,0.24 -0.49,0.21 -0.51,0.18 -0.53,0.16 -0.53,0.13 -0.54,0.11 -0.54,0.07 -0.56,0.05 -0.56,0.01 -0.05,-1.09 c 2.19,0 4.33,-1.1 5.63,-3.24 1.29,-2.14 1.29,-5.03 1.29,-6.92 0,-1.8 0,-4.48 -1.09,-6.67 -1.09,-2.25 -3.28,-3.69 -5.78,-3.69 v 0 c -2.14,0 -4.33,1.05 -5.67,3.33 -1.25,2.2 -1.25,5.23 -1.25,7.03 0,1.94 0,4.63 1.18,6.83 1.36,2.28 3.69,3.33 5.69,3.33 l 0.05,1.09 c -6.22,0 -11.06,-5.42 -11.06,-11.65 0,-6.43 5.18,-11.21 11.01,-11.21 6.03,0 11.06,4.88 11.06,11.21 z"
           inkscape:connector-curvature="0"
           style="fill:#000000;stroke-width:0" /><path
           id="path4974"
           d="m 526.42,426.12 h 7.12 v 1.55 h -7.12 v 9.17 h -1.25 c -0.05,-4.08 -1.55,-9.42 -6.42,-9.61 v -1.11 h 4.23 v -13.75 c 0,-6.12 4.62,-6.72 6.42,-6.72 3.53,0 4.94,3.53 4.94,6.72 v 2.84 h -1.25 v -2.73 c 0,-3.69 -1.5,-5.58 -3.34,-5.58 -3.33,0 -3.33,4.53 -3.33,5.38 z"
           inkscape:connector-curvature="0"
           style="fill:#000000;stroke-width:0" /><path
           id="path4976"
           d="m 562.6,440.78 -7.17,-0.55 v -1.55 c 3.48,0 3.89,-0.34 3.89,-2.79 v -25.91 c 0,-2.23 -0.55,-2.23 -3.89,-2.23 v -1.55 c 1.64,0.05 4.28,0.16 5.53,0.16 1.25,0 3.69,-0.11 5.53,-0.16 v 1.55 c -3.34,0 -3.89,0 -3.89,2.23 z"
           inkscape:connector-curvature="0"
           style="fill:#000000;stroke-width:0" /><path
           id="path4978"
           d="m 576.4,428.21 -6.97,-0.54 v -1.55 c 3.23,0 3.69,-0.3 3.69,-2.73 v -13.41 c 0,-2.23 -0.55,-2.23 -3.89,-2.23 v -1.55 c 1.59,0.05 4.28,0.16 5.48,0.16 1.75,0 3.49,-0.11 5.19,-0.16 v 1.55 c -3.3,0 -3.5,0.25 -3.5,2.18 z"
           inkscape:connector-curvature="0"
           style="fill:#000000;stroke-width:0" /><path
           id="path4980"
           d="m 576.6,436.89 v 0.14 l -0.01,0.15 -0.02,0.14 -0.02,0.14 -0.04,0.13 -0.03,0.13 -0.05,0.13 -0.05,0.12 -0.05,0.12 -0.06,0.12 -0.07,0.11 -0.07,0.1 -0.07,0.1 -0.08,0.1 -0.09,0.1 -0.09,0.08 -0.09,0.09 -0.1,0.08 -0.1,0.07 -0.1,0.07 -0.11,0.07 -0.11,0.06 -0.11,0.05 -0.12,0.05 -0.12,0.04 -0.12,0.04 -0.12,0.03 -0.13,0.03 -0.12,0.02 -0.13,0.01 -0.13,0.01 -0.13,0.01 c -1.55,0 -2.64,-1.35 -2.64,-2.64 0,-1.35 1.09,-2.64 2.64,-2.64 1.39,0 2.64,1.04 2.64,2.64 z"
           inkscape:connector-curvature="0"
           style="fill:#000000;stroke-width:0" /><path
           id="path4982"
           d="m 586.87,423.34 v -13.36 c 0,-2.23 -0.55,-2.23 -3.89,-2.23 v -1.55 c 1.75,0.05 4.28,0.16 5.62,0.16 1.3,0 3.89,-0.11 5.58,-0.16 v 1.55 c -3.33,0 -3.88,0 -3.88,2.23 v 9.17 c 0,5.19 3.54,7.97 6.72,7.97 3.14,0 3.69,-2.69 3.69,-5.53 v -11.61 c 0,-2.23 -0.55,-2.23 -3.89,-2.23 v -1.55 c 1.75,0.05 4.3,0.16 5.64,0.16 1.3,0 3.88,-0.11 5.58,-0.16 v 1.55 c -2.59,0 -3.84,0 -3.89,1.5 v 9.51 c 0,4.28 0,5.83 -1.55,7.61 -0.69,0.86 -2.34,1.84 -5.22,1.84 -3.64,0 -5.98,-2.14 -7.37,-5.21 v 5.21 l -7.03,-0.54 v -1.55 c 3.48,0 3.89,-0.34 3.89,-2.78 z"
           inkscape:connector-curvature="0"
           style="fill:#000000;stroke-width:0" /><path
           id="path4984"
           d="m 614.63,417.71 0.05,1.05 c 0.3,7.42 4.48,8.66 6.19,8.66 5.12,0 5.62,-6.72 5.62,-8.66 h -11.81 l -0.05,-1.05 h 13.91 c 1.09,0 1.23,0 1.23,1.05 0,4.92 -2.68,9.75 -8.9,9.75 -5.78,0 -10.38,-5.12 -10.38,-11.36 0,-6.67 5.24,-11.5 10.97,-11.5 6.08,0 8.31,5.53 8.31,6.47 0,0.5 -0.39,0.61 -0.64,0.61 -0.45,0 -0.54,-0.3 -0.65,-0.7 -1.74,-5.13 -6.22,-5.13 -6.72,-5.13 -2.5,0 -4.49,1.49 -5.63,3.33 -1.5,2.39 -1.5,5.69 -1.5,7.48 z"
           inkscape:connector-curvature="0"
           style="fill:#000000;stroke-width:0" /><path
           id="path4986"
           d="m 647.77,409.98 0.03,-0.19 0.02,-0.18 0.04,-0.19 0.04,-0.18 0.05,-0.19 0.06,-0.18 0.06,-0.18 0.07,-0.18 0.07,-0.18 0.08,-0.17 0.09,-0.18 0.1,-0.16 0.1,-0.16 0.1,-0.16 0.12,-0.16 0.12,-0.14 0.12,-0.14 0.13,-0.14 0.14,-0.13 0.15,-0.12 0.15,-0.12 0.15,-0.1 0.17,-0.1 0.17,-0.09 0.17,-0.08 0.18,-0.07 0.19,-0.06 0.19,-0.05 0.2,-0.04 0.21,-0.03 0.21,-0.02 0.21,-0.01 c 1.04,0 4.08,0.71 4.08,4.74 v 2.78 h -1.25 v -2.78 c 0,-2.89 -1.23,-3.19 -1.79,-3.19 -1.65,0 -1.85,2.23 -1.85,2.48 v 9.97 c 0,2.1 0,4.03 -1.78,5.88 -1.95,1.93 -4.44,2.73 -6.83,2.73 -4.09,0 -7.53,-2.33 -7.53,-5.62 0,-1.49 1,-2.35 2.3,-2.35 1.39,0 2.29,1 2.29,2.3 0,0.59 -0.25,2.23 -2.54,2.3 1.34,1.73 3.78,2.28 5.37,2.28 2.46,0 5.28,-1.94 5.28,-6.38 v -1.84 -1.05 -4.98 c 0,-4.74 -3.57,-6.42 -5.82,-6.42 -2.44,0 -4.49,1.75 -4.49,4.23 0,2.73 2.1,6.88 10.31,7.17 v 0 1.05 c -2.53,-0.14 -6.01,-0.3 -9.15,-1.8 -3.74,-1.69 -4.99,-4.28 -4.99,-6.47 0,-4.03 4.83,-5.28 7.97,-5.28 3.3,0 5.58,1.99 6.53,4.33 z"
           inkscape:connector-curvature="0"
           style="fill:#000000;stroke-width:0" /><path
           id="path4988"
           d="m 664.45,422.75 v 5.46 l -6.92,-0.54 v -1.55 c 3.48,0 3.89,-0.34 3.89,-2.78 v -13.36 c 0,-2.23 -0.55,-2.23 -3.89,-2.23 v -1.55 c 1.95,0.05 4.28,0.16 5.69,0.16 1.98,0 4.32,0 6.32,-0.16 v 1.55 h -1.04 c -3.69,0 -3.8,0.54 -3.8,2.34 v 7.67 c 0,4.92 2.09,9.36 5.89,9.36 0.34,0 0.44,0 0.55,-0.05 -0.16,-0.04 -1.16,-0.64 -1.16,-1.93 0,-1.41 1.05,-2.14 2.16,-2.14 0.89,0 2.14,0.59 2.14,2.18 0,1.6 -1.55,3.03 -3.69,3.03 -3.64,0 -5.44,-3.32 -6.14,-5.46 z"
           inkscape:connector-curvature="0"
           style="fill:#000000;stroke-width:0" /><path
           id="path4990"
           d="m 684.51,440.78 -7.17,-0.55 v -1.55 c 3.48,0 3.89,-0.34 3.89,-2.79 v -25.91 c 0,-2.23 -0.55,-2.23 -3.89,-2.23 v -1.55 c 1.64,0.05 4.28,0.16 5.53,0.16 1.25,0 3.68,-0.11 5.53,-0.16 v 1.55 c -3.35,0 -3.89,0 -3.89,2.23 z"
           inkscape:connector-curvature="0"
           style="fill:#000000;stroke-width:0" /><path
           id="path4992"
           d="m 710.16,422.93 0.07,0.15 0.06,0.14 0.06,0.14 0.07,0.13 0.07,0.12 0.07,0.13 0.07,0.12 0.07,0.11 0.15,0.22 0.16,0.2 0.15,0.19 0.16,0.18 0.17,0.16 0.16,0.14 0.17,0.14 0.17,0.12 0.17,0.11 0.17,0.1 0.17,0.09 0.17,0.09 0.17,0.07 0.17,0.06 0.16,0.05 0.16,0.05 0.15,0.04 0.16,0.03 0.14,0.03 0.15,0.02 0.13,0.02 0.13,0.02 0.12,0.01 h 0.12 l 0.11,0.01 h 0.1 0.09 0.07 v 1.55 c -1.15,-0.1 -2.59,-0.14 -3.73,-0.14 -0.91,0 -3.25,0.09 -4.34,0.14 v -1.55 c 1.54,-0.05 2.34,-0.89 2.34,-2.14 0,-0.5 -0.05,-0.59 -0.3,-1.19 l -5.03,-12.26 -5.53,13.4 c -0.2,0.5 -0.3,0.71 -0.3,0.91 0,1.28 1.85,1.28 2.79,1.28 v 1.55 c -1.29,-0.05 -4.58,-0.14 -5.43,-0.14 -1.34,0 -3.34,0.04 -4.82,0.14 v -1.55 c 2.39,0 3.32,0 4.03,-1.73 l 7.47,-18.19 c -0.25,-0.64 -0.94,-2.3 -1.25,-2.94 -1.1,-2.73 -2.49,-6.19 -5.68,-6.19 -0.25,0 -1.39,0 -2.34,0.91 1.55,0.2 1.94,1.3 1.94,2.09 0,1.3 -0.94,2.1 -2.08,2.1 -1,0 -2.09,-0.66 -2.09,-2.14 0,-2.25 2.09,-4.05 4.57,-4.05 3.14,0 5.19,2.84 6.38,5.69 z"
           inkscape:connector-curvature="0"
           style="fill:#000000;stroke-width:0" /><path
           id="path4994"
           d="m 742.81,415.87 0.11,-0.02 0.13,-0.02 0.14,-0.03 0.16,-0.04 0.16,-0.04 0.18,-0.04 0.19,-0.05 0.2,-0.06 0.21,-0.06 0.21,-0.07 0.21,-0.08 0.22,-0.08 0.22,-0.1 0.22,-0.1 0.22,-0.11 0.22,-0.12 0.22,-0.14 0.21,-0.14 0.2,-0.15 0.2,-0.16 0.19,-0.18 0.18,-0.19 0.17,-0.2 0.16,-0.21 0.14,-0.22 0.07,-0.12 0.06,-0.12 0.06,-0.13 0.05,-0.12 0.05,-0.14 0.05,-0.13 0.04,-0.14 0.03,-0.14 0.03,-0.15 0.03,-0.15 0.02,-0.16 0.01,-0.15 0.01,-0.17 0.01,-0.16 c 0,-2.53 -1.75,-4.53 -5.63,-4.53 -4.19,0 -5.98,2.84 -6.94,7.07 -0.14,0.64 -0.18,0.85 -0.68,0.85 -0.66,0 -0.66,-0.35 -0.66,-1.25 v -6.58 c 0,-0.84 0,-1.19 0.55,-1.19 0.25,0 0.29,0.05 1.25,1 0.09,0.1 0.09,0.19 1,1.14 2.18,-2.09 4.43,-2.14 5.48,-2.14 5.72,0 8.02,3.35 8.02,6.92 0,2.64 -1.5,4.14 -2.1,4.74 -1.64,1.59 -3.59,2 -5.69,2.39 -2.78,0.55 -6.12,1.2 -6.12,4.09 0,1.74 1.3,3.78 5.58,3.78 5.48,0 5.73,-4.48 5.83,-6.03 0.06,-0.45 0.5,-0.45 0.61,-0.45 0.64,0 0.64,0.25 0.64,1.2 v 5.03 c 0,0.85 0,1.19 -0.55,1.19 -0.25,0 -0.34,0 -1,-0.59 -0.14,-0.21 -0.64,-0.64 -0.84,-0.8 -1.9,1.39 -3.94,1.39 -4.69,1.39 -6.08,0 -7.97,-3.33 -7.97,-6.12 0,-1.74 0.8,-3.14 2.14,-4.24 1.59,-1.29 3,-1.59 6.58,-2.28 z"
           inkscape:connector-curvature="0"
           style="fill:#000000;stroke-width:0" /><path
           id="path4996"
           d="m 757.66,417.71 0.05,1.05 c 0.29,7.42 4.48,8.66 6.19,8.66 5.12,0 5.62,-6.72 5.62,-8.66 h -11.81 l -0.05,-1.05 h 13.91 c 1.09,0 1.23,0 1.23,1.05 0,4.92 -2.69,9.75 -8.9,9.75 -5.79,0 -10.38,-5.12 -10.38,-11.36 0,-6.67 5.23,-11.5 10.97,-11.5 6.08,0 8.31,5.53 8.31,6.47 0,0.5 -0.39,0.61 -0.64,0.61 -0.45,0 -0.55,-0.3 -0.66,-0.7 -1.73,-5.13 -6.22,-5.13 -6.72,-5.13 -2.5,0 -4.48,1.49 -5.62,3.33 -1.5,2.39 -1.5,5.69 -1.5,7.48 z"
           inkscape:connector-curvature="0"
           style="fill:#000000;stroke-width:0" /><path
           id="path4998"
           d="m 782.77,424.93 v 3.28 l -7.17,-0.54 v -1.55 c 3.55,0 3.89,-0.3 3.89,-2.48 v -23.32 c 0,-2.25 -0.55,-2.25 -3.89,-2.25 v -1.54 c 1.7,0.06 4.28,0.15 5.58,0.15 1.34,0 3.89,-0.09 5.64,-0.15 v 1.54 c -3.35,0 -3.89,0 -3.89,2.25 v 8.36 0.46 l 0.7,0.65 c -0.7,1.05 -0.7,1.1 -0.7,2.08 v 0 11.13 c 1.43,2.53 3.89,3.98 6.42,3.98 3.64,0 6.68,-4.39 6.68,-10.02 0,-6.03 -3.5,-10.21 -7.18,-10.21 -1.99,0 -3.88,1 -5.22,3.04 l -0.7,-0.65 c 0.25,-0.8 2.34,-3.49 6.12,-3.49 5.94,0 11.11,4.88 11.11,11.31 0,6.33 -4.83,11.25 -10.41,11.25 -3.89,0 -5.98,-2.18 -6.98,-3.28 z"
           inkscape:connector-curvature="0"
           style="fill:#000000;stroke-width:0" /><path
           id="path5000"
           d="m 818.52,409.98 0.02,-0.19 0.03,-0.18 0.04,-0.19 0.04,-0.18 0.05,-0.19 0.05,-0.18 0.07,-0.18 0.06,-0.18 0.08,-0.18 0.08,-0.17 0.09,-0.18 0.09,-0.16 0.1,-0.16 0.11,-0.16 0.11,-0.16 0.12,-0.14 0.13,-0.14 0.13,-0.14 0.14,-0.13 0.14,-0.12 0.15,-0.12 0.16,-0.1 0.16,-0.1 0.17,-0.09 0.18,-0.08 0.18,-0.07 0.19,-0.06 0.19,-0.05 0.2,-0.04 0.2,-0.03 0.21,-0.02 0.22,-0.01 c 1.03,0 4.08,0.71 4.08,4.74 v 2.78 h -1.25 v -2.78 c 0,-2.89 -1.24,-3.19 -1.8,-3.19 -1.64,0 -1.84,2.23 -1.84,2.48 v 9.97 c 0,2.1 0,4.03 -1.78,5.88 -1.96,1.93 -4.44,2.73 -6.83,2.73 -4.09,0 -7.53,-2.33 -7.53,-5.62 0,-1.49 1,-2.35 2.29,-2.35 1.4,0 2.3,1 2.3,2.3 0,0.59 -0.25,2.23 -2.55,2.3 1.35,1.73 3.78,2.28 5.38,2.28 2.45,0 5.28,-1.94 5.28,-6.38 v -1.84 -1.05 -4.98 c 0,-4.74 -3.58,-6.42 -5.83,-6.42 -2.43,0 -4.48,1.75 -4.48,4.23 0,2.73 2.09,6.88 10.31,7.17 v 0 1.05 c -2.53,-0.14 -6.01,-0.3 -9.16,-1.8 -3.73,-1.69 -4.98,-4.28 -4.98,-6.47 0,-4.03 4.83,-5.28 7.97,-5.28 3.29,0 5.58,1.99 6.53,4.33 z"
           inkscape:connector-curvature="0"
           style="fill:#000000;stroke-width:0" /><path
           id="path5002"
           d="m 835.2,422.75 v 5.46 l -6.93,-0.54 v -1.55 c 3.49,0 3.89,-0.34 3.89,-2.78 v -13.36 c 0,-2.23 -0.54,-2.23 -3.89,-2.23 v -1.55 c 1.96,0.05 4.28,0.16 5.69,0.16 1.99,0 4.33,0 6.33,-0.16 v 1.55 h -1.05 c -3.69,0 -3.79,0.54 -3.79,2.34 v 7.67 c 0,4.92 2.09,9.36 5.89,9.36 0.34,0 0.43,0 0.54,-0.05 -0.15,-0.04 -1.15,-0.64 -1.15,-1.93 0,-1.41 1.04,-2.14 2.15,-2.14 0.89,0 2.14,0.59 2.14,2.18 0,1.6 -1.54,3.03 -3.68,3.03 -3.64,0 -5.44,-3.32 -6.14,-5.46 z"
           inkscape:connector-curvature="0"
           style="fill:#000000;stroke-width:0" /><path
           id="path5004"
           d="m 863.03,409.98 0.03,-0.19 0.03,-0.18 0.03,-0.19 0.04,-0.18 0.05,-0.19 0.06,-0.18 0.06,-0.18 0.07,-0.18 0.07,-0.18 0.09,-0.17 0.08,-0.18 0.1,-0.16 0.1,-0.16 0.1,-0.16 0.12,-0.16 0.12,-0.14 0.12,-0.14 0.14,-0.14 0.13,-0.13 0.15,-0.12 0.15,-0.12 0.16,-0.1 0.16,-0.1 0.17,-0.09 0.17,-0.08 0.18,-0.07 0.19,-0.06 0.19,-0.05 0.2,-0.04 0.21,-0.03 0.21,-0.02 0.22,-0.01 c 1.03,0 4.07,0.71 4.07,4.74 v 2.78 h -1.25 v -2.78 c 0,-2.89 -1.23,-3.19 -1.79,-3.19 -1.64,0 -1.85,2.23 -1.85,2.48 v 9.97 c 0,2.1 0,4.03 -1.78,5.88 -1.95,1.93 -4.43,2.73 -6.83,2.73 -4.09,0 -7.53,-2.33 -7.53,-5.62 0,-1.49 1,-2.35 2.3,-2.35 1.39,0 2.3,1 2.3,2.3 0,0.59 -0.25,2.23 -2.55,2.3 1.34,1.73 3.78,2.28 5.38,2.28 2.45,0 5.28,-1.94 5.28,-6.38 v -1.84 -1.05 -4.98 c 0,-4.74 -3.58,-6.42 -5.83,-6.42 -2.44,0 -4.49,1.75 -4.49,4.23 0,2.73 2.1,6.88 10.32,7.17 v 0 1.05 c -2.53,-0.14 -6.02,-0.3 -9.16,-1.8 -3.74,-1.69 -4.99,-4.28 -4.99,-6.47 0,-4.03 4.83,-5.28 7.97,-5.28 3.3,0 5.58,1.99 6.53,4.33 z"
           inkscape:connector-curvature="0"
           style="fill:#000000;stroke-width:0" /><path
           id="path5006"
           d="m 879.96,424.98 v 15.8 l -7.17,-0.55 v -1.55 c 3.48,0 3.89,-0.34 3.89,-2.79 V 406.2 h 1.25 c 0.05,0.05 0.44,0.75 1.78,3.09 0.75,-1.15 2.84,-3.64 6.53,-3.64 l -0.2,1.1 c -2.24,0 -4.03,1.2 -5.22,3.04 -0.7,1.05 -0.7,1.19 -0.7,2.08 v 0 10.27 c 0,0.95 0,1 0.54,1.79 1.94,2.8 4.69,3.19 5.88,3.19 2.25,0 4.05,-1.3 5.23,-3.19 1.3,-2.04 1.46,-4.87 1.46,-6.92 0,-1.84 -0.11,-4.83 -1.55,-7.08 -1.05,-1.54 -2.94,-3.18 -5.64,-3.18 l 0.2,-1.1 c 5.94,0 11.11,4.88 11.11,11.31 0,6.33 -4.87,11.25 -10.56,11.25 -3.88,0 -6.03,-2.34 -6.83,-3.23 z"
           inkscape:connector-curvature="0"
           style="fill:#000000;stroke-width:0" /><path
           id="path5008"
           d="m 907.93,440.78 -7.17,-0.55 v -1.55 c 3.48,0 3.89,-0.34 3.89,-2.79 v -25.91 c 0,-2.23 -0.55,-2.23 -3.89,-2.23 v -1.55 c 1.64,0.05 4.28,0.16 5.53,0.16 1.25,0 3.69,-0.11 5.53,-0.16 v 1.55 c -3.34,0 -3.89,0 -3.89,2.23 z"
           inkscape:connector-curvature="0"
           style="fill:#000000;stroke-width:0" /><path
           id="path5010"
           d="m 918.45,417.71 0.04,1.05 c 0.3,7.42 4.49,8.66 6.19,8.66 5.12,0 5.62,-6.72 5.62,-8.66 h -11.81 l -0.04,-1.05 h 13.9 c 1.1,0 1.24,0 1.24,1.05 0,4.92 -2.69,9.75 -8.91,9.75 -5.78,0 -10.38,-5.12 -10.38,-11.36 0,-6.67 5.24,-11.5 10.97,-11.5 6.08,0 8.32,5.53 8.32,6.47 0,0.5 -0.39,0.61 -0.64,0.61 -0.46,0 -0.55,-0.3 -0.66,-0.7 -1.74,-5.13 -6.22,-5.13 -6.72,-5.13 -2.5,0 -4.48,1.49 -5.62,3.33 -1.5,2.39 -1.5,5.69 -1.5,7.48 z"
           inkscape:connector-curvature="0"
           style="fill:#000000;stroke-width:0" /><path
           id="path5012"
           d="m 397.36,334.49 v 0.02 0.03 0.01 0.02 l -0.01,0.01 v 0.02 l -0.01,0.02 v 0.01 l -0.01,0.02 -0.01,0.02 -0.01,0.03 -0.02,0.02 -0.01,0.02 -0.02,0.03 -0.02,0.03 -0.03,0.03 -0.02,0.04 -0.03,0.03 -0.02,0.02 -0.02,0.02 -0.01,0.02 -0.02,0.02 -0.02,0.02 -0.02,0.03 -0.02,0.02 -0.02,0.02 -0.03,0.03 -0.02,0.03 -0.02,0.02 -0.03,0.03 -0.03,0.03 -0.02,0.03 -0.03,0.03 -0.03,0.03 -0.03,0.03 -0.03,0.03 -0.04,0.04 -0.03,0.03 -0.04,0.04 -0.03,0.04 -0.04,0.03 -0.04,0.04 c -6.22,6.28 -7.81,15.69 -7.81,23.31 0,8.68 1.89,17.35 8.01,23.57 0.64,0.61 0.64,0.7 0.64,0.86 0,0.34 -0.18,0.48 -0.48,0.48 -0.5,0 -4.99,-3.37 -7.92,-9.7 -2.55,-5.49 -3.14,-11.02 -3.14,-15.21 0,-3.89 0.54,-9.9 3.28,-15.54 2.98,-6.13 7.28,-9.36 7.78,-9.36 0.3,0 0.48,0.14 0.48,0.5 z"
           inkscape:connector-curvature="0"
           style="fill:#000000;stroke-width:0" /><path
           id="path5014"
           d="m 412.2,379.38 -0.03,0.05 -0.02,0.05 -0.01,0.05 -0.02,0.04 -0.04,0.09 -0.04,0.08 -0.03,0.08 -0.04,0.07 -0.03,0.06 -0.04,0.06 -0.04,0.06 -0.03,0.05 -0.04,0.04 -0.03,0.05 -0.04,0.03 -0.04,0.04 -0.04,0.03 -0.05,0.03 -0.04,0.02 -0.05,0.02 -0.05,0.02 -0.05,0.02 -0.06,0.01 -0.06,0.01 -0.06,0.01 -0.07,0.01 h -0.07 l -0.07,0.01 h -0.08 -0.08 -0.09 -0.1 -0.09 -0.11 -8.42 v -1.54 h 1.2 c 3.83,0 3.92,-0.55 3.92,-2.35 v -24.9 c 0,-1.35 0,-3.69 -5.12,-3.69 v -1.55 c 1.75,0.05 4.19,0.16 5.83,0.16 1.64,0 4.09,-0.11 5.83,-0.16 v 1.55 c -5.13,0 -5.13,2.34 -5.13,3.69 v 26.84 h 0.05 l 12,-30.98 c 0.25,-0.65 0.5,-1.1 1,-1.1 0.54,0 0.7,0.41 0.89,0.95 l 12.26,31.54 h 0.05 v -28.6 c 0,-1.79 -0.09,-2.34 -3.94,-2.34 h -1.18 v -1.55 c 1.84,0.16 5.21,0.16 7.17,0.16 1.93,0 5.28,0 7.12,-0.16 v 1.55 h -1.2 c -3.83,0 -3.94,0.55 -3.94,2.34 v 26.25 c 0,1.8 0.11,2.35 3.94,2.35 h 1.2 v 1.54 h -8.42 c -1.3,0 -1.3,-0.04 -1.64,-0.95 l -10.92,-28.05 z"
           inkscape:connector-curvature="0"
           style="fill:#000000;stroke-width:0" /><path
           id="path5016"
           d="m 462.51,350.22 0.02,-0.18 0.03,-0.19 0.04,-0.19 0.04,-0.18 0.05,-0.19 0.05,-0.18 0.06,-0.18 0.07,-0.18 0.08,-0.18 0.08,-0.17 0.09,-0.17 0.09,-0.17 0.1,-0.16 0.11,-0.16 0.11,-0.15 0.12,-0.15 0.13,-0.14 0.13,-0.14 0.14,-0.13 0.14,-0.12 0.15,-0.11 0.16,-0.11 0.16,-0.1 0.17,-0.09 0.18,-0.08 0.18,-0.07 0.18,-0.06 0.2,-0.05 0.2,-0.04 0.2,-0.03 0.21,-0.02 0.22,-0.01 c 1.03,0 4.08,0.71 4.08,4.74 v 2.78 h -1.25 v -2.78 c 0,-2.89 -1.24,-3.19 -1.8,-3.19 -1.64,0 -1.84,2.24 -1.84,2.49 v 9.96 c 0,2.1 0,4.04 -1.79,5.88 -1.95,1.94 -4.43,2.73 -6.82,2.73 -4.1,0 -7.53,-2.32 -7.53,-5.62 0,-1.49 1,-2.34 2.29,-2.34 1.39,0 2.3,1 2.3,2.29 0,0.6 -0.25,2.24 -2.55,2.3 1.35,1.73 3.78,2.28 5.38,2.28 2.45,0 5.28,-1.94 5.28,-6.37 v -1.85 -1.05 -4.98 c 0,-4.73 -3.58,-6.42 -5.83,-6.42 -2.44,0 -4.48,1.75 -4.48,4.23 0,2.74 2.09,6.88 10.31,7.17 v 0 1.05 c -2.53,-0.14 -6.02,-0.3 -9.16,-1.8 -3.73,-1.68 -4.98,-4.28 -4.98,-6.46 0,-4.04 4.83,-5.29 7.97,-5.29 3.29,0 5.57,1.99 6.53,4.33 z"
           inkscape:connector-curvature="0"
           style="fill:#000000;stroke-width:0" /><path
           id="path5018"
           d="m 490.11,363.18 0.06,0.14 0.06,0.14 0.07,0.14 0.06,0.13 0.07,0.13 0.07,0.12 0.07,0.12 0.07,0.11 0.15,0.22 0.16,0.21 0.15,0.18 0.17,0.18 0.16,0.16 0.17,0.15 0.16,0.13 0.17,0.12 0.17,0.12 0.17,0.1 0.17,0.09 0.17,0.08 0.17,0.07 0.17,0.06 0.16,0.06 0.16,0.04 0.16,0.04 0.15,0.04 0.14,0.02 0.15,0.03 0.13,0.01 0.13,0.02 0.13,0.01 h 0.11 l 0.11,0.01 h 0.1 0.09 0.08 v 1.55 c -1.16,-0.09 -2.6,-0.14 -3.74,-0.14 -0.9,0 -3.25,0.09 -4.34,0.14 v -1.55 c 1.54,-0.04 2.34,-0.89 2.34,-2.14 0,-0.5 -0.05,-0.59 -0.3,-1.18 l -5.03,-12.27 -5.53,13.41 c -0.2,0.5 -0.29,0.7 -0.29,0.9 0,1.28 1.84,1.28 2.78,1.28 v 1.55 c -1.28,-0.05 -4.58,-0.14 -5.43,-0.14 -1.34,0 -3.34,0.05 -4.82,0.14 v -1.55 c 2.39,0 3.32,0 4.03,-1.73 l 7.47,-18.19 c -0.25,-0.64 -0.94,-2.3 -1.25,-2.94 -1.1,-2.73 -2.49,-6.18 -5.68,-6.18 -0.25,0 -1.39,0 -2.34,0.9 1.55,0.21 1.94,1.3 1.94,2.1 0,1.29 -0.94,2.09 -2.08,2.09 -1,0 -2.09,-0.66 -2.09,-2.14 0,-2.25 2.09,-4.05 4.57,-4.05 3.15,0 5.19,2.85 6.38,5.69 z"
           inkscape:connector-curvature="0"
           style="fill:#000000;stroke-width:0" /><path
           id="path5020"
           d="m 504.27,365.22 v 15.8 l -7.17,-0.55 v -1.54 c 3.49,0 3.89,-0.35 3.89,-2.8 v -29.69 h 1.25 c 0.05,0.05 0.44,0.75 1.78,3.1 0.75,-1.16 2.85,-3.65 6.53,-3.65 l -0.2,1.1 c -2.23,0 -4.03,1.2 -5.22,3.05 -0.7,1.04 -0.7,1.18 -0.7,2.07 v 0 10.27 c 0,0.95 0,1 0.55,1.8 1.93,2.79 4.68,3.18 5.87,3.18 2.25,0 4.05,-1.29 5.24,-3.18 1.29,-2.05 1.45,-4.88 1.45,-6.93 0,-1.84 -0.11,-4.82 -1.55,-7.07 -1.04,-1.55 -2.94,-3.19 -5.64,-3.19 l 0.2,-1.1 c 5.94,0 11.11,4.88 11.11,11.32 0,6.33 -4.87,11.25 -10.56,11.25 -3.87,0 -6.03,-2.35 -6.83,-3.24 z"
           inkscape:connector-curvature="0"
           style="fill:#000000;stroke-width:0" /><path
           id="path5022"
           d="m 530.4,357.96 0.05,1.04 c 0.29,7.43 4.48,8.66 6.18,8.66 5.13,0 5.63,-6.72 5.63,-8.66 h -11.81 l -0.05,-1.04 h 13.9 c 1.1,0 1.24,0 1.24,1.04 0,4.93 -2.69,9.75 -8.91,9.75 -5.78,0 -10.37,-5.12 -10.37,-11.36 0,-6.67 5.23,-11.5 10.97,-11.5 6.07,0 8.31,5.54 8.31,6.47 0,0.5 -0.39,0.61 -0.64,0.61 -0.45,0 -0.55,-0.29 -0.66,-0.7 -1.73,-5.13 -6.22,-5.13 -6.72,-5.13 -2.5,0 -4.48,1.49 -5.62,3.33 -1.5,2.39 -1.5,5.69 -1.5,7.49 z"
           inkscape:connector-curvature="0"
           style="fill:#000000;stroke-width:0" /><path
           id="path5024"
           d="m 572.32,368.46 -6.97,-0.55 v -1.55 c 3.24,0 3.69,-0.29 3.69,-2.73 v -13.41 c 0,-2.23 -0.55,-2.23 -3.89,-2.23 v -1.55 c 1.59,0.05 4.28,0.16 5.48,0.16 1.75,0 3.49,-0.11 5.19,-0.16 v 1.55 c -3.3,0 -3.5,0.25 -3.5,2.19 z"
           inkscape:connector-curvature="0"
           style="fill:#000000;stroke-width:0" /><path
           id="path5026"
           d="m 572.52,377.13 v 0.15 l -0.01,0.14 -0.02,0.14 -0.02,0.14 -0.03,0.13 -0.04,0.13 -0.04,0.13 -0.05,0.12 -0.06,0.12 -0.06,0.12 -0.07,0.11 -0.07,0.11 -0.07,0.1 -0.08,0.1 -0.09,0.09 -0.09,0.09 -0.09,0.08 -0.1,0.08 -0.1,0.08 -0.1,0.06 -0.11,0.07 -0.11,0.06 -0.11,0.05 -0.12,0.05 -0.12,0.04 -0.12,0.04 -0.12,0.04 -0.12,0.02 -0.13,0.02 -0.13,0.02 -0.13,0.01 h -0.13 c -1.54,0 -2.64,-1.34 -2.64,-2.64 0,-1.34 1.1,-2.64 2.64,-2.64 1.39,0 2.64,1.05 2.64,2.64 z"
           inkscape:connector-curvature="0"
           style="fill:#000000;stroke-width:0" /><path
           id="path5028"
           d="m 587.66,356.11 0.12,-0.02 0.12,-0.02 0.14,-0.03 0.16,-0.04 0.17,-0.03 0.18,-0.05 0.19,-0.05 0.2,-0.06 0.2,-0.06 0.21,-0.07 0.22,-0.08 0.22,-0.08 0.22,-0.1 0.22,-0.1 0.22,-0.11 0.22,-0.12 0.21,-0.13 0.22,-0.15 0.2,-0.15 0.2,-0.16 0.19,-0.18 0.18,-0.18 0.17,-0.2 0.16,-0.22 0.14,-0.22 0.06,-0.12 0.07,-0.12 0.06,-0.12 0.05,-0.13 0.05,-0.13 0.04,-0.14 0.04,-0.14 0.04,-0.14 0.03,-0.15 0.03,-0.15 0.02,-0.15 0.01,-0.16 0.01,-0.16 v -0.17 c 0,-2.53 -1.75,-4.53 -5.62,-4.53 -4.19,0 -5.99,2.84 -6.94,7.08 -0.14,0.64 -0.19,0.84 -0.69,0.84 -0.65,0 -0.65,-0.34 -0.65,-1.25 v -6.58 c 0,-0.84 0,-1.19 0.54,-1.19 0.25,0 0.3,0.05 1.25,1 0.1,0.1 0.1,0.19 1,1.15 2.19,-2.1 4.44,-2.15 5.49,-2.15 5.72,0 8.01,3.35 8.01,6.93 0,2.64 -1.5,4.14 -2.09,4.73 -1.64,1.59 -3.6,2 -5.69,2.39 -2.78,0.55 -6.12,1.2 -6.12,4.1 0,1.73 1.29,3.78 5.57,3.78 5.49,0 5.74,-4.49 5.83,-6.03 0.06,-0.46 0.5,-0.46 0.61,-0.46 0.64,0 0.64,0.25 0.64,1.21 v 5.03 c 0,0.84 0,1.18 -0.54,1.18 -0.25,0 -0.35,0 -1,-0.59 -0.15,-0.2 -0.65,-0.64 -0.85,-0.8 -1.89,1.39 -3.94,1.39 -4.69,1.39 -6.07,0 -7.96,-3.32 -7.96,-6.12 0,-1.74 0.79,-3.14 2.14,-4.24 1.59,-1.29 3,-1.59 6.57,-2.28 z"
           inkscape:connector-curvature="0"
           style="fill:#000000;stroke-width:0" /><path
           id="path5030"
           d="m 644.39,363.18 0.08,0.22 0.09,0.22 0.09,0.21 0.1,0.2 0.1,0.19 0.1,0.17 0.11,0.17 0.11,0.16 0.11,0.15 0.12,0.14 0.12,0.14 0.12,0.12 0.13,0.12 0.12,0.11 0.13,0.1 0.14,0.09 0.13,0.09 0.14,0.07 0.14,0.08 0.14,0.06 0.15,0.06 0.15,0.06 0.15,0.04 0.15,0.05 0.15,0.03 0.15,0.04 0.16,0.02 0.16,0.03 0.16,0.01 0.16,0.02 0.16,0.01 h 0.16 v 1.55 c -1.1,-0.09 -2.54,-0.14 -3.64,-0.14 -1.45,0 -3.68,0.09 -4.64,0.14 v -1.55 c 1.8,-0.04 2.89,-0.93 2.89,-2.39 0,-0.29 0,-0.39 -0.25,-1.04 l -4.53,-12.75 -4.93,13.9 c -0.19,0.6 -0.25,0.69 -0.25,0.94 0,1.34 1.95,1.34 2.95,1.34 v 1.55 c -1.45,-0.05 -3.99,-0.14 -5.19,-0.14 -1.5,0 -2.94,0.05 -4.44,0.14 v -1.55 c 1.85,0 2.64,-0.09 3.14,-0.73 0.25,-0.31 0.8,-1.8 1.14,-2.75 l -4.28,-12.05 -4.73,13.3 c -0.25,0.59 -0.25,0.7 -0.25,0.89 0,1.34 1.95,1.34 2.94,1.34 v 1.55 c -1.49,-0.05 -4.28,-0.14 -5.43,-0.14 -0.2,0 -2.84,0.05 -4.64,0.14 v -1.55 c 2.5,0 3.1,-0.14 3.69,-1.73 l 6.28,-17.64 c 0.25,-0.7 0.41,-1.1 1.05,-1.1 0.65,0 0.75,0.3 1,1 l 5.03,14.1 5.08,-14.14 c 0.2,-0.56 0.34,-0.96 1,-0.96 0.64,0 0.79,0.46 1,0.96 z"
           inkscape:connector-curvature="0"
           style="fill:#000000;stroke-width:0" /><path
           id="path5032"
           d="m 658.35,368.46 -6.96,-0.55 v -1.55 c 3.23,0 3.68,-0.29 3.68,-2.73 v -13.41 c 0,-2.23 -0.54,-2.23 -3.89,-2.23 v -1.55 c 1.6,0.05 4.29,0.16 5.49,0.16 1.75,0 3.48,-0.11 5.18,-0.16 v 1.55 c -3.29,0 -3.5,0.25 -3.5,2.19 z"
           inkscape:connector-curvature="0"
           style="fill:#000000;stroke-width:0" /><path
           id="path5034"
           d="m 658.56,377.13 v 0.15 l -0.02,0.14 -0.01,0.14 -0.03,0.14 -0.03,0.13 -0.04,0.13 -0.04,0.13 -0.05,0.12 -0.05,0.12 -0.06,0.12 -0.07,0.11 -0.07,0.11 -0.08,0.1 -0.08,0.1 -0.08,0.09 -0.09,0.09 -0.09,0.08 -0.1,0.08 -0.1,0.08 -0.11,0.06 -0.1,0.07 -0.11,0.06 -0.12,0.05 -0.11,0.05 -0.12,0.04 -0.12,0.04 -0.12,0.04 -0.13,0.02 -0.13,0.02 -0.12,0.02 -0.13,0.01 h -0.13 c -1.55,0 -2.64,-1.34 -2.64,-2.64 0,-1.34 1.09,-2.64 2.64,-2.64 1.39,0 2.64,1.05 2.64,2.64 z"
           inkscape:connector-curvature="0"
           style="fill:#000000;stroke-width:0" /><path
           id="path5036"
           d="m 671.97,366.36 h 7.12 v 1.55 h -7.12 v 9.17 h -1.25 c -0.05,-4.08 -1.55,-9.42 -6.43,-9.61 v -1.11 h 4.24 v -13.75 c 0,-6.12 4.62,-6.72 6.42,-6.72 3.53,0 4.94,3.54 4.94,6.72 v 2.85 h -1.25 v -2.74 c 0,-3.68 -1.5,-5.58 -3.35,-5.58 -3.32,0 -3.32,4.54 -3.32,5.38 z"
           inkscape:connector-curvature="0"
           style="fill:#000000;stroke-width:0" /><path
           id="path5038"
           d="m 688.14,350.22 v -0.1 -0.1 l -0.01,-0.19 -0.01,-0.18 -0.01,-0.16 -0.02,-0.16 -0.02,-0.14 -0.03,-0.14 -0.04,-0.12 -0.04,-0.11 -0.05,-0.11 -0.05,-0.09 -0.07,-0.09 -0.07,-0.07 -0.08,-0.07 -0.09,-0.07 -0.1,-0.05 -0.11,-0.05 -0.12,-0.04 -0.13,-0.04 -0.14,-0.03 -0.15,-0.03 -0.17,-0.02 -0.17,-0.02 -0.1,-0.01 -0.09,-0.01 h -0.1 l -0.1,-0.01 h -0.11 L 685.85,348 h -0.11 -0.12 l -0.12,-0.01 h -0.12 -0.13 -0.13 -0.14 -0.14 -0.14 -0.14 -0.16 -0.15 v -1.55 c 1.75,0.05 4.28,0.16 5.63,0.16 1.29,0 3.89,-0.11 5.57,-0.16 v 1.55 c -3.33,0 -3.87,0 -3.87,2.23 v 9.17 c 0,5.19 3.53,7.97 6.72,7.97 3.14,0 3.68,-2.68 3.68,-5.53 v -11.61 c 0,-2.23 -0.54,-2.23 -3.89,-2.23 v -1.55 c 1.75,0.05 4.3,0.16 5.64,0.16 1.3,0 3.88,-0.11 5.58,-0.16 v 1.55 c -2.59,0 -3.84,0 -3.89,1.5 V 359 c 0,4.29 0,5.83 -1.54,7.61 -0.69,0.86 -2.35,1.85 -5.22,1.85 -4.19,0 -6.39,-2.99 -7.24,-4.88 v 17.44 l -7.17,-0.55 v -1.54 c 3.48,0 3.89,-0.35 3.89,-2.8 z"
           inkscape:connector-curvature="0"
           style="fill:#000000;stroke-width:0" /><path
           id="path5040"
           d="m 732.34,350.22 v -0.1 l -0.01,-0.1 v -0.19 l -0.01,-0.18 -0.01,-0.16 -0.02,-0.16 -0.03,-0.14 -0.03,-0.14 -0.03,-0.12 -0.04,-0.11 -0.05,-0.11 -0.06,-0.09 -0.06,-0.09 -0.08,-0.07 -0.08,-0.07 -0.09,-0.07 -0.1,-0.05 -0.1,-0.05 -0.12,-0.04 -0.13,-0.04 -0.14,-0.03 -0.16,-0.03 -0.16,-0.02 -0.18,-0.02 -0.09,-0.01 -0.1,-0.01 h -0.1 l -0.1,-0.01 h -0.1 L 730.05,348 h -0.12 -0.11 l -0.12,-0.01 h -0.13 -0.13 -0.13 -0.13 -0.14 -0.14 -0.15 -0.15 -0.15 v -1.55 c 1.65,0.05 3.98,0.16 5.43,0.16 1.49,0 3.49,-0.06 5.49,-0.16 v 1.55 c -3.35,0 -3.89,0 -3.89,2.23 v 5.14 l 3.18,2.74 c 3.83,-5.28 5.93,-8.06 5.93,-8.97 0,-0.94 -0.85,-1.14 -1.79,-1.14 v -1.55 c 1.4,0.05 4.33,0.16 5.38,0.16 1.44,0 2.89,-0.06 4.33,-0.16 v 1.55 c -1.85,0 -2.94,0 -4.83,2.64 l -6.33,8.92 c -0.05,0.09 -0.3,0.39 -0.3,0.55 0,0.19 3.54,3.19 4.04,3.58 3.14,2.54 5.23,2.64 6.28,2.68 v 1.55 c -1.44,-0.14 -2.1,-0.14 -3.49,-0.14 -1.79,0 -4.89,0.09 -5.58,0.14 v -1.55 c 0.94,-0.04 1.44,-0.59 1.44,-1.23 0,-1 -0.69,-1.59 -1.09,-1.95 l -7.03,-6.08 v 23.92 l -7.17,-0.55 v -1.54 c 3.48,0 3.89,-0.35 3.89,-2.8 z"
           inkscape:connector-curvature="0"
           style="fill:#000000;stroke-width:0" /><path
           id="path5042"
           d="m 757.42,357.96 0.05,1.04 c 0.3,7.43 4.48,8.66 6.19,8.66 5.12,0 5.62,-6.72 5.62,-8.66 h -11.81 l -0.05,-1.04 h 13.91 c 1.09,0 1.23,0 1.23,1.04 0,4.93 -2.68,9.75 -8.9,9.75 -5.78,0 -10.38,-5.12 -10.38,-11.36 0,-6.67 5.24,-11.5 10.97,-11.5 6.08,0 8.31,5.54 8.31,6.47 0,0.5 -0.39,0.61 -0.64,0.61 -0.45,0 -0.54,-0.29 -0.65,-0.7 -1.74,-5.13 -6.22,-5.13 -6.72,-5.13 -2.5,0 -4.49,1.49 -5.63,3.33 -1.5,2.39 -1.5,5.69 -1.5,7.49 z"
           inkscape:connector-curvature="0"
           style="fill:#000000;stroke-width:0" /><path
           id="path5044"
           d="m 782.28,362.99 v 5.47 l -6.92,-0.55 v -1.55 c 3.48,0 3.89,-0.34 3.89,-2.78 v -13.36 c 0,-2.23 -0.55,-2.23 -3.89,-2.23 v -1.55 c 1.95,0.05 4.28,0.16 5.69,0.16 1.98,0 4.33,0 6.33,-0.16 v 1.55 h -1.05 c -3.69,0 -3.8,0.55 -3.8,2.34 V 358 c 0,4.93 2.09,9.36 5.89,9.36 0.35,0 0.44,0 0.55,-0.04 -0.16,-0.05 -1.16,-0.64 -1.16,-1.94 0,-1.41 1.05,-2.14 2.16,-2.14 0.89,0 2.14,0.59 2.14,2.19 0,1.59 -1.55,3.03 -3.69,3.03 -3.64,0 -5.44,-3.33 -6.14,-5.47 z"
           inkscape:connector-curvature="0"
           style="fill:#000000;stroke-width:0" /><path
           id="path5046"
           d="m 799.01,363.58 v -13.36 c 0,-2.23 -0.54,-2.23 -3.89,-2.23 v -1.55 c 1.75,0.05 4.28,0.16 5.63,0.16 1.29,0 3.89,-0.11 5.57,-0.16 v 1.55 c -3.32,0 -3.87,0 -3.87,2.23 v 9.17 c 0,5.19 3.53,7.97 6.72,7.97 3.14,0 3.68,-2.68 3.68,-5.53 v -11.61 c 0,-2.23 -0.54,-2.23 -3.88,-2.23 v -1.55 c 1.75,0.05 4.29,0.16 5.63,0.16 1.3,0 3.88,-0.11 5.58,-0.16 v 1.55 c -2.59,0 -3.84,0 -3.89,1.5 V 359 c 0,4.29 0,5.83 -1.54,7.61 -0.69,0.86 -2.35,1.85 -5.22,1.85 -3.64,0 -5.99,-2.14 -7.38,-5.22 v 5.22 l -7.03,-0.55 v -1.55 c 3.48,0 3.89,-0.34 3.89,-2.78 z"
           inkscape:connector-curvature="0"
           style="fill:#000000;stroke-width:0" /><path
           id="path5048"
           d="m 826.78,357.96 0.04,1.04 c 0.3,7.43 4.49,8.66 6.19,8.66 5.13,0 5.63,-6.72 5.63,-8.66 h -11.82 l -0.04,-1.04 h 13.9 c 1.1,0 1.24,0 1.24,1.04 0,4.93 -2.69,9.75 -8.91,9.75 -5.78,0 -10.37,-5.12 -10.37,-11.36 0,-6.67 5.23,-11.5 10.96,-11.5 6.08,0 8.32,5.54 8.32,6.47 0,0.5 -0.39,0.61 -0.64,0.61 -0.46,0 -0.55,-0.29 -0.66,-0.7 -1.73,-5.13 -6.22,-5.13 -6.72,-5.13 -2.5,0 -4.48,1.49 -5.62,3.33 -1.5,2.39 -1.5,5.69 -1.5,7.49 z"
           inkscape:connector-curvature="0"
           style="fill:#000000;stroke-width:0" /><path
           id="path5050"
           d="m 852.14,381.02 -7.17,-0.55 v -1.54 c 3.48,0 3.88,-0.35 3.88,-2.8 v -25.91 c 0,-2.23 -0.54,-2.23 -3.88,-2.23 v -1.55 c 1.63,0.05 4.28,0.16 5.53,0.16 1.25,0 3.68,-0.11 5.53,-0.16 v 1.55 c -3.35,0 -3.89,0 -3.89,2.23 z"
           inkscape:connector-curvature="0"
           style="fill:#000000;stroke-width:0" /><path
           id="path5052"
           d="m 882.43,366.36 h 7.12 v 1.55 h -7.12 v 9.17 h -1.25 c -0.05,-4.08 -1.55,-9.42 -6.42,-9.61 v -1.11 h 4.23 v -13.75 c 0,-6.12 4.63,-6.72 6.42,-6.72 3.54,0 4.94,3.54 4.94,6.72 v 2.85 h -1.25 v -2.74 c 0,-3.68 -1.5,-5.58 -3.34,-5.58 -3.33,0 -3.33,4.54 -3.33,5.38 z"
           inkscape:connector-curvature="0"
           style="fill:#000000;stroke-width:0" /><path
           id="path5054"
           d="m 901.43,362.99 v 5.47 l -6.92,-0.55 v -1.55 c 3.49,0 3.89,-0.34 3.89,-2.78 v -13.36 c 0,-2.23 -0.55,-2.23 -3.89,-2.23 v -1.55 c 1.96,0.05 4.28,0.16 5.69,0.16 1.98,0 4.33,0 6.33,-0.16 v 1.55 h -1.05 c -3.69,0 -3.8,0.55 -3.8,2.34 V 358 c 0,4.93 2.1,9.36 5.89,9.36 0.35,0 0.44,0 0.55,-0.04 -0.15,-0.05 -1.15,-0.64 -1.15,-1.94 0,-1.41 1.04,-2.14 2.15,-2.14 0.89,0 2.14,0.59 2.14,2.19 0,1.59 -1.54,3.03 -3.69,3.03 -3.64,0 -5.43,-3.33 -6.14,-5.47 z"
           inkscape:connector-curvature="0"
           style="fill:#000000;stroke-width:0" /><path
           id="path5056"
           d="m 921.49,368.46 -6.97,-0.55 v -1.55 c 3.24,0 3.69,-0.29 3.69,-2.73 v -13.41 c 0,-2.23 -0.55,-2.23 -3.89,-2.23 v -1.55 c 1.59,0.05 4.28,0.16 5.48,0.16 1.75,0 3.49,-0.11 5.19,-0.16 v 1.55 c -3.29,0 -3.5,0.25 -3.5,2.19 z"
           inkscape:connector-curvature="0"
           style="fill:#000000;stroke-width:0" /><path
           id="path5058"
           d="m 921.7,377.13 -0.01,0.15 -0.01,0.14 -0.02,0.14 -0.02,0.14 -0.03,0.13 -0.04,0.13 -0.04,0.13 -0.05,0.12 -0.06,0.12 -0.06,0.12 -0.06,0.11 -0.07,0.11 -0.08,0.1 -0.08,0.1 -0.08,0.09 -0.09,0.09 -0.1,0.08 -0.09,0.08 -0.1,0.08 -0.11,0.06 -0.11,0.07 -0.11,0.06 -0.11,0.05 -0.12,0.05 -0.11,0.04 -0.13,0.04 -0.12,0.04 -0.12,0.02 -0.13,0.02 -0.13,0.02 -0.13,0.01 h -0.13 c -1.54,0 -2.64,-1.34 -2.64,-2.64 0,-1.34 1.1,-2.64 2.64,-2.64 1.4,0 2.65,1.05 2.65,2.64 z"
           inkscape:connector-curvature="0"
           style="fill:#000000;stroke-width:0" /><path
           id="path5060"
           d="m 932.3,357.3 0.01,0.38 0.01,0.37 0.01,0.35 0.02,0.35 0.03,0.35 0.03,0.33 0.03,0.33 0.05,0.31 0.04,0.31 0.05,0.3 0.06,0.3 0.06,0.28 0.13,0.55 0.16,0.52 0.16,0.48 0.18,0.46 0.2,0.43 0.21,0.4 0.22,0.38 0.23,0.35 0.24,0.33 0.25,0.3 0.26,0.27 0.26,0.26 0.27,0.23 0.28,0.21 0.28,0.19 0.28,0.17 0.28,0.15 0.28,0.13 0.29,0.11 0.28,0.09 0.28,0.08 0.27,0.06 0.27,0.05 0.27,0.03 0.26,0.02 0.25,0.01 c 0.44,0 3.58,-0.05 5.33,-1.84 -2.05,-0.16 -2.35,-1.64 -2.35,-2.3 0,-1.3 0.89,-2.3 2.3,-2.3 1.28,0 2.28,0.86 2.28,2.35 0,3.39 -3.78,5.32 -7.62,5.32 -6.22,0 -10.82,-5.37 -10.82,-11.54 0,-6.38 4.94,-11.32 10.72,-11.32 6.67,0 8.27,5.99 8.27,6.47 0,0.5 -0.5,0.5 -0.64,0.5 -0.46,0 -0.55,-0.18 -0.66,-0.5 -1.44,-4.62 -4.67,-5.22 -6.51,-5.22 -2.64,0 -7.04,2.15 -7.04,10.16 z"
           inkscape:connector-curvature="0"
           style="fill:#000000;stroke-width:0" /><path
           id="path5062"
           d="m 952.4,350.22 -0.01,-0.1 v -0.1 -0.19 l -0.01,-0.18 -0.02,-0.16 -0.01,-0.16 -0.03,-0.14 -0.03,-0.14 -0.03,-0.12 -0.04,-0.11 -0.05,-0.11 -0.06,-0.09 -0.06,-0.09 -0.08,-0.07 -0.08,-0.07 -0.09,-0.07 -0.1,-0.05 -0.11,-0.05 -0.11,-0.04 -0.13,-0.04 -0.15,-0.03 -0.15,-0.03 -0.16,-0.02 -0.18,-0.02 -0.09,-0.01 -0.1,-0.01 h -0.1 l -0.1,-0.01 h -0.11 L 950.1,348 h -0.11 -0.11 l -0.12,-0.01 h -0.13 -0.13 -0.13 -0.13 -0.14 -0.14 -0.15 -0.15 -0.16 v -1.55 c 1.66,0.05 3.99,0.16 5.44,0.16 1.49,0 3.49,-0.06 5.49,-0.16 v 1.55 c -3.35,0 -3.9,0 -3.9,2.23 v 5.14 l 3.19,2.74 c 3.83,-5.28 5.93,-8.06 5.93,-8.97 0,-0.94 -0.85,-1.14 -1.79,-1.14 v -1.55 c 1.39,0.05 4.33,0.16 5.38,0.16 1.44,0 2.89,-0.06 4.33,-0.16 v 1.55 c -1.85,0 -2.94,0 -4.83,2.64 l -6.33,8.92 c -0.05,0.09 -0.3,0.39 -0.3,0.55 0,0.19 3.54,3.19 4.04,3.58 3.13,2.54 5.23,2.64 6.28,2.68 v 1.55 c -1.44,-0.14 -2.1,-0.14 -3.49,-0.14 -1.79,0 -4.89,0.09 -5.58,0.14 v -1.55 c 0.94,-0.04 1.44,-0.59 1.44,-1.23 0,-1 -0.69,-1.59 -1.09,-1.95 l -7.03,-6.08 v 23.92 l -7.18,-0.55 v -1.54 c 3.49,0 3.9,-0.35 3.9,-2.8 z"
           inkscape:connector-curvature="0"
           style="fill:#000000;stroke-width:0" /><path
           id="path5064"
           d="m 985.09,358.85 0.02,0.58 0.04,0.56 0.07,0.55 0.09,0.54 0.11,0.51 0.13,0.5 0.16,0.49 0.17,0.47 0.19,0.46 0.2,0.44 0.22,0.42 0.23,0.41 0.24,0.4 0.25,0.38 0.26,0.36 0.26,0.35 0.27,0.34 0.28,0.32 0.27,0.31 0.28,0.29 0.27,0.28 0.28,0.26 0.27,0.25 0.26,0.24 0.26,0.22 0.25,0.21 0.24,0.19 0.23,0.18 0.22,0.17 0.2,0.16 0.19,0.14 0.17,0.13 c 1.35,1 2.39,2.79 2.39,4.87 0,2.89 -1.98,6.74 -9.4,6.74 -5.39,0 -8.47,-3.39 -8.47,-6.63 0,-1.7 1.14,-2.39 2.28,-2.39 1.41,0 2.3,1 2.3,2.28 0,2.25 -2.1,2.25 -2.8,2.25 1.55,2.64 4.44,3.39 6.53,3.39 5.44,0 5.44,-3.39 5.44,-5.33 0,-2.95 -0.8,-3.84 -1.71,-4.73 -3.28,-3.59 -4.37,-8.17 -4.37,-11.22 v -2.23 c 0,-0.91 0,-1.21 0.59,-1.21 0.64,0 0.64,0.46 0.64,1.35 z"
           inkscape:connector-curvature="0"
           style="fill:#000000;stroke-width:0" /><path
           id="path5066"
           d="m 987.09,349.08 v 0.14 l -0.01,0.13 -0.02,0.13 -0.02,0.13 -0.03,0.13 -0.04,0.12 -0.04,0.12 -0.05,0.12 -0.05,0.12 -0.06,0.11 -0.06,0.11 -0.07,0.11 -0.08,0.1 -0.08,0.1 -0.08,0.1 -0.09,0.09 -0.09,0.09 -0.1,0.08 -0.1,0.08 -0.1,0.08 -0.11,0.07 -0.11,0.06 -0.11,0.06 -0.12,0.05 -0.12,0.05 -0.12,0.04 -0.12,0.04 -0.13,0.03 -0.13,0.02 -0.13,0.02 -0.13,0.01 h -0.14 c -1.45,0 -2.64,-1.2 -2.64,-2.64 0,-1.44 1.19,-2.64 2.64,-2.64 1.44,0 2.64,1.2 2.64,2.64 z"
           inkscape:connector-curvature="0"
           style="fill:#000000;stroke-width:0" /><path
           id="path5068"
           d="m 1011.3,358.89 v 0.38 0.38 0.39 0.41 l -0.1,0.84 v 0.88 l -0.1,0.92 -0.1,0.95 -0.2,0.98 -0.1,1 -0.2,1.02 -0.2,1.04 -0.3,1.05 -0.3,1.06 -0.4,1.06 -0.4,1.07 -0.2,0.53 -0.2,0.53 -0.2,0.53 -0.3,0.53 c -3,6.13 -7.2,9.36 -7.8,9.36 -0.24,0 -0.45,-0.19 -0.45,-0.48 0,-0.16 0,-0.25 0.95,-1.16 4.9,-4.92 7.7,-12.84 7.7,-23.27 0,-8.51 -1.8,-17.28 -8,-23.56 -0.65,-0.59 -0.65,-0.7 -0.65,-0.84 0,-0.3 0.21,-0.5 0.45,-0.5 0.6,0 5,3.39 8,9.72 2.5,5.47 3.1,11 3.1,15.18 z"
           inkscape:connector-curvature="0"
           style="fill:#000000;stroke-width:0" /></g>    </g>
  </g>
</svg>
