<?xml version="1.0" encoding="UTF-8" standalone="no"?>
<!-- Created with Inkscape (http://www.inkscape.org/) -->

<svg
   xmlns:dc="http://purl.org/dc/elements/1.1/"
   xmlns:cc="http://creativecommons.org/ns#"
   xmlns:rdf="http://www.w3.org/1999/02/22-rdf-syntax-ns#"
   xmlns:svg="http://www.w3.org/2000/svg"
   xmlns="http://www.w3.org/2000/svg"
   xmlns:sodipodi="http://sodipodi.sourceforge.net/DTD/sodipodi-0.dtd"
   xmlns:inkscape="http://www.inkscape.org/namespaces/inkscape"
   sodipodi:docname="which_hyperplane_SVM.svg"
   inkscape:version="0.92.3 (2405546, 2018-03-11)"
   id="svg8"
   version="1.1"
   viewBox="0 0 159.98735 146.17016"
   height="146.17017mm"
   width="159.98735mm">
  <sodipodi:namedview
     fit-margin-bottom="0"
     fit-margin-right="0"
     fit-margin-left="0"
     fit-margin-top="0"
     inkscape:window-maximized="0"
     inkscape:window-y="242"
     inkscape:window-x="1411"
     inkscape:window-height="1468"
     inkscape:window-width="2225"
     showguides="false"
     showgrid="false"
     inkscape:current-layer="layer1"
     inkscape:document-units="mm"
     inkscape:cy="263.90461"
     inkscape:cx="270.81748"
     inkscape:zoom="1.979899"
     inkscape:pageshadow="2"
     inkscape:pageopacity="0.0"
     borderopacity="1.0"
     bordercolor="#666666"
     pagecolor="#ffffff"
     id="base" />
  <defs
     id="defs2" />
  <metadata
     id="metadata5">
    <rdf:RDF>
      <cc:Work
         rdf:about="">
        <dc:format>image/svg+xml</dc:format>
        <dc:type
           rdf:resource="http://purl.org/dc/dcmitype/StillImage" />
        <dc:title></dc:title>
      </cc:Work>
    </rdf:RDF>
  </metadata>
  <g
     transform="translate(2.0039461,-76.75162)"
     inkscape:label="Layer 1"
     inkscape:groupmode="layer"
     id="layer1">
    <g
       id="g2061">
      <ellipse
         ry="2.1381562"
         rx="2.271791"
         cy="139.84552"
         cx="39.288624"
         id="path10"
         style="fill:#ff0000;stroke-width:0.26458332" />
      <ellipse
         ry="2.1381562"
         rx="2.271791"
         cy="136.23738"
         cx="57.462948"
         id="path10-3"
         style="fill:#ff0000;stroke-width:0.26458332" />
      <ellipse
         ry="2.1381562"
         rx="2.271791"
         cy="134.50012"
         cx="68.688271"
         id="path10-6"
         style="fill:#ff0000;stroke-width:0.26458332" />
      <ellipse
         ry="2.1381562"
         rx="2.271791"
         cy="134.7674"
         cx="68.821907"
         id="path10-7"
         style="fill:#ff0000;stroke-width:0.26458332" />
      <ellipse
         ry="2.1381562"
         rx="2.271791"
         cy="145.05728"
         cx="53.72118"
         id="path10-5"
         style="fill:#ff0000;stroke-width:0.26458332" />
      <ellipse
         ry="2.1381562"
         rx="2.271791"
         cy="151.87265"
         cx="62.674702"
         id="path10-35"
         style="fill:#ff0000;stroke-width:0.26458332" />
      <ellipse
         ry="2.1381562"
         rx="2.271791"
         cy="124.21025"
         cx="65.347397"
         id="path10-62"
         style="fill:#ff0000;stroke-width:0.26458332" />
      <ellipse
         ry="2.1381562"
         rx="2.271791"
         cy="145.99271"
         cx="72.563683"
         id="path10-9"
         style="fill:#ff0000;stroke-width:0.26458332" />
      <ellipse
         ry="2.1381562"
         rx="2.271791"
         cy="129.28838"
         cx="46.103992"
         id="path10-1"
         style="fill:#ff0000;stroke-width:0.26458332" />
      <ellipse
         ry="2.1381562"
         rx="2.271791"
         cy="159.22255"
         cx="49.578495"
         id="path10-2"
         style="fill:#ff0000;stroke-width:0.26458332" />
      <ellipse
         ry="2.1381562"
         rx="2.271791"
         cy="156.54987"
         cx="37.150467"
         id="path10-70"
         style="fill:#ff0000;stroke-width:0.26458332" />
      <ellipse
         ry="2.1381562"
         rx="2.271791"
         cy="168.04245"
         cx="89.401657"
         id="path10-93"
         style="fill:#0000ff;stroke-width:0.26458332" />
      <ellipse
         ry="2.1381562"
         rx="2.271791"
         cy="175.12509"
         cx="88.733482"
         id="path10-93-6"
         style="fill:#0000ff;stroke-width:0.26458332" />
      <ellipse
         ry="2.1381562"
         rx="2.271791"
         cy="177.12962"
         cx="94.747047"
         id="path10-93-0"
         style="fill:#0000ff;stroke-width:0.26458332" />
      <ellipse
         ry="2.1381562"
         rx="2.271791"
         cy="167.64156"
         cx="104.76965"
         id="path10-93-62"
         style="fill:#0000ff;stroke-width:0.26458332" />
      <ellipse
         ry="2.1381562"
         rx="2.271791"
         cy="158.95529"
         cx="107.04145"
         id="path10-93-61"
         style="fill:#0000ff;stroke-width:0.26458332" />
      <ellipse
         ry="2.1381562"
         rx="2.271791"
         cy="166.70612"
         cx="97.553375"
         id="path10-93-8"
         style="fill:#0000ff;stroke-width:0.26458332" />
      <ellipse
         ry="2.1381562"
         rx="2.271791"
         cy="155.21352"
         cx="99.290634"
         id="path10-93-7"
         style="fill:#0000ff;stroke-width:0.26458332" />
      <ellipse
         ry="2.1381562"
         rx="2.271791"
         cy="146.39362"
         cx="120.53856"
         id="path10-93-9"
         style="fill:#0000ff;stroke-width:0.26458332" />
      <ellipse
         ry="2.1381562"
         rx="2.271791"
         cy="142.51822"
         cx="115.19317"
         id="path10-93-2"
         style="fill:#0000ff;stroke-width:0.26458332" />
      <ellipse
         ry="2.1381562"
         rx="2.271791"
         cy="145.99272"
         cx="106.90781"
         id="path10-93-02"
         style="fill:#0000ff;stroke-width:0.26458332" />
      <ellipse
         ry="2.1381562"
         rx="2.271791"
         cy="154.81261"
         cx="116.12861"
         id="path10-93-3"
         style="fill:#0000ff;stroke-width:0.26458332" />
      <path
         inkscape:connector-curvature="0"
         id="path339"
         d="M 5.6127638,91.700886 5.7461908,219.89306"
         style="fill:none;stroke:#000000;stroke-width:0.30993277px;stroke-linecap:butt;stroke-linejoin:miter;stroke-opacity:1" />
      <path
         inkscape:connector-curvature="0"
         id="path341"
         d="M 0.66732907,215.08147 157.0217,214.81502"
         style="fill:none;stroke:#000000;stroke-width:0.29872999px;stroke-linecap:butt;stroke-linejoin:miter;stroke-opacity:1" />
      <g
         transform="matrix(0.5,0,0,0.5,109.1659,171.36078)"
         id="g654">
        <g
           style="font-style:normal;font-variant:normal;font-weight:normal;font-stretch:normal;letter-spacing:normal;word-spacing:normal;text-anchor:start;fill:none;fill-opacity:1;fill-rule:evenodd;stroke:#000000;stroke-linecap:butt;stroke-linejoin:miter;stroke-miterlimit:10.43299961;stroke-dasharray:none;stroke-dashoffset:0;stroke-opacity:1"
           word-spacing="normal"
           letter-spacing="normal"
           font-size-adjust="none"
           font-stretch="normal"
           font-weight="normal"
           font-variant="normal"
           font-style="normal"
           stroke-miterlimit="10.433"
           xml:space="preserve"
           transform="matrix(0.3,0,0,-0.3,-52.5,222.75)"
           id="content"><path
             style="fill:#000000;stroke-width:0"
             inkscape:connector-curvature="0"
             id="path649"
             d="m 472.16,421.25 0.03,0.13 0.04,0.15 0.04,0.16 0.04,0.18 0.06,0.19 0.06,0.21 0.06,0.22 0.07,0.22 0.08,0.23 0.09,0.24 0.1,0.25 0.1,0.24 0.11,0.25 0.12,0.25 0.13,0.25 0.14,0.25 0.15,0.24 0.15,0.24 0.17,0.23 0.18,0.22 0.18,0.22 0.2,0.2 0.21,0.19 0.22,0.18 0.23,0.16 0.25,0.14 0.12,0.07 0.13,0.06 0.14,0.05 0.13,0.05 0.14,0.05 0.14,0.04 0.15,0.03 0.15,0.03 0.15,0.02 0.16,0.02 0.16,0.01 h 0.16 c 0.25,0 1.44,0 2.48,-0.64 -1.39,-0.25 -2.39,-1.5 -2.39,-2.69 0,-0.79 0.55,-1.75 1.89,-1.75 1.1,0 2.69,0.89 2.69,2.89 0,2.6 -2.94,3.28 -4.63,3.28 -2.89,0 -4.64,-2.64 -5.23,-3.78 -1.25,3.28 -3.94,3.78 -5.37,3.78 -5.19,0 -8.04,-6.42 -8.04,-7.67 0,-0.5 0.5,-0.5 0.61,-0.5 0.39,0 0.55,0.11 0.64,0.55 1.69,5.28 4.99,6.53 6.68,6.53 0.95,0 2.68,-0.44 2.68,-3.33 0,-1.54 -0.84,-4.89 -2.68,-11.86 -0.8,-3.09 -2.54,-5.18 -4.74,-5.18 -0.3,0 -1.44,0 -2.48,0.65 1.25,0.24 2.34,1.28 2.34,2.69 0,1.34 -1.09,1.73 -1.84,1.73 -1.5,0 -2.75,-1.29 -2.75,-2.89 0,-2.28 2.5,-3.28 4.68,-3.28 3.3,0 5.08,3.49 5.24,3.78 0.59,-1.84 2.39,-3.78 5.37,-3.78 5.14,0 7.99,6.42 7.99,7.67 0,0.5 -0.45,0.5 -0.61,0.5 -0.44,0 -0.55,-0.2 -0.64,-0.54 -1.64,-5.33 -5.03,-6.53 -6.63,-6.53 -1.95,0 -2.75,1.59 -2.75,3.29 0,1.1 0.3,2.19 0.86,4.38 z" /><path
             style="fill:#000000;stroke-width:0"
             inkscape:connector-curvature="0"
             id="path651"
             d="m 495.63,420.92 v 0.04 0.04 0.05 0.04 0.03 0.04 0.04 0.03 0.04 0.03 l -0.01,0.03 v 0.03 0.03 l -0.01,0.03 v 0.03 0.02 l -0.01,0.03 v 0.02 l -0.01,0.03 v 0.02 l -0.01,0.04 -0.02,0.04 -0.02,0.03 -0.02,0.03 -0.02,0.03 -0.02,0.03 -0.03,0.02 -0.03,0.02 -0.03,0.02 -0.04,0.01 -0.04,0.01 -0.05,0.02 h -0.02 -0.02 l -0.03,0.01 h -0.03 l -0.02,0.01 h -0.03 -0.03 -0.03 -0.03 l -0.04,0.01 h -0.03 -0.04 -0.03 -0.04 -0.04 -0.04 -0.04 -0.04 -0.05 -0.04 c -2.24,-2.2 -5.39,-2.23 -6.83,-2.23 v -1.25 c 0.84,0 3.14,0 5.04,0.97 v -17.77 c 0,-1.16 0,-1.61 -3.48,-1.61 h -1.31 v -1.25 c 0.62,0.03 4.9,0.14 6.2,0.14 1.08,0 5.47,-0.11 6.24,-0.14 v 1.25 h -1.33 c -3.49,0 -3.49,0.45 -3.49,1.61 z" /></g>      </g>
      <g
         transform="matrix(0.5,0,0,0.5,-44.297946,45.075933)"
         id="g764">
        <g
           style="font-style:normal;font-variant:normal;font-weight:normal;font-stretch:normal;letter-spacing:normal;word-spacing:normal;text-anchor:start;fill:none;fill-opacity:1;fill-rule:evenodd;stroke:#000000;stroke-linecap:butt;stroke-linejoin:miter;stroke-miterlimit:10.43299961;stroke-dasharray:none;stroke-dashoffset:0;stroke-opacity:1"
           id="g762"
           transform="matrix(0.3,0,0,-0.3,-52.5,222.75)"
           xml:space="preserve"
           stroke-miterlimit="10.433"
           font-style="normal"
           font-variant="normal"
           font-weight="normal"
           font-stretch="normal"
           font-size-adjust="none"
           letter-spacing="normal"
           word-spacing="normal"><path
             style="fill:#000000;stroke-width:0"
             inkscape:connector-curvature="0"
             d="m 472.16,421.25 0.03,0.13 0.04,0.15 0.04,0.16 0.04,0.18 0.06,0.19 0.06,0.21 0.06,0.22 0.07,0.22 0.08,0.23 0.09,0.24 0.1,0.25 0.1,0.24 0.11,0.25 0.12,0.25 0.13,0.25 0.14,0.25 0.15,0.24 0.15,0.24 0.17,0.23 0.18,0.22 0.18,0.22 0.2,0.2 0.21,0.19 0.22,0.18 0.23,0.16 0.25,0.14 0.12,0.07 0.13,0.06 0.14,0.05 0.13,0.05 0.14,0.05 0.14,0.04 0.15,0.03 0.15,0.03 0.15,0.02 0.16,0.02 0.16,0.01 h 0.16 c 0.25,0 1.44,0 2.48,-0.64 -1.39,-0.25 -2.39,-1.5 -2.39,-2.69 0,-0.79 0.55,-1.75 1.89,-1.75 1.1,0 2.69,0.89 2.69,2.89 0,2.6 -2.94,3.28 -4.63,3.28 -2.89,0 -4.64,-2.64 -5.23,-3.78 -1.25,3.28 -3.94,3.78 -5.37,3.78 -5.19,0 -8.04,-6.42 -8.04,-7.67 0,-0.5 0.5,-0.5 0.61,-0.5 0.39,0 0.55,0.11 0.64,0.55 1.69,5.28 4.99,6.53 6.68,6.53 0.95,0 2.68,-0.44 2.68,-3.33 0,-1.54 -0.84,-4.89 -2.68,-11.86 -0.8,-3.09 -2.54,-5.18 -4.74,-5.18 -0.3,0 -1.44,0 -2.48,0.65 1.25,0.24 2.34,1.28 2.34,2.69 0,1.34 -1.09,1.73 -1.84,1.73 -1.5,0 -2.75,-1.29 -2.75,-2.89 0,-2.28 2.5,-3.28 4.68,-3.28 3.3,0 5.08,3.49 5.24,3.78 0.59,-1.84 2.39,-3.78 5.37,-3.78 5.14,0 7.99,6.42 7.99,7.67 0,0.5 -0.45,0.5 -0.61,0.5 -0.44,0 -0.55,-0.2 -0.64,-0.54 -1.64,-5.33 -5.03,-6.53 -6.63,-6.53 -1.95,0 -2.75,1.59 -2.75,3.29 0,1.1 0.3,2.19 0.86,4.38 z"
             id="path758" /><path
             style="fill:#000000;stroke-width:0"
             inkscape:connector-curvature="0"
             d="m 501.55,405.11 h -1.18 c -0.1,-0.77 -0.46,-2.83 -0.91,-3.18 -0.26,-0.2 -2.95,-0.2 -3.44,-0.2 h -6.42 c 3.66,3.23 4.88,4.2 6.97,5.84 2.58,2.07 4.98,4.22 4.98,7.54 0,4.21 -3.68,6.79 -8.15,6.79 -4.31,0 -7.25,-3.03 -7.25,-6.23 0,-1.78 1.5,-1.96 1.86,-1.96 0.83,0 1.84,0.6 1.84,1.85 0,0.62 -0.25,1.84 -2.06,1.84 1.08,2.47 3.45,3.24 5.09,3.24 3.49,0 5.3,-2.71 5.3,-5.53 0,-3.04 -2.16,-5.44 -3.28,-6.69 l -8.39,-8.3 c -0.36,-0.31 -0.36,-0.39 -0.36,-1.36 h 14.36 z"
             id="path760" /></g>      </g>
      <path
         inkscape:connector-curvature="0"
         id="path938"
         d="M 53.320846,208.22196 95.01489,101.98233"
         style="fill:none;stroke:#000000;stroke-width:1;stroke-linecap:butt;stroke-linejoin:miter;stroke-opacity:1;stroke-miterlimit:4;stroke-dasharray:3,3;stroke-dashoffset:0" />
      <path
         inkscape:connector-curvature="0"
         id="path940"
         d="m 40.091002,196.59574 90.069828,-74.9691"
         style="fill:none;stroke:#000000;stroke-width:1;stroke-linecap:butt;stroke-linejoin:miter;stroke-opacity:1;stroke-miterlimit:4;stroke-dasharray:3,3;stroke-dashoffset:0" />
      <path
         inkscape:connector-curvature="0"
         id="path942"
         d="M 99.692107,107.19408 73.499693,212.49827"
         style="fill:none;stroke:#000000;stroke-width:1;stroke-linecap:butt;stroke-linejoin:miter;stroke-opacity:1;stroke-miterlimit:4;stroke-dasharray:3,3;stroke-dashoffset:0" />
      <g
         transform="translate(-29.399648,51.850288)"
         id="g1796">
        <g
           style="font-style:normal;font-variant:normal;font-weight:normal;font-stretch:normal;letter-spacing:normal;word-spacing:normal;text-anchor:start;fill:none;fill-opacity:1;fill-rule:evenodd;stroke:#000000;stroke-linecap:butt;stroke-linejoin:miter;stroke-miterlimit:10.43299961;stroke-dasharray:none;stroke-dashoffset:0;stroke-opacity:1"
           id="g1794"
           transform="matrix(0.20881453,0,0,-0.20881453,-36.542543,119.99051)"
           xml:space="preserve"
           stroke-miterlimit="10.433"
           font-style="normal"
           font-variant="normal"
           font-weight="normal"
           font-stretch="normal"
           font-size-adjust="none"
           letter-spacing="normal"
           word-spacing="normal"><path
             style="fill:#000000;stroke-width:0"
             inkscape:connector-curvature="0"
             d="m 426.16,435.34 0.09,0.26 0.09,0.25 0.11,0.23 0.1,0.22 0.12,0.21 0.12,0.19 0.13,0.19 0.13,0.17 0.14,0.16 0.14,0.16 0.14,0.14 0.15,0.13 0.16,0.12 0.16,0.11 0.16,0.1 0.17,0.1 0.16,0.08 0.18,0.08 0.17,0.07 0.17,0.07 0.18,0.05 0.18,0.05 0.18,0.04 0.19,0.04 0.18,0.03 0.18,0.03 0.19,0.02 0.18,0.02 0.37,0.02 h 0.36 v 1.55 c -1.48,-0.11 -3.03,-0.16 -4.53,-0.16 -1.43,0 -4.62,0.11 -5.92,0.16 v -1.55 c 3.33,-0.04 4.33,-1.68 4.33,-2.64 0,-0.29 -0.14,-0.7 -0.25,-1 l -7.47,-23.01 -7.97,24.4 c -0.06,0.21 -0.15,0.5 -0.15,0.75 0,1.5 2.89,1.5 4.18,1.5 v 1.55 c -1.79,-0.16 -5.18,-0.16 -7.07,-0.16 -1.9,0 -4.04,0.11 -6.08,0.16 v -1.55 c 2.84,0 3.89,0 4.48,-1.79 l 1.1,-3.49 -6.93,-21.37 -8.01,24.51 c -0.05,0.14 -0.11,0.5 -0.11,0.64 0,1.5 2.89,1.5 4.19,1.5 v 1.55 c -1.8,-0.16 -5.18,-0.16 -7.08,-0.16 -1.89,0 -4.03,0.11 -6.08,0.16 v -1.55 c 3.75,0 3.94,-0.25 4.55,-2.09 l 9.95,-30.55 c 0.16,-0.43 0.3,-0.93 0.95,-0.93 0.69,0 0.8,0.34 1,1 l 8.22,25.29 8.27,-25.36 c 0.15,-0.43 0.29,-0.93 0.95,-0.93 0.69,0 0.8,0.34 0.98,1 z"
             id="path1696" /><path
             style="fill:#000000;stroke-width:0"
             inkscape:connector-curvature="0"
             d="m 437.6,409.98 v -0.1 -0.1 -0.19 l -0.01,-0.18 -0.02,-0.17 -0.02,-0.15 -0.02,-0.15 -0.03,-0.13 -0.04,-0.12 -0.04,-0.11 -0.05,-0.11 -0.05,-0.09 -0.07,-0.09 -0.07,-0.08 -0.08,-0.07 -0.09,-0.06 -0.1,-0.05 -0.11,-0.05 -0.12,-0.05 -0.13,-0.03 -0.14,-0.04 -0.15,-0.02 -0.16,-0.03 -0.18,-0.01 -0.09,-0.01 -0.1,-0.01 -0.1,-0.01 h -0.1 l -0.11,-0.01 h -0.11 -0.11 l -0.12,-0.01 h -0.12 -0.12 -0.13 -0.13 -0.14 -0.13 -0.15 -0.14 -0.15 -0.16 v -1.55 c 1.75,0.05 4.28,0.16 5.63,0.16 1.29,0 3.89,-0.11 5.57,-0.16 v 1.55 c -3.32,0 -3.87,0 -3.87,2.23 v 9.17 c 0,5.19 3.53,7.97 6.72,7.97 3.14,0 3.69,-2.69 3.69,-5.53 v -11.61 c 0,-2.23 -0.55,-2.23 -3.9,-2.23 v -1.55 c 1.75,0.05 4.3,0.16 5.65,0.16 1.29,0 3.87,-0.11 5.57,-0.16 v 1.55 c -2.59,0 -3.84,0 -3.89,1.5 v 9.51 c 0,4.28 0,5.83 -1.54,7.61 -0.69,0.86 -2.35,1.84 -5.22,1.84 -4.19,0 -6.39,-2.98 -7.24,-4.87 v 17.44 l -7.17,-0.55 v -1.55 c 3.49,0 3.89,-0.34 3.89,-2.79 z"
             id="path1698" /><path
             style="fill:#000000;stroke-width:0"
             inkscape:connector-curvature="0"
             d="m 468.65,428.21 -6.97,-0.54 v -1.55 c 3.23,0 3.69,-0.3 3.69,-2.73 v -13.41 c 0,-2.23 -0.55,-2.23 -3.89,-2.23 v -1.55 c 1.59,0.05 4.28,0.16 5.48,0.16 1.75,0 3.49,-0.11 5.19,-0.16 v 1.55 c -3.3,0 -3.5,0.25 -3.5,2.18 z"
             id="path1700" /><path
             style="fill:#000000;stroke-width:0"
             inkscape:connector-curvature="0"
             d="m 468.85,436.89 v 0.14 l -0.01,0.15 -0.02,0.14 -0.02,0.14 -0.04,0.13 -0.03,0.13 -0.05,0.13 -0.05,0.12 -0.05,0.12 -0.06,0.12 -0.07,0.11 -0.07,0.1 -0.07,0.1 -0.08,0.1 -0.09,0.1 -0.09,0.08 -0.09,0.09 -0.1,0.08 -0.1,0.07 -0.1,0.07 -0.11,0.07 -0.11,0.06 -0.11,0.05 -0.12,0.05 -0.12,0.04 -0.12,0.04 -0.12,0.03 -0.13,0.03 -0.12,0.02 -0.13,0.01 -0.13,0.01 -0.13,0.01 c -1.55,0 -2.64,-1.35 -2.64,-2.64 0,-1.35 1.09,-2.64 2.64,-2.64 1.39,0 2.64,1.04 2.64,2.64 z"
             id="path1702" /><path
             style="fill:#000000;stroke-width:0"
             inkscape:connector-curvature="0"
             d="m 479.46,417.06 v 0.38 l 0.01,0.36 0.02,0.36 0.02,0.35 0.02,0.34 0.03,0.34 0.04,0.32 0.04,0.32 0.05,0.31 0.05,0.3 0.06,0.29 0.06,0.29 0.13,0.55 0.15,0.51 0.17,0.49 0.18,0.46 0.2,0.43 0.21,0.4 0.22,0.38 0.23,0.35 0.24,0.32 0.25,0.3 0.26,0.28 0.26,0.26 0.27,0.23 0.27,0.21 0.28,0.19 0.28,0.16 0.29,0.15 0.28,0.13 0.28,0.12 0.28,0.09 0.28,0.08 0.28,0.06 0.27,0.05 0.26,0.03 0.26,0.02 0.26,0.01 c 0.43,0 3.57,-0.05 5.32,-1.85 -2.04,-0.15 -2.34,-1.64 -2.34,-2.29 0,-1.3 0.89,-2.3 2.3,-2.3 1.28,0 2.28,0.86 2.28,2.34 0,3.39 -3.78,5.33 -7.63,5.33 -6.22,0 -10.81,-5.37 -10.81,-11.55 0,-6.37 4.94,-11.31 10.72,-11.31 6.67,0 8.26,5.99 8.26,6.47 0,0.5 -0.5,0.5 -0.64,0.5 -0.45,0 -0.54,-0.19 -0.65,-0.5 -1.44,-4.62 -4.67,-5.22 -6.52,-5.22 -2.64,0 -7.03,2.14 -7.03,10.16 z"
             id="path1704" /><path
             style="fill:#000000;stroke-width:0"
             inkscape:connector-curvature="0"
             d="m 499.76,409.98 v -0.1 -0.1 l -0.01,-0.19 -0.01,-0.18 -0.01,-0.17 -0.02,-0.15 -0.02,-0.15 -0.03,-0.13 -0.04,-0.12 -0.04,-0.11 -0.05,-0.11 -0.06,-0.09 -0.06,-0.09 -0.07,-0.08 -0.08,-0.07 -0.09,-0.06 -0.1,-0.05 -0.11,-0.05 -0.12,-0.05 -0.13,-0.03 -0.14,-0.04 -0.15,-0.02 -0.17,-0.03 -0.18,-0.01 -0.09,-0.01 -0.09,-0.01 -0.1,-0.01 h -0.11 l -0.1,-0.01 h -0.11 -0.12 l -0.11,-0.01 h -0.12 -0.13 -0.12 -0.13 -0.14 -0.14 -0.14 -0.15 -0.15 -0.15 v -1.55 c 1.75,0.05 4.28,0.16 5.62,0.16 1.3,0 3.89,-0.11 5.58,-0.16 v 1.55 c -3.33,0 -3.87,0 -3.87,2.23 v 9.17 c 0,5.19 3.53,7.97 6.71,7.97 3.14,0 3.69,-2.69 3.69,-5.53 v -11.61 c 0,-2.23 -0.55,-2.23 -3.89,-2.23 v -1.55 c 1.75,0.05 4.3,0.16 5.64,0.16 1.3,0 3.88,-0.11 5.58,-0.16 v 1.55 c -2.59,0 -3.84,0 -3.89,1.5 v 9.51 c 0,4.28 0,5.83 -1.55,7.61 -0.69,0.86 -2.34,1.84 -5.22,1.84 -4.18,0 -6.39,-2.98 -7.23,-4.87 v 17.44 l -7.17,-0.55 v -1.55 c 3.48,0 3.89,-0.34 3.89,-2.79 z"
             id="path1706" /><path
             style="fill:#000000;stroke-width:0"
             inkscape:connector-curvature="0"
             d="m 544.03,409.98 v -0.1 -0.1 -0.19 l -0.01,-0.18 -0.02,-0.17 -0.01,-0.15 -0.03,-0.15 -0.03,-0.13 -0.03,-0.12 -0.04,-0.11 -0.05,-0.11 -0.06,-0.09 -0.06,-0.09 -0.08,-0.08 -0.08,-0.07 -0.09,-0.06 -0.1,-0.05 -0.11,-0.05 -0.11,-0.05 -0.13,-0.03 -0.15,-0.04 -0.15,-0.02 -0.16,-0.03 -0.18,-0.01 -0.09,-0.01 -0.1,-0.01 -0.1,-0.01 h -0.1 l -0.11,-0.01 h -0.1 -0.12 l -0.11,-0.01 h -0.12 -0.13 -0.13 -0.13 -0.13 -0.14 -0.14 -0.15 -0.15 -0.15 v -1.55 c 1.75,0.05 4.28,0.16 5.62,0.16 1.3,0 3.89,-0.11 5.58,-0.16 v 1.55 c -3.33,0 -3.88,0 -3.88,2.23 v 9.17 c 0,5.19 3.53,7.97 6.72,7.97 3.14,0 3.69,-2.69 3.69,-5.53 v -11.61 c 0,-2.23 -0.55,-2.23 -3.89,-2.23 v -1.55 c 1.75,0.05 4.29,0.16 5.64,0.16 1.3,0 3.87,-0.11 5.58,-0.16 v 1.55 c -2.6,0 -3.85,0 -3.89,1.5 v 9.51 c 0,4.28 0,5.83 -1.55,7.61 -0.69,0.86 -2.34,1.84 -5.22,1.84 -4.19,0 -6.39,-2.98 -7.23,-4.87 v 17.44 l -7.17,-0.55 v -1.55 c 3.48,0 3.88,-0.34 3.88,-2.79 z"
             id="path1708" /><path
             style="fill:#000000;stroke-width:0"
             inkscape:connector-curvature="0"
             d="m 585.5,422.93 0.06,0.15 0.07,0.14 0.06,0.14 0.07,0.13 0.07,0.12 0.07,0.13 0.07,0.12 0.07,0.11 0.15,0.22 0.15,0.2 0.16,0.19 0.16,0.18 0.16,0.16 0.17,0.14 0.17,0.14 0.17,0.12 0.17,0.11 0.17,0.1 0.17,0.09 0.17,0.09 0.17,0.07 0.16,0.06 0.16,0.05 0.16,0.05 0.16,0.04 0.15,0.03 0.15,0.03 0.14,0.02 0.14,0.02 0.13,0.02 0.12,0.01 h 0.12 l 0.1,0.01 h 0.1 0.09 0.08 v 1.55 c -1.16,-0.1 -2.59,-0.14 -3.73,-0.14 -0.91,0 -3.25,0.09 -4.35,0.14 v -1.55 c 1.55,-0.05 2.35,-0.89 2.35,-2.14 0,-0.5 -0.05,-0.59 -0.3,-1.19 l -5.03,-12.26 -5.53,13.4 c -0.21,0.5 -0.3,0.71 -0.3,0.91 0,1.28 1.84,1.28 2.78,1.28 v 1.55 c -1.28,-0.05 -4.58,-0.14 -5.42,-0.14 -1.34,0 -3.34,0.04 -4.83,0.14 v -1.55 c 2.39,0 3.33,0 4.03,-1.73 l 7.47,-18.19 c -0.25,-0.64 -0.94,-2.3 -1.25,-2.94 -1.09,-2.73 -2.48,-6.19 -5.67,-6.19 -0.25,0 -1.39,0 -2.34,0.91 1.54,0.2 1.93,1.3 1.93,2.09 0,1.3 -0.93,2.1 -2.07,2.1 -1,0 -2.1,-0.66 -2.1,-2.14 0,-2.25 2.1,-4.05 4.58,-4.05 3.14,0 5.19,2.84 6.37,5.69 z"
             id="path1710" /><path
             style="fill:#000000;stroke-width:0"
             inkscape:connector-curvature="0"
             d="m 599.67,424.93 v 3.28 l -7.17,-0.54 v -1.55 c 3.54,0 3.89,-0.3 3.89,-2.48 v -23.32 c 0,-2.25 -0.55,-2.25 -3.89,-2.25 v -1.54 c 1.7,0.06 4.28,0.15 5.57,0.15 1.35,0 3.9,-0.09 5.65,-0.15 v 1.54 c -3.35,0 -3.9,0 -3.9,2.25 v 8.36 0.46 l 0.71,0.65 c -0.71,1.05 -0.71,1.1 -0.71,2.08 v 0 11.13 c 1.44,2.53 3.9,3.98 6.43,3.98 3.64,0 6.68,-4.39 6.68,-10.02 0,-6.03 -3.5,-10.21 -7.18,-10.21 -1.99,0 -3.88,1 -5.22,3.04 l -0.71,-0.65 c 0.25,-0.8 2.35,-3.49 6.13,-3.49 5.94,0 11.11,4.88 11.11,11.31 0,6.33 -4.83,11.25 -10.41,11.25 -3.89,0 -5.98,-2.18 -6.98,-3.28 z"
             id="path1712" /><path
             style="fill:#000000;stroke-width:0"
             inkscape:connector-curvature="0"
             d="m 625.8,417.71 0.04,1.05 c 0.3,7.42 4.49,8.66 6.19,8.66 5.13,0 5.63,-6.72 5.63,-8.66 h -11.82 l -0.04,-1.05 h 13.9 c 1.1,0 1.24,0 1.24,1.05 0,4.92 -2.69,9.75 -8.91,9.75 -5.78,0 -10.37,-5.12 -10.37,-11.36 0,-6.67 5.23,-11.5 10.96,-11.5 6.08,0 8.32,5.53 8.32,6.47 0,0.5 -0.39,0.61 -0.64,0.61 -0.46,0 -0.55,-0.3 -0.66,-0.7 -1.73,-5.13 -6.22,-5.13 -6.72,-5.13 -2.5,0 -4.48,1.49 -5.62,3.33 -1.5,2.39 -1.5,5.69 -1.5,7.48 z"
             id="path1714" /><path
             style="fill:#000000;stroke-width:0"
             inkscape:connector-curvature="0"
             d="m 650.66,422.75 v 5.46 l -6.93,-0.54 v -1.55 c 3.49,0 3.89,-0.34 3.89,-2.78 v -13.36 c 0,-2.23 -0.54,-2.23 -3.89,-2.23 v -1.55 c 1.96,0.05 4.29,0.16 5.69,0.16 1.99,0 4.33,0 6.33,-0.16 v 1.55 h -1.05 c -3.68,0 -3.79,0.54 -3.79,2.34 v 7.67 c 0,4.92 2.09,9.36 5.89,9.36 0.34,0 0.43,0 0.54,-0.05 -0.15,-0.04 -1.15,-0.64 -1.15,-1.93 0,-1.41 1.04,-2.14 2.15,-2.14 0.89,0 2.14,0.59 2.14,2.18 0,1.6 -1.54,3.03 -3.68,3.03 -3.64,0 -5.44,-3.32 -6.14,-5.46 z"
             id="path1716" /><path
             style="fill:#000000;stroke-width:0"
             inkscape:connector-curvature="0"
             d="m 670.47,424.93 v 3.28 l -7.18,-0.54 v -1.55 c 3.55,0 3.89,-0.3 3.89,-2.48 v -23.32 c 0,-2.25 -0.54,-2.25 -3.89,-2.25 v -1.54 c 1.71,0.06 4.28,0.15 5.58,0.15 1.35,0 3.89,-0.09 5.64,-0.15 v 1.54 c -3.34,0 -3.89,0 -3.89,2.25 v 8.36 0.46 l 0.7,0.65 c -0.7,1.05 -0.7,1.1 -0.7,2.08 v 0 11.13 c 1.44,2.53 3.89,3.98 6.42,3.98 3.64,0 6.69,-4.39 6.69,-10.02 0,-6.03 -3.5,-10.21 -7.19,-10.21 -1.98,0 -3.87,1 -5.22,3.04 l -0.7,-0.65 c 0.25,-0.8 2.35,-3.49 6.13,-3.49 5.93,0 11.1,4.88 11.1,11.31 0,6.33 -4.82,11.25 -10.4,11.25 -3.89,0 -5.98,-2.18 -6.98,-3.28 z"
             id="path1718" /><path
             style="fill:#000000;stroke-width:0"
             inkscape:connector-curvature="0"
             d="m 698.43,440.78 -7.17,-0.55 v -1.55 c 3.49,0 3.89,-0.34 3.89,-2.79 v -25.91 c 0,-2.23 -0.55,-2.23 -3.89,-2.23 v -1.55 c 1.64,0.05 4.28,0.16 5.53,0.16 1.25,0 3.69,-0.11 5.53,-0.16 v 1.55 c -3.34,0 -3.89,0 -3.89,2.23 z"
             id="path1720" /><path
             style="fill:#000000;stroke-width:0"
             inkscape:connector-curvature="0"
             d="m 720.01,409.98 0.02,-0.19 0.03,-0.18 0.04,-0.19 0.04,-0.18 0.05,-0.19 0.06,-0.18 0.06,-0.18 0.07,-0.18 0.07,-0.18 0.08,-0.17 0.09,-0.18 0.09,-0.16 0.1,-0.16 0.11,-0.16 0.11,-0.16 0.12,-0.14 0.13,-0.14 0.13,-0.14 0.14,-0.13 0.15,-0.12 0.15,-0.12 0.15,-0.1 0.17,-0.1 0.16,-0.09 0.18,-0.08 0.18,-0.07 0.19,-0.06 0.19,-0.05 0.2,-0.04 0.2,-0.03 0.22,-0.02 0.21,-0.01 c 1.03,0 4.08,0.71 4.08,4.74 v 2.78 h -1.25 v -2.78 c 0,-2.89 -1.23,-3.19 -1.8,-3.19 -1.64,0 -1.84,2.23 -1.84,2.48 v 9.97 c 0,2.1 0,4.03 -1.78,5.88 -1.96,1.93 -4.44,2.73 -6.83,2.73 -4.09,0 -7.53,-2.33 -7.53,-5.62 0,-1.49 1,-2.35 2.3,-2.35 1.39,0 2.29,1 2.29,2.3 0,0.59 -0.25,2.23 -2.54,2.3 1.34,1.73 3.78,2.28 5.37,2.28 2.45,0 5.28,-1.94 5.28,-6.38 v -1.84 -1.05 -4.98 c 0,-4.74 -3.58,-6.42 -5.83,-6.42 -2.43,0 -4.48,1.75 -4.48,4.23 0,2.73 2.09,6.88 10.31,7.17 v 0 1.05 c -2.53,-0.14 -6.01,-0.3 -9.15,-1.8 -3.74,-1.69 -4.99,-4.28 -4.99,-6.47 0,-4.03 4.83,-5.28 7.97,-5.28 3.3,0 5.58,1.99 6.53,4.33 z"
             id="path1722" /><path
             style="fill:#000000;stroke-width:0"
             inkscape:connector-curvature="0"
             d="m 733.86,423.34 v -13.36 c 0,-2.23 -0.55,-2.23 -3.89,-2.23 v -1.55 c 1.75,0.05 4.28,0.16 5.62,0.16 1.3,0 3.89,-0.11 5.58,-0.16 v 1.55 c -3.33,0 -3.87,0 -3.87,2.23 v 9.17 c 0,5.19 3.53,7.97 6.72,7.97 3.14,0 3.68,-2.69 3.68,-5.53 v -11.61 c 0,-2.23 -0.54,-2.23 -3.89,-2.23 v -1.55 c 1.75,0.05 4.3,0.16 5.64,0.16 1.3,0 3.88,-0.11 5.58,-0.16 v 1.55 c -2.59,0 -3.84,0 -3.89,1.5 v 9.51 c 0,4.28 0,5.83 -1.55,7.61 -0.68,0.86 -2.34,1.84 -5.21,1.84 -3.65,0 -5.99,-2.14 -7.38,-5.21 v 5.21 l -7.03,-0.54 v -1.55 c 3.48,0 3.89,-0.34 3.89,-2.78 z"
             id="path1724" /><path
             style="fill:#000000;stroke-width:0"
             inkscape:connector-curvature="0"
             d="m 761.62,417.71 0.05,1.05 c 0.3,7.42 4.49,8.66 6.19,8.66 5.12,0 5.62,-6.72 5.62,-8.66 h -11.81 l -0.05,-1.05 h 13.91 c 1.09,0 1.24,0 1.24,1.05 0,4.92 -2.69,9.75 -8.91,9.75 -5.78,0 -10.38,-5.12 -10.38,-11.36 0,-6.67 5.24,-11.5 10.97,-11.5 6.08,0 8.32,5.53 8.32,6.47 0,0.5 -0.39,0.61 -0.65,0.61 -0.45,0 -0.54,-0.3 -0.65,-0.7 -1.74,-5.13 -6.22,-5.13 -6.72,-5.13 -2.5,0 -4.48,1.49 -5.63,3.33 -1.5,2.39 -1.5,5.69 -1.5,7.48 z"
             id="path1726" /><path
             style="fill:#000000;stroke-width:0"
             inkscape:connector-curvature="0"
             d="m 825.57,422.93 0.09,0.23 0.09,0.22 0.09,0.21 0.1,0.2 0.1,0.18 0.1,0.18 0.11,0.17 0.11,0.16 0.11,0.15 0.12,0.14 0.12,0.13 0.12,0.13 0.12,0.11 0.13,0.11 0.13,0.1 0.14,0.1 0.13,0.08 0.14,0.08 0.14,0.08 0.14,0.06 0.15,0.06 0.14,0.05 0.15,0.05 0.15,0.04 0.16,0.04 0.15,0.03 0.16,0.03 0.16,0.02 0.16,0.02 0.16,0.01 0.16,0.01 0.16,0.01 v 1.55 c -1.11,-0.1 -2.54,-0.14 -3.64,-0.14 -1.45,0 -3.69,0.09 -4.64,0.14 v -1.55 c 1.8,-0.05 2.89,-0.94 2.89,-2.39 0,-0.3 0,-0.39 -0.25,-1.05 l -4.53,-12.75 -4.94,13.91 c -0.18,0.59 -0.25,0.69 -0.25,0.94 0,1.34 1.95,1.34 2.95,1.34 v 1.55 c -1.45,-0.05 -3.98,-0.14 -5.18,-0.14 -1.5,0 -2.94,0.04 -4.44,0.14 v -1.55 c 1.84,0 2.64,-0.09 3.14,-0.73 0.25,-0.32 0.8,-1.8 1.14,-2.75 l -4.28,-12.05 -4.73,13.3 c -0.25,0.59 -0.25,0.7 -0.25,0.89 0,1.34 1.95,1.34 2.93,1.34 v 1.55 c -1.48,-0.05 -4.28,-0.14 -5.42,-0.14 -0.2,0 -2.84,0.04 -4.64,0.14 v -1.55 c 2.5,0 3.1,-0.14 3.69,-1.73 l 6.28,-17.64 c 0.25,-0.71 0.41,-1.1 1.05,-1.1 0.65,0 0.75,0.3 1,1 l 5.03,14.1 5.08,-14.14 c 0.2,-0.57 0.34,-0.96 1,-0.96 0.64,0 0.79,0.46 1,0.96 z"
             id="path1728" /><path
             style="fill:#000000;stroke-width:0"
             inkscape:connector-curvature="0"
             d="m 852.76,416.86 -0.01,0.59 -0.05,0.59 -0.07,0.58 -0.09,0.57 -0.13,0.56 -0.15,0.55 -0.17,0.54 -0.2,0.53 -0.22,0.51 -0.25,0.5 -0.27,0.49 -0.28,0.47 -0.31,0.46 -0.33,0.44 -0.35,0.43 -0.36,0.4 -0.39,0.39 -0.4,0.37 -0.42,0.35 -0.43,0.32 -0.45,0.31 -0.46,0.28 -0.47,0.26 -0.49,0.24 -0.5,0.21 -0.51,0.18 -0.52,0.16 -0.53,0.13 -0.54,0.11 -0.55,0.07 -0.55,0.05 -0.56,0.01 -0.05,-1.09 c 2.19,0 4.33,-1.1 5.62,-3.24 1.3,-2.14 1.3,-5.03 1.3,-6.92 0,-1.8 0,-4.48 -1.09,-6.67 -1.1,-2.25 -3.28,-3.69 -5.78,-3.69 v 0 c -2.15,0 -4.33,1.05 -5.68,3.33 -1.25,2.2 -1.25,5.23 -1.25,7.03 0,1.94 0,4.63 1.19,6.83 1.36,2.28 3.69,3.33 5.69,3.33 l 0.05,1.09 c -6.22,0 -11.07,-5.42 -11.07,-11.65 0,-6.43 5.19,-11.21 11.02,-11.21 6.03,0 11.06,4.88 11.06,11.21 z"
             id="path1730" /><path
             style="fill:#000000;stroke-width:0"
             inkscape:connector-curvature="0"
             d="m 873.73,410.14 v -4.49 l 7.18,0.55 v 1.55 c -3.49,0 -3.89,0.34 -3.89,2.78 v 17.68 l -7.33,-0.54 v -1.55 c 3.5,0 3.89,-0.34 3.89,-2.78 v -8.88 c 0,-4.32 -2.39,-7.71 -6.03,-7.71 -4.17,0 -4.38,2.34 -4.38,4.93 v 16.53 l -7.33,-0.54 v -1.55 c 3.89,0 3.89,-0.14 3.89,-4.58 v -7.47 c 0,-3.89 0,-8.42 7.57,-8.42 2.79,0 4.98,1.39 6.43,4.49 z"
             id="path1732" /><path
             style="fill:#000000;stroke-width:0"
             inkscape:connector-curvature="0"
             d="m 890.78,440.78 -7.17,-0.55 v -1.55 c 3.48,0 3.89,-0.34 3.89,-2.79 v -25.91 c 0,-2.23 -0.55,-2.23 -3.89,-2.23 v -1.55 c 1.64,0.05 4.28,0.16 5.53,0.16 1.25,0 3.69,-0.11 5.53,-0.16 v 1.55 c -3.34,0 -3.89,0 -3.89,2.23 z"
             id="path1734" /><path
             style="fill:#000000;stroke-width:0"
             inkscape:connector-curvature="0"
             d="m 914.7,408.93 v -3.28 l 7.32,0.55 v 1.55 c -3.49,0 -3.88,0.34 -3.88,2.78 v 30.25 l -7.17,-0.55 v -1.55 c 3.48,0 3.87,-0.34 3.87,-2.79 v -10.75 c -1.43,1.78 -3.57,3.07 -6.28,3.07 l 0.21,-1.09 c 1.75,0 3.84,-0.75 5.39,-2.98 0.54,-0.85 0.54,-0.96 0.54,-1.85 v 0 -10.22 c 0,-0.89 0,-1 -0.54,-1.84 -1.5,-2.39 -3.75,-3.48 -5.89,-3.48 -2.24,0 -4.04,1.29 -5.22,3.18 -1.3,2.05 -1.46,4.89 -1.46,6.93 0,1.84 0.1,4.84 1.55,7.07 1.05,1.55 2.94,3.19 5.63,3.19 l -0.21,1.09 c -5.87,0 -11.11,-4.87 -11.11,-11.29 0,-6.33 4.89,-11.27 10.57,-11.27 3.18,0 5.43,1.69 6.68,3.28 z"
             id="path1736" /><path
             style="fill:#000000;stroke-width:0"
             inkscape:connector-curvature="0"
             d="m 960.59,422.93 0.07,0.15 0.06,0.14 0.06,0.14 0.07,0.13 0.07,0.12 0.07,0.13 0.07,0.12 0.07,0.11 0.15,0.22 0.16,0.2 0.15,0.19 0.16,0.18 0.17,0.16 0.16,0.14 0.17,0.14 0.17,0.12 0.17,0.11 0.17,0.1 0.17,0.09 0.17,0.09 0.17,0.07 0.17,0.06 0.16,0.05 0.16,0.05 0.15,0.04 0.16,0.03 0.14,0.03 0.15,0.02 0.13,0.02 0.13,0.02 0.12,0.01 h 0.12 l 0.11,0.01 h 0.09 0.09 0.08 v 1.55 c -1.15,-0.1 -2.59,-0.14 -3.73,-0.14 -0.91,0 -3.25,0.09 -4.34,0.14 v -1.55 c 1.54,-0.05 2.34,-0.89 2.34,-2.14 0,-0.5 -0.05,-0.59 -0.3,-1.19 l -5.03,-12.26 -5.53,13.4 c -0.2,0.5 -0.3,0.71 -0.3,0.91 0,1.28 1.85,1.28 2.78,1.28 v 1.55 c -1.28,-0.05 -4.57,-0.14 -5.42,-0.14 -1.34,0 -3.34,0.04 -4.82,0.14 v -1.55 c 2.39,0 3.32,0 4.03,-1.73 l 7.47,-18.19 c -0.26,-0.64 -0.94,-2.3 -1.26,-2.94 -1.09,-2.73 -2.48,-6.19 -5.67,-6.19 -0.25,0 -1.39,0 -2.34,0.91 1.55,0.2 1.94,1.3 1.94,2.09 0,1.3 -0.94,2.1 -2.08,2.1 -1,0 -2.09,-0.66 -2.09,-2.14 0,-2.25 2.09,-4.05 4.57,-4.05 3.14,0 5.19,2.84 6.38,5.69 z"
             id="path1738" /><path
             style="fill:#000000;stroke-width:0"
             inkscape:connector-curvature="0"
             d="m 988.23,416.86 -0.01,0.59 -0.05,0.59 -0.07,0.58 -0.1,0.57 -0.12,0.56 -0.15,0.55 -0.17,0.54 -0.2,0.53 -0.23,0.51 -0.24,0.5 -0.27,0.49 -0.29,0.47 -0.3,0.46 -0.33,0.44 -0.35,0.43 -0.37,0.4 -0.38,0.39 -0.4,0.37 -0.42,0.35 -0.43,0.32 -0.45,0.31 -0.46,0.28 -0.47,0.26 -0.49,0.24 -0.5,0.21 -0.51,0.18 -0.52,0.16 -0.53,0.13 -0.54,0.11 -0.55,0.07 -0.55,0.05 -0.56,0.01 -0.05,-1.09 c 2.18,0 4.33,-1.1 5.62,-3.24 1.3,-2.14 1.3,-5.03 1.3,-6.92 0,-1.8 0,-4.48 -1.09,-6.67 -1.1,-2.25 -3.28,-3.69 -5.78,-3.69 v 0 c -2.15,0 -4.33,1.05 -5.68,3.33 -1.25,2.2 -1.25,5.23 -1.25,7.03 0,1.94 0,4.63 1.19,6.83 1.36,2.28 3.69,3.33 5.69,3.33 l 0.05,1.09 c -6.22,0 -11.07,-5.42 -11.07,-11.65 0,-6.43 5.19,-11.21 11.02,-11.21 6.03,0 11.06,4.88 11.06,11.21 z"
             id="path1740" /><path
             style="fill:#000000;stroke-width:0"
             inkscape:connector-curvature="0"
             d="m 1009.2,410.14 v -4.49 l 7.2,0.55 v 1.55 c -3.5,0 -3.9,0.34 -3.9,2.78 v 17.68 l -7.3,-0.54 v -1.55 c 3.5,0 3.8,-0.34 3.8,-2.78 v -8.88 c 0,-4.32 -2.3,-7.71 -6,-7.71 -4.16,0 -4.36,2.34 -4.36,4.93 v 16.53 l -7.33,-0.54 v -1.55 c 3.89,0 3.89,-0.14 3.89,-4.58 v -7.47 c 0,-3.89 0,-8.42 7.6,-8.42 2.8,0 5,1.39 6.4,4.49 z"
             id="path1742" /><path
             style="fill:#000000;stroke-width:0"
             inkscape:connector-curvature="0"
             d="m 386.71,357.3 v 0.38 l 0.01,0.37 0.01,0.35 0.02,0.35 0.03,0.35 0.03,0.33 0.04,0.33 0.04,0.31 0.04,0.31 0.06,0.3 0.05,0.3 0.06,0.28 0.14,0.55 0.15,0.52 0.17,0.48 0.18,0.46 0.19,0.43 0.21,0.4 0.22,0.38 0.23,0.35 0.24,0.33 0.25,0.3 0.26,0.27 0.27,0.26 0.27,0.23 0.27,0.21 0.28,0.19 0.28,0.17 0.28,0.15 0.29,0.13 0.28,0.11 0.28,0.09 0.28,0.08 0.27,0.06 0.27,0.05 0.27,0.03 0.26,0.02 0.25,0.01 c 0.44,0 3.58,-0.05 5.33,-1.84 -2.05,-0.16 -2.34,-1.64 -2.34,-2.3 0,-1.3 0.89,-2.3 2.29,-2.3 1.28,0 2.28,0.86 2.28,2.35 0,3.39 -3.78,5.32 -7.62,5.32 -6.22,0 -10.81,-5.37 -10.81,-11.54 0,-6.38 4.93,-11.32 10.72,-11.32 6.67,0 8.26,5.99 8.26,6.47 0,0.5 -0.5,0.5 -0.64,0.5 -0.45,0 -0.55,-0.18 -0.66,-0.5 -1.43,-4.62 -4.67,-5.22 -6.51,-5.22 -2.64,0 -7.03,2.15 -7.03,10.16 z"
             id="path1744" /><path
             style="fill:#000000;stroke-width:0"
             inkscape:connector-curvature="0"
             d="m 407,350.22 v -0.1 -0.1 -0.19 l -0.01,-0.18 -0.02,-0.16 -0.01,-0.16 -0.03,-0.14 -0.03,-0.14 -0.03,-0.12 -0.05,-0.11 -0.04,-0.11 -0.06,-0.09 -0.07,-0.09 -0.07,-0.07 -0.08,-0.07 -0.09,-0.07 -0.1,-0.05 -0.11,-0.05 -0.12,-0.04 -0.13,-0.04 -0.14,-0.03 -0.15,-0.03 -0.16,-0.02 -0.18,-0.02 -0.09,-0.01 -0.1,-0.01 h -0.1 l -0.1,-0.01 h -0.11 L 404.71,348 h -0.11 -0.12 l -0.12,-0.01 h -0.12 -0.13 -0.13 -0.13 -0.14 -0.14 -0.15 -0.15 -0.16 v -1.55 c 1.75,0.05 4.28,0.16 5.63,0.16 1.3,0 3.89,-0.11 5.58,-0.16 v 1.55 c -3.33,0 -3.88,0 -3.88,2.23 v 9.17 c 0,5.19 3.53,7.97 6.72,7.97 3.14,0 3.69,-2.68 3.69,-5.53 v -11.61 c 0,-2.23 -0.55,-2.23 -3.89,-2.23 v -1.55 c 1.75,0.05 4.29,0.16 5.64,0.16 1.29,0 3.87,-0.11 5.58,-0.16 v 1.55 c -2.6,0 -3.85,0 -3.89,1.5 V 359 c 0,4.29 0,5.83 -1.55,7.61 -0.69,0.86 -2.35,1.85 -5.22,1.85 -4.19,0 -6.39,-2.99 -7.23,-4.88 v 17.44 l -7.18,-0.55 v -1.54 c 3.49,0 3.89,-0.35 3.89,-2.8 z"
             id="path1746" /><path
             style="fill:#000000;stroke-width:0"
             inkscape:connector-curvature="0"
             d="m 452.71,357.1 -0.02,0.59 -0.04,0.59 -0.07,0.58 -0.1,0.57 -0.12,0.56 -0.15,0.55 -0.18,0.54 -0.2,0.53 -0.22,0.51 -0.24,0.51 -0.27,0.48 -0.29,0.48 -0.31,0.46 -0.33,0.44 -0.34,0.42 -0.37,0.41 -0.38,0.38 -0.4,0.37 -0.42,0.35 -0.43,0.33 -0.45,0.3 -0.46,0.28 -0.48,0.26 -0.48,0.24 -0.5,0.21 -0.51,0.18 -0.52,0.16 -0.53,0.13 -0.54,0.11 -0.55,0.07 -0.56,0.05 -0.56,0.01 -0.05,-1.09 c 2.19,0 4.33,-1.09 5.63,-3.23 1.3,-2.14 1.3,-5.04 1.3,-6.93 0,-1.79 0,-4.48 -1.1,-6.67 -1.09,-2.25 -3.28,-3.69 -5.78,-3.69 v 0 c -2.14,0 -4.33,1.05 -5.67,3.33 -1.25,2.21 -1.25,5.24 -1.25,7.03 0,1.94 0,4.63 1.19,6.83 1.36,2.28 3.68,3.33 5.68,3.33 l 0.05,1.09 c -6.22,0 -11.06,-5.42 -11.06,-11.65 0,-6.42 5.19,-11.21 11.01,-11.21 6.04,0 11.07,4.88 11.07,11.21 z"
             id="path1748" /><path
             style="fill:#000000;stroke-width:0"
             inkscape:connector-curvature="0"
             d="m 479.1,357.1 -0.01,0.59 -0.05,0.59 -0.07,0.58 -0.09,0.57 -0.13,0.56 -0.15,0.55 -0.17,0.54 -0.2,0.53 -0.22,0.51 -0.25,0.51 -0.27,0.48 -0.28,0.48 -0.31,0.46 -0.33,0.44 -0.35,0.42 -0.36,0.41 -0.39,0.38 -0.4,0.37 -0.42,0.35 -0.43,0.33 -0.45,0.3 -0.46,0.28 -0.47,0.26 -0.49,0.24 -0.5,0.21 -0.51,0.18 -0.52,0.16 -0.53,0.13 -0.54,0.11 -0.55,0.07 -0.55,0.05 -0.56,0.01 -0.05,-1.09 c 2.19,0 4.33,-1.09 5.62,-3.23 1.3,-2.14 1.3,-5.04 1.3,-6.93 0,-1.79 0,-4.48 -1.09,-6.67 -1.1,-2.25 -3.28,-3.69 -5.78,-3.69 v 0 c -2.14,0 -4.33,1.05 -5.68,3.33 -1.25,2.21 -1.25,5.24 -1.25,7.03 0,1.94 0,4.63 1.19,6.83 1.36,2.28 3.69,3.33 5.69,3.33 l 0.05,1.09 c -6.22,0 -11.07,-5.42 -11.07,-11.65 0,-6.42 5.19,-11.21 11.02,-11.21 6.03,0 11.06,4.88 11.06,11.21 z"
             id="path1750" /><path
             style="fill:#000000;stroke-width:0"
             inkscape:connector-curvature="0"
             d="m 490.95,356.11 0.11,-0.02 0.13,-0.02 0.14,-0.03 0.16,-0.04 0.16,-0.03 0.18,-0.05 0.19,-0.05 0.2,-0.06 0.21,-0.06 0.21,-0.07 0.21,-0.08 0.22,-0.08 0.22,-0.1 0.22,-0.1 0.22,-0.11 0.22,-0.12 0.22,-0.13 0.21,-0.15 0.21,-0.15 0.19,-0.16 0.19,-0.18 0.18,-0.18 0.17,-0.2 0.16,-0.22 0.14,-0.22 0.07,-0.12 0.06,-0.12 0.06,-0.12 0.05,-0.13 0.05,-0.13 0.05,-0.14 0.04,-0.14 0.03,-0.14 0.04,-0.15 0.02,-0.15 0.02,-0.15 0.02,-0.16 v -0.16 l 0.01,-0.17 c 0,-2.53 -1.75,-4.53 -5.63,-4.53 -4.19,0 -5.98,2.84 -6.94,7.08 -0.14,0.64 -0.18,0.84 -0.68,0.84 -0.66,0 -0.66,-0.34 -0.66,-1.25 v -6.58 c 0,-0.84 0,-1.19 0.55,-1.19 0.25,0 0.29,0.05 1.25,1 0.09,0.1 0.09,0.19 1,1.15 2.18,-2.1 4.43,-2.15 5.48,-2.15 5.72,0 8.02,3.35 8.02,6.93 0,2.64 -1.5,4.14 -2.1,4.73 -1.64,1.59 -3.59,2 -5.68,2.39 -2.79,0.55 -6.13,1.2 -6.13,4.1 0,1.73 1.3,3.78 5.58,3.78 5.48,0 5.73,-4.49 5.83,-6.03 0.06,-0.46 0.5,-0.46 0.61,-0.46 0.64,0 0.64,0.25 0.64,1.21 v 5.03 c 0,0.84 0,1.18 -0.55,1.18 -0.25,0 -0.34,0 -1,-0.59 -0.14,-0.2 -0.64,-0.64 -0.84,-0.8 -1.89,1.39 -3.94,1.39 -4.69,1.39 -6.08,0 -7.97,-3.32 -7.97,-6.12 0,-1.74 0.8,-3.14 2.14,-4.24 1.59,-1.29 3,-1.59 6.58,-2.28 z"
             id="path1752" /><path
             style="fill:#000000;stroke-width:0"
             inkscape:connector-curvature="0"
             d="m 505.8,357.96 0.05,1.04 c 0.29,7.43 4.48,8.66 6.18,8.66 5.13,0 5.63,-6.72 5.63,-8.66 h -11.81 l -0.05,-1.04 h 13.91 c 1.09,0 1.23,0 1.23,1.04 0,4.93 -2.69,9.75 -8.91,9.75 -5.78,0 -10.37,-5.12 -10.37,-11.36 0,-6.67 5.23,-11.5 10.97,-11.5 6.08,0 8.31,5.54 8.31,6.47 0,0.5 -0.39,0.61 -0.64,0.61 -0.45,0 -0.55,-0.29 -0.65,-0.7 -1.74,-5.13 -6.22,-5.13 -6.72,-5.13 -2.5,0 -4.49,1.49 -5.63,3.33 -1.5,2.39 -1.5,5.69 -1.5,7.49 z"
             id="path1754" /><path
             style="fill:#000000;stroke-width:0"
             inkscape:connector-curvature="0"
             d="m 547.53,366.36 h 7.13 v 1.55 h -7.13 v 9.17 h -1.25 c -0.04,-4.08 -1.54,-9.42 -6.42,-9.61 v -1.11 h 4.24 v -13.75 c 0,-6.12 4.62,-6.72 6.42,-6.72 3.53,0 4.94,3.54 4.94,6.72 v 2.85 h -1.25 v -2.74 c 0,-3.68 -1.5,-5.58 -3.35,-5.58 -3.33,0 -3.33,4.54 -3.33,5.38 z"
             id="path1756" /><path
             style="fill:#000000;stroke-width:0"
             inkscape:connector-curvature="0"
             d="m 581.7,357.1 -0.02,0.59 -0.04,0.59 -0.07,0.58 -0.1,0.57 -0.13,0.56 -0.14,0.55 -0.18,0.54 -0.2,0.53 -0.22,0.51 -0.25,0.51 -0.26,0.48 -0.29,0.48 -0.31,0.46 -0.33,0.44 -0.34,0.42 -0.37,0.41 -0.38,0.38 -0.41,0.37 -0.41,0.35 -0.43,0.33 -0.45,0.3 -0.46,0.28 -0.48,0.26 -0.48,0.24 -0.5,0.21 -0.51,0.18 -0.52,0.16 -0.54,0.13 -0.53,0.11 -0.55,0.07 -0.56,0.05 -0.56,0.01 -0.05,-1.09 c 2.19,0 4.33,-1.09 5.63,-3.23 1.29,-2.14 1.29,-5.04 1.29,-6.93 0,-1.79 0,-4.48 -1.09,-6.67 -1.09,-2.25 -3.28,-3.69 -5.78,-3.69 v 0 c -2.14,0 -4.33,1.05 -5.67,3.33 -1.25,2.21 -1.25,5.24 -1.25,7.03 0,1.94 0,4.63 1.19,6.83 1.35,2.28 3.68,3.33 5.68,3.33 l 0.05,1.09 c -6.22,0 -11.06,-5.42 -11.06,-11.65 0,-6.42 5.18,-11.21 11.01,-11.21 6.03,0 11.07,4.88 11.07,11.21 z"
             id="path1758" /><path
             style="fill:#000000;stroke-width:0"
             inkscape:connector-curvature="0"
             d="m 610.1,356.11 0.11,-0.02 0.13,-0.02 0.14,-0.03 0.16,-0.04 0.17,-0.03 0.18,-0.05 0.19,-0.05 0.19,-0.06 0.21,-0.06 0.21,-0.07 0.21,-0.08 0.22,-0.08 0.22,-0.1 0.23,-0.1 0.22,-0.11 0.22,-0.12 0.21,-0.13 0.21,-0.15 0.21,-0.15 0.2,-0.16 0.19,-0.18 0.18,-0.18 0.17,-0.2 0.15,-0.22 0.15,-0.22 0.06,-0.12 0.06,-0.12 0.06,-0.12 0.06,-0.13 0.05,-0.13 0.04,-0.14 0.04,-0.14 0.04,-0.14 0.03,-0.15 0.02,-0.15 0.02,-0.15 0.02,-0.16 0.01,-0.16 v -0.17 c 0,-2.53 -1.75,-4.53 -5.63,-4.53 -4.18,0 -5.98,2.84 -6.93,7.08 -0.14,0.64 -0.19,0.84 -0.69,0.84 -0.66,0 -0.66,-0.34 -0.66,-1.25 v -6.58 c 0,-0.84 0,-1.19 0.55,-1.19 0.25,0 0.3,0.05 1.25,1 0.09,0.1 0.09,0.19 1,1.15 2.19,-2.1 4.44,-2.15 5.48,-2.15 5.72,0 8.02,3.35 8.02,6.93 0,2.64 -1.5,4.14 -2.09,4.73 -1.64,1.59 -3.6,2 -5.69,2.39 -2.78,0.55 -6.13,1.2 -6.13,4.1 0,1.73 1.3,3.78 5.58,3.78 5.49,0 5.74,-4.49 5.83,-6.03 0.06,-0.46 0.5,-0.46 0.61,-0.46 0.64,0 0.64,0.25 0.64,1.21 v 5.03 c 0,0.84 0,1.18 -0.55,1.18 -0.25,0 -0.34,0 -1,-0.59 -0.14,-0.2 -0.64,-0.64 -0.84,-0.8 -1.89,1.39 -3.94,1.39 -4.69,1.39 -6.08,0 -7.97,-3.32 -7.97,-6.12 0,-1.74 0.8,-3.14 2.14,-4.24 1.6,-1.29 3,-1.59 6.58,-2.28 z"
             id="path1760" /><path
             style="fill:#000000;stroke-width:0"
             inkscape:connector-curvature="0"
             d="M 624.95,357.96 625,359 c 0.3,7.43 4.48,8.66 6.19,8.66 5.12,0 5.62,-6.72 5.62,-8.66 H 625 l -0.05,-1.04 h 13.91 c 1.09,0 1.23,0 1.23,1.04 0,4.93 -2.68,9.75 -8.9,9.75 -5.78,0 -10.38,-5.12 -10.38,-11.36 0,-6.67 5.24,-11.5 10.97,-11.5 6.08,0 8.31,5.54 8.31,6.47 0,0.5 -0.39,0.61 -0.64,0.61 -0.45,0 -0.54,-0.29 -0.65,-0.7 -1.74,-5.13 -6.22,-5.13 -6.72,-5.13 -2.5,0 -4.49,1.49 -5.63,3.33 -1.5,2.39 -1.5,5.69 -1.5,7.49 z"
             id="path1762" /><path
             style="fill:#000000;stroke-width:0"
             inkscape:connector-curvature="0"
             d="m 650.06,365.18 v 3.28 l -7.17,-0.55 v -1.55 c 3.55,0 3.89,-0.29 3.89,-2.48 v -23.31 c 0,-2.25 -0.55,-2.25 -3.89,-2.25 v -1.55 c 1.7,0.06 4.28,0.16 5.58,0.16 1.34,0 3.89,-0.1 5.64,-0.16 v 1.55 c -3.34,0 -3.89,0 -3.89,2.25 v 8.36 0.45 l 0.7,0.66 c -0.7,1.04 -0.7,1.09 -0.7,2.07 v 0 11.13 c 1.44,2.53 3.89,3.98 6.42,3.98 3.64,0 6.69,-4.39 6.69,-10.01 0,-6.03 -3.5,-10.22 -7.19,-10.22 -1.98,0 -3.87,1 -5.22,3.05 l -0.7,-0.66 c 0.25,-0.8 2.34,-3.49 6.12,-3.49 5.94,0 11.11,4.88 11.11,11.32 0,6.33 -4.83,11.25 -10.4,11.25 -3.89,0 -5.99,-2.19 -6.99,-3.28 z"
             id="path1764" /><path
             style="fill:#000000;stroke-width:0"
             inkscape:connector-curvature="0"
             d="m 685.81,350.22 0.03,-0.18 0.02,-0.19 0.04,-0.19 0.04,-0.18 0.05,-0.19 0.06,-0.18 0.06,-0.18 0.07,-0.18 0.07,-0.18 0.08,-0.17 0.09,-0.17 0.09,-0.17 0.11,-0.16 0.1,-0.16 0.12,-0.15 0.12,-0.15 0.12,-0.14 0.13,-0.14 0.14,-0.13 0.15,-0.12 0.15,-0.11 0.15,-0.11 0.17,-0.1 0.16,-0.09 0.18,-0.08 0.18,-0.07 0.19,-0.06 0.19,-0.05 0.2,-0.04 0.21,-0.03 0.21,-0.02 0.21,-0.01 c 1.03,0 4.08,0.71 4.08,4.74 v 2.78 h -1.25 v -2.78 c 0,-2.89 -1.23,-3.19 -1.8,-3.19 -1.64,0 -1.84,2.24 -1.84,2.49 v 9.96 c 0,2.1 0,4.04 -1.78,5.88 -1.95,1.94 -4.44,2.73 -6.83,2.73 -4.09,0 -7.53,-2.32 -7.53,-5.62 0,-1.49 1,-2.34 2.3,-2.34 1.39,0 2.29,1 2.29,2.29 0,0.6 -0.25,2.24 -2.54,2.3 1.34,1.73 3.78,2.28 5.37,2.28 2.45,0 5.28,-1.94 5.28,-6.37 v -1.85 -1.05 -4.98 c 0,-4.73 -3.57,-6.42 -5.83,-6.42 -2.43,0 -4.48,1.75 -4.48,4.23 0,2.74 2.09,6.88 10.31,7.17 v 0 1.05 c -2.53,-0.14 -6.01,-0.3 -9.15,-1.8 -3.74,-1.68 -4.99,-4.28 -4.99,-6.46 0,-4.04 4.83,-5.29 7.97,-5.29 3.3,0 5.58,1.99 6.53,4.33 z"
             id="path1766" /><path
             style="fill:#000000;stroke-width:0"
             inkscape:connector-curvature="0"
             d="m 702.49,362.99 v 5.47 l -6.92,-0.55 v -1.55 c 3.48,0 3.89,-0.34 3.89,-2.78 v -13.36 c 0,-2.23 -0.55,-2.23 -3.89,-2.23 v -1.55 c 1.95,0.05 4.28,0.16 5.68,0.16 1.99,0 4.33,0 6.33,-0.16 v 1.55 h -1.05 c -3.68,0 -3.79,0.55 -3.79,2.34 V 358 c 0,4.93 2.09,9.36 5.89,9.36 0.34,0 0.44,0 0.55,-0.04 -0.16,-0.05 -1.16,-0.64 -1.16,-1.94 0,-1.41 1.05,-2.14 2.16,-2.14 0.89,0 2.14,0.59 2.14,2.19 0,1.59 -1.55,3.03 -3.69,3.03 -3.64,0 -5.44,-3.33 -6.14,-5.47 z"
             id="path1768" /><path
             style="fill:#000000;stroke-width:0"
             inkscape:connector-curvature="0"
             d="m 730.33,350.22 0.02,-0.18 0.03,-0.19 0.04,-0.19 0.04,-0.18 0.05,-0.19 0.05,-0.18 0.06,-0.18 0.07,-0.18 0.08,-0.18 0.08,-0.17 0.09,-0.17 0.09,-0.17 0.1,-0.16 0.11,-0.16 0.11,-0.15 0.12,-0.15 0.13,-0.14 0.13,-0.14 0.14,-0.13 0.14,-0.12 0.15,-0.11 0.16,-0.11 0.16,-0.1 0.17,-0.09 0.18,-0.08 0.18,-0.07 0.18,-0.06 0.2,-0.05 0.2,-0.04 0.2,-0.03 0.21,-0.02 0.22,-0.01 c 1.03,0 4.08,0.71 4.08,4.74 v 2.78 h -1.25 v -2.78 c 0,-2.89 -1.24,-3.19 -1.8,-3.19 -1.64,0 -1.84,2.24 -1.84,2.49 v 9.96 c 0,2.1 0,4.04 -1.79,5.88 -1.95,1.94 -4.43,2.73 -6.82,2.73 -4.1,0 -7.53,-2.32 -7.53,-5.62 0,-1.49 1,-2.34 2.29,-2.34 1.39,0 2.3,1 2.3,2.29 0,0.6 -0.25,2.24 -2.55,2.3 1.35,1.73 3.78,2.28 5.38,2.28 2.45,0 5.28,-1.94 5.28,-6.37 v -1.85 -1.05 -4.98 c 0,-4.73 -3.58,-6.42 -5.83,-6.42 -2.44,0 -4.48,1.75 -4.48,4.23 0,2.74 2.09,6.88 10.31,7.17 v 0 1.05 c -2.53,-0.14 -6.02,-0.3 -9.16,-1.8 -3.73,-1.68 -4.98,-4.28 -4.98,-6.46 0,-4.04 4.83,-5.29 7.97,-5.29 3.29,0 5.58,1.99 6.53,4.33 z"
             id="path1770" /><path
             style="fill:#000000;stroke-width:0"
             inkscape:connector-curvature="0"
             d="m 747.32,366.36 h 7.12 v 1.55 h -7.12 v 9.17 h -1.25 c -0.05,-4.08 -1.55,-9.42 -6.42,-9.61 v -1.11 h 4.23 v -13.75 c 0,-6.12 4.62,-6.72 6.42,-6.72 3.53,0 4.94,3.54 4.94,6.72 v 2.85 h -1.25 v -2.74 c 0,-3.68 -1.5,-5.58 -3.34,-5.58 -3.33,0 -3.33,4.54 -3.33,5.38 z"
             id="path1772" /><path
             style="fill:#000000;stroke-width:0"
             inkscape:connector-curvature="0"
             d="m 763.54,357.96 0.05,1.04 c 0.29,7.43 4.48,8.66 6.18,8.66 5.13,0 5.63,-6.72 5.63,-8.66 h -11.81 l -0.05,-1.04 h 13.91 c 1.09,0 1.23,0 1.23,1.04 0,4.93 -2.69,9.75 -8.91,9.75 -5.78,0 -10.37,-5.12 -10.37,-11.36 0,-6.67 5.23,-11.5 10.97,-11.5 6.08,0 8.31,5.54 8.31,6.47 0,0.5 -0.39,0.61 -0.64,0.61 -0.45,0 -0.55,-0.29 -0.66,-0.7 -1.73,-5.13 -6.22,-5.13 -6.72,-5.13 -2.5,0 -4.48,1.49 -5.62,3.33 -1.5,2.39 -1.5,5.69 -1.5,7.49 z"
             id="path1774" /><path
             style="fill:#000000;stroke-width:0"
             inkscape:connector-curvature="0"
             d="m 805.27,366.36 h 7.13 v 1.55 h -7.13 v 9.17 h -1.25 c -0.05,-4.08 -1.55,-9.42 -6.42,-9.61 v -1.11 h 4.23 v -13.75 c 0,-6.12 4.63,-6.72 6.42,-6.72 3.53,0 4.94,3.54 4.94,6.72 v 2.85 h -1.25 v -2.74 c 0,-3.68 -1.5,-5.58 -3.34,-5.58 -3.33,0 -3.33,4.54 -3.33,5.38 z"
             id="path1776" /><path
             style="fill:#000000;stroke-width:0"
             inkscape:connector-curvature="0"
             d="m 821.45,350.22 -0.01,-0.1 v -0.1 -0.19 l -0.01,-0.18 -0.02,-0.16 -0.01,-0.16 -0.03,-0.14 -0.03,-0.14 -0.03,-0.12 -0.04,-0.11 -0.05,-0.11 -0.06,-0.09 -0.06,-0.09 -0.08,-0.07 -0.08,-0.07 -0.09,-0.07 -0.1,-0.05 -0.11,-0.05 -0.11,-0.04 -0.13,-0.04 -0.15,-0.03 -0.15,-0.03 -0.16,-0.02 -0.18,-0.02 -0.09,-0.01 -0.1,-0.01 h -0.1 l -0.1,-0.01 h -0.11 l -0.1,-0.01 h -0.12 -0.11 l -0.12,-0.01 h -0.13 -0.13 -0.13 -0.13 -0.14 -0.14 -0.15 -0.15 -0.16 v -1.55 c 1.75,0.05 4.29,0.16 5.63,0.16 1.3,0 3.89,-0.11 5.58,-0.16 v 1.55 c -3.33,0 -3.88,0 -3.88,2.23 v 9.17 c 0,5.19 3.53,7.97 6.72,7.97 3.14,0 3.69,-2.68 3.69,-5.53 v -11.61 c 0,-2.23 -0.55,-2.23 -3.89,-2.23 v -1.55 c 1.75,0.05 4.3,0.16 5.64,0.16 1.3,0 3.87,-0.11 5.58,-0.16 v 1.55 c -2.6,0 -3.85,0 -3.89,1.5 V 359 c 0,4.29 0,5.83 -1.55,7.61 -0.69,0.86 -2.34,1.85 -5.22,1.85 -4.19,0 -6.39,-2.99 -7.23,-4.88 v 17.44 l -7.18,-0.55 v -1.54 c 3.49,0 3.9,-0.35 3.9,-2.8 z"
             id="path1778" /><path
             style="fill:#000000;stroke-width:0"
             inkscape:connector-curvature="0"
             d="m 849.21,357.96 0.05,1.04 c 0.29,7.43 4.48,8.66 6.19,8.66 5.12,0 5.62,-6.72 5.62,-8.66 h -11.81 l -0.05,-1.04 h 13.91 c 1.09,0 1.23,0 1.23,1.04 0,4.93 -2.69,9.75 -8.9,9.75 -5.79,0 -10.38,-5.12 -10.38,-11.36 0,-6.67 5.23,-11.5 10.97,-11.5 6.08,0 8.31,5.54 8.31,6.47 0,0.5 -0.39,0.61 -0.64,0.61 -0.45,0 -0.55,-0.29 -0.66,-0.7 -1.73,-5.13 -6.21,-5.13 -6.71,-5.13 -2.5,0 -4.49,1.49 -5.63,3.33 -1.5,2.39 -1.5,5.69 -1.5,7.49 z"
             id="path1780" /><path
             style="fill:#000000;stroke-width:0"
             inkscape:connector-curvature="0"
             d="m 901.38,349.18 v -3.29 l 7.31,0.55 v 1.55 c -3.49,0 -3.88,0.34 -3.88,2.78 v 30.25 l -7.17,-0.55 v -1.54 c 3.48,0 3.88,-0.35 3.88,-2.8 v -10.75 c -1.44,1.78 -3.58,3.08 -6.29,3.08 l 0.21,-1.1 c 1.75,0 3.84,-0.75 5.39,-2.98 0.55,-0.84 0.55,-0.95 0.55,-1.84 v 0 -10.22 c 0,-0.89 0,-1 -0.55,-1.85 -1.5,-2.39 -3.75,-3.48 -5.89,-3.48 -2.24,0 -4.03,1.3 -5.22,3.19 -1.3,2.04 -1.45,4.89 -1.45,6.92 0,1.84 0.09,4.84 1.54,7.08 1.05,1.54 2.94,3.18 5.63,3.18 l -0.21,1.1 c -5.87,0 -11.11,-4.88 -11.11,-11.3 0,-6.33 4.9,-11.27 10.57,-11.27 3.19,0 5.43,1.69 6.69,3.29 z"
             id="path1782" /><path
             style="fill:#000000;stroke-width:0"
             inkscape:connector-curvature="0"
             d="m 926.75,350.22 0.02,-0.18 0.03,-0.19 0.04,-0.19 0.04,-0.18 0.05,-0.19 0.05,-0.18 0.07,-0.18 0.06,-0.18 0.08,-0.18 0.08,-0.17 0.09,-0.17 0.09,-0.17 0.1,-0.16 0.11,-0.16 0.11,-0.15 0.12,-0.15 0.13,-0.14 0.13,-0.14 0.14,-0.13 0.14,-0.12 0.15,-0.11 0.16,-0.11 0.16,-0.1 0.17,-0.09 0.18,-0.08 0.18,-0.07 0.19,-0.06 0.19,-0.05 0.2,-0.04 0.2,-0.03 0.21,-0.02 0.22,-0.01 c 1.03,0 4.08,0.71 4.08,4.74 v 2.78 h -1.25 v -2.78 c 0,-2.89 -1.24,-3.19 -1.8,-3.19 -1.64,0 -1.84,2.24 -1.84,2.49 v 9.96 c 0,2.1 0,4.04 -1.78,5.88 -1.96,1.94 -4.44,2.73 -6.83,2.73 -4.1,0 -7.53,-2.32 -7.53,-5.62 0,-1.49 1,-2.34 2.29,-2.34 1.4,0 2.3,1 2.3,2.29 0,0.6 -0.25,2.24 -2.55,2.3 1.35,1.73 3.79,2.28 5.38,2.28 2.45,0 5.28,-1.94 5.28,-6.37 v -1.85 -1.05 -4.98 c 0,-4.73 -3.58,-6.42 -5.83,-6.42 -2.44,0 -4.48,1.75 -4.48,4.23 0,2.74 2.09,6.88 10.31,7.17 v 0 1.05 c -2.53,-0.14 -6.01,-0.3 -9.16,-1.8 -3.73,-1.68 -4.98,-4.28 -4.98,-6.46 0,-4.04 4.83,-5.29 7.97,-5.29 3.3,0 5.58,1.99 6.53,4.33 z"
             id="path1784" /><path
             style="fill:#000000;stroke-width:0"
             inkscape:connector-curvature="0"
             d="m 943.74,366.36 h 7.12 v 1.55 h -7.12 v 9.17 h -1.25 c -0.05,-4.08 -1.55,-9.42 -6.42,-9.61 v -1.11 h 4.23 v -13.75 c 0,-6.12 4.63,-6.72 6.42,-6.72 3.53,0 4.94,3.54 4.94,6.72 v 2.85 h -1.25 v -2.74 c 0,-3.68 -1.5,-5.58 -3.34,-5.58 -3.33,0 -3.33,4.54 -3.33,5.38 z"
             id="path1786" /><path
             style="fill:#000000;stroke-width:0"
             inkscape:connector-curvature="0"
             d="m 971.02,350.22 0.03,-0.18 0.02,-0.19 0.04,-0.19 0.04,-0.18 0.05,-0.19 0.06,-0.18 0.06,-0.18 0.07,-0.18 0.07,-0.18 0.08,-0.17 0.09,-0.17 0.1,-0.17 0.1,-0.16 0.1,-0.16 0.12,-0.15 0.12,-0.15 0.12,-0.14 0.13,-0.14 0.14,-0.13 0.15,-0.12 0.15,-0.11 0.15,-0.11 0.17,-0.1 0.17,-0.09 0.17,-0.08 0.18,-0.07 0.19,-0.06 0.19,-0.05 0.2,-0.04 0.21,-0.03 0.21,-0.02 0.21,-0.01 c 1.04,0 4.08,0.71 4.08,4.74 v 2.78 h -1.25 v -2.78 c 0,-2.89 -1.23,-3.19 -1.79,-3.19 -1.65,0 -1.85,2.24 -1.85,2.49 v 9.96 c 0,2.1 0,4.04 -1.78,5.88 -1.95,1.94 -4.44,2.73 -6.83,2.73 -4.09,0 -7.53,-2.32 -7.53,-5.62 0,-1.49 1,-2.34 2.3,-2.34 1.39,0 2.29,1 2.29,2.29 0,0.6 -0.25,2.24 -2.54,2.3 1.34,1.73 3.78,2.28 5.37,2.28 2.46,0 5.28,-1.94 5.28,-6.37 v -1.85 -1.05 -4.98 c 0,-4.73 -3.57,-6.42 -5.82,-6.42 -2.44,0 -4.49,1.75 -4.49,4.23 0,2.74 2.1,6.88 10.31,7.17 v 0 1.05 c -2.53,-0.14 -6.01,-0.3 -9.15,-1.8 -3.74,-1.68 -4.99,-4.28 -4.99,-6.46 0,-4.04 4.83,-5.29 7.97,-5.29 3.3,0 5.58,1.99 6.53,4.33 z"
             id="path1788" /><path
             style="fill:#000000;stroke-width:0"
             inkscape:connector-curvature="0"
             d="m 991.09,358.85 0.01,0.58 0.04,0.56 0.07,0.55 0.09,0.54 0.11,0.51 0.14,0.5 0.15,0.49 0.17,0.47 0.19,0.46 0.21,0.44 0.21,0.42 0.23,0.41 0.25,0.4 0.25,0.38 0.25,0.36 0.27,0.35 0.27,0.34 0.27,0.32 0.28,0.31 0.27,0.29 0.28,0.28 0.27,0.26 0.27,0.25 0.27,0.24 0.26,0.22 0.25,0.21 0.24,0.19 0.23,0.18 0.21,0.17 0.21,0.16 0.19,0.14 0.17,0.13 c 1.34,1 2.43,2.79 2.43,4.87 0,2.89 -2.03,6.74 -9.45,6.74 -5.39,0 -8.47,-3.39 -8.47,-6.63 0,-1.7 1.14,-2.39 2.29,-2.39 1.4,0 2.29,1 2.29,2.28 0,2.25 -2.09,2.25 -2.79,2.25 1.54,2.64 4.43,3.39 6.53,3.39 5.43,0 5.43,-3.39 5.43,-5.33 0,-2.95 -0.79,-3.84 -1.7,-4.73 -3.28,-3.59 -4.38,-8.17 -4.38,-11.22 v -2.23 c 0,-0.91 0,-1.21 0.6,-1.21 0.64,0 0.64,0.46 0.64,1.35 z"
             id="path1790" /><path
             style="fill:#000000;stroke-width:0"
             inkscape:connector-curvature="0"
             d="m 993.09,349.08 v 0.14 l -0.01,0.13 -0.02,0.13 -0.02,0.13 -0.03,0.13 -0.04,0.12 -0.04,0.12 -0.05,0.12 -0.05,0.12 -0.06,0.11 -0.07,0.11 -0.07,0.11 -0.07,0.1 -0.08,0.1 -0.08,0.1 -0.09,0.09 -0.09,0.09 -0.1,0.08 -0.1,0.08 -0.1,0.08 -0.11,0.07 -0.11,0.06 -0.11,0.06 -0.12,0.05 -0.12,0.05 -0.12,0.04 -0.13,0.04 -0.12,0.03 -0.13,0.02 -0.13,0.02 -0.14,0.01 h -0.13 c -1.45,0 -2.64,-1.2 -2.64,-2.64 0,-1.44 1.19,-2.64 2.64,-2.64 1.44,0 2.64,1.2 2.64,2.64 z"
             id="path1792" /></g>      </g>
    </g>
  </g>
</svg>
